G04 #@! TF.GenerationSoftware,KiCad,Pcbnew,(5.1.6-0-10_14)*
G04 #@! TF.CreationDate,2020-06-29T16:32:02+02:00*
G04 #@! TF.ProjectId,excitation-pcb,65786369-7461-4746-996f-6e2d7063622e,rev?*
G04 #@! TF.SameCoordinates,Original*
G04 #@! TF.FileFunction,Legend,Bot*
G04 #@! TF.FilePolarity,Positive*
%FSLAX46Y46*%
G04 Gerber Fmt 4.6, Leading zero omitted, Abs format (unit mm)*
G04 Created by KiCad (PCBNEW (5.1.6-0-10_14)) date 2020-06-29 16:32:02*
%MOMM*%
%LPD*%
G01*
G04 APERTURE LIST*
%ADD10C,0.120000*%
%ADD11C,0.250000*%
%ADD12C,0.150000*%
%ADD13C,0.254000*%
G04 APERTURE END LIST*
D10*
X91374179Y-137310400D02*
X91048621Y-137310400D01*
X91374179Y-138330400D02*
X91048621Y-138330400D01*
D11*
X88424800Y-136126800D02*
G75*
G03*
X88424800Y-136126800I-125000J0D01*
G01*
D10*
X93012800Y-138698921D02*
X93012800Y-139024479D01*
X94032800Y-138698921D02*
X94032800Y-139024479D01*
X96250979Y-136704800D02*
X95925421Y-136704800D01*
X96250979Y-135684800D02*
X95925421Y-135684800D01*
D12*
X89168266Y-138761742D02*
X89215885Y-138809361D01*
X89358742Y-138856980D01*
X89453980Y-138856980D01*
X89596838Y-138809361D01*
X89692076Y-138714123D01*
X89739695Y-138618885D01*
X89787314Y-138428409D01*
X89787314Y-138285552D01*
X89739695Y-138095076D01*
X89692076Y-137999838D01*
X89596838Y-137904600D01*
X89453980Y-137856980D01*
X89358742Y-137856980D01*
X89215885Y-137904600D01*
X89168266Y-137952219D01*
X88215885Y-138856980D02*
X88787314Y-138856980D01*
X88501600Y-138856980D02*
X88501600Y-137856980D01*
X88596838Y-137999838D01*
X88692076Y-138095076D01*
X88787314Y-138142695D01*
D13*
X92439561Y-134201323D02*
X92439561Y-132931323D01*
X91109085Y-134080371D02*
X91169561Y-134140847D01*
X91350990Y-134201323D01*
X91471942Y-134201323D01*
X91653371Y-134140847D01*
X91774323Y-134019895D01*
X91834800Y-133898942D01*
X91895276Y-133657038D01*
X91895276Y-133475609D01*
X91834800Y-133233704D01*
X91774323Y-133112752D01*
X91653371Y-132991800D01*
X91471942Y-132931323D01*
X91350990Y-132931323D01*
X91169561Y-132991800D01*
X91109085Y-133052276D01*
X89899561Y-134201323D02*
X90625276Y-134201323D01*
X90262419Y-134201323D02*
X90262419Y-132931323D01*
X90383371Y-133112752D01*
X90504323Y-133233704D01*
X90625276Y-133294180D01*
D12*
X94076780Y-141133533D02*
X93600590Y-140800200D01*
X94076780Y-140562104D02*
X93076780Y-140562104D01*
X93076780Y-140943057D01*
X93124400Y-141038295D01*
X93172019Y-141085914D01*
X93267257Y-141133533D01*
X93410114Y-141133533D01*
X93505352Y-141085914D01*
X93552971Y-141038295D01*
X93600590Y-140943057D01*
X93600590Y-140562104D01*
X94076780Y-142085914D02*
X94076780Y-141514485D01*
X94076780Y-141800200D02*
X93076780Y-141800200D01*
X93219638Y-141704961D01*
X93314876Y-141609723D01*
X93362495Y-141514485D01*
X97778866Y-135377180D02*
X98112200Y-134900990D01*
X98350295Y-135377180D02*
X98350295Y-134377180D01*
X97969342Y-134377180D01*
X97874104Y-134424800D01*
X97826485Y-134472419D01*
X97778866Y-134567657D01*
X97778866Y-134710514D01*
X97826485Y-134805752D01*
X97874104Y-134853371D01*
X97969342Y-134900990D01*
X98350295Y-134900990D01*
X97397914Y-134472419D02*
X97350295Y-134424800D01*
X97255057Y-134377180D01*
X97016961Y-134377180D01*
X96921723Y-134424800D01*
X96874104Y-134472419D01*
X96826485Y-134567657D01*
X96826485Y-134662895D01*
X96874104Y-134805752D01*
X97445533Y-135377180D01*
X96826485Y-135377180D01*
M02*
