G04 #@! TF.GenerationSoftware,KiCad,Pcbnew,(5.1.6-0-10_14)*
G04 #@! TF.CreationDate,2020-06-29T16:32:02+02:00*
G04 #@! TF.ProjectId,excitation-pcb,65786369-7461-4746-996f-6e2d7063622e,rev?*
G04 #@! TF.SameCoordinates,Original*
G04 #@! TF.FileFunction,Paste,Bot*
G04 #@! TF.FilePolarity,Positive*
%FSLAX46Y46*%
G04 Gerber Fmt 4.6, Leading zero omitted, Abs format (unit mm)*
G04 Created by KiCad (PCBNEW (5.1.6-0-10_14)) date 2020-06-29 16:32:02*
%MOMM*%
%LPD*%
G01*
G04 APERTURE LIST*
%ADD10R,0.900000X0.300000*%
%ADD11R,0.300000X0.900000*%
%ADD12R,3.550000X3.550000*%
G04 APERTURE END LIST*
G36*
G01*
X92436400Y-137564150D02*
X92436400Y-138076650D01*
G75*
G02*
X92217650Y-138295400I-218750J0D01*
G01*
X91780150Y-138295400D01*
G75*
G02*
X91561400Y-138076650I0J218750D01*
G01*
X91561400Y-137564150D01*
G75*
G02*
X91780150Y-137345400I218750J0D01*
G01*
X92217650Y-137345400D01*
G75*
G02*
X92436400Y-137564150I0J-218750D01*
G01*
G37*
G36*
G01*
X90861400Y-137564150D02*
X90861400Y-138076650D01*
G75*
G02*
X90642650Y-138295400I-218750J0D01*
G01*
X90205150Y-138295400D01*
G75*
G02*
X89986400Y-138076650I0J218750D01*
G01*
X89986400Y-137564150D01*
G75*
G02*
X90205150Y-137345400I218750J0D01*
G01*
X90642650Y-137345400D01*
G75*
G02*
X90861400Y-137564150I0J-218750D01*
G01*
G37*
D10*
X88749800Y-135376800D03*
X88749800Y-134876800D03*
X88749800Y-134376800D03*
X88749800Y-133876800D03*
X88749800Y-133376800D03*
X88749800Y-132876800D03*
X88749800Y-132376800D03*
X88749800Y-131876800D03*
D11*
X89449800Y-131176800D03*
X89949800Y-131176800D03*
X90449800Y-131176800D03*
X90949800Y-131176800D03*
X91449800Y-131176800D03*
X91949800Y-131176800D03*
X92449800Y-131176800D03*
X92949800Y-131176800D03*
D10*
X93649800Y-131876800D03*
X93649800Y-132376800D03*
X93649800Y-132876800D03*
X93649800Y-133376800D03*
X93649800Y-133876800D03*
X93649800Y-134376800D03*
X93649800Y-134876800D03*
X93649800Y-135376800D03*
D11*
X92949800Y-136076800D03*
X92449800Y-136076800D03*
X91949800Y-136076800D03*
X91449800Y-136076800D03*
X90949800Y-136076800D03*
X90449800Y-136076800D03*
X89949800Y-136076800D03*
X89449800Y-136076800D03*
D12*
X91199800Y-133626800D03*
G36*
G01*
X93266550Y-137636700D02*
X93779050Y-137636700D01*
G75*
G02*
X93997800Y-137855450I0J-218750D01*
G01*
X93997800Y-138292950D01*
G75*
G02*
X93779050Y-138511700I-218750J0D01*
G01*
X93266550Y-138511700D01*
G75*
G02*
X93047800Y-138292950I0J218750D01*
G01*
X93047800Y-137855450D01*
G75*
G02*
X93266550Y-137636700I218750J0D01*
G01*
G37*
G36*
G01*
X93266550Y-139211700D02*
X93779050Y-139211700D01*
G75*
G02*
X93997800Y-139430450I0J-218750D01*
G01*
X93997800Y-139867950D01*
G75*
G02*
X93779050Y-140086700I-218750J0D01*
G01*
X93266550Y-140086700D01*
G75*
G02*
X93047800Y-139867950I0J218750D01*
G01*
X93047800Y-139430450D01*
G75*
G02*
X93266550Y-139211700I218750J0D01*
G01*
G37*
G36*
G01*
X95738200Y-135938550D02*
X95738200Y-136451050D01*
G75*
G02*
X95519450Y-136669800I-218750J0D01*
G01*
X95081950Y-136669800D01*
G75*
G02*
X94863200Y-136451050I0J218750D01*
G01*
X94863200Y-135938550D01*
G75*
G02*
X95081950Y-135719800I218750J0D01*
G01*
X95519450Y-135719800D01*
G75*
G02*
X95738200Y-135938550I0J-218750D01*
G01*
G37*
G36*
G01*
X97313200Y-135938550D02*
X97313200Y-136451050D01*
G75*
G02*
X97094450Y-136669800I-218750J0D01*
G01*
X96656950Y-136669800D01*
G75*
G02*
X96438200Y-136451050I0J218750D01*
G01*
X96438200Y-135938550D01*
G75*
G02*
X96656950Y-135719800I218750J0D01*
G01*
X97094450Y-135719800D01*
G75*
G02*
X97313200Y-135938550I0J-218750D01*
G01*
G37*
M02*
