M48
; DRILL file {KiCad (5.1.6-0-10_14)} date Monday, June 29, 2020 at 04:32:06 PM
; FORMAT={-:-/ absolute / metric / decimal}
; #@! TF.CreationDate,2020-06-29T16:32:06+02:00
; #@! TF.GenerationSoftware,Kicad,Pcbnew,(5.1.6-0-10_14)
; #@! TF.FileFunction,Plated,1,2,PTH
FMAT,2
METRIC
T1C0.400
T2C0.900
T3C1.000
%
G90
G05
T1
X82.169Y-66.523
X82.448Y-143.205
X82.601Y-75.463
X82.728Y-135.839
X82.804Y-139.725
X83.312Y-83.744
X83.642Y-68.91
X83.718Y-78.156
X83.82Y-95.047
X84.252Y-87.274
X84.607Y-135.103
X84.76Y-97.13
X85.166Y-81.788
X85.192Y-117.272
X85.242Y-72.288
X85.242Y-124.993
X85.293Y-90.881
X85.344Y-64.033
X85.369Y-106.68
X85.496Y-99.949
X85.674Y-139.7
X85.725Y-137.16
X85.776Y-142.291
X86.741Y-118.694
X86.817Y-109.601
X87.96Y-139.421
X88.087Y-142.189
X89.002Y-115.951
X89.941Y-127.051
X90.195Y-132.613
X90.246Y-134.569
X90.576Y-138.963
X90.703Y-129.743
X90.83Y-69.672
X90.957Y-77.826
X91.161Y-87.147
X91.161Y-125.247
X91.237Y-60.02
X91.237Y-107.34
X91.262Y-128.016
X91.288Y-119.888
X91.364Y-115.697
X91.703Y-129.733
X91.999Y-138.862
X92.151Y-132.613
X92.177Y-134.62
X93.078Y-142.316
X94.209Y-118.161
X94.361Y-108.864
X94.386Y-81.686
X94.412Y-90.348
X94.437Y-72.898
X94.691Y-100.406
X94.869Y-140.335
X95.936Y-97.257
X96.114Y-134.671
X96.901Y-137.668
X97.104Y-63.856
X97.79Y-133.782
X97.993Y-87.147
X98.095Y-107.34
X98.146Y-125.476
X98.146Y-140.716
X98.273Y-78.283
X98.374Y-69.012
X98.933Y-96.52
X99.416Y-89.205
X99.797Y-80.086
X100.076Y-71.603
X100.406Y-131.216
T2
X94.539Y-129.388
X97.079Y-129.388
X94.513Y-84.404
X97.053Y-84.404
X94.539Y-120.396
X97.079Y-120.396
X85.522Y-75.387
X88.062Y-75.387
X94.539Y-75.387
X97.079Y-75.387
X85.522Y-84.404
X88.062Y-84.404
X85.547Y-93.396
X88.087Y-93.396
X94.539Y-66.396
X97.079Y-66.396
X94.539Y-111.404
X97.079Y-111.404
X85.522Y-120.396
X88.062Y-120.396
X94.539Y-102.413
X97.079Y-102.413
X85.522Y-102.387
X88.062Y-102.387
X85.547Y-111.379
X88.087Y-111.379
X85.522Y-129.388
X88.062Y-129.388
X94.539Y-93.396
X97.079Y-93.396
X85.547Y-66.396
X88.087Y-66.396
T3
X84.506Y-144.932
X87.046Y-144.932
X89.586Y-144.932
X92.126Y-144.932
X94.666Y-144.932
X97.206Y-144.932
X99.746Y-144.932
X99.771Y-134.442
X99.771Y-136.982
X99.771Y-139.522
X99.771Y-142.062
T0
M30
