G04 #@! TF.GenerationSoftware,KiCad,Pcbnew,(5.1.6-0-10_14)*
G04 #@! TF.CreationDate,2020-06-29T16:32:02+02:00*
G04 #@! TF.ProjectId,excitation-pcb,65786369-7461-4746-996f-6e2d7063622e,rev?*
G04 #@! TF.SameCoordinates,Original*
G04 #@! TF.FileFunction,Copper,L2,Bot*
G04 #@! TF.FilePolarity,Positive*
%FSLAX46Y46*%
G04 Gerber Fmt 4.6, Leading zero omitted, Abs format (unit mm)*
G04 Created by KiCad (PCBNEW (5.1.6-0-10_14)) date 2020-06-29 16:32:02*
%MOMM*%
%LPD*%
G01*
G04 APERTURE LIST*
G04 #@! TA.AperFunction,ComponentPad*
%ADD10R,1.700000X1.700000*%
G04 #@! TD*
G04 #@! TA.AperFunction,ComponentPad*
%ADD11O,1.700000X1.700000*%
G04 #@! TD*
G04 #@! TA.AperFunction,ComponentPad*
%ADD12R,1.800000X1.800000*%
G04 #@! TD*
G04 #@! TA.AperFunction,ComponentPad*
%ADD13C,1.800000*%
G04 #@! TD*
G04 #@! TA.AperFunction,SMDPad,CuDef*
%ADD14R,0.900000X0.300000*%
G04 #@! TD*
G04 #@! TA.AperFunction,SMDPad,CuDef*
%ADD15R,0.300000X0.900000*%
G04 #@! TD*
G04 #@! TA.AperFunction,SMDPad,CuDef*
%ADD16R,3.550000X3.550000*%
G04 #@! TD*
G04 #@! TA.AperFunction,ViaPad*
%ADD17C,0.800000*%
G04 #@! TD*
G04 #@! TA.AperFunction,Conductor*
%ADD18C,0.250000*%
G04 #@! TD*
G04 #@! TA.AperFunction,Conductor*
%ADD19C,0.400000*%
G04 #@! TD*
G04 #@! TA.AperFunction,Conductor*
%ADD20C,0.254000*%
G04 #@! TD*
G04 APERTURE END LIST*
D10*
X84505800Y-144932400D03*
D11*
X87045800Y-144932400D03*
X89585800Y-144932400D03*
X92125800Y-144932400D03*
X94665800Y-144932400D03*
X97205800Y-144932400D03*
X99745800Y-144932400D03*
X99771200Y-142062200D03*
X99771200Y-139522200D03*
X99771200Y-136982200D03*
D10*
X99771200Y-134442200D03*
G04 #@! TA.AperFunction,SMDPad,CuDef*
G36*
G01*
X92436400Y-137564150D02*
X92436400Y-138076650D01*
G75*
G02*
X92217650Y-138295400I-218750J0D01*
G01*
X91780150Y-138295400D01*
G75*
G02*
X91561400Y-138076650I0J218750D01*
G01*
X91561400Y-137564150D01*
G75*
G02*
X91780150Y-137345400I218750J0D01*
G01*
X92217650Y-137345400D01*
G75*
G02*
X92436400Y-137564150I0J-218750D01*
G01*
G37*
G04 #@! TD.AperFunction*
G04 #@! TA.AperFunction,SMDPad,CuDef*
G36*
G01*
X90861400Y-137564150D02*
X90861400Y-138076650D01*
G75*
G02*
X90642650Y-138295400I-218750J0D01*
G01*
X90205150Y-138295400D01*
G75*
G02*
X89986400Y-138076650I0J218750D01*
G01*
X89986400Y-137564150D01*
G75*
G02*
X90205150Y-137345400I218750J0D01*
G01*
X90642650Y-137345400D01*
G75*
G02*
X90861400Y-137564150I0J-218750D01*
G01*
G37*
G04 #@! TD.AperFunction*
D12*
X85547200Y-66395600D03*
D13*
X88087200Y-66395600D03*
X88061800Y-75387200D03*
D12*
X85521800Y-75387200D03*
X85521800Y-84404200D03*
D13*
X88061800Y-84404200D03*
X88087200Y-93395800D03*
D12*
X85547200Y-93395800D03*
X85521800Y-102387400D03*
D13*
X88061800Y-102387400D03*
X88087200Y-111379000D03*
D12*
X85547200Y-111379000D03*
X85521800Y-120396000D03*
D13*
X88061800Y-120396000D03*
X88061800Y-129387600D03*
D12*
X85521800Y-129387600D03*
X94538800Y-129387600D03*
D13*
X97078800Y-129387600D03*
X97078800Y-120396000D03*
D12*
X94538800Y-120396000D03*
X94538800Y-111404400D03*
D13*
X97078800Y-111404400D03*
X97078800Y-102412800D03*
D12*
X94538800Y-102412800D03*
X94538800Y-93395800D03*
D13*
X97078800Y-93395800D03*
X97053400Y-84404200D03*
D12*
X94513400Y-84404200D03*
X94538800Y-75387200D03*
D13*
X97078800Y-75387200D03*
X97078800Y-66395600D03*
D12*
X94538800Y-66395600D03*
D14*
X88749800Y-135376800D03*
X88749800Y-134876800D03*
X88749800Y-134376800D03*
X88749800Y-133876800D03*
X88749800Y-133376800D03*
X88749800Y-132876800D03*
X88749800Y-132376800D03*
X88749800Y-131876800D03*
D15*
X89449800Y-131176800D03*
X89949800Y-131176800D03*
X90449800Y-131176800D03*
X90949800Y-131176800D03*
X91449800Y-131176800D03*
X91949800Y-131176800D03*
X92449800Y-131176800D03*
X92949800Y-131176800D03*
D14*
X93649800Y-131876800D03*
X93649800Y-132376800D03*
X93649800Y-132876800D03*
X93649800Y-133376800D03*
X93649800Y-133876800D03*
X93649800Y-134376800D03*
X93649800Y-134876800D03*
X93649800Y-135376800D03*
D15*
X92949800Y-136076800D03*
X92449800Y-136076800D03*
X91949800Y-136076800D03*
X91449800Y-136076800D03*
X90949800Y-136076800D03*
X90449800Y-136076800D03*
X89949800Y-136076800D03*
X89449800Y-136076800D03*
D16*
X91199800Y-133626800D03*
G04 #@! TA.AperFunction,SMDPad,CuDef*
G36*
G01*
X93266550Y-137636700D02*
X93779050Y-137636700D01*
G75*
G02*
X93997800Y-137855450I0J-218750D01*
G01*
X93997800Y-138292950D01*
G75*
G02*
X93779050Y-138511700I-218750J0D01*
G01*
X93266550Y-138511700D01*
G75*
G02*
X93047800Y-138292950I0J218750D01*
G01*
X93047800Y-137855450D01*
G75*
G02*
X93266550Y-137636700I218750J0D01*
G01*
G37*
G04 #@! TD.AperFunction*
G04 #@! TA.AperFunction,SMDPad,CuDef*
G36*
G01*
X93266550Y-139211700D02*
X93779050Y-139211700D01*
G75*
G02*
X93997800Y-139430450I0J-218750D01*
G01*
X93997800Y-139867950D01*
G75*
G02*
X93779050Y-140086700I-218750J0D01*
G01*
X93266550Y-140086700D01*
G75*
G02*
X93047800Y-139867950I0J218750D01*
G01*
X93047800Y-139430450D01*
G75*
G02*
X93266550Y-139211700I218750J0D01*
G01*
G37*
G04 #@! TD.AperFunction*
G04 #@! TA.AperFunction,SMDPad,CuDef*
G36*
G01*
X95738200Y-135938550D02*
X95738200Y-136451050D01*
G75*
G02*
X95519450Y-136669800I-218750J0D01*
G01*
X95081950Y-136669800D01*
G75*
G02*
X94863200Y-136451050I0J218750D01*
G01*
X94863200Y-135938550D01*
G75*
G02*
X95081950Y-135719800I218750J0D01*
G01*
X95519450Y-135719800D01*
G75*
G02*
X95738200Y-135938550I0J-218750D01*
G01*
G37*
G04 #@! TD.AperFunction*
G04 #@! TA.AperFunction,SMDPad,CuDef*
G36*
G01*
X97313200Y-135938550D02*
X97313200Y-136451050D01*
G75*
G02*
X97094450Y-136669800I-218750J0D01*
G01*
X96656950Y-136669800D01*
G75*
G02*
X96438200Y-136451050I0J218750D01*
G01*
X96438200Y-135938550D01*
G75*
G02*
X96656950Y-135719800I218750J0D01*
G01*
X97094450Y-135719800D01*
G75*
G02*
X97313200Y-135938550I0J-218750D01*
G01*
G37*
G04 #@! TD.AperFunction*
D17*
X91998800Y-138861800D03*
X92176600Y-134620000D03*
X90195400Y-132613400D03*
X92151200Y-132613400D03*
X90246200Y-134569200D03*
X98145600Y-140716000D03*
X94869000Y-140335000D03*
X93078300Y-142316200D03*
X90576400Y-138963400D03*
X88087200Y-142189200D03*
X87960200Y-139420600D03*
X85775800Y-142290800D03*
X85674200Y-139700000D03*
X85725000Y-137160000D03*
X82448400Y-143205200D03*
X82804000Y-139725400D03*
X82727800Y-135839200D03*
X84607400Y-135102600D03*
X96113600Y-134670800D03*
X100406200Y-131216400D03*
X97790000Y-133781800D03*
X96901000Y-137668000D03*
X86741000Y-118694200D03*
X86817200Y-109601000D03*
X85496400Y-99949000D03*
X85293200Y-90881200D03*
X85166200Y-81788000D03*
X85242400Y-72288400D03*
X85344000Y-64033400D03*
X97104200Y-63855600D03*
X94437200Y-72898000D03*
X94386400Y-81686400D03*
X94411800Y-90347800D03*
X94691200Y-100406200D03*
X94361000Y-108864400D03*
X94208600Y-118160800D03*
X91160600Y-125247400D03*
X91236800Y-107340400D03*
X91160600Y-87147400D03*
X90957400Y-77825600D03*
X90830400Y-69672200D03*
X91236800Y-60020200D03*
X91363800Y-115697000D03*
X91287600Y-119888000D03*
X99796600Y-80086200D03*
X99415600Y-89204800D03*
X98933000Y-96520000D03*
X83820000Y-95046800D03*
X83312000Y-83743800D03*
X82600800Y-75463400D03*
X100076000Y-71602600D03*
X82169000Y-66522600D03*
X89001600Y-115951000D03*
X85369400Y-106680000D03*
X95935800Y-97256600D03*
X84759800Y-97129600D03*
X84251800Y-87274400D03*
X83718400Y-78155800D03*
X83642200Y-68910200D03*
X98374200Y-69011800D03*
X98272600Y-78282800D03*
X97993200Y-87147400D03*
X98094800Y-107340400D03*
X98145600Y-125476000D03*
X91262200Y-128016000D03*
X85242400Y-124993400D03*
X85191600Y-117271800D03*
X89941400Y-127050800D03*
X90703400Y-129743200D03*
X91703355Y-129732544D03*
D18*
X91949800Y-137771300D02*
X91998900Y-137820400D01*
X91949800Y-136076800D02*
X91949800Y-137771300D01*
X98983800Y-136194800D02*
X99771200Y-136982200D01*
X96875700Y-136194800D02*
X98983800Y-136194800D01*
X91998900Y-137820400D02*
X91998900Y-138861700D01*
X91998900Y-138861700D02*
X91998800Y-138861800D01*
X90449800Y-137794500D02*
X90423900Y-137820400D01*
X90449800Y-136076800D02*
X90449800Y-137794500D01*
X90449800Y-134376800D02*
X90449800Y-134376800D01*
X90449800Y-136076800D02*
X90449800Y-134772800D01*
X91188600Y-133626800D02*
X90646199Y-134169201D01*
X90646199Y-134169201D02*
X90246200Y-134569200D01*
X91199800Y-133626800D02*
X91188600Y-133626800D01*
X90449800Y-134772800D02*
X90246200Y-134569200D01*
X90423900Y-138810900D02*
X90576400Y-138963400D01*
X90423900Y-137820400D02*
X90423900Y-138810900D01*
X88749800Y-133876800D02*
X82518000Y-133876800D01*
X82518000Y-133876800D02*
X81788000Y-133146800D01*
D19*
X81765967Y-133124767D02*
X81788000Y-133146800D01*
X81765967Y-68876833D02*
X81765967Y-133124767D01*
X85547200Y-66395600D02*
X84247200Y-66395600D01*
X84247200Y-66395600D02*
X81765967Y-68876833D01*
X88061800Y-128114808D02*
X88061800Y-120396000D01*
X88061800Y-129387600D02*
X88061800Y-128114808D01*
X84221800Y-75387200D02*
X82365978Y-77243022D01*
X82365978Y-77243022D02*
X82365978Y-129355978D01*
X85521800Y-75387200D02*
X84221800Y-75387200D01*
X82365978Y-129355978D02*
X82365978Y-132784978D01*
X82365978Y-132784978D02*
X82905600Y-133324600D01*
X82905600Y-133324600D02*
X84378800Y-133324600D01*
D18*
X84431000Y-133376800D02*
X88749800Y-133376800D01*
X84378800Y-133324600D02*
X84431000Y-133376800D01*
D19*
X82965989Y-85660011D02*
X82965989Y-127847789D01*
X84221800Y-84404200D02*
X82965989Y-85660011D01*
X85521800Y-84404200D02*
X84221800Y-84404200D01*
X82965989Y-127847789D02*
X82965989Y-132368989D01*
X82965989Y-132368989D02*
X83286600Y-132689600D01*
X83286600Y-132689600D02*
X84353400Y-132689600D01*
D18*
X84742389Y-132876800D02*
X84555189Y-132689600D01*
X88749800Y-132876800D02*
X84742389Y-132876800D01*
X84555189Y-132689600D02*
X84353400Y-132689600D01*
D19*
X85547200Y-94695800D02*
X83565999Y-96677001D01*
X85547200Y-93395800D02*
X85547200Y-94695800D01*
X83565999Y-96677001D02*
X83565999Y-126415800D01*
X83565999Y-126415800D02*
X83565999Y-131749799D01*
X83565999Y-131749799D02*
X83870800Y-132054600D01*
D18*
X83980790Y-132164590D02*
X83870800Y-132054600D01*
X84878799Y-132376800D02*
X84666589Y-132164590D01*
X88749800Y-132376800D02*
X84878799Y-132376800D01*
X84666589Y-132164590D02*
X83980790Y-132164590D01*
D19*
X84221799Y-104987401D02*
X84221799Y-125445999D01*
X85521800Y-102387400D02*
X85521800Y-103687400D01*
X85521800Y-103687400D02*
X84221799Y-104987401D01*
X84221799Y-125445999D02*
X86766400Y-127990600D01*
D18*
X88049800Y-131876800D02*
X88749800Y-131876800D01*
X86766400Y-130593400D02*
X88049800Y-131876800D01*
X86766400Y-127990600D02*
X86766400Y-130593400D01*
X89449800Y-131176800D02*
X89449800Y-127632202D01*
X89204800Y-127387202D02*
X89204800Y-125476000D01*
X89449800Y-127632202D02*
X89204800Y-127387202D01*
D19*
X89204800Y-125476000D02*
X89662000Y-125018800D01*
X89662000Y-125018800D02*
X89662000Y-117983000D01*
X85547200Y-113868200D02*
X85547200Y-111379000D01*
X89662000Y-117983000D02*
X85547200Y-113868200D01*
D18*
X89949800Y-127059200D02*
X89941400Y-127050800D01*
X89949800Y-131176800D02*
X89949800Y-127059200D01*
X90449800Y-129996800D02*
X90703400Y-129743200D01*
X90449800Y-131176800D02*
X90449800Y-129996800D01*
X91949800Y-129978989D02*
X91703355Y-129732544D01*
X91949800Y-131176800D02*
X91949800Y-129978989D01*
X92449800Y-130476800D02*
X92456000Y-130470600D01*
X92449800Y-131176800D02*
X92449800Y-130476800D01*
X93388800Y-120396000D02*
X94538800Y-120396000D01*
X92449800Y-121335000D02*
X93388800Y-120396000D01*
X92449800Y-130476800D02*
X92449800Y-121335000D01*
X94538800Y-114401600D02*
X94538800Y-111404400D01*
X95763801Y-115626601D02*
X94538800Y-114401600D01*
X95763801Y-121556001D02*
X95763801Y-115626601D01*
X92949800Y-131176800D02*
X92949800Y-124370002D01*
X92949800Y-124370002D02*
X95763801Y-121556001D01*
X94349800Y-131876800D02*
X93649800Y-131876800D01*
X95853799Y-130372801D02*
X94349800Y-131876800D01*
X95853799Y-123576801D02*
X95853799Y-130372801D01*
X98303801Y-121126799D02*
X95853799Y-123576801D01*
X94538800Y-103562800D02*
X95834200Y-104858200D01*
X95834200Y-112547400D02*
X98303801Y-115017001D01*
X94538800Y-102412800D02*
X94538800Y-103562800D01*
X95834200Y-104858200D02*
X95834200Y-112547400D01*
X98303801Y-115017001D02*
X98303801Y-121126799D01*
X93649800Y-132376800D02*
X95891590Y-132376800D01*
X95891590Y-132376800D02*
X98679000Y-129589390D01*
D19*
X98605199Y-129258202D02*
X98605198Y-129557126D01*
X94538800Y-93395800D02*
X94538800Y-94695800D01*
X98605198Y-129557126D02*
X98523662Y-129638662D01*
X94538800Y-94695800D02*
X95982000Y-96139000D01*
X95982000Y-96139000D02*
X96875600Y-96139000D01*
X96875600Y-96139000D02*
X99009199Y-98272599D01*
X99009199Y-98272599D02*
X99009199Y-128854203D01*
X99009199Y-128854203D02*
X98605199Y-129258202D01*
D18*
X93649800Y-132876800D02*
X96028000Y-132876800D01*
X96028000Y-132876800D02*
X99205207Y-129699593D01*
D19*
X99205207Y-129699593D02*
X99205207Y-129506735D01*
X99205207Y-129506735D02*
X99609210Y-129102733D01*
X99609210Y-90800010D02*
X94513400Y-85704200D01*
X94513400Y-85704200D02*
X94513400Y-84404200D01*
X99609210Y-129102733D02*
X99609210Y-90800010D01*
X100209220Y-82357620D02*
X100209220Y-129381380D01*
X100209220Y-129381380D02*
X99923600Y-129667000D01*
X94538800Y-75387200D02*
X94538800Y-76687200D01*
X94538800Y-76687200D02*
X100209220Y-82357620D01*
D18*
X99898200Y-129749077D02*
X99898200Y-129692400D01*
X93649800Y-133376800D02*
X96270477Y-133376800D01*
X96270477Y-133376800D02*
X99898200Y-129749077D01*
X93649800Y-133876800D02*
X93649800Y-133901799D01*
D19*
X94538800Y-67695600D02*
X100809231Y-73966031D01*
X94538800Y-66395600D02*
X94538800Y-67695600D01*
X100809231Y-73966031D02*
X100809231Y-129104831D01*
X100809231Y-129104831D02*
X100809404Y-129105004D01*
D18*
X96456277Y-133876800D02*
X100787200Y-129545877D01*
X100787200Y-129545877D02*
X100787200Y-129082800D01*
X93649800Y-133876800D02*
X96456277Y-133876800D01*
X88735801Y-144082401D02*
X89585800Y-144932400D01*
X88735801Y-135790799D02*
X88735801Y-144082401D01*
X88749800Y-135776800D02*
X88735801Y-135790799D01*
X88749800Y-135376800D02*
X88749800Y-135776800D01*
X87045800Y-143730319D02*
X87045800Y-144932400D01*
X87045800Y-135305800D02*
X87045800Y-143730319D01*
X88749800Y-134876800D02*
X87474800Y-134876800D01*
X87474800Y-134876800D02*
X87045800Y-135305800D01*
X84505800Y-143832400D02*
X84505800Y-144932400D01*
X84505800Y-136880600D02*
X84505800Y-143832400D01*
X88749800Y-134376800D02*
X87009600Y-134376800D01*
X87009600Y-134376800D02*
X84505800Y-136880600D01*
X94349800Y-134376800D02*
X93649800Y-134376800D01*
X95300700Y-135327700D02*
X94349800Y-134376800D01*
X95300700Y-136194800D02*
X95300700Y-135327700D01*
X93649800Y-135776800D02*
X93649800Y-135376800D01*
X93649800Y-136140389D02*
X93649800Y-135776800D01*
X99745800Y-144932400D02*
X96850200Y-142036800D01*
X96850200Y-139340789D02*
X93649800Y-136140389D01*
X96850200Y-142036800D02*
X96850200Y-139340789D01*
X97205800Y-143730319D02*
X97205800Y-144932400D01*
X96291400Y-142815919D02*
X97205800Y-143730319D01*
X92949800Y-136076800D02*
X96291400Y-139418400D01*
X96291400Y-139418400D02*
X96291400Y-142815919D01*
X92449800Y-137001200D02*
X93522800Y-138074200D01*
X92449800Y-136076800D02*
X92449800Y-137001200D01*
X94665800Y-142290800D02*
X94665800Y-144932400D01*
X92020144Y-139645144D02*
X94665800Y-142290800D01*
X89949800Y-137050506D02*
X89661390Y-137338916D01*
X90013544Y-139645144D02*
X92020144Y-139645144D01*
X89949800Y-136076800D02*
X89949800Y-137050506D01*
X89661390Y-137338916D02*
X89661390Y-139292990D01*
X89661390Y-139292990D02*
X90013544Y-139645144D01*
X89211379Y-137015221D02*
X89211379Y-142017979D01*
X89449800Y-136076800D02*
X89449800Y-136776800D01*
X89211379Y-142017979D02*
X91275801Y-144082401D01*
X89449800Y-136776800D02*
X89211379Y-137015221D01*
X91275801Y-144082401D02*
X92125800Y-144932400D01*
D20*
G36*
X82145603Y-134214338D02*
G01*
X82161316Y-134233484D01*
X82237755Y-134296217D01*
X82324964Y-134342831D01*
X82419591Y-134371536D01*
X82493347Y-134378800D01*
X82493357Y-134378800D01*
X82518000Y-134381227D01*
X82542643Y-134378800D01*
X86297665Y-134378800D01*
X84168268Y-136508198D01*
X84149116Y-136523916D01*
X84086383Y-136600355D01*
X84039769Y-136687565D01*
X84011064Y-136782192D01*
X84003800Y-136855948D01*
X84003800Y-136855957D01*
X84001373Y-136880600D01*
X84003800Y-136905243D01*
X84003801Y-143703576D01*
X83655800Y-143703576D01*
X83581895Y-143710855D01*
X83510830Y-143732412D01*
X83445337Y-143767419D01*
X83387931Y-143814531D01*
X83340819Y-143871937D01*
X83305812Y-143937430D01*
X83284255Y-144008495D01*
X83276976Y-144082400D01*
X83276976Y-145782400D01*
X83284255Y-145856305D01*
X83305812Y-145927370D01*
X83316131Y-145946675D01*
X81741589Y-145946675D01*
X81741589Y-133810323D01*
X82145603Y-134214338D01*
G37*
X82145603Y-134214338D02*
X82161316Y-134233484D01*
X82237755Y-134296217D01*
X82324964Y-134342831D01*
X82419591Y-134371536D01*
X82493347Y-134378800D01*
X82493357Y-134378800D01*
X82518000Y-134381227D01*
X82542643Y-134378800D01*
X86297665Y-134378800D01*
X84168268Y-136508198D01*
X84149116Y-136523916D01*
X84086383Y-136600355D01*
X84039769Y-136687565D01*
X84011064Y-136782192D01*
X84003800Y-136855948D01*
X84003800Y-136855957D01*
X84001373Y-136880600D01*
X84003800Y-136905243D01*
X84003801Y-143703576D01*
X83655800Y-143703576D01*
X83581895Y-143710855D01*
X83510830Y-143732412D01*
X83445337Y-143767419D01*
X83387931Y-143814531D01*
X83340819Y-143871937D01*
X83305812Y-143937430D01*
X83284255Y-144008495D01*
X83276976Y-144082400D01*
X83276976Y-145782400D01*
X83284255Y-145856305D01*
X83305812Y-145927370D01*
X83316131Y-145946675D01*
X81741589Y-145946675D01*
X81741589Y-133810323D01*
X82145603Y-134214338D01*
G36*
X86543801Y-143705657D02*
G01*
X86543800Y-143705667D01*
X86543800Y-143812240D01*
X86464598Y-143845047D01*
X86263633Y-143979327D01*
X86092727Y-144150233D01*
X85958447Y-144351198D01*
X85865953Y-144574497D01*
X85818800Y-144811551D01*
X85818800Y-145053249D01*
X85865953Y-145290303D01*
X85958447Y-145513602D01*
X86092727Y-145714567D01*
X86263633Y-145885473D01*
X86355229Y-145946675D01*
X85695469Y-145946675D01*
X85705788Y-145927370D01*
X85727345Y-145856305D01*
X85734624Y-145782400D01*
X85734624Y-144082400D01*
X85727345Y-144008495D01*
X85705788Y-143937430D01*
X85670781Y-143871937D01*
X85623669Y-143814531D01*
X85566263Y-143767419D01*
X85500770Y-143732412D01*
X85429705Y-143710855D01*
X85355800Y-143703576D01*
X85007800Y-143703576D01*
X85007800Y-137088534D01*
X86543800Y-135552535D01*
X86543801Y-143705657D01*
G37*
X86543801Y-143705657D02*
X86543800Y-143705667D01*
X86543800Y-143812240D01*
X86464598Y-143845047D01*
X86263633Y-143979327D01*
X86092727Y-144150233D01*
X85958447Y-144351198D01*
X85865953Y-144574497D01*
X85818800Y-144811551D01*
X85818800Y-145053249D01*
X85865953Y-145290303D01*
X85958447Y-145513602D01*
X86092727Y-145714567D01*
X86263633Y-145885473D01*
X86355229Y-145946675D01*
X85695469Y-145946675D01*
X85705788Y-145927370D01*
X85727345Y-145856305D01*
X85734624Y-145782400D01*
X85734624Y-144082400D01*
X85727345Y-144008495D01*
X85705788Y-143937430D01*
X85670781Y-143871937D01*
X85623669Y-143814531D01*
X85566263Y-143767419D01*
X85500770Y-143732412D01*
X85429705Y-143710855D01*
X85355800Y-143703576D01*
X85007800Y-143703576D01*
X85007800Y-137088534D01*
X86543800Y-135552535D01*
X86543801Y-143705657D01*
G36*
X87920976Y-135526800D02*
G01*
X87928255Y-135600705D01*
X87949812Y-135671770D01*
X87984819Y-135737263D01*
X88031931Y-135794669D01*
X88089337Y-135841781D01*
X88154830Y-135876788D01*
X88225895Y-135898345D01*
X88233801Y-135899124D01*
X88233802Y-144057748D01*
X88231374Y-144082401D01*
X88241066Y-144180810D01*
X88269771Y-144275437D01*
X88316385Y-144362646D01*
X88363402Y-144419936D01*
X88363405Y-144419939D01*
X88379118Y-144439085D01*
X88398264Y-144454798D01*
X88438760Y-144495294D01*
X88405953Y-144574497D01*
X88358800Y-144811551D01*
X88358800Y-145053249D01*
X88405953Y-145290303D01*
X88498447Y-145513602D01*
X88632727Y-145714567D01*
X88803633Y-145885473D01*
X88895229Y-145946675D01*
X87736371Y-145946675D01*
X87827967Y-145885473D01*
X87998873Y-145714567D01*
X88133153Y-145513602D01*
X88225647Y-145290303D01*
X88272800Y-145053249D01*
X88272800Y-144811551D01*
X88225647Y-144574497D01*
X88133153Y-144351198D01*
X87998873Y-144150233D01*
X87827967Y-143979327D01*
X87627002Y-143845047D01*
X87547800Y-143812240D01*
X87547800Y-135513735D01*
X87682735Y-135378800D01*
X87920976Y-135378800D01*
X87920976Y-135526800D01*
G37*
X87920976Y-135526800D02*
X87928255Y-135600705D01*
X87949812Y-135671770D01*
X87984819Y-135737263D01*
X88031931Y-135794669D01*
X88089337Y-135841781D01*
X88154830Y-135876788D01*
X88225895Y-135898345D01*
X88233801Y-135899124D01*
X88233802Y-144057748D01*
X88231374Y-144082401D01*
X88241066Y-144180810D01*
X88269771Y-144275437D01*
X88316385Y-144362646D01*
X88363402Y-144419936D01*
X88363405Y-144419939D01*
X88379118Y-144439085D01*
X88398264Y-144454798D01*
X88438760Y-144495294D01*
X88405953Y-144574497D01*
X88358800Y-144811551D01*
X88358800Y-145053249D01*
X88405953Y-145290303D01*
X88498447Y-145513602D01*
X88632727Y-145714567D01*
X88803633Y-145885473D01*
X88895229Y-145946675D01*
X87736371Y-145946675D01*
X87827967Y-145885473D01*
X87998873Y-145714567D01*
X88133153Y-145513602D01*
X88225647Y-145290303D01*
X88272800Y-145053249D01*
X88272800Y-144811551D01*
X88225647Y-144574497D01*
X88133153Y-144351198D01*
X87998873Y-144150233D01*
X87827967Y-143979327D01*
X87627002Y-143845047D01*
X87547800Y-143812240D01*
X87547800Y-135513735D01*
X87682735Y-135378800D01*
X87920976Y-135378800D01*
X87920976Y-135526800D01*
G36*
X94163800Y-142498736D02*
G01*
X94163801Y-143812240D01*
X94084598Y-143845047D01*
X93883633Y-143979327D01*
X93712727Y-144150233D01*
X93578447Y-144351198D01*
X93485953Y-144574497D01*
X93438800Y-144811551D01*
X93438800Y-145053249D01*
X93485953Y-145290303D01*
X93578447Y-145513602D01*
X93712727Y-145714567D01*
X93883633Y-145885473D01*
X93975229Y-145946675D01*
X92816371Y-145946675D01*
X92907967Y-145885473D01*
X93078873Y-145714567D01*
X93213153Y-145513602D01*
X93305647Y-145290303D01*
X93352800Y-145053249D01*
X93352800Y-144811551D01*
X93305647Y-144574497D01*
X93213153Y-144351198D01*
X93078873Y-144150233D01*
X92907967Y-143979327D01*
X92707002Y-143845047D01*
X92483703Y-143752553D01*
X92246649Y-143705400D01*
X92004951Y-143705400D01*
X91767897Y-143752553D01*
X91688694Y-143785360D01*
X91648210Y-143744876D01*
X91648201Y-143744865D01*
X91165117Y-143261781D01*
X91468040Y-143261781D01*
X91823158Y-143191144D01*
X92157672Y-143052584D01*
X92458726Y-142851425D01*
X92714752Y-142595399D01*
X92915911Y-142294345D01*
X93054471Y-141959831D01*
X93125108Y-141604713D01*
X93125108Y-141460043D01*
X94163800Y-142498736D01*
G37*
X94163800Y-142498736D02*
X94163801Y-143812240D01*
X94084598Y-143845047D01*
X93883633Y-143979327D01*
X93712727Y-144150233D01*
X93578447Y-144351198D01*
X93485953Y-144574497D01*
X93438800Y-144811551D01*
X93438800Y-145053249D01*
X93485953Y-145290303D01*
X93578447Y-145513602D01*
X93712727Y-145714567D01*
X93883633Y-145885473D01*
X93975229Y-145946675D01*
X92816371Y-145946675D01*
X92907967Y-145885473D01*
X93078873Y-145714567D01*
X93213153Y-145513602D01*
X93305647Y-145290303D01*
X93352800Y-145053249D01*
X93352800Y-144811551D01*
X93305647Y-144574497D01*
X93213153Y-144351198D01*
X93078873Y-144150233D01*
X92907967Y-143979327D01*
X92707002Y-143845047D01*
X92483703Y-143752553D01*
X92246649Y-143705400D01*
X92004951Y-143705400D01*
X91767897Y-143752553D01*
X91688694Y-143785360D01*
X91648210Y-143744876D01*
X91648201Y-143744865D01*
X91165117Y-143261781D01*
X91468040Y-143261781D01*
X91823158Y-143191144D01*
X92157672Y-143052584D01*
X92458726Y-142851425D01*
X92714752Y-142595399D01*
X92915911Y-142294345D01*
X93054471Y-141959831D01*
X93125108Y-141604713D01*
X93125108Y-141460043D01*
X94163800Y-142498736D01*
G36*
X95789400Y-139626335D02*
G01*
X95789401Y-142791266D01*
X95786973Y-142815919D01*
X95796665Y-142914328D01*
X95825370Y-143008955D01*
X95871984Y-143096164D01*
X95919001Y-143153454D01*
X95919004Y-143153457D01*
X95934717Y-143172603D01*
X95953863Y-143188316D01*
X96616203Y-143850656D01*
X96423633Y-143979327D01*
X96252727Y-144150233D01*
X96118447Y-144351198D01*
X96025953Y-144574497D01*
X95978800Y-144811551D01*
X95978800Y-145053249D01*
X96025953Y-145290303D01*
X96118447Y-145513602D01*
X96252727Y-145714567D01*
X96423633Y-145885473D01*
X96515229Y-145946675D01*
X95356371Y-145946675D01*
X95447967Y-145885473D01*
X95618873Y-145714567D01*
X95753153Y-145513602D01*
X95845647Y-145290303D01*
X95892800Y-145053249D01*
X95892800Y-144811551D01*
X95845647Y-144574497D01*
X95753153Y-144351198D01*
X95618873Y-144150233D01*
X95447967Y-143979327D01*
X95247002Y-143845047D01*
X95167800Y-143812240D01*
X95167800Y-142315445D01*
X95170227Y-142290800D01*
X95167800Y-142266154D01*
X95167800Y-142266147D01*
X95160536Y-142192391D01*
X95137481Y-142116388D01*
X95131831Y-142097763D01*
X95085217Y-142010554D01*
X95038200Y-141953264D01*
X95038192Y-141953256D01*
X95022484Y-141934116D01*
X95003343Y-141918407D01*
X93649802Y-140564867D01*
X93649802Y-140562952D01*
X93808550Y-140721700D01*
X93997800Y-140724772D01*
X94122282Y-140712512D01*
X94241980Y-140676202D01*
X94352294Y-140617237D01*
X94448985Y-140537885D01*
X94528337Y-140441194D01*
X94587302Y-140330880D01*
X94623612Y-140211182D01*
X94635872Y-140086700D01*
X94632800Y-139934950D01*
X94474050Y-139776200D01*
X93649800Y-139776200D01*
X93649800Y-139796200D01*
X93395800Y-139796200D01*
X93395800Y-139776200D01*
X93375800Y-139776200D01*
X93375800Y-139522200D01*
X93395800Y-139522200D01*
X93395800Y-139502200D01*
X93649800Y-139502200D01*
X93649800Y-139522200D01*
X94474050Y-139522200D01*
X94632800Y-139363450D01*
X94635872Y-139211700D01*
X94623612Y-139087218D01*
X94587302Y-138967520D01*
X94528337Y-138857206D01*
X94448985Y-138760515D01*
X94352294Y-138681163D01*
X94267134Y-138635643D01*
X94275915Y-138624944D01*
X94331136Y-138521632D01*
X94365142Y-138409531D01*
X94376624Y-138292950D01*
X94376624Y-138213559D01*
X95789400Y-139626335D01*
G37*
X95789400Y-139626335D02*
X95789401Y-142791266D01*
X95786973Y-142815919D01*
X95796665Y-142914328D01*
X95825370Y-143008955D01*
X95871984Y-143096164D01*
X95919001Y-143153454D01*
X95919004Y-143153457D01*
X95934717Y-143172603D01*
X95953863Y-143188316D01*
X96616203Y-143850656D01*
X96423633Y-143979327D01*
X96252727Y-144150233D01*
X96118447Y-144351198D01*
X96025953Y-144574497D01*
X95978800Y-144811551D01*
X95978800Y-145053249D01*
X96025953Y-145290303D01*
X96118447Y-145513602D01*
X96252727Y-145714567D01*
X96423633Y-145885473D01*
X96515229Y-145946675D01*
X95356371Y-145946675D01*
X95447967Y-145885473D01*
X95618873Y-145714567D01*
X95753153Y-145513602D01*
X95845647Y-145290303D01*
X95892800Y-145053249D01*
X95892800Y-144811551D01*
X95845647Y-144574497D01*
X95753153Y-144351198D01*
X95618873Y-144150233D01*
X95447967Y-143979327D01*
X95247002Y-143845047D01*
X95167800Y-143812240D01*
X95167800Y-142315445D01*
X95170227Y-142290800D01*
X95167800Y-142266154D01*
X95167800Y-142266147D01*
X95160536Y-142192391D01*
X95137481Y-142116388D01*
X95131831Y-142097763D01*
X95085217Y-142010554D01*
X95038200Y-141953264D01*
X95038192Y-141953256D01*
X95022484Y-141934116D01*
X95003343Y-141918407D01*
X93649802Y-140564867D01*
X93649802Y-140562952D01*
X93808550Y-140721700D01*
X93997800Y-140724772D01*
X94122282Y-140712512D01*
X94241980Y-140676202D01*
X94352294Y-140617237D01*
X94448985Y-140537885D01*
X94528337Y-140441194D01*
X94587302Y-140330880D01*
X94623612Y-140211182D01*
X94635872Y-140086700D01*
X94632800Y-139934950D01*
X94474050Y-139776200D01*
X93649800Y-139776200D01*
X93649800Y-139796200D01*
X93395800Y-139796200D01*
X93395800Y-139776200D01*
X93375800Y-139776200D01*
X93375800Y-139522200D01*
X93395800Y-139522200D01*
X93395800Y-139502200D01*
X93649800Y-139502200D01*
X93649800Y-139522200D01*
X94474050Y-139522200D01*
X94632800Y-139363450D01*
X94635872Y-139211700D01*
X94623612Y-139087218D01*
X94587302Y-138967520D01*
X94528337Y-138857206D01*
X94448985Y-138760515D01*
X94352294Y-138681163D01*
X94267134Y-138635643D01*
X94275915Y-138624944D01*
X94331136Y-138521632D01*
X94365142Y-138409531D01*
X94376624Y-138292950D01*
X94376624Y-138213559D01*
X95789400Y-139626335D01*
G36*
X96104864Y-136679732D02*
G01*
X96160085Y-136783044D01*
X96234401Y-136873599D01*
X96324956Y-136947915D01*
X96428268Y-137003136D01*
X96540369Y-137037142D01*
X96656950Y-137048624D01*
X97094450Y-137048624D01*
X97211031Y-137037142D01*
X97323132Y-137003136D01*
X97426444Y-136947915D01*
X97516999Y-136873599D01*
X97591315Y-136783044D01*
X97637413Y-136696800D01*
X98576931Y-136696800D01*
X98544200Y-136861351D01*
X98544200Y-137103049D01*
X98591353Y-137340103D01*
X98683847Y-137563402D01*
X98818127Y-137764367D01*
X98989033Y-137935273D01*
X99189998Y-138069553D01*
X99307998Y-138118431D01*
X99139948Y-138178043D01*
X98889845Y-138327022D01*
X98673612Y-138521931D01*
X98499559Y-138755280D01*
X98374375Y-139018101D01*
X98329724Y-139165310D01*
X98451045Y-139395200D01*
X99644200Y-139395200D01*
X99644200Y-139375200D01*
X99898200Y-139375200D01*
X99898200Y-139395200D01*
X99918200Y-139395200D01*
X99918200Y-139649200D01*
X99898200Y-139649200D01*
X99898200Y-141935200D01*
X99918200Y-141935200D01*
X99918200Y-142189200D01*
X99898200Y-142189200D01*
X99898200Y-143383014D01*
X100128091Y-143503681D01*
X100402452Y-143406357D01*
X100652555Y-143257378D01*
X100832414Y-143095256D01*
X100832414Y-144350092D01*
X100698873Y-144150233D01*
X100527967Y-143979327D01*
X100327002Y-143845047D01*
X100103703Y-143752553D01*
X99866649Y-143705400D01*
X99624951Y-143705400D01*
X99387897Y-143752553D01*
X99308695Y-143785360D01*
X97942425Y-142419090D01*
X98329724Y-142419090D01*
X98374375Y-142566299D01*
X98499559Y-142829120D01*
X98673612Y-143062469D01*
X98889845Y-143257378D01*
X99139948Y-143406357D01*
X99414309Y-143503681D01*
X99644200Y-143383014D01*
X99644200Y-142189200D01*
X98451045Y-142189200D01*
X98329724Y-142419090D01*
X97942425Y-142419090D01*
X97352200Y-141828866D01*
X97352200Y-139879090D01*
X98329724Y-139879090D01*
X98374375Y-140026299D01*
X98499559Y-140289120D01*
X98673612Y-140522469D01*
X98889845Y-140717378D01*
X99015455Y-140792200D01*
X98889845Y-140867022D01*
X98673612Y-141061931D01*
X98499559Y-141295280D01*
X98374375Y-141558101D01*
X98329724Y-141705310D01*
X98451045Y-141935200D01*
X99644200Y-141935200D01*
X99644200Y-139649200D01*
X98451045Y-139649200D01*
X98329724Y-139879090D01*
X97352200Y-139879090D01*
X97352200Y-139365431D01*
X97354627Y-139340788D01*
X97352200Y-139316145D01*
X97352200Y-139316136D01*
X97344936Y-139242380D01*
X97316231Y-139147753D01*
X97269617Y-139060544D01*
X97253939Y-139041441D01*
X97222599Y-139003253D01*
X97222597Y-139003251D01*
X97206884Y-138984105D01*
X97187738Y-138968392D01*
X95267969Y-137048624D01*
X95519450Y-137048624D01*
X95636031Y-137037142D01*
X95748132Y-137003136D01*
X95851444Y-136947915D01*
X95941999Y-136873599D01*
X96016315Y-136783044D01*
X96071536Y-136679732D01*
X96088200Y-136624799D01*
X96104864Y-136679732D01*
G37*
X96104864Y-136679732D02*
X96160085Y-136783044D01*
X96234401Y-136873599D01*
X96324956Y-136947915D01*
X96428268Y-137003136D01*
X96540369Y-137037142D01*
X96656950Y-137048624D01*
X97094450Y-137048624D01*
X97211031Y-137037142D01*
X97323132Y-137003136D01*
X97426444Y-136947915D01*
X97516999Y-136873599D01*
X97591315Y-136783044D01*
X97637413Y-136696800D01*
X98576931Y-136696800D01*
X98544200Y-136861351D01*
X98544200Y-137103049D01*
X98591353Y-137340103D01*
X98683847Y-137563402D01*
X98818127Y-137764367D01*
X98989033Y-137935273D01*
X99189998Y-138069553D01*
X99307998Y-138118431D01*
X99139948Y-138178043D01*
X98889845Y-138327022D01*
X98673612Y-138521931D01*
X98499559Y-138755280D01*
X98374375Y-139018101D01*
X98329724Y-139165310D01*
X98451045Y-139395200D01*
X99644200Y-139395200D01*
X99644200Y-139375200D01*
X99898200Y-139375200D01*
X99898200Y-139395200D01*
X99918200Y-139395200D01*
X99918200Y-139649200D01*
X99898200Y-139649200D01*
X99898200Y-141935200D01*
X99918200Y-141935200D01*
X99918200Y-142189200D01*
X99898200Y-142189200D01*
X99898200Y-143383014D01*
X100128091Y-143503681D01*
X100402452Y-143406357D01*
X100652555Y-143257378D01*
X100832414Y-143095256D01*
X100832414Y-144350092D01*
X100698873Y-144150233D01*
X100527967Y-143979327D01*
X100327002Y-143845047D01*
X100103703Y-143752553D01*
X99866649Y-143705400D01*
X99624951Y-143705400D01*
X99387897Y-143752553D01*
X99308695Y-143785360D01*
X97942425Y-142419090D01*
X98329724Y-142419090D01*
X98374375Y-142566299D01*
X98499559Y-142829120D01*
X98673612Y-143062469D01*
X98889845Y-143257378D01*
X99139948Y-143406357D01*
X99414309Y-143503681D01*
X99644200Y-143383014D01*
X99644200Y-142189200D01*
X98451045Y-142189200D01*
X98329724Y-142419090D01*
X97942425Y-142419090D01*
X97352200Y-141828866D01*
X97352200Y-139879090D01*
X98329724Y-139879090D01*
X98374375Y-140026299D01*
X98499559Y-140289120D01*
X98673612Y-140522469D01*
X98889845Y-140717378D01*
X99015455Y-140792200D01*
X98889845Y-140867022D01*
X98673612Y-141061931D01*
X98499559Y-141295280D01*
X98374375Y-141558101D01*
X98329724Y-141705310D01*
X98451045Y-141935200D01*
X99644200Y-141935200D01*
X99644200Y-139649200D01*
X98451045Y-139649200D01*
X98329724Y-139879090D01*
X97352200Y-139879090D01*
X97352200Y-139365431D01*
X97354627Y-139340788D01*
X97352200Y-139316145D01*
X97352200Y-139316136D01*
X97344936Y-139242380D01*
X97316231Y-139147753D01*
X97269617Y-139060544D01*
X97253939Y-139041441D01*
X97222599Y-139003253D01*
X97222597Y-139003251D01*
X97206884Y-138984105D01*
X97187738Y-138968392D01*
X95267969Y-137048624D01*
X95519450Y-137048624D01*
X95636031Y-137037142D01*
X95748132Y-137003136D01*
X95851444Y-136947915D01*
X95941999Y-136873599D01*
X96016315Y-136783044D01*
X96071536Y-136679732D01*
X96088200Y-136624799D01*
X96104864Y-136679732D01*
G36*
X90550900Y-137693400D02*
G01*
X90570900Y-137693400D01*
X90570900Y-137947400D01*
X90550900Y-137947400D01*
X90550900Y-138771650D01*
X90709650Y-138930400D01*
X90861400Y-138933472D01*
X90985882Y-138921212D01*
X91105580Y-138884902D01*
X91215894Y-138825937D01*
X91221800Y-138821090D01*
X91221800Y-138938328D01*
X91251659Y-139088443D01*
X91274317Y-139143144D01*
X90221479Y-139143144D01*
X90163390Y-139085056D01*
X90163390Y-138905160D01*
X90296900Y-138771650D01*
X90296900Y-137947400D01*
X90276900Y-137947400D01*
X90276900Y-137693400D01*
X90296900Y-137693400D01*
X90296900Y-137673400D01*
X90550900Y-137673400D01*
X90550900Y-137693400D01*
G37*
X90550900Y-137693400D02*
X90570900Y-137693400D01*
X90570900Y-137947400D01*
X90550900Y-137947400D01*
X90550900Y-138771650D01*
X90709650Y-138930400D01*
X90861400Y-138933472D01*
X90985882Y-138921212D01*
X91105580Y-138884902D01*
X91215894Y-138825937D01*
X91221800Y-138821090D01*
X91221800Y-138938328D01*
X91251659Y-139088443D01*
X91274317Y-139143144D01*
X90221479Y-139143144D01*
X90163390Y-139085056D01*
X90163390Y-138905160D01*
X90296900Y-138771650D01*
X90296900Y-137947400D01*
X90276900Y-137947400D01*
X90276900Y-137693400D01*
X90296900Y-137693400D01*
X90296900Y-137673400D01*
X90550900Y-137673400D01*
X90550900Y-137693400D01*
G36*
X100832414Y-133277835D02*
G01*
X100831663Y-133277219D01*
X100766170Y-133242212D01*
X100695105Y-133220655D01*
X100621200Y-133213376D01*
X98921200Y-133213376D01*
X98847295Y-133220655D01*
X98776230Y-133242212D01*
X98710737Y-133277219D01*
X98653331Y-133324331D01*
X98606219Y-133381737D01*
X98571212Y-133447230D01*
X98549655Y-133518295D01*
X98542376Y-133592200D01*
X98542376Y-135292200D01*
X98549655Y-135366105D01*
X98571212Y-135437170D01*
X98606219Y-135502663D01*
X98653331Y-135560069D01*
X98710737Y-135607181D01*
X98776230Y-135642188D01*
X98847295Y-135663745D01*
X98921200Y-135671024D01*
X100621200Y-135671024D01*
X100695105Y-135663745D01*
X100766170Y-135642188D01*
X100831663Y-135607181D01*
X100832414Y-135606565D01*
X100832414Y-136361878D01*
X100724273Y-136200033D01*
X100553367Y-136029127D01*
X100352402Y-135894847D01*
X100129103Y-135802353D01*
X99892049Y-135755200D01*
X99650351Y-135755200D01*
X99413297Y-135802353D01*
X99335947Y-135834393D01*
X99264045Y-135775383D01*
X99176836Y-135728769D01*
X99082209Y-135700064D01*
X99008453Y-135692800D01*
X99008443Y-135692800D01*
X98983800Y-135690373D01*
X98959157Y-135692800D01*
X97637413Y-135692800D01*
X97591315Y-135606556D01*
X97516999Y-135516001D01*
X97426444Y-135441685D01*
X97323132Y-135386464D01*
X97211031Y-135352458D01*
X97094450Y-135340976D01*
X96656950Y-135340976D01*
X96540369Y-135352458D01*
X96428268Y-135386464D01*
X96324956Y-135441685D01*
X96234401Y-135516001D01*
X96160085Y-135606556D01*
X96104864Y-135709868D01*
X96088200Y-135764801D01*
X96071536Y-135709868D01*
X96016315Y-135606556D01*
X95941999Y-135516001D01*
X95851444Y-135441685D01*
X95802700Y-135415631D01*
X95802700Y-135352343D01*
X95805127Y-135327700D01*
X95802700Y-135303057D01*
X95802700Y-135303047D01*
X95795436Y-135229291D01*
X95766731Y-135134664D01*
X95738491Y-135081830D01*
X95720117Y-135047454D01*
X95673100Y-134990164D01*
X95673092Y-134990156D01*
X95657384Y-134971016D01*
X95638243Y-134955307D01*
X95061735Y-134378800D01*
X96431634Y-134378800D01*
X96456277Y-134381227D01*
X96480920Y-134378800D01*
X96480930Y-134378800D01*
X96554686Y-134371536D01*
X96649313Y-134342831D01*
X96736522Y-134296217D01*
X96812961Y-134233484D01*
X96828679Y-134214332D01*
X100832414Y-130210598D01*
X100832414Y-133277835D01*
G37*
X100832414Y-133277835D02*
X100831663Y-133277219D01*
X100766170Y-133242212D01*
X100695105Y-133220655D01*
X100621200Y-133213376D01*
X98921200Y-133213376D01*
X98847295Y-133220655D01*
X98776230Y-133242212D01*
X98710737Y-133277219D01*
X98653331Y-133324331D01*
X98606219Y-133381737D01*
X98571212Y-133447230D01*
X98549655Y-133518295D01*
X98542376Y-133592200D01*
X98542376Y-135292200D01*
X98549655Y-135366105D01*
X98571212Y-135437170D01*
X98606219Y-135502663D01*
X98653331Y-135560069D01*
X98710737Y-135607181D01*
X98776230Y-135642188D01*
X98847295Y-135663745D01*
X98921200Y-135671024D01*
X100621200Y-135671024D01*
X100695105Y-135663745D01*
X100766170Y-135642188D01*
X100831663Y-135607181D01*
X100832414Y-135606565D01*
X100832414Y-136361878D01*
X100724273Y-136200033D01*
X100553367Y-136029127D01*
X100352402Y-135894847D01*
X100129103Y-135802353D01*
X99892049Y-135755200D01*
X99650351Y-135755200D01*
X99413297Y-135802353D01*
X99335947Y-135834393D01*
X99264045Y-135775383D01*
X99176836Y-135728769D01*
X99082209Y-135700064D01*
X99008453Y-135692800D01*
X99008443Y-135692800D01*
X98983800Y-135690373D01*
X98959157Y-135692800D01*
X97637413Y-135692800D01*
X97591315Y-135606556D01*
X97516999Y-135516001D01*
X97426444Y-135441685D01*
X97323132Y-135386464D01*
X97211031Y-135352458D01*
X97094450Y-135340976D01*
X96656950Y-135340976D01*
X96540369Y-135352458D01*
X96428268Y-135386464D01*
X96324956Y-135441685D01*
X96234401Y-135516001D01*
X96160085Y-135606556D01*
X96104864Y-135709868D01*
X96088200Y-135764801D01*
X96071536Y-135709868D01*
X96016315Y-135606556D01*
X95941999Y-135516001D01*
X95851444Y-135441685D01*
X95802700Y-135415631D01*
X95802700Y-135352343D01*
X95805127Y-135327700D01*
X95802700Y-135303057D01*
X95802700Y-135303047D01*
X95795436Y-135229291D01*
X95766731Y-135134664D01*
X95738491Y-135081830D01*
X95720117Y-135047454D01*
X95673100Y-134990164D01*
X95673092Y-134990156D01*
X95657384Y-134971016D01*
X95638243Y-134955307D01*
X95061735Y-134378800D01*
X96431634Y-134378800D01*
X96456277Y-134381227D01*
X96480920Y-134378800D01*
X96480930Y-134378800D01*
X96554686Y-134371536D01*
X96649313Y-134342831D01*
X96736522Y-134296217D01*
X96812961Y-134233484D01*
X96828679Y-134214332D01*
X100832414Y-130210598D01*
X100832414Y-133277835D01*
G36*
X91326800Y-133499800D02*
G01*
X91346800Y-133499800D01*
X91346800Y-133753800D01*
X91326800Y-133753800D01*
X91326800Y-133773800D01*
X91072800Y-133773800D01*
X91072800Y-133753800D01*
X91052800Y-133753800D01*
X91052800Y-133499800D01*
X91072800Y-133499800D01*
X91072800Y-133479800D01*
X91326800Y-133479800D01*
X91326800Y-133499800D01*
G37*
X91326800Y-133499800D02*
X91346800Y-133499800D01*
X91346800Y-133753800D01*
X91326800Y-133753800D01*
X91326800Y-133773800D01*
X91072800Y-133773800D01*
X91072800Y-133753800D01*
X91052800Y-133753800D01*
X91052800Y-133499800D01*
X91072800Y-133499800D01*
X91072800Y-133479800D01*
X91326800Y-133479800D01*
X91326800Y-133499800D01*
G36*
X100832415Y-73173214D02*
G01*
X95333625Y-67674424D01*
X95438800Y-67674424D01*
X95512705Y-67667145D01*
X95583770Y-67645588D01*
X95649263Y-67610581D01*
X95706669Y-67563469D01*
X95753781Y-67506063D01*
X95788788Y-67440570D01*
X95810345Y-67369505D01*
X95817624Y-67295600D01*
X95817624Y-66600927D01*
X95850874Y-66768087D01*
X95947137Y-67000486D01*
X96086889Y-67209640D01*
X96264760Y-67387511D01*
X96473914Y-67527263D01*
X96706313Y-67623526D01*
X96953026Y-67672600D01*
X97204574Y-67672600D01*
X97451287Y-67623526D01*
X97683686Y-67527263D01*
X97892840Y-67387511D01*
X98070711Y-67209640D01*
X98210463Y-67000486D01*
X98306726Y-66768087D01*
X98355800Y-66521374D01*
X98355800Y-66269826D01*
X98306726Y-66023113D01*
X98210463Y-65790714D01*
X98070711Y-65581560D01*
X97892840Y-65403689D01*
X97683686Y-65263937D01*
X97451287Y-65167674D01*
X97204574Y-65118600D01*
X96953026Y-65118600D01*
X96706313Y-65167674D01*
X96473914Y-65263937D01*
X96264760Y-65403689D01*
X96086889Y-65581560D01*
X95947137Y-65790714D01*
X95850874Y-66023113D01*
X95817624Y-66190273D01*
X95817624Y-65495600D01*
X95810345Y-65421695D01*
X95788788Y-65350630D01*
X95753781Y-65285137D01*
X95706669Y-65227731D01*
X95649263Y-65180619D01*
X95583770Y-65145612D01*
X95512705Y-65124055D01*
X95438800Y-65116776D01*
X93638800Y-65116776D01*
X93564895Y-65124055D01*
X93493830Y-65145612D01*
X93428337Y-65180619D01*
X93370931Y-65227731D01*
X93323819Y-65285137D01*
X93288812Y-65350630D01*
X93267255Y-65421695D01*
X93259976Y-65495600D01*
X93259976Y-67295600D01*
X93267255Y-67369505D01*
X93288812Y-67440570D01*
X93323819Y-67506063D01*
X93370931Y-67563469D01*
X93428337Y-67610581D01*
X93493830Y-67645588D01*
X93564895Y-67667145D01*
X93638800Y-67674424D01*
X93961095Y-67674424D01*
X93959010Y-67695600D01*
X93970149Y-67808711D01*
X94003144Y-67917476D01*
X94056722Y-68017715D01*
X94087640Y-68055388D01*
X94110763Y-68083564D01*
X94110766Y-68083567D01*
X94128827Y-68105574D01*
X94150834Y-68123635D01*
X100232231Y-74205032D01*
X100232231Y-81564630D01*
X95333625Y-76666024D01*
X95438800Y-76666024D01*
X95512705Y-76658745D01*
X95583770Y-76637188D01*
X95649263Y-76602181D01*
X95706669Y-76555069D01*
X95753781Y-76497663D01*
X95788788Y-76432170D01*
X95810345Y-76361105D01*
X95817624Y-76287200D01*
X95817624Y-75592527D01*
X95850874Y-75759687D01*
X95947137Y-75992086D01*
X96086889Y-76201240D01*
X96264760Y-76379111D01*
X96473914Y-76518863D01*
X96706313Y-76615126D01*
X96953026Y-76664200D01*
X97204574Y-76664200D01*
X97451287Y-76615126D01*
X97683686Y-76518863D01*
X97892840Y-76379111D01*
X98070711Y-76201240D01*
X98210463Y-75992086D01*
X98306726Y-75759687D01*
X98355800Y-75512974D01*
X98355800Y-75261426D01*
X98306726Y-75014713D01*
X98210463Y-74782314D01*
X98070711Y-74573160D01*
X97892840Y-74395289D01*
X97683686Y-74255537D01*
X97451287Y-74159274D01*
X97204574Y-74110200D01*
X96953026Y-74110200D01*
X96706313Y-74159274D01*
X96473914Y-74255537D01*
X96264760Y-74395289D01*
X96086889Y-74573160D01*
X95947137Y-74782314D01*
X95850874Y-75014713D01*
X95817624Y-75181873D01*
X95817624Y-74487200D01*
X95810345Y-74413295D01*
X95788788Y-74342230D01*
X95753781Y-74276737D01*
X95706669Y-74219331D01*
X95649263Y-74172219D01*
X95583770Y-74137212D01*
X95512705Y-74115655D01*
X95438800Y-74108376D01*
X93638800Y-74108376D01*
X93564895Y-74115655D01*
X93493830Y-74137212D01*
X93428337Y-74172219D01*
X93370931Y-74219331D01*
X93323819Y-74276737D01*
X93288812Y-74342230D01*
X93267255Y-74413295D01*
X93259976Y-74487200D01*
X93259976Y-76287200D01*
X93267255Y-76361105D01*
X93288812Y-76432170D01*
X93323819Y-76497663D01*
X93370931Y-76555069D01*
X93428337Y-76602181D01*
X93493830Y-76637188D01*
X93564895Y-76658745D01*
X93638800Y-76666024D01*
X93961095Y-76666024D01*
X93959010Y-76687200D01*
X93970149Y-76800311D01*
X94003144Y-76909076D01*
X94056722Y-77009315D01*
X94087640Y-77046988D01*
X94110763Y-77075164D01*
X94110766Y-77075167D01*
X94128827Y-77097174D01*
X94150834Y-77115235D01*
X99632220Y-82596621D01*
X99632220Y-90007019D01*
X95308225Y-85683024D01*
X95413400Y-85683024D01*
X95487305Y-85675745D01*
X95558370Y-85654188D01*
X95623863Y-85619181D01*
X95681269Y-85572069D01*
X95728381Y-85514663D01*
X95763388Y-85449170D01*
X95784945Y-85378105D01*
X95792224Y-85304200D01*
X95792224Y-84609527D01*
X95825474Y-84776687D01*
X95921737Y-85009086D01*
X96061489Y-85218240D01*
X96239360Y-85396111D01*
X96448514Y-85535863D01*
X96680913Y-85632126D01*
X96927626Y-85681200D01*
X97179174Y-85681200D01*
X97425887Y-85632126D01*
X97658286Y-85535863D01*
X97867440Y-85396111D01*
X98045311Y-85218240D01*
X98185063Y-85009086D01*
X98281326Y-84776687D01*
X98330400Y-84529974D01*
X98330400Y-84278426D01*
X98281326Y-84031713D01*
X98185063Y-83799314D01*
X98045311Y-83590160D01*
X97867440Y-83412289D01*
X97658286Y-83272537D01*
X97425887Y-83176274D01*
X97179174Y-83127200D01*
X96927626Y-83127200D01*
X96680913Y-83176274D01*
X96448514Y-83272537D01*
X96239360Y-83412289D01*
X96061489Y-83590160D01*
X95921737Y-83799314D01*
X95825474Y-84031713D01*
X95792224Y-84198873D01*
X95792224Y-83504200D01*
X95784945Y-83430295D01*
X95763388Y-83359230D01*
X95728381Y-83293737D01*
X95681269Y-83236331D01*
X95623863Y-83189219D01*
X95558370Y-83154212D01*
X95487305Y-83132655D01*
X95413400Y-83125376D01*
X93613400Y-83125376D01*
X93539495Y-83132655D01*
X93468430Y-83154212D01*
X93402937Y-83189219D01*
X93345531Y-83236331D01*
X93298419Y-83293737D01*
X93263412Y-83359230D01*
X93241855Y-83430295D01*
X93234576Y-83504200D01*
X93234576Y-85304200D01*
X93241855Y-85378105D01*
X93263412Y-85449170D01*
X93298419Y-85514663D01*
X93345531Y-85572069D01*
X93402937Y-85619181D01*
X93468430Y-85654188D01*
X93539495Y-85675745D01*
X93613400Y-85683024D01*
X93935695Y-85683024D01*
X93933610Y-85704200D01*
X93944749Y-85817311D01*
X93964196Y-85881417D01*
X93977743Y-85926075D01*
X94031321Y-86026314D01*
X94103426Y-86114174D01*
X94125438Y-86132239D01*
X99032211Y-91039012D01*
X99032211Y-97479610D01*
X97303639Y-95751038D01*
X97285574Y-95729026D01*
X97197715Y-95656921D01*
X97097476Y-95603343D01*
X97033370Y-95583897D01*
X96988711Y-95570349D01*
X96933645Y-95564926D01*
X96903936Y-95562000D01*
X96903931Y-95562000D01*
X96875600Y-95559210D01*
X96847269Y-95562000D01*
X96221002Y-95562000D01*
X95333625Y-94674624D01*
X95438800Y-94674624D01*
X95512705Y-94667345D01*
X95583770Y-94645788D01*
X95649263Y-94610781D01*
X95706669Y-94563669D01*
X95753781Y-94506263D01*
X95788788Y-94440770D01*
X95810345Y-94369705D01*
X95817624Y-94295800D01*
X95817624Y-93601127D01*
X95850874Y-93768287D01*
X95947137Y-94000686D01*
X96086889Y-94209840D01*
X96264760Y-94387711D01*
X96473914Y-94527463D01*
X96706313Y-94623726D01*
X96953026Y-94672800D01*
X97204574Y-94672800D01*
X97451287Y-94623726D01*
X97683686Y-94527463D01*
X97892840Y-94387711D01*
X98070711Y-94209840D01*
X98210463Y-94000686D01*
X98306726Y-93768287D01*
X98355800Y-93521574D01*
X98355800Y-93270026D01*
X98306726Y-93023313D01*
X98210463Y-92790914D01*
X98070711Y-92581760D01*
X97892840Y-92403889D01*
X97683686Y-92264137D01*
X97451287Y-92167874D01*
X97204574Y-92118800D01*
X96953026Y-92118800D01*
X96706313Y-92167874D01*
X96473914Y-92264137D01*
X96264760Y-92403889D01*
X96086889Y-92581760D01*
X95947137Y-92790914D01*
X95850874Y-93023313D01*
X95817624Y-93190473D01*
X95817624Y-92495800D01*
X95810345Y-92421895D01*
X95788788Y-92350830D01*
X95753781Y-92285337D01*
X95706669Y-92227931D01*
X95649263Y-92180819D01*
X95583770Y-92145812D01*
X95512705Y-92124255D01*
X95438800Y-92116976D01*
X93638800Y-92116976D01*
X93564895Y-92124255D01*
X93493830Y-92145812D01*
X93428337Y-92180819D01*
X93370931Y-92227931D01*
X93323819Y-92285337D01*
X93288812Y-92350830D01*
X93267255Y-92421895D01*
X93259976Y-92495800D01*
X93259976Y-94295800D01*
X93267255Y-94369705D01*
X93288812Y-94440770D01*
X93323819Y-94506263D01*
X93370931Y-94563669D01*
X93428337Y-94610781D01*
X93493830Y-94645788D01*
X93564895Y-94667345D01*
X93638800Y-94674624D01*
X93961095Y-94674624D01*
X93959010Y-94695800D01*
X93970149Y-94808911D01*
X94003144Y-94917676D01*
X94056722Y-95017915D01*
X94087640Y-95055588D01*
X94110763Y-95083764D01*
X94110764Y-95083765D01*
X94128827Y-95105774D01*
X94150833Y-95123834D01*
X95553965Y-96526967D01*
X95572026Y-96548974D01*
X95594033Y-96567035D01*
X95594035Y-96567037D01*
X95613980Y-96583405D01*
X95659885Y-96621079D01*
X95760124Y-96674657D01*
X95804782Y-96688204D01*
X95868888Y-96707651D01*
X95929971Y-96713666D01*
X95953664Y-96716000D01*
X95953668Y-96716000D01*
X95981999Y-96718790D01*
X96010330Y-96716000D01*
X96636599Y-96716000D01*
X98432199Y-98511600D01*
X98432200Y-114435465D01*
X96574434Y-112577700D01*
X96706313Y-112632326D01*
X96953026Y-112681400D01*
X97204574Y-112681400D01*
X97451287Y-112632326D01*
X97683686Y-112536063D01*
X97892840Y-112396311D01*
X98070711Y-112218440D01*
X98210463Y-112009286D01*
X98306726Y-111776887D01*
X98355800Y-111530174D01*
X98355800Y-111278626D01*
X98306726Y-111031913D01*
X98210463Y-110799514D01*
X98070711Y-110590360D01*
X97892840Y-110412489D01*
X97683686Y-110272737D01*
X97451287Y-110176474D01*
X97204574Y-110127400D01*
X96953026Y-110127400D01*
X96706313Y-110176474D01*
X96473914Y-110272737D01*
X96336200Y-110364754D01*
X96336200Y-104882842D01*
X96338627Y-104858199D01*
X96336200Y-104833556D01*
X96336200Y-104833547D01*
X96328936Y-104759791D01*
X96300231Y-104665164D01*
X96253617Y-104577955D01*
X96190884Y-104501516D01*
X96171738Y-104485803D01*
X95377558Y-103691624D01*
X95438800Y-103691624D01*
X95512705Y-103684345D01*
X95583770Y-103662788D01*
X95649263Y-103627781D01*
X95706669Y-103580669D01*
X95753781Y-103523263D01*
X95788788Y-103457770D01*
X95810345Y-103386705D01*
X95817624Y-103312800D01*
X95817624Y-102618127D01*
X95850874Y-102785287D01*
X95947137Y-103017686D01*
X96086889Y-103226840D01*
X96264760Y-103404711D01*
X96473914Y-103544463D01*
X96706313Y-103640726D01*
X96953026Y-103689800D01*
X97204574Y-103689800D01*
X97451287Y-103640726D01*
X97683686Y-103544463D01*
X97892840Y-103404711D01*
X98070711Y-103226840D01*
X98210463Y-103017686D01*
X98306726Y-102785287D01*
X98355800Y-102538574D01*
X98355800Y-102287026D01*
X98306726Y-102040313D01*
X98210463Y-101807914D01*
X98070711Y-101598760D01*
X97892840Y-101420889D01*
X97683686Y-101281137D01*
X97451287Y-101184874D01*
X97204574Y-101135800D01*
X96953026Y-101135800D01*
X96706313Y-101184874D01*
X96473914Y-101281137D01*
X96264760Y-101420889D01*
X96086889Y-101598760D01*
X95947137Y-101807914D01*
X95850874Y-102040313D01*
X95817624Y-102207473D01*
X95817624Y-101512800D01*
X95810345Y-101438895D01*
X95788788Y-101367830D01*
X95753781Y-101302337D01*
X95706669Y-101244931D01*
X95649263Y-101197819D01*
X95583770Y-101162812D01*
X95512705Y-101141255D01*
X95438800Y-101133976D01*
X93638800Y-101133976D01*
X93564895Y-101141255D01*
X93493830Y-101162812D01*
X93428337Y-101197819D01*
X93370931Y-101244931D01*
X93323819Y-101302337D01*
X93288812Y-101367830D01*
X93267255Y-101438895D01*
X93259976Y-101512800D01*
X93259976Y-103312800D01*
X93267255Y-103386705D01*
X93288812Y-103457770D01*
X93323819Y-103523263D01*
X93370931Y-103580669D01*
X93428337Y-103627781D01*
X93493830Y-103662788D01*
X93564895Y-103684345D01*
X93638800Y-103691624D01*
X94053291Y-103691624D01*
X94072770Y-103755836D01*
X94119384Y-103843045D01*
X94166401Y-103900335D01*
X94166404Y-103900338D01*
X94182117Y-103919484D01*
X94201263Y-103935197D01*
X95332200Y-105066135D01*
X95332201Y-110125576D01*
X93638800Y-110125576D01*
X93564895Y-110132855D01*
X93493830Y-110154412D01*
X93428337Y-110189419D01*
X93370931Y-110236531D01*
X93323819Y-110293937D01*
X93288812Y-110359430D01*
X93267255Y-110430495D01*
X93259976Y-110504400D01*
X93259976Y-112304400D01*
X93267255Y-112378305D01*
X93288812Y-112449370D01*
X93323819Y-112514863D01*
X93370931Y-112572269D01*
X93428337Y-112619381D01*
X93493830Y-112654388D01*
X93564895Y-112675945D01*
X93638800Y-112683224D01*
X94036801Y-112683224D01*
X94036800Y-114376957D01*
X94034373Y-114401600D01*
X94036800Y-114426243D01*
X94036800Y-114426252D01*
X94044064Y-114500008D01*
X94072769Y-114594635D01*
X94119383Y-114681845D01*
X94182116Y-114758284D01*
X94201267Y-114774001D01*
X95261802Y-115834537D01*
X95261801Y-119117176D01*
X93638800Y-119117176D01*
X93564895Y-119124455D01*
X93493830Y-119146012D01*
X93428337Y-119181019D01*
X93370931Y-119228131D01*
X93323819Y-119285537D01*
X93288812Y-119351030D01*
X93267255Y-119422095D01*
X93259976Y-119496000D01*
X93259976Y-119910490D01*
X93195763Y-119929969D01*
X93108554Y-119976583D01*
X93051265Y-120023600D01*
X93051262Y-120023603D01*
X93032116Y-120039316D01*
X93016403Y-120058462D01*
X92112263Y-120962603D01*
X92093117Y-120978316D01*
X92077404Y-120997462D01*
X92077401Y-120997465D01*
X92030384Y-121054755D01*
X91983770Y-121141964D01*
X91955065Y-121236591D01*
X91945373Y-121335000D01*
X91947801Y-121359653D01*
X91947800Y-128992777D01*
X91929998Y-128985403D01*
X91779883Y-128955544D01*
X91626827Y-128955544D01*
X91476712Y-128985403D01*
X91335307Y-129043975D01*
X91208046Y-129129008D01*
X91197918Y-129139136D01*
X91071448Y-129054631D01*
X90930043Y-128996059D01*
X90779928Y-128966200D01*
X90626872Y-128966200D01*
X90476757Y-128996059D01*
X90451800Y-129006397D01*
X90451800Y-127639245D01*
X90544936Y-127546109D01*
X90629969Y-127418848D01*
X90688541Y-127277443D01*
X90718400Y-127127328D01*
X90718400Y-126974272D01*
X90688541Y-126824157D01*
X90629969Y-126682752D01*
X90544936Y-126555491D01*
X90436709Y-126447264D01*
X90309448Y-126362231D01*
X90168043Y-126303659D01*
X90017928Y-126273800D01*
X89864872Y-126273800D01*
X89714757Y-126303659D01*
X89706800Y-126306955D01*
X89706800Y-125790001D01*
X90049963Y-125446838D01*
X90071974Y-125428774D01*
X90144079Y-125340915D01*
X90197657Y-125240676D01*
X90230650Y-125131912D01*
X90239000Y-125047136D01*
X90239000Y-125047130D01*
X90241790Y-125018801D01*
X90239000Y-124990472D01*
X90239000Y-118011331D01*
X90241790Y-117983000D01*
X90230651Y-117869888D01*
X90211204Y-117805782D01*
X90197657Y-117761124D01*
X90144079Y-117660885D01*
X90071974Y-117573026D01*
X90049967Y-117554965D01*
X86124200Y-113629199D01*
X86124200Y-112657824D01*
X86447200Y-112657824D01*
X86521105Y-112650545D01*
X86592170Y-112628988D01*
X86657663Y-112593981D01*
X86715069Y-112546869D01*
X86762181Y-112489463D01*
X86797188Y-112423970D01*
X86818745Y-112352905D01*
X86826024Y-112279000D01*
X86826024Y-111584327D01*
X86859274Y-111751487D01*
X86955537Y-111983886D01*
X87095289Y-112193040D01*
X87273160Y-112370911D01*
X87482314Y-112510663D01*
X87714713Y-112606926D01*
X87961426Y-112656000D01*
X88212974Y-112656000D01*
X88459687Y-112606926D01*
X88692086Y-112510663D01*
X88901240Y-112370911D01*
X89079111Y-112193040D01*
X89218863Y-111983886D01*
X89315126Y-111751487D01*
X89364200Y-111504774D01*
X89364200Y-111253226D01*
X89315126Y-111006513D01*
X89218863Y-110774114D01*
X89079111Y-110564960D01*
X88901240Y-110387089D01*
X88692086Y-110247337D01*
X88459687Y-110151074D01*
X88212974Y-110102000D01*
X87961426Y-110102000D01*
X87714713Y-110151074D01*
X87482314Y-110247337D01*
X87273160Y-110387089D01*
X87095289Y-110564960D01*
X86955537Y-110774114D01*
X86859274Y-111006513D01*
X86826024Y-111173673D01*
X86826024Y-110479000D01*
X86818745Y-110405095D01*
X86797188Y-110334030D01*
X86762181Y-110268537D01*
X86715069Y-110211131D01*
X86657663Y-110164019D01*
X86592170Y-110129012D01*
X86521105Y-110107455D01*
X86447200Y-110100176D01*
X84798799Y-110100176D01*
X84798799Y-105226402D01*
X85909767Y-104115435D01*
X85931774Y-104097374D01*
X86003879Y-104009515D01*
X86057457Y-103909276D01*
X86090450Y-103800512D01*
X86098800Y-103715736D01*
X86098800Y-103715730D01*
X86101590Y-103687401D01*
X86099504Y-103666224D01*
X86421800Y-103666224D01*
X86495705Y-103658945D01*
X86566770Y-103637388D01*
X86632263Y-103602381D01*
X86689669Y-103555269D01*
X86736781Y-103497863D01*
X86771788Y-103432370D01*
X86793345Y-103361305D01*
X86800624Y-103287400D01*
X86800624Y-102592727D01*
X86833874Y-102759887D01*
X86930137Y-102992286D01*
X87069889Y-103201440D01*
X87247760Y-103379311D01*
X87456914Y-103519063D01*
X87689313Y-103615326D01*
X87936026Y-103664400D01*
X88187574Y-103664400D01*
X88434287Y-103615326D01*
X88666686Y-103519063D01*
X88875840Y-103379311D01*
X89053711Y-103201440D01*
X89193463Y-102992286D01*
X89289726Y-102759887D01*
X89338800Y-102513174D01*
X89338800Y-102261626D01*
X89289726Y-102014913D01*
X89193463Y-101782514D01*
X89053711Y-101573360D01*
X88875840Y-101395489D01*
X88666686Y-101255737D01*
X88434287Y-101159474D01*
X88187574Y-101110400D01*
X87936026Y-101110400D01*
X87689313Y-101159474D01*
X87456914Y-101255737D01*
X87247760Y-101395489D01*
X87069889Y-101573360D01*
X86930137Y-101782514D01*
X86833874Y-102014913D01*
X86800624Y-102182073D01*
X86800624Y-101487400D01*
X86793345Y-101413495D01*
X86771788Y-101342430D01*
X86736781Y-101276937D01*
X86689669Y-101219531D01*
X86632263Y-101172419D01*
X86566770Y-101137412D01*
X86495705Y-101115855D01*
X86421800Y-101108576D01*
X84621800Y-101108576D01*
X84547895Y-101115855D01*
X84476830Y-101137412D01*
X84411337Y-101172419D01*
X84353931Y-101219531D01*
X84306819Y-101276937D01*
X84271812Y-101342430D01*
X84250255Y-101413495D01*
X84242976Y-101487400D01*
X84242976Y-103287400D01*
X84250255Y-103361305D01*
X84271812Y-103432370D01*
X84306819Y-103497863D01*
X84353931Y-103555269D01*
X84411337Y-103602381D01*
X84476830Y-103637388D01*
X84547895Y-103658945D01*
X84621800Y-103666224D01*
X84726974Y-103666224D01*
X84142999Y-104250200D01*
X84142999Y-97574234D01*
X87806841Y-97574234D01*
X87806841Y-98259766D01*
X87940582Y-98932126D01*
X88202923Y-99565474D01*
X88583784Y-100135473D01*
X89068529Y-100620218D01*
X89638528Y-101001079D01*
X90271876Y-101263420D01*
X90944236Y-101397161D01*
X91629768Y-101397161D01*
X92302128Y-101263420D01*
X92935476Y-101001079D01*
X93505475Y-100620218D01*
X93990220Y-100135473D01*
X94371081Y-99565474D01*
X94633422Y-98932126D01*
X94767163Y-98259766D01*
X94767163Y-97574234D01*
X94633422Y-96901874D01*
X94371081Y-96268526D01*
X93990220Y-95698527D01*
X93505475Y-95213782D01*
X92935476Y-94832921D01*
X92302128Y-94570580D01*
X91629768Y-94436839D01*
X90944236Y-94436839D01*
X90271876Y-94570580D01*
X89638528Y-94832921D01*
X89068529Y-95213782D01*
X88583784Y-95698527D01*
X88202923Y-96268526D01*
X87940582Y-96901874D01*
X87806841Y-97574234D01*
X84142999Y-97574234D01*
X84142999Y-96916002D01*
X85935162Y-95123839D01*
X85957174Y-95105774D01*
X86029279Y-95017915D01*
X86082857Y-94917676D01*
X86115850Y-94808912D01*
X86124200Y-94724136D01*
X86124200Y-94724130D01*
X86126990Y-94695801D01*
X86124904Y-94674624D01*
X86447200Y-94674624D01*
X86521105Y-94667345D01*
X86592170Y-94645788D01*
X86657663Y-94610781D01*
X86715069Y-94563669D01*
X86762181Y-94506263D01*
X86797188Y-94440770D01*
X86818745Y-94369705D01*
X86826024Y-94295800D01*
X86826024Y-93601127D01*
X86859274Y-93768287D01*
X86955537Y-94000686D01*
X87095289Y-94209840D01*
X87273160Y-94387711D01*
X87482314Y-94527463D01*
X87714713Y-94623726D01*
X87961426Y-94672800D01*
X88212974Y-94672800D01*
X88459687Y-94623726D01*
X88692086Y-94527463D01*
X88901240Y-94387711D01*
X89079111Y-94209840D01*
X89218863Y-94000686D01*
X89315126Y-93768287D01*
X89364200Y-93521574D01*
X89364200Y-93270026D01*
X89315126Y-93023313D01*
X89218863Y-92790914D01*
X89079111Y-92581760D01*
X88901240Y-92403889D01*
X88692086Y-92264137D01*
X88459687Y-92167874D01*
X88212974Y-92118800D01*
X87961426Y-92118800D01*
X87714713Y-92167874D01*
X87482314Y-92264137D01*
X87273160Y-92403889D01*
X87095289Y-92581760D01*
X86955537Y-92790914D01*
X86859274Y-93023313D01*
X86826024Y-93190473D01*
X86826024Y-92495800D01*
X86818745Y-92421895D01*
X86797188Y-92350830D01*
X86762181Y-92285337D01*
X86715069Y-92227931D01*
X86657663Y-92180819D01*
X86592170Y-92145812D01*
X86521105Y-92124255D01*
X86447200Y-92116976D01*
X84647200Y-92116976D01*
X84573295Y-92124255D01*
X84502230Y-92145812D01*
X84436737Y-92180819D01*
X84379331Y-92227931D01*
X84332219Y-92285337D01*
X84297212Y-92350830D01*
X84275655Y-92421895D01*
X84268376Y-92495800D01*
X84268376Y-94295800D01*
X84275655Y-94369705D01*
X84297212Y-94440770D01*
X84332219Y-94506263D01*
X84379331Y-94563669D01*
X84436737Y-94610781D01*
X84502230Y-94645788D01*
X84573295Y-94667345D01*
X84647200Y-94674624D01*
X84752375Y-94674624D01*
X83542989Y-95884010D01*
X83542989Y-85899012D01*
X84242976Y-85199025D01*
X84242976Y-85304200D01*
X84250255Y-85378105D01*
X84271812Y-85449170D01*
X84306819Y-85514663D01*
X84353931Y-85572069D01*
X84411337Y-85619181D01*
X84476830Y-85654188D01*
X84547895Y-85675745D01*
X84621800Y-85683024D01*
X86421800Y-85683024D01*
X86495705Y-85675745D01*
X86566770Y-85654188D01*
X86632263Y-85619181D01*
X86689669Y-85572069D01*
X86736781Y-85514663D01*
X86771788Y-85449170D01*
X86793345Y-85378105D01*
X86800624Y-85304200D01*
X86800624Y-84609527D01*
X86833874Y-84776687D01*
X86930137Y-85009086D01*
X87069889Y-85218240D01*
X87247760Y-85396111D01*
X87456914Y-85535863D01*
X87689313Y-85632126D01*
X87936026Y-85681200D01*
X88187574Y-85681200D01*
X88434287Y-85632126D01*
X88666686Y-85535863D01*
X88875840Y-85396111D01*
X89053711Y-85218240D01*
X89193463Y-85009086D01*
X89289726Y-84776687D01*
X89338800Y-84529974D01*
X89338800Y-84278426D01*
X89289726Y-84031713D01*
X89193463Y-83799314D01*
X89053711Y-83590160D01*
X88875840Y-83412289D01*
X88666686Y-83272537D01*
X88434287Y-83176274D01*
X88187574Y-83127200D01*
X87936026Y-83127200D01*
X87689313Y-83176274D01*
X87456914Y-83272537D01*
X87247760Y-83412289D01*
X87069889Y-83590160D01*
X86930137Y-83799314D01*
X86833874Y-84031713D01*
X86800624Y-84198873D01*
X86800624Y-83504200D01*
X86793345Y-83430295D01*
X86771788Y-83359230D01*
X86736781Y-83293737D01*
X86689669Y-83236331D01*
X86632263Y-83189219D01*
X86566770Y-83154212D01*
X86495705Y-83132655D01*
X86421800Y-83125376D01*
X84621800Y-83125376D01*
X84547895Y-83132655D01*
X84476830Y-83154212D01*
X84411337Y-83189219D01*
X84353931Y-83236331D01*
X84306819Y-83293737D01*
X84271812Y-83359230D01*
X84250255Y-83430295D01*
X84242976Y-83504200D01*
X84242976Y-83826495D01*
X84221800Y-83824410D01*
X84193469Y-83827200D01*
X84193464Y-83827200D01*
X84166686Y-83829837D01*
X84108688Y-83835549D01*
X84044582Y-83854996D01*
X83999924Y-83868543D01*
X83899685Y-83922121D01*
X83811826Y-83994226D01*
X83793761Y-84016238D01*
X82942978Y-84867021D01*
X82942978Y-77482023D01*
X84242976Y-76182025D01*
X84242976Y-76287200D01*
X84250255Y-76361105D01*
X84271812Y-76432170D01*
X84306819Y-76497663D01*
X84353931Y-76555069D01*
X84411337Y-76602181D01*
X84476830Y-76637188D01*
X84547895Y-76658745D01*
X84621800Y-76666024D01*
X86421800Y-76666024D01*
X86495705Y-76658745D01*
X86566770Y-76637188D01*
X86632263Y-76602181D01*
X86689669Y-76555069D01*
X86736781Y-76497663D01*
X86771788Y-76432170D01*
X86793345Y-76361105D01*
X86800624Y-76287200D01*
X86800624Y-75592527D01*
X86833874Y-75759687D01*
X86930137Y-75992086D01*
X87069889Y-76201240D01*
X87247760Y-76379111D01*
X87456914Y-76518863D01*
X87689313Y-76615126D01*
X87936026Y-76664200D01*
X88187574Y-76664200D01*
X88434287Y-76615126D01*
X88666686Y-76518863D01*
X88875840Y-76379111D01*
X89053711Y-76201240D01*
X89193463Y-75992086D01*
X89289726Y-75759687D01*
X89338800Y-75512974D01*
X89338800Y-75261426D01*
X89289726Y-75014713D01*
X89193463Y-74782314D01*
X89053711Y-74573160D01*
X88875840Y-74395289D01*
X88666686Y-74255537D01*
X88434287Y-74159274D01*
X88187574Y-74110200D01*
X87936026Y-74110200D01*
X87689313Y-74159274D01*
X87456914Y-74255537D01*
X87247760Y-74395289D01*
X87069889Y-74573160D01*
X86930137Y-74782314D01*
X86833874Y-75014713D01*
X86800624Y-75181873D01*
X86800624Y-74487200D01*
X86793345Y-74413295D01*
X86771788Y-74342230D01*
X86736781Y-74276737D01*
X86689669Y-74219331D01*
X86632263Y-74172219D01*
X86566770Y-74137212D01*
X86495705Y-74115655D01*
X86421800Y-74108376D01*
X84621800Y-74108376D01*
X84547895Y-74115655D01*
X84476830Y-74137212D01*
X84411337Y-74172219D01*
X84353931Y-74219331D01*
X84306819Y-74276737D01*
X84271812Y-74342230D01*
X84250255Y-74413295D01*
X84242976Y-74487200D01*
X84242976Y-74809495D01*
X84221800Y-74807409D01*
X84108688Y-74818549D01*
X84044582Y-74837996D01*
X83999924Y-74851543D01*
X83899685Y-74905121D01*
X83811826Y-74977226D01*
X83793761Y-74999238D01*
X82342967Y-76450032D01*
X82342967Y-69115834D01*
X84268376Y-67190425D01*
X84268376Y-67295600D01*
X84275655Y-67369505D01*
X84297212Y-67440570D01*
X84332219Y-67506063D01*
X84379331Y-67563469D01*
X84436737Y-67610581D01*
X84502230Y-67645588D01*
X84573295Y-67667145D01*
X84647200Y-67674424D01*
X86447200Y-67674424D01*
X86521105Y-67667145D01*
X86592170Y-67645588D01*
X86657663Y-67610581D01*
X86715069Y-67563469D01*
X86762181Y-67506063D01*
X86797188Y-67440570D01*
X86818745Y-67369505D01*
X86826024Y-67295600D01*
X86826024Y-66600927D01*
X86859274Y-66768087D01*
X86955537Y-67000486D01*
X87095289Y-67209640D01*
X87273160Y-67387511D01*
X87482314Y-67527263D01*
X87714713Y-67623526D01*
X87961426Y-67672600D01*
X88212974Y-67672600D01*
X88459687Y-67623526D01*
X88692086Y-67527263D01*
X88901240Y-67387511D01*
X89079111Y-67209640D01*
X89218863Y-67000486D01*
X89315126Y-66768087D01*
X89364200Y-66521374D01*
X89364200Y-66269826D01*
X89315126Y-66023113D01*
X89218863Y-65790714D01*
X89079111Y-65581560D01*
X88901240Y-65403689D01*
X88692086Y-65263937D01*
X88459687Y-65167674D01*
X88212974Y-65118600D01*
X87961426Y-65118600D01*
X87714713Y-65167674D01*
X87482314Y-65263937D01*
X87273160Y-65403689D01*
X87095289Y-65581560D01*
X86955537Y-65790714D01*
X86859274Y-66023113D01*
X86826024Y-66190273D01*
X86826024Y-65495600D01*
X86818745Y-65421695D01*
X86797188Y-65350630D01*
X86762181Y-65285137D01*
X86715069Y-65227731D01*
X86657663Y-65180619D01*
X86592170Y-65145612D01*
X86521105Y-65124055D01*
X86447200Y-65116776D01*
X84647200Y-65116776D01*
X84573295Y-65124055D01*
X84502230Y-65145612D01*
X84436737Y-65180619D01*
X84379331Y-65227731D01*
X84332219Y-65285137D01*
X84297212Y-65350630D01*
X84275655Y-65421695D01*
X84268376Y-65495600D01*
X84268376Y-65817896D01*
X84247199Y-65815810D01*
X84218870Y-65818600D01*
X84218864Y-65818600D01*
X84134088Y-65826950D01*
X84025324Y-65859943D01*
X83925085Y-65913521D01*
X83837226Y-65985626D01*
X83819161Y-66007638D01*
X81741589Y-68085210D01*
X81741589Y-54242637D01*
X89448896Y-54242637D01*
X89448896Y-54604713D01*
X89519533Y-54959831D01*
X89658093Y-55294345D01*
X89859252Y-55595399D01*
X90115278Y-55851425D01*
X90416332Y-56052584D01*
X90750846Y-56191144D01*
X91105964Y-56261781D01*
X91468040Y-56261781D01*
X91823158Y-56191144D01*
X92157672Y-56052584D01*
X92458726Y-55851425D01*
X92714752Y-55595399D01*
X92915911Y-55294345D01*
X93054471Y-54959831D01*
X93125108Y-54604713D01*
X93125108Y-54242637D01*
X93054471Y-53887519D01*
X92915911Y-53553005D01*
X92714752Y-53251951D01*
X92458726Y-52995925D01*
X92157672Y-52794766D01*
X91823158Y-52656206D01*
X91468040Y-52585569D01*
X91105964Y-52585569D01*
X90750846Y-52656206D01*
X90416332Y-52794766D01*
X90115278Y-52995925D01*
X89859252Y-53251951D01*
X89658093Y-53553005D01*
X89519533Y-53887519D01*
X89448896Y-54242637D01*
X81741589Y-54242637D01*
X81741589Y-49900675D01*
X100832415Y-49900675D01*
X100832415Y-73173214D01*
G37*
X100832415Y-73173214D02*
X95333625Y-67674424D01*
X95438800Y-67674424D01*
X95512705Y-67667145D01*
X95583770Y-67645588D01*
X95649263Y-67610581D01*
X95706669Y-67563469D01*
X95753781Y-67506063D01*
X95788788Y-67440570D01*
X95810345Y-67369505D01*
X95817624Y-67295600D01*
X95817624Y-66600927D01*
X95850874Y-66768087D01*
X95947137Y-67000486D01*
X96086889Y-67209640D01*
X96264760Y-67387511D01*
X96473914Y-67527263D01*
X96706313Y-67623526D01*
X96953026Y-67672600D01*
X97204574Y-67672600D01*
X97451287Y-67623526D01*
X97683686Y-67527263D01*
X97892840Y-67387511D01*
X98070711Y-67209640D01*
X98210463Y-67000486D01*
X98306726Y-66768087D01*
X98355800Y-66521374D01*
X98355800Y-66269826D01*
X98306726Y-66023113D01*
X98210463Y-65790714D01*
X98070711Y-65581560D01*
X97892840Y-65403689D01*
X97683686Y-65263937D01*
X97451287Y-65167674D01*
X97204574Y-65118600D01*
X96953026Y-65118600D01*
X96706313Y-65167674D01*
X96473914Y-65263937D01*
X96264760Y-65403689D01*
X96086889Y-65581560D01*
X95947137Y-65790714D01*
X95850874Y-66023113D01*
X95817624Y-66190273D01*
X95817624Y-65495600D01*
X95810345Y-65421695D01*
X95788788Y-65350630D01*
X95753781Y-65285137D01*
X95706669Y-65227731D01*
X95649263Y-65180619D01*
X95583770Y-65145612D01*
X95512705Y-65124055D01*
X95438800Y-65116776D01*
X93638800Y-65116776D01*
X93564895Y-65124055D01*
X93493830Y-65145612D01*
X93428337Y-65180619D01*
X93370931Y-65227731D01*
X93323819Y-65285137D01*
X93288812Y-65350630D01*
X93267255Y-65421695D01*
X93259976Y-65495600D01*
X93259976Y-67295600D01*
X93267255Y-67369505D01*
X93288812Y-67440570D01*
X93323819Y-67506063D01*
X93370931Y-67563469D01*
X93428337Y-67610581D01*
X93493830Y-67645588D01*
X93564895Y-67667145D01*
X93638800Y-67674424D01*
X93961095Y-67674424D01*
X93959010Y-67695600D01*
X93970149Y-67808711D01*
X94003144Y-67917476D01*
X94056722Y-68017715D01*
X94087640Y-68055388D01*
X94110763Y-68083564D01*
X94110766Y-68083567D01*
X94128827Y-68105574D01*
X94150834Y-68123635D01*
X100232231Y-74205032D01*
X100232231Y-81564630D01*
X95333625Y-76666024D01*
X95438800Y-76666024D01*
X95512705Y-76658745D01*
X95583770Y-76637188D01*
X95649263Y-76602181D01*
X95706669Y-76555069D01*
X95753781Y-76497663D01*
X95788788Y-76432170D01*
X95810345Y-76361105D01*
X95817624Y-76287200D01*
X95817624Y-75592527D01*
X95850874Y-75759687D01*
X95947137Y-75992086D01*
X96086889Y-76201240D01*
X96264760Y-76379111D01*
X96473914Y-76518863D01*
X96706313Y-76615126D01*
X96953026Y-76664200D01*
X97204574Y-76664200D01*
X97451287Y-76615126D01*
X97683686Y-76518863D01*
X97892840Y-76379111D01*
X98070711Y-76201240D01*
X98210463Y-75992086D01*
X98306726Y-75759687D01*
X98355800Y-75512974D01*
X98355800Y-75261426D01*
X98306726Y-75014713D01*
X98210463Y-74782314D01*
X98070711Y-74573160D01*
X97892840Y-74395289D01*
X97683686Y-74255537D01*
X97451287Y-74159274D01*
X97204574Y-74110200D01*
X96953026Y-74110200D01*
X96706313Y-74159274D01*
X96473914Y-74255537D01*
X96264760Y-74395289D01*
X96086889Y-74573160D01*
X95947137Y-74782314D01*
X95850874Y-75014713D01*
X95817624Y-75181873D01*
X95817624Y-74487200D01*
X95810345Y-74413295D01*
X95788788Y-74342230D01*
X95753781Y-74276737D01*
X95706669Y-74219331D01*
X95649263Y-74172219D01*
X95583770Y-74137212D01*
X95512705Y-74115655D01*
X95438800Y-74108376D01*
X93638800Y-74108376D01*
X93564895Y-74115655D01*
X93493830Y-74137212D01*
X93428337Y-74172219D01*
X93370931Y-74219331D01*
X93323819Y-74276737D01*
X93288812Y-74342230D01*
X93267255Y-74413295D01*
X93259976Y-74487200D01*
X93259976Y-76287200D01*
X93267255Y-76361105D01*
X93288812Y-76432170D01*
X93323819Y-76497663D01*
X93370931Y-76555069D01*
X93428337Y-76602181D01*
X93493830Y-76637188D01*
X93564895Y-76658745D01*
X93638800Y-76666024D01*
X93961095Y-76666024D01*
X93959010Y-76687200D01*
X93970149Y-76800311D01*
X94003144Y-76909076D01*
X94056722Y-77009315D01*
X94087640Y-77046988D01*
X94110763Y-77075164D01*
X94110766Y-77075167D01*
X94128827Y-77097174D01*
X94150834Y-77115235D01*
X99632220Y-82596621D01*
X99632220Y-90007019D01*
X95308225Y-85683024D01*
X95413400Y-85683024D01*
X95487305Y-85675745D01*
X95558370Y-85654188D01*
X95623863Y-85619181D01*
X95681269Y-85572069D01*
X95728381Y-85514663D01*
X95763388Y-85449170D01*
X95784945Y-85378105D01*
X95792224Y-85304200D01*
X95792224Y-84609527D01*
X95825474Y-84776687D01*
X95921737Y-85009086D01*
X96061489Y-85218240D01*
X96239360Y-85396111D01*
X96448514Y-85535863D01*
X96680913Y-85632126D01*
X96927626Y-85681200D01*
X97179174Y-85681200D01*
X97425887Y-85632126D01*
X97658286Y-85535863D01*
X97867440Y-85396111D01*
X98045311Y-85218240D01*
X98185063Y-85009086D01*
X98281326Y-84776687D01*
X98330400Y-84529974D01*
X98330400Y-84278426D01*
X98281326Y-84031713D01*
X98185063Y-83799314D01*
X98045311Y-83590160D01*
X97867440Y-83412289D01*
X97658286Y-83272537D01*
X97425887Y-83176274D01*
X97179174Y-83127200D01*
X96927626Y-83127200D01*
X96680913Y-83176274D01*
X96448514Y-83272537D01*
X96239360Y-83412289D01*
X96061489Y-83590160D01*
X95921737Y-83799314D01*
X95825474Y-84031713D01*
X95792224Y-84198873D01*
X95792224Y-83504200D01*
X95784945Y-83430295D01*
X95763388Y-83359230D01*
X95728381Y-83293737D01*
X95681269Y-83236331D01*
X95623863Y-83189219D01*
X95558370Y-83154212D01*
X95487305Y-83132655D01*
X95413400Y-83125376D01*
X93613400Y-83125376D01*
X93539495Y-83132655D01*
X93468430Y-83154212D01*
X93402937Y-83189219D01*
X93345531Y-83236331D01*
X93298419Y-83293737D01*
X93263412Y-83359230D01*
X93241855Y-83430295D01*
X93234576Y-83504200D01*
X93234576Y-85304200D01*
X93241855Y-85378105D01*
X93263412Y-85449170D01*
X93298419Y-85514663D01*
X93345531Y-85572069D01*
X93402937Y-85619181D01*
X93468430Y-85654188D01*
X93539495Y-85675745D01*
X93613400Y-85683024D01*
X93935695Y-85683024D01*
X93933610Y-85704200D01*
X93944749Y-85817311D01*
X93964196Y-85881417D01*
X93977743Y-85926075D01*
X94031321Y-86026314D01*
X94103426Y-86114174D01*
X94125438Y-86132239D01*
X99032211Y-91039012D01*
X99032211Y-97479610D01*
X97303639Y-95751038D01*
X97285574Y-95729026D01*
X97197715Y-95656921D01*
X97097476Y-95603343D01*
X97033370Y-95583897D01*
X96988711Y-95570349D01*
X96933645Y-95564926D01*
X96903936Y-95562000D01*
X96903931Y-95562000D01*
X96875600Y-95559210D01*
X96847269Y-95562000D01*
X96221002Y-95562000D01*
X95333625Y-94674624D01*
X95438800Y-94674624D01*
X95512705Y-94667345D01*
X95583770Y-94645788D01*
X95649263Y-94610781D01*
X95706669Y-94563669D01*
X95753781Y-94506263D01*
X95788788Y-94440770D01*
X95810345Y-94369705D01*
X95817624Y-94295800D01*
X95817624Y-93601127D01*
X95850874Y-93768287D01*
X95947137Y-94000686D01*
X96086889Y-94209840D01*
X96264760Y-94387711D01*
X96473914Y-94527463D01*
X96706313Y-94623726D01*
X96953026Y-94672800D01*
X97204574Y-94672800D01*
X97451287Y-94623726D01*
X97683686Y-94527463D01*
X97892840Y-94387711D01*
X98070711Y-94209840D01*
X98210463Y-94000686D01*
X98306726Y-93768287D01*
X98355800Y-93521574D01*
X98355800Y-93270026D01*
X98306726Y-93023313D01*
X98210463Y-92790914D01*
X98070711Y-92581760D01*
X97892840Y-92403889D01*
X97683686Y-92264137D01*
X97451287Y-92167874D01*
X97204574Y-92118800D01*
X96953026Y-92118800D01*
X96706313Y-92167874D01*
X96473914Y-92264137D01*
X96264760Y-92403889D01*
X96086889Y-92581760D01*
X95947137Y-92790914D01*
X95850874Y-93023313D01*
X95817624Y-93190473D01*
X95817624Y-92495800D01*
X95810345Y-92421895D01*
X95788788Y-92350830D01*
X95753781Y-92285337D01*
X95706669Y-92227931D01*
X95649263Y-92180819D01*
X95583770Y-92145812D01*
X95512705Y-92124255D01*
X95438800Y-92116976D01*
X93638800Y-92116976D01*
X93564895Y-92124255D01*
X93493830Y-92145812D01*
X93428337Y-92180819D01*
X93370931Y-92227931D01*
X93323819Y-92285337D01*
X93288812Y-92350830D01*
X93267255Y-92421895D01*
X93259976Y-92495800D01*
X93259976Y-94295800D01*
X93267255Y-94369705D01*
X93288812Y-94440770D01*
X93323819Y-94506263D01*
X93370931Y-94563669D01*
X93428337Y-94610781D01*
X93493830Y-94645788D01*
X93564895Y-94667345D01*
X93638800Y-94674624D01*
X93961095Y-94674624D01*
X93959010Y-94695800D01*
X93970149Y-94808911D01*
X94003144Y-94917676D01*
X94056722Y-95017915D01*
X94087640Y-95055588D01*
X94110763Y-95083764D01*
X94110764Y-95083765D01*
X94128827Y-95105774D01*
X94150833Y-95123834D01*
X95553965Y-96526967D01*
X95572026Y-96548974D01*
X95594033Y-96567035D01*
X95594035Y-96567037D01*
X95613980Y-96583405D01*
X95659885Y-96621079D01*
X95760124Y-96674657D01*
X95804782Y-96688204D01*
X95868888Y-96707651D01*
X95929971Y-96713666D01*
X95953664Y-96716000D01*
X95953668Y-96716000D01*
X95981999Y-96718790D01*
X96010330Y-96716000D01*
X96636599Y-96716000D01*
X98432199Y-98511600D01*
X98432200Y-114435465D01*
X96574434Y-112577700D01*
X96706313Y-112632326D01*
X96953026Y-112681400D01*
X97204574Y-112681400D01*
X97451287Y-112632326D01*
X97683686Y-112536063D01*
X97892840Y-112396311D01*
X98070711Y-112218440D01*
X98210463Y-112009286D01*
X98306726Y-111776887D01*
X98355800Y-111530174D01*
X98355800Y-111278626D01*
X98306726Y-111031913D01*
X98210463Y-110799514D01*
X98070711Y-110590360D01*
X97892840Y-110412489D01*
X97683686Y-110272737D01*
X97451287Y-110176474D01*
X97204574Y-110127400D01*
X96953026Y-110127400D01*
X96706313Y-110176474D01*
X96473914Y-110272737D01*
X96336200Y-110364754D01*
X96336200Y-104882842D01*
X96338627Y-104858199D01*
X96336200Y-104833556D01*
X96336200Y-104833547D01*
X96328936Y-104759791D01*
X96300231Y-104665164D01*
X96253617Y-104577955D01*
X96190884Y-104501516D01*
X96171738Y-104485803D01*
X95377558Y-103691624D01*
X95438800Y-103691624D01*
X95512705Y-103684345D01*
X95583770Y-103662788D01*
X95649263Y-103627781D01*
X95706669Y-103580669D01*
X95753781Y-103523263D01*
X95788788Y-103457770D01*
X95810345Y-103386705D01*
X95817624Y-103312800D01*
X95817624Y-102618127D01*
X95850874Y-102785287D01*
X95947137Y-103017686D01*
X96086889Y-103226840D01*
X96264760Y-103404711D01*
X96473914Y-103544463D01*
X96706313Y-103640726D01*
X96953026Y-103689800D01*
X97204574Y-103689800D01*
X97451287Y-103640726D01*
X97683686Y-103544463D01*
X97892840Y-103404711D01*
X98070711Y-103226840D01*
X98210463Y-103017686D01*
X98306726Y-102785287D01*
X98355800Y-102538574D01*
X98355800Y-102287026D01*
X98306726Y-102040313D01*
X98210463Y-101807914D01*
X98070711Y-101598760D01*
X97892840Y-101420889D01*
X97683686Y-101281137D01*
X97451287Y-101184874D01*
X97204574Y-101135800D01*
X96953026Y-101135800D01*
X96706313Y-101184874D01*
X96473914Y-101281137D01*
X96264760Y-101420889D01*
X96086889Y-101598760D01*
X95947137Y-101807914D01*
X95850874Y-102040313D01*
X95817624Y-102207473D01*
X95817624Y-101512800D01*
X95810345Y-101438895D01*
X95788788Y-101367830D01*
X95753781Y-101302337D01*
X95706669Y-101244931D01*
X95649263Y-101197819D01*
X95583770Y-101162812D01*
X95512705Y-101141255D01*
X95438800Y-101133976D01*
X93638800Y-101133976D01*
X93564895Y-101141255D01*
X93493830Y-101162812D01*
X93428337Y-101197819D01*
X93370931Y-101244931D01*
X93323819Y-101302337D01*
X93288812Y-101367830D01*
X93267255Y-101438895D01*
X93259976Y-101512800D01*
X93259976Y-103312800D01*
X93267255Y-103386705D01*
X93288812Y-103457770D01*
X93323819Y-103523263D01*
X93370931Y-103580669D01*
X93428337Y-103627781D01*
X93493830Y-103662788D01*
X93564895Y-103684345D01*
X93638800Y-103691624D01*
X94053291Y-103691624D01*
X94072770Y-103755836D01*
X94119384Y-103843045D01*
X94166401Y-103900335D01*
X94166404Y-103900338D01*
X94182117Y-103919484D01*
X94201263Y-103935197D01*
X95332200Y-105066135D01*
X95332201Y-110125576D01*
X93638800Y-110125576D01*
X93564895Y-110132855D01*
X93493830Y-110154412D01*
X93428337Y-110189419D01*
X93370931Y-110236531D01*
X93323819Y-110293937D01*
X93288812Y-110359430D01*
X93267255Y-110430495D01*
X93259976Y-110504400D01*
X93259976Y-112304400D01*
X93267255Y-112378305D01*
X93288812Y-112449370D01*
X93323819Y-112514863D01*
X93370931Y-112572269D01*
X93428337Y-112619381D01*
X93493830Y-112654388D01*
X93564895Y-112675945D01*
X93638800Y-112683224D01*
X94036801Y-112683224D01*
X94036800Y-114376957D01*
X94034373Y-114401600D01*
X94036800Y-114426243D01*
X94036800Y-114426252D01*
X94044064Y-114500008D01*
X94072769Y-114594635D01*
X94119383Y-114681845D01*
X94182116Y-114758284D01*
X94201267Y-114774001D01*
X95261802Y-115834537D01*
X95261801Y-119117176D01*
X93638800Y-119117176D01*
X93564895Y-119124455D01*
X93493830Y-119146012D01*
X93428337Y-119181019D01*
X93370931Y-119228131D01*
X93323819Y-119285537D01*
X93288812Y-119351030D01*
X93267255Y-119422095D01*
X93259976Y-119496000D01*
X93259976Y-119910490D01*
X93195763Y-119929969D01*
X93108554Y-119976583D01*
X93051265Y-120023600D01*
X93051262Y-120023603D01*
X93032116Y-120039316D01*
X93016403Y-120058462D01*
X92112263Y-120962603D01*
X92093117Y-120978316D01*
X92077404Y-120997462D01*
X92077401Y-120997465D01*
X92030384Y-121054755D01*
X91983770Y-121141964D01*
X91955065Y-121236591D01*
X91945373Y-121335000D01*
X91947801Y-121359653D01*
X91947800Y-128992777D01*
X91929998Y-128985403D01*
X91779883Y-128955544D01*
X91626827Y-128955544D01*
X91476712Y-128985403D01*
X91335307Y-129043975D01*
X91208046Y-129129008D01*
X91197918Y-129139136D01*
X91071448Y-129054631D01*
X90930043Y-128996059D01*
X90779928Y-128966200D01*
X90626872Y-128966200D01*
X90476757Y-128996059D01*
X90451800Y-129006397D01*
X90451800Y-127639245D01*
X90544936Y-127546109D01*
X90629969Y-127418848D01*
X90688541Y-127277443D01*
X90718400Y-127127328D01*
X90718400Y-126974272D01*
X90688541Y-126824157D01*
X90629969Y-126682752D01*
X90544936Y-126555491D01*
X90436709Y-126447264D01*
X90309448Y-126362231D01*
X90168043Y-126303659D01*
X90017928Y-126273800D01*
X89864872Y-126273800D01*
X89714757Y-126303659D01*
X89706800Y-126306955D01*
X89706800Y-125790001D01*
X90049963Y-125446838D01*
X90071974Y-125428774D01*
X90144079Y-125340915D01*
X90197657Y-125240676D01*
X90230650Y-125131912D01*
X90239000Y-125047136D01*
X90239000Y-125047130D01*
X90241790Y-125018801D01*
X90239000Y-124990472D01*
X90239000Y-118011331D01*
X90241790Y-117983000D01*
X90230651Y-117869888D01*
X90211204Y-117805782D01*
X90197657Y-117761124D01*
X90144079Y-117660885D01*
X90071974Y-117573026D01*
X90049967Y-117554965D01*
X86124200Y-113629199D01*
X86124200Y-112657824D01*
X86447200Y-112657824D01*
X86521105Y-112650545D01*
X86592170Y-112628988D01*
X86657663Y-112593981D01*
X86715069Y-112546869D01*
X86762181Y-112489463D01*
X86797188Y-112423970D01*
X86818745Y-112352905D01*
X86826024Y-112279000D01*
X86826024Y-111584327D01*
X86859274Y-111751487D01*
X86955537Y-111983886D01*
X87095289Y-112193040D01*
X87273160Y-112370911D01*
X87482314Y-112510663D01*
X87714713Y-112606926D01*
X87961426Y-112656000D01*
X88212974Y-112656000D01*
X88459687Y-112606926D01*
X88692086Y-112510663D01*
X88901240Y-112370911D01*
X89079111Y-112193040D01*
X89218863Y-111983886D01*
X89315126Y-111751487D01*
X89364200Y-111504774D01*
X89364200Y-111253226D01*
X89315126Y-111006513D01*
X89218863Y-110774114D01*
X89079111Y-110564960D01*
X88901240Y-110387089D01*
X88692086Y-110247337D01*
X88459687Y-110151074D01*
X88212974Y-110102000D01*
X87961426Y-110102000D01*
X87714713Y-110151074D01*
X87482314Y-110247337D01*
X87273160Y-110387089D01*
X87095289Y-110564960D01*
X86955537Y-110774114D01*
X86859274Y-111006513D01*
X86826024Y-111173673D01*
X86826024Y-110479000D01*
X86818745Y-110405095D01*
X86797188Y-110334030D01*
X86762181Y-110268537D01*
X86715069Y-110211131D01*
X86657663Y-110164019D01*
X86592170Y-110129012D01*
X86521105Y-110107455D01*
X86447200Y-110100176D01*
X84798799Y-110100176D01*
X84798799Y-105226402D01*
X85909767Y-104115435D01*
X85931774Y-104097374D01*
X86003879Y-104009515D01*
X86057457Y-103909276D01*
X86090450Y-103800512D01*
X86098800Y-103715736D01*
X86098800Y-103715730D01*
X86101590Y-103687401D01*
X86099504Y-103666224D01*
X86421800Y-103666224D01*
X86495705Y-103658945D01*
X86566770Y-103637388D01*
X86632263Y-103602381D01*
X86689669Y-103555269D01*
X86736781Y-103497863D01*
X86771788Y-103432370D01*
X86793345Y-103361305D01*
X86800624Y-103287400D01*
X86800624Y-102592727D01*
X86833874Y-102759887D01*
X86930137Y-102992286D01*
X87069889Y-103201440D01*
X87247760Y-103379311D01*
X87456914Y-103519063D01*
X87689313Y-103615326D01*
X87936026Y-103664400D01*
X88187574Y-103664400D01*
X88434287Y-103615326D01*
X88666686Y-103519063D01*
X88875840Y-103379311D01*
X89053711Y-103201440D01*
X89193463Y-102992286D01*
X89289726Y-102759887D01*
X89338800Y-102513174D01*
X89338800Y-102261626D01*
X89289726Y-102014913D01*
X89193463Y-101782514D01*
X89053711Y-101573360D01*
X88875840Y-101395489D01*
X88666686Y-101255737D01*
X88434287Y-101159474D01*
X88187574Y-101110400D01*
X87936026Y-101110400D01*
X87689313Y-101159474D01*
X87456914Y-101255737D01*
X87247760Y-101395489D01*
X87069889Y-101573360D01*
X86930137Y-101782514D01*
X86833874Y-102014913D01*
X86800624Y-102182073D01*
X86800624Y-101487400D01*
X86793345Y-101413495D01*
X86771788Y-101342430D01*
X86736781Y-101276937D01*
X86689669Y-101219531D01*
X86632263Y-101172419D01*
X86566770Y-101137412D01*
X86495705Y-101115855D01*
X86421800Y-101108576D01*
X84621800Y-101108576D01*
X84547895Y-101115855D01*
X84476830Y-101137412D01*
X84411337Y-101172419D01*
X84353931Y-101219531D01*
X84306819Y-101276937D01*
X84271812Y-101342430D01*
X84250255Y-101413495D01*
X84242976Y-101487400D01*
X84242976Y-103287400D01*
X84250255Y-103361305D01*
X84271812Y-103432370D01*
X84306819Y-103497863D01*
X84353931Y-103555269D01*
X84411337Y-103602381D01*
X84476830Y-103637388D01*
X84547895Y-103658945D01*
X84621800Y-103666224D01*
X84726974Y-103666224D01*
X84142999Y-104250200D01*
X84142999Y-97574234D01*
X87806841Y-97574234D01*
X87806841Y-98259766D01*
X87940582Y-98932126D01*
X88202923Y-99565474D01*
X88583784Y-100135473D01*
X89068529Y-100620218D01*
X89638528Y-101001079D01*
X90271876Y-101263420D01*
X90944236Y-101397161D01*
X91629768Y-101397161D01*
X92302128Y-101263420D01*
X92935476Y-101001079D01*
X93505475Y-100620218D01*
X93990220Y-100135473D01*
X94371081Y-99565474D01*
X94633422Y-98932126D01*
X94767163Y-98259766D01*
X94767163Y-97574234D01*
X94633422Y-96901874D01*
X94371081Y-96268526D01*
X93990220Y-95698527D01*
X93505475Y-95213782D01*
X92935476Y-94832921D01*
X92302128Y-94570580D01*
X91629768Y-94436839D01*
X90944236Y-94436839D01*
X90271876Y-94570580D01*
X89638528Y-94832921D01*
X89068529Y-95213782D01*
X88583784Y-95698527D01*
X88202923Y-96268526D01*
X87940582Y-96901874D01*
X87806841Y-97574234D01*
X84142999Y-97574234D01*
X84142999Y-96916002D01*
X85935162Y-95123839D01*
X85957174Y-95105774D01*
X86029279Y-95017915D01*
X86082857Y-94917676D01*
X86115850Y-94808912D01*
X86124200Y-94724136D01*
X86124200Y-94724130D01*
X86126990Y-94695801D01*
X86124904Y-94674624D01*
X86447200Y-94674624D01*
X86521105Y-94667345D01*
X86592170Y-94645788D01*
X86657663Y-94610781D01*
X86715069Y-94563669D01*
X86762181Y-94506263D01*
X86797188Y-94440770D01*
X86818745Y-94369705D01*
X86826024Y-94295800D01*
X86826024Y-93601127D01*
X86859274Y-93768287D01*
X86955537Y-94000686D01*
X87095289Y-94209840D01*
X87273160Y-94387711D01*
X87482314Y-94527463D01*
X87714713Y-94623726D01*
X87961426Y-94672800D01*
X88212974Y-94672800D01*
X88459687Y-94623726D01*
X88692086Y-94527463D01*
X88901240Y-94387711D01*
X89079111Y-94209840D01*
X89218863Y-94000686D01*
X89315126Y-93768287D01*
X89364200Y-93521574D01*
X89364200Y-93270026D01*
X89315126Y-93023313D01*
X89218863Y-92790914D01*
X89079111Y-92581760D01*
X88901240Y-92403889D01*
X88692086Y-92264137D01*
X88459687Y-92167874D01*
X88212974Y-92118800D01*
X87961426Y-92118800D01*
X87714713Y-92167874D01*
X87482314Y-92264137D01*
X87273160Y-92403889D01*
X87095289Y-92581760D01*
X86955537Y-92790914D01*
X86859274Y-93023313D01*
X86826024Y-93190473D01*
X86826024Y-92495800D01*
X86818745Y-92421895D01*
X86797188Y-92350830D01*
X86762181Y-92285337D01*
X86715069Y-92227931D01*
X86657663Y-92180819D01*
X86592170Y-92145812D01*
X86521105Y-92124255D01*
X86447200Y-92116976D01*
X84647200Y-92116976D01*
X84573295Y-92124255D01*
X84502230Y-92145812D01*
X84436737Y-92180819D01*
X84379331Y-92227931D01*
X84332219Y-92285337D01*
X84297212Y-92350830D01*
X84275655Y-92421895D01*
X84268376Y-92495800D01*
X84268376Y-94295800D01*
X84275655Y-94369705D01*
X84297212Y-94440770D01*
X84332219Y-94506263D01*
X84379331Y-94563669D01*
X84436737Y-94610781D01*
X84502230Y-94645788D01*
X84573295Y-94667345D01*
X84647200Y-94674624D01*
X84752375Y-94674624D01*
X83542989Y-95884010D01*
X83542989Y-85899012D01*
X84242976Y-85199025D01*
X84242976Y-85304200D01*
X84250255Y-85378105D01*
X84271812Y-85449170D01*
X84306819Y-85514663D01*
X84353931Y-85572069D01*
X84411337Y-85619181D01*
X84476830Y-85654188D01*
X84547895Y-85675745D01*
X84621800Y-85683024D01*
X86421800Y-85683024D01*
X86495705Y-85675745D01*
X86566770Y-85654188D01*
X86632263Y-85619181D01*
X86689669Y-85572069D01*
X86736781Y-85514663D01*
X86771788Y-85449170D01*
X86793345Y-85378105D01*
X86800624Y-85304200D01*
X86800624Y-84609527D01*
X86833874Y-84776687D01*
X86930137Y-85009086D01*
X87069889Y-85218240D01*
X87247760Y-85396111D01*
X87456914Y-85535863D01*
X87689313Y-85632126D01*
X87936026Y-85681200D01*
X88187574Y-85681200D01*
X88434287Y-85632126D01*
X88666686Y-85535863D01*
X88875840Y-85396111D01*
X89053711Y-85218240D01*
X89193463Y-85009086D01*
X89289726Y-84776687D01*
X89338800Y-84529974D01*
X89338800Y-84278426D01*
X89289726Y-84031713D01*
X89193463Y-83799314D01*
X89053711Y-83590160D01*
X88875840Y-83412289D01*
X88666686Y-83272537D01*
X88434287Y-83176274D01*
X88187574Y-83127200D01*
X87936026Y-83127200D01*
X87689313Y-83176274D01*
X87456914Y-83272537D01*
X87247760Y-83412289D01*
X87069889Y-83590160D01*
X86930137Y-83799314D01*
X86833874Y-84031713D01*
X86800624Y-84198873D01*
X86800624Y-83504200D01*
X86793345Y-83430295D01*
X86771788Y-83359230D01*
X86736781Y-83293737D01*
X86689669Y-83236331D01*
X86632263Y-83189219D01*
X86566770Y-83154212D01*
X86495705Y-83132655D01*
X86421800Y-83125376D01*
X84621800Y-83125376D01*
X84547895Y-83132655D01*
X84476830Y-83154212D01*
X84411337Y-83189219D01*
X84353931Y-83236331D01*
X84306819Y-83293737D01*
X84271812Y-83359230D01*
X84250255Y-83430295D01*
X84242976Y-83504200D01*
X84242976Y-83826495D01*
X84221800Y-83824410D01*
X84193469Y-83827200D01*
X84193464Y-83827200D01*
X84166686Y-83829837D01*
X84108688Y-83835549D01*
X84044582Y-83854996D01*
X83999924Y-83868543D01*
X83899685Y-83922121D01*
X83811826Y-83994226D01*
X83793761Y-84016238D01*
X82942978Y-84867021D01*
X82942978Y-77482023D01*
X84242976Y-76182025D01*
X84242976Y-76287200D01*
X84250255Y-76361105D01*
X84271812Y-76432170D01*
X84306819Y-76497663D01*
X84353931Y-76555069D01*
X84411337Y-76602181D01*
X84476830Y-76637188D01*
X84547895Y-76658745D01*
X84621800Y-76666024D01*
X86421800Y-76666024D01*
X86495705Y-76658745D01*
X86566770Y-76637188D01*
X86632263Y-76602181D01*
X86689669Y-76555069D01*
X86736781Y-76497663D01*
X86771788Y-76432170D01*
X86793345Y-76361105D01*
X86800624Y-76287200D01*
X86800624Y-75592527D01*
X86833874Y-75759687D01*
X86930137Y-75992086D01*
X87069889Y-76201240D01*
X87247760Y-76379111D01*
X87456914Y-76518863D01*
X87689313Y-76615126D01*
X87936026Y-76664200D01*
X88187574Y-76664200D01*
X88434287Y-76615126D01*
X88666686Y-76518863D01*
X88875840Y-76379111D01*
X89053711Y-76201240D01*
X89193463Y-75992086D01*
X89289726Y-75759687D01*
X89338800Y-75512974D01*
X89338800Y-75261426D01*
X89289726Y-75014713D01*
X89193463Y-74782314D01*
X89053711Y-74573160D01*
X88875840Y-74395289D01*
X88666686Y-74255537D01*
X88434287Y-74159274D01*
X88187574Y-74110200D01*
X87936026Y-74110200D01*
X87689313Y-74159274D01*
X87456914Y-74255537D01*
X87247760Y-74395289D01*
X87069889Y-74573160D01*
X86930137Y-74782314D01*
X86833874Y-75014713D01*
X86800624Y-75181873D01*
X86800624Y-74487200D01*
X86793345Y-74413295D01*
X86771788Y-74342230D01*
X86736781Y-74276737D01*
X86689669Y-74219331D01*
X86632263Y-74172219D01*
X86566770Y-74137212D01*
X86495705Y-74115655D01*
X86421800Y-74108376D01*
X84621800Y-74108376D01*
X84547895Y-74115655D01*
X84476830Y-74137212D01*
X84411337Y-74172219D01*
X84353931Y-74219331D01*
X84306819Y-74276737D01*
X84271812Y-74342230D01*
X84250255Y-74413295D01*
X84242976Y-74487200D01*
X84242976Y-74809495D01*
X84221800Y-74807409D01*
X84108688Y-74818549D01*
X84044582Y-74837996D01*
X83999924Y-74851543D01*
X83899685Y-74905121D01*
X83811826Y-74977226D01*
X83793761Y-74999238D01*
X82342967Y-76450032D01*
X82342967Y-69115834D01*
X84268376Y-67190425D01*
X84268376Y-67295600D01*
X84275655Y-67369505D01*
X84297212Y-67440570D01*
X84332219Y-67506063D01*
X84379331Y-67563469D01*
X84436737Y-67610581D01*
X84502230Y-67645588D01*
X84573295Y-67667145D01*
X84647200Y-67674424D01*
X86447200Y-67674424D01*
X86521105Y-67667145D01*
X86592170Y-67645588D01*
X86657663Y-67610581D01*
X86715069Y-67563469D01*
X86762181Y-67506063D01*
X86797188Y-67440570D01*
X86818745Y-67369505D01*
X86826024Y-67295600D01*
X86826024Y-66600927D01*
X86859274Y-66768087D01*
X86955537Y-67000486D01*
X87095289Y-67209640D01*
X87273160Y-67387511D01*
X87482314Y-67527263D01*
X87714713Y-67623526D01*
X87961426Y-67672600D01*
X88212974Y-67672600D01*
X88459687Y-67623526D01*
X88692086Y-67527263D01*
X88901240Y-67387511D01*
X89079111Y-67209640D01*
X89218863Y-67000486D01*
X89315126Y-66768087D01*
X89364200Y-66521374D01*
X89364200Y-66269826D01*
X89315126Y-66023113D01*
X89218863Y-65790714D01*
X89079111Y-65581560D01*
X88901240Y-65403689D01*
X88692086Y-65263937D01*
X88459687Y-65167674D01*
X88212974Y-65118600D01*
X87961426Y-65118600D01*
X87714713Y-65167674D01*
X87482314Y-65263937D01*
X87273160Y-65403689D01*
X87095289Y-65581560D01*
X86955537Y-65790714D01*
X86859274Y-66023113D01*
X86826024Y-66190273D01*
X86826024Y-65495600D01*
X86818745Y-65421695D01*
X86797188Y-65350630D01*
X86762181Y-65285137D01*
X86715069Y-65227731D01*
X86657663Y-65180619D01*
X86592170Y-65145612D01*
X86521105Y-65124055D01*
X86447200Y-65116776D01*
X84647200Y-65116776D01*
X84573295Y-65124055D01*
X84502230Y-65145612D01*
X84436737Y-65180619D01*
X84379331Y-65227731D01*
X84332219Y-65285137D01*
X84297212Y-65350630D01*
X84275655Y-65421695D01*
X84268376Y-65495600D01*
X84268376Y-65817896D01*
X84247199Y-65815810D01*
X84218870Y-65818600D01*
X84218864Y-65818600D01*
X84134088Y-65826950D01*
X84025324Y-65859943D01*
X83925085Y-65913521D01*
X83837226Y-65985626D01*
X83819161Y-66007638D01*
X81741589Y-68085210D01*
X81741589Y-54242637D01*
X89448896Y-54242637D01*
X89448896Y-54604713D01*
X89519533Y-54959831D01*
X89658093Y-55294345D01*
X89859252Y-55595399D01*
X90115278Y-55851425D01*
X90416332Y-56052584D01*
X90750846Y-56191144D01*
X91105964Y-56261781D01*
X91468040Y-56261781D01*
X91823158Y-56191144D01*
X92157672Y-56052584D01*
X92458726Y-55851425D01*
X92714752Y-55595399D01*
X92915911Y-55294345D01*
X93054471Y-54959831D01*
X93125108Y-54604713D01*
X93125108Y-54242637D01*
X93054471Y-53887519D01*
X92915911Y-53553005D01*
X92714752Y-53251951D01*
X92458726Y-52995925D01*
X92157672Y-52794766D01*
X91823158Y-52656206D01*
X91468040Y-52585569D01*
X91105964Y-52585569D01*
X90750846Y-52656206D01*
X90416332Y-52794766D01*
X90115278Y-52995925D01*
X89859252Y-53251951D01*
X89658093Y-53553005D01*
X89519533Y-53887519D01*
X89448896Y-54242637D01*
X81741589Y-54242637D01*
X81741589Y-49900675D01*
X100832415Y-49900675D01*
X100832415Y-73173214D01*
G36*
X98432200Y-128615201D02*
G01*
X98226345Y-128821056D01*
X98210463Y-128782714D01*
X98070711Y-128573560D01*
X97892840Y-128395689D01*
X97683686Y-128255937D01*
X97451287Y-128159674D01*
X97204574Y-128110600D01*
X96953026Y-128110600D01*
X96706313Y-128159674D01*
X96473914Y-128255937D01*
X96355799Y-128334859D01*
X96355799Y-123784735D01*
X98432200Y-121708335D01*
X98432200Y-128615201D01*
G37*
X98432200Y-128615201D02*
X98226345Y-128821056D01*
X98210463Y-128782714D01*
X98070711Y-128573560D01*
X97892840Y-128395689D01*
X97683686Y-128255937D01*
X97451287Y-128159674D01*
X97204574Y-128110600D01*
X96953026Y-128110600D01*
X96706313Y-128159674D01*
X96473914Y-128255937D01*
X96355799Y-128334859D01*
X96355799Y-123784735D01*
X98432200Y-121708335D01*
X98432200Y-128615201D01*
G36*
X86833874Y-120768487D02*
G01*
X86930137Y-121000886D01*
X87069889Y-121210040D01*
X87247760Y-121387911D01*
X87456914Y-121527663D01*
X87484801Y-121539214D01*
X87484800Y-128143143D01*
X87484801Y-128143153D01*
X87484801Y-128244386D01*
X87456914Y-128255937D01*
X87268400Y-128381898D01*
X87268400Y-128275442D01*
X87302056Y-128212476D01*
X87335050Y-128103711D01*
X87346190Y-127990599D01*
X87335050Y-127877488D01*
X87302056Y-127768723D01*
X87248478Y-127668485D01*
X87194437Y-127602635D01*
X84798799Y-125206998D01*
X84798799Y-121674824D01*
X86421800Y-121674824D01*
X86495705Y-121667545D01*
X86566770Y-121645988D01*
X86632263Y-121610981D01*
X86689669Y-121563869D01*
X86736781Y-121506463D01*
X86771788Y-121440970D01*
X86793345Y-121369905D01*
X86800624Y-121296000D01*
X86800624Y-120601327D01*
X86833874Y-120768487D01*
G37*
X86833874Y-120768487D02*
X86930137Y-121000886D01*
X87069889Y-121210040D01*
X87247760Y-121387911D01*
X87456914Y-121527663D01*
X87484801Y-121539214D01*
X87484800Y-128143143D01*
X87484801Y-128143153D01*
X87484801Y-128244386D01*
X87456914Y-128255937D01*
X87268400Y-128381898D01*
X87268400Y-128275442D01*
X87302056Y-128212476D01*
X87335050Y-128103711D01*
X87346190Y-127990599D01*
X87335050Y-127877488D01*
X87302056Y-127768723D01*
X87248478Y-127668485D01*
X87194437Y-127602635D01*
X84798799Y-125206998D01*
X84798799Y-121674824D01*
X86421800Y-121674824D01*
X86495705Y-121667545D01*
X86566770Y-121645988D01*
X86632263Y-121610981D01*
X86689669Y-121563869D01*
X86736781Y-121506463D01*
X86771788Y-121440970D01*
X86793345Y-121369905D01*
X86800624Y-121296000D01*
X86800624Y-120601327D01*
X86833874Y-120768487D01*
G36*
X84970200Y-113839869D02*
G01*
X84967410Y-113868200D01*
X84970200Y-113896531D01*
X84970200Y-113896535D01*
X84972534Y-113920228D01*
X84978549Y-113981311D01*
X84993077Y-114029201D01*
X85011543Y-114090075D01*
X85065121Y-114190314D01*
X85137226Y-114278174D01*
X85159238Y-114296239D01*
X89085001Y-118222003D01*
X89085001Y-119628789D01*
X89053711Y-119581960D01*
X88875840Y-119404089D01*
X88666686Y-119264337D01*
X88434287Y-119168074D01*
X88187574Y-119119000D01*
X87936026Y-119119000D01*
X87689313Y-119168074D01*
X87456914Y-119264337D01*
X87247760Y-119404089D01*
X87069889Y-119581960D01*
X86930137Y-119791114D01*
X86833874Y-120023513D01*
X86800624Y-120190673D01*
X86800624Y-119496000D01*
X86793345Y-119422095D01*
X86771788Y-119351030D01*
X86736781Y-119285537D01*
X86689669Y-119228131D01*
X86632263Y-119181019D01*
X86566770Y-119146012D01*
X86495705Y-119124455D01*
X86421800Y-119117176D01*
X84798799Y-119117176D01*
X84798799Y-112657824D01*
X84970200Y-112657824D01*
X84970200Y-113839869D01*
G37*
X84970200Y-113839869D02*
X84967410Y-113868200D01*
X84970200Y-113896531D01*
X84970200Y-113896535D01*
X84972534Y-113920228D01*
X84978549Y-113981311D01*
X84993077Y-114029201D01*
X85011543Y-114090075D01*
X85065121Y-114190314D01*
X85137226Y-114278174D01*
X85159238Y-114296239D01*
X89085001Y-118222003D01*
X89085001Y-119628789D01*
X89053711Y-119581960D01*
X88875840Y-119404089D01*
X88666686Y-119264337D01*
X88434287Y-119168074D01*
X88187574Y-119119000D01*
X87936026Y-119119000D01*
X87689313Y-119168074D01*
X87456914Y-119264337D01*
X87247760Y-119404089D01*
X87069889Y-119581960D01*
X86930137Y-119791114D01*
X86833874Y-120023513D01*
X86800624Y-120190673D01*
X86800624Y-119496000D01*
X86793345Y-119422095D01*
X86771788Y-119351030D01*
X86736781Y-119285537D01*
X86689669Y-119228131D01*
X86632263Y-119181019D01*
X86566770Y-119146012D01*
X86495705Y-119124455D01*
X86421800Y-119117176D01*
X84798799Y-119117176D01*
X84798799Y-112657824D01*
X84970200Y-112657824D01*
X84970200Y-113839869D01*
M02*
