G04 #@! TF.GenerationSoftware,KiCad,Pcbnew,(5.1.6-0-10_14)*
G04 #@! TF.CreationDate,2020-06-29T16:32:02+02:00*
G04 #@! TF.ProjectId,excitation-pcb,65786369-7461-4746-996f-6e2d7063622e,rev?*
G04 #@! TF.SameCoordinates,Original*
G04 #@! TF.FileFunction,Soldermask,Bot*
G04 #@! TF.FilePolarity,Negative*
%FSLAX46Y46*%
G04 Gerber Fmt 4.6, Leading zero omitted, Abs format (unit mm)*
G04 Created by KiCad (PCBNEW (5.1.6-0-10_14)) date 2020-06-29 16:32:02*
%MOMM*%
%LPD*%
G01*
G04 APERTURE LIST*
%ADD10C,0.100000*%
G04 APERTURE END LIST*
D10*
G36*
X99859312Y-144036327D02*
G01*
X100008612Y-144066024D01*
X100172584Y-144133944D01*
X100320154Y-144232547D01*
X100445653Y-144358046D01*
X100544256Y-144505616D01*
X100612176Y-144669588D01*
X100646800Y-144843659D01*
X100646800Y-145021141D01*
X100612176Y-145195212D01*
X100544256Y-145359184D01*
X100445653Y-145506754D01*
X100320154Y-145632253D01*
X100172584Y-145730856D01*
X100008612Y-145798776D01*
X99859312Y-145828473D01*
X99834542Y-145833400D01*
X99657058Y-145833400D01*
X99632288Y-145828473D01*
X99482988Y-145798776D01*
X99319016Y-145730856D01*
X99171446Y-145632253D01*
X99045947Y-145506754D01*
X98947344Y-145359184D01*
X98879424Y-145195212D01*
X98844800Y-145021141D01*
X98844800Y-144843659D01*
X98879424Y-144669588D01*
X98947344Y-144505616D01*
X99045947Y-144358046D01*
X99171446Y-144232547D01*
X99319016Y-144133944D01*
X99482988Y-144066024D01*
X99632288Y-144036327D01*
X99657058Y-144031400D01*
X99834542Y-144031400D01*
X99859312Y-144036327D01*
G37*
G36*
X97319312Y-144036327D02*
G01*
X97468612Y-144066024D01*
X97632584Y-144133944D01*
X97780154Y-144232547D01*
X97905653Y-144358046D01*
X98004256Y-144505616D01*
X98072176Y-144669588D01*
X98106800Y-144843659D01*
X98106800Y-145021141D01*
X98072176Y-145195212D01*
X98004256Y-145359184D01*
X97905653Y-145506754D01*
X97780154Y-145632253D01*
X97632584Y-145730856D01*
X97468612Y-145798776D01*
X97319312Y-145828473D01*
X97294542Y-145833400D01*
X97117058Y-145833400D01*
X97092288Y-145828473D01*
X96942988Y-145798776D01*
X96779016Y-145730856D01*
X96631446Y-145632253D01*
X96505947Y-145506754D01*
X96407344Y-145359184D01*
X96339424Y-145195212D01*
X96304800Y-145021141D01*
X96304800Y-144843659D01*
X96339424Y-144669588D01*
X96407344Y-144505616D01*
X96505947Y-144358046D01*
X96631446Y-144232547D01*
X96779016Y-144133944D01*
X96942988Y-144066024D01*
X97092288Y-144036327D01*
X97117058Y-144031400D01*
X97294542Y-144031400D01*
X97319312Y-144036327D01*
G37*
G36*
X94779312Y-144036327D02*
G01*
X94928612Y-144066024D01*
X95092584Y-144133944D01*
X95240154Y-144232547D01*
X95365653Y-144358046D01*
X95464256Y-144505616D01*
X95532176Y-144669588D01*
X95566800Y-144843659D01*
X95566800Y-145021141D01*
X95532176Y-145195212D01*
X95464256Y-145359184D01*
X95365653Y-145506754D01*
X95240154Y-145632253D01*
X95092584Y-145730856D01*
X94928612Y-145798776D01*
X94779312Y-145828473D01*
X94754542Y-145833400D01*
X94577058Y-145833400D01*
X94552288Y-145828473D01*
X94402988Y-145798776D01*
X94239016Y-145730856D01*
X94091446Y-145632253D01*
X93965947Y-145506754D01*
X93867344Y-145359184D01*
X93799424Y-145195212D01*
X93764800Y-145021141D01*
X93764800Y-144843659D01*
X93799424Y-144669588D01*
X93867344Y-144505616D01*
X93965947Y-144358046D01*
X94091446Y-144232547D01*
X94239016Y-144133944D01*
X94402988Y-144066024D01*
X94552288Y-144036327D01*
X94577058Y-144031400D01*
X94754542Y-144031400D01*
X94779312Y-144036327D01*
G37*
G36*
X92239312Y-144036327D02*
G01*
X92388612Y-144066024D01*
X92552584Y-144133944D01*
X92700154Y-144232547D01*
X92825653Y-144358046D01*
X92924256Y-144505616D01*
X92992176Y-144669588D01*
X93026800Y-144843659D01*
X93026800Y-145021141D01*
X92992176Y-145195212D01*
X92924256Y-145359184D01*
X92825653Y-145506754D01*
X92700154Y-145632253D01*
X92552584Y-145730856D01*
X92388612Y-145798776D01*
X92239312Y-145828473D01*
X92214542Y-145833400D01*
X92037058Y-145833400D01*
X92012288Y-145828473D01*
X91862988Y-145798776D01*
X91699016Y-145730856D01*
X91551446Y-145632253D01*
X91425947Y-145506754D01*
X91327344Y-145359184D01*
X91259424Y-145195212D01*
X91224800Y-145021141D01*
X91224800Y-144843659D01*
X91259424Y-144669588D01*
X91327344Y-144505616D01*
X91425947Y-144358046D01*
X91551446Y-144232547D01*
X91699016Y-144133944D01*
X91862988Y-144066024D01*
X92012288Y-144036327D01*
X92037058Y-144031400D01*
X92214542Y-144031400D01*
X92239312Y-144036327D01*
G37*
G36*
X89699312Y-144036327D02*
G01*
X89848612Y-144066024D01*
X90012584Y-144133944D01*
X90160154Y-144232547D01*
X90285653Y-144358046D01*
X90384256Y-144505616D01*
X90452176Y-144669588D01*
X90486800Y-144843659D01*
X90486800Y-145021141D01*
X90452176Y-145195212D01*
X90384256Y-145359184D01*
X90285653Y-145506754D01*
X90160154Y-145632253D01*
X90012584Y-145730856D01*
X89848612Y-145798776D01*
X89699312Y-145828473D01*
X89674542Y-145833400D01*
X89497058Y-145833400D01*
X89472288Y-145828473D01*
X89322988Y-145798776D01*
X89159016Y-145730856D01*
X89011446Y-145632253D01*
X88885947Y-145506754D01*
X88787344Y-145359184D01*
X88719424Y-145195212D01*
X88684800Y-145021141D01*
X88684800Y-144843659D01*
X88719424Y-144669588D01*
X88787344Y-144505616D01*
X88885947Y-144358046D01*
X89011446Y-144232547D01*
X89159016Y-144133944D01*
X89322988Y-144066024D01*
X89472288Y-144036327D01*
X89497058Y-144031400D01*
X89674542Y-144031400D01*
X89699312Y-144036327D01*
G37*
G36*
X87159312Y-144036327D02*
G01*
X87308612Y-144066024D01*
X87472584Y-144133944D01*
X87620154Y-144232547D01*
X87745653Y-144358046D01*
X87844256Y-144505616D01*
X87912176Y-144669588D01*
X87946800Y-144843659D01*
X87946800Y-145021141D01*
X87912176Y-145195212D01*
X87844256Y-145359184D01*
X87745653Y-145506754D01*
X87620154Y-145632253D01*
X87472584Y-145730856D01*
X87308612Y-145798776D01*
X87159312Y-145828473D01*
X87134542Y-145833400D01*
X86957058Y-145833400D01*
X86932288Y-145828473D01*
X86782988Y-145798776D01*
X86619016Y-145730856D01*
X86471446Y-145632253D01*
X86345947Y-145506754D01*
X86247344Y-145359184D01*
X86179424Y-145195212D01*
X86144800Y-145021141D01*
X86144800Y-144843659D01*
X86179424Y-144669588D01*
X86247344Y-144505616D01*
X86345947Y-144358046D01*
X86471446Y-144232547D01*
X86619016Y-144133944D01*
X86782988Y-144066024D01*
X86932288Y-144036327D01*
X86957058Y-144031400D01*
X87134542Y-144031400D01*
X87159312Y-144036327D01*
G37*
G36*
X85406800Y-145833400D02*
G01*
X83604800Y-145833400D01*
X83604800Y-144031400D01*
X85406800Y-144031400D01*
X85406800Y-145833400D01*
G37*
G36*
X99884712Y-141166127D02*
G01*
X100034012Y-141195824D01*
X100197984Y-141263744D01*
X100345554Y-141362347D01*
X100471053Y-141487846D01*
X100569656Y-141635416D01*
X100637576Y-141799388D01*
X100672200Y-141973459D01*
X100672200Y-142150941D01*
X100637576Y-142325012D01*
X100569656Y-142488984D01*
X100471053Y-142636554D01*
X100345554Y-142762053D01*
X100197984Y-142860656D01*
X100034012Y-142928576D01*
X99884712Y-142958273D01*
X99859942Y-142963200D01*
X99682458Y-142963200D01*
X99657688Y-142958273D01*
X99508388Y-142928576D01*
X99344416Y-142860656D01*
X99196846Y-142762053D01*
X99071347Y-142636554D01*
X98972744Y-142488984D01*
X98904824Y-142325012D01*
X98870200Y-142150941D01*
X98870200Y-141973459D01*
X98904824Y-141799388D01*
X98972744Y-141635416D01*
X99071347Y-141487846D01*
X99196846Y-141362347D01*
X99344416Y-141263744D01*
X99508388Y-141195824D01*
X99657688Y-141166127D01*
X99682458Y-141161200D01*
X99859942Y-141161200D01*
X99884712Y-141166127D01*
G37*
G36*
X99884712Y-138626127D02*
G01*
X100034012Y-138655824D01*
X100197984Y-138723744D01*
X100345554Y-138822347D01*
X100471053Y-138947846D01*
X100569656Y-139095416D01*
X100637576Y-139259388D01*
X100672200Y-139433459D01*
X100672200Y-139610941D01*
X100637576Y-139785012D01*
X100569656Y-139948984D01*
X100471053Y-140096554D01*
X100345554Y-140222053D01*
X100197984Y-140320656D01*
X100034012Y-140388576D01*
X99884712Y-140418273D01*
X99859942Y-140423200D01*
X99682458Y-140423200D01*
X99657688Y-140418273D01*
X99508388Y-140388576D01*
X99344416Y-140320656D01*
X99196846Y-140222053D01*
X99071347Y-140096554D01*
X98972744Y-139948984D01*
X98904824Y-139785012D01*
X98870200Y-139610941D01*
X98870200Y-139433459D01*
X98904824Y-139259388D01*
X98972744Y-139095416D01*
X99071347Y-138947846D01*
X99196846Y-138822347D01*
X99344416Y-138723744D01*
X99508388Y-138655824D01*
X99657688Y-138626127D01*
X99682458Y-138621200D01*
X99859942Y-138621200D01*
X99884712Y-138626127D01*
G37*
G36*
X93902391Y-139164785D02*
G01*
X93936369Y-139175093D01*
X93967690Y-139191834D01*
X93995139Y-139214361D01*
X94017666Y-139241810D01*
X94034407Y-139273131D01*
X94044715Y-139307109D01*
X94048800Y-139348590D01*
X94048800Y-139949810D01*
X94044715Y-139991291D01*
X94034407Y-140025269D01*
X94017666Y-140056590D01*
X93995139Y-140084039D01*
X93967690Y-140106566D01*
X93936369Y-140123307D01*
X93902391Y-140133615D01*
X93860910Y-140137700D01*
X93184690Y-140137700D01*
X93143209Y-140133615D01*
X93109231Y-140123307D01*
X93077910Y-140106566D01*
X93050461Y-140084039D01*
X93027934Y-140056590D01*
X93011193Y-140025269D01*
X93000885Y-139991291D01*
X92996800Y-139949810D01*
X92996800Y-139348590D01*
X93000885Y-139307109D01*
X93011193Y-139273131D01*
X93027934Y-139241810D01*
X93050461Y-139214361D01*
X93077910Y-139191834D01*
X93109231Y-139175093D01*
X93143209Y-139164785D01*
X93184690Y-139160700D01*
X93860910Y-139160700D01*
X93902391Y-139164785D01*
G37*
G36*
X93902391Y-137589785D02*
G01*
X93936369Y-137600093D01*
X93967690Y-137616834D01*
X93995139Y-137639361D01*
X94017666Y-137666810D01*
X94034407Y-137698131D01*
X94044715Y-137732109D01*
X94048800Y-137773590D01*
X94048800Y-138374810D01*
X94044715Y-138416291D01*
X94034407Y-138450269D01*
X94017666Y-138481590D01*
X93995139Y-138509039D01*
X93967690Y-138531566D01*
X93936369Y-138548307D01*
X93902391Y-138558615D01*
X93860910Y-138562700D01*
X93184690Y-138562700D01*
X93143209Y-138558615D01*
X93109231Y-138548307D01*
X93077910Y-138531566D01*
X93050461Y-138509039D01*
X93027934Y-138481590D01*
X93011193Y-138450269D01*
X93000885Y-138416291D01*
X92996800Y-138374810D01*
X92996800Y-137773590D01*
X93000885Y-137732109D01*
X93011193Y-137698131D01*
X93027934Y-137666810D01*
X93050461Y-137639361D01*
X93077910Y-137616834D01*
X93109231Y-137600093D01*
X93143209Y-137589785D01*
X93184690Y-137585700D01*
X93860910Y-137585700D01*
X93902391Y-137589785D01*
G37*
G36*
X92340991Y-137298485D02*
G01*
X92374969Y-137308793D01*
X92406290Y-137325534D01*
X92433739Y-137348061D01*
X92456266Y-137375510D01*
X92473007Y-137406831D01*
X92483315Y-137440809D01*
X92487400Y-137482290D01*
X92487400Y-138158510D01*
X92483315Y-138199991D01*
X92473007Y-138233969D01*
X92456266Y-138265290D01*
X92433739Y-138292739D01*
X92406290Y-138315266D01*
X92374969Y-138332007D01*
X92340991Y-138342315D01*
X92299510Y-138346400D01*
X91698290Y-138346400D01*
X91656809Y-138342315D01*
X91622831Y-138332007D01*
X91591510Y-138315266D01*
X91564061Y-138292739D01*
X91541534Y-138265290D01*
X91524793Y-138233969D01*
X91514485Y-138199991D01*
X91510400Y-138158510D01*
X91510400Y-137482290D01*
X91514485Y-137440809D01*
X91524793Y-137406831D01*
X91541534Y-137375510D01*
X91564061Y-137348061D01*
X91591510Y-137325534D01*
X91622831Y-137308793D01*
X91656809Y-137298485D01*
X91698290Y-137294400D01*
X92299510Y-137294400D01*
X92340991Y-137298485D01*
G37*
G36*
X90765991Y-137298485D02*
G01*
X90799969Y-137308793D01*
X90831290Y-137325534D01*
X90858739Y-137348061D01*
X90881266Y-137375510D01*
X90898007Y-137406831D01*
X90908315Y-137440809D01*
X90912400Y-137482290D01*
X90912400Y-138158510D01*
X90908315Y-138199991D01*
X90898007Y-138233969D01*
X90881266Y-138265290D01*
X90858739Y-138292739D01*
X90831290Y-138315266D01*
X90799969Y-138332007D01*
X90765991Y-138342315D01*
X90724510Y-138346400D01*
X90123290Y-138346400D01*
X90081809Y-138342315D01*
X90047831Y-138332007D01*
X90016510Y-138315266D01*
X89989061Y-138292739D01*
X89966534Y-138265290D01*
X89949793Y-138233969D01*
X89939485Y-138199991D01*
X89935400Y-138158510D01*
X89935400Y-137482290D01*
X89939485Y-137440809D01*
X89949793Y-137406831D01*
X89966534Y-137375510D01*
X89989061Y-137348061D01*
X90016510Y-137325534D01*
X90047831Y-137308793D01*
X90081809Y-137298485D01*
X90123290Y-137294400D01*
X90724510Y-137294400D01*
X90765991Y-137298485D01*
G37*
G36*
X99884712Y-136086127D02*
G01*
X100034012Y-136115824D01*
X100197984Y-136183744D01*
X100345554Y-136282347D01*
X100471053Y-136407846D01*
X100569656Y-136555416D01*
X100637576Y-136719388D01*
X100672200Y-136893459D01*
X100672200Y-137070941D01*
X100637576Y-137245012D01*
X100569656Y-137408984D01*
X100471053Y-137556554D01*
X100345554Y-137682053D01*
X100197984Y-137780656D01*
X100034012Y-137848576D01*
X99884712Y-137878273D01*
X99859942Y-137883200D01*
X99682458Y-137883200D01*
X99657688Y-137878273D01*
X99508388Y-137848576D01*
X99344416Y-137780656D01*
X99196846Y-137682053D01*
X99071347Y-137556554D01*
X98972744Y-137408984D01*
X98904824Y-137245012D01*
X98870200Y-137070941D01*
X98870200Y-136893459D01*
X98904824Y-136719388D01*
X98972744Y-136555416D01*
X99071347Y-136407846D01*
X99196846Y-136282347D01*
X99344416Y-136183744D01*
X99508388Y-136115824D01*
X99657688Y-136086127D01*
X99682458Y-136081200D01*
X99859942Y-136081200D01*
X99884712Y-136086127D01*
G37*
G36*
X97217791Y-135672885D02*
G01*
X97251769Y-135683193D01*
X97283090Y-135699934D01*
X97310539Y-135722461D01*
X97333066Y-135749910D01*
X97349807Y-135781231D01*
X97360115Y-135815209D01*
X97364200Y-135856690D01*
X97364200Y-136532910D01*
X97360115Y-136574391D01*
X97349807Y-136608369D01*
X97333066Y-136639690D01*
X97310539Y-136667139D01*
X97283090Y-136689666D01*
X97251769Y-136706407D01*
X97217791Y-136716715D01*
X97176310Y-136720800D01*
X96575090Y-136720800D01*
X96533609Y-136716715D01*
X96499631Y-136706407D01*
X96468310Y-136689666D01*
X96440861Y-136667139D01*
X96418334Y-136639690D01*
X96401593Y-136608369D01*
X96391285Y-136574391D01*
X96387200Y-136532910D01*
X96387200Y-135856690D01*
X96391285Y-135815209D01*
X96401593Y-135781231D01*
X96418334Y-135749910D01*
X96440861Y-135722461D01*
X96468310Y-135699934D01*
X96499631Y-135683193D01*
X96533609Y-135672885D01*
X96575090Y-135668800D01*
X97176310Y-135668800D01*
X97217791Y-135672885D01*
G37*
G36*
X95642791Y-135672885D02*
G01*
X95676769Y-135683193D01*
X95708090Y-135699934D01*
X95735539Y-135722461D01*
X95758066Y-135749910D01*
X95774807Y-135781231D01*
X95785115Y-135815209D01*
X95789200Y-135856690D01*
X95789200Y-136532910D01*
X95785115Y-136574391D01*
X95774807Y-136608369D01*
X95758066Y-136639690D01*
X95735539Y-136667139D01*
X95708090Y-136689666D01*
X95676769Y-136706407D01*
X95642791Y-136716715D01*
X95601310Y-136720800D01*
X95000090Y-136720800D01*
X94958609Y-136716715D01*
X94924631Y-136706407D01*
X94893310Y-136689666D01*
X94865861Y-136667139D01*
X94843334Y-136639690D01*
X94826593Y-136608369D01*
X94816285Y-136574391D01*
X94812200Y-136532910D01*
X94812200Y-135856690D01*
X94816285Y-135815209D01*
X94826593Y-135781231D01*
X94843334Y-135749910D01*
X94865861Y-135722461D01*
X94893310Y-135699934D01*
X94924631Y-135683193D01*
X94958609Y-135672885D01*
X95000090Y-135668800D01*
X95601310Y-135668800D01*
X95642791Y-135672885D01*
G37*
G36*
X93150800Y-131550801D02*
G01*
X93153202Y-131575187D01*
X93160315Y-131598636D01*
X93171866Y-131620247D01*
X93187411Y-131639189D01*
X93206353Y-131654734D01*
X93227964Y-131666285D01*
X93251413Y-131673398D01*
X93275799Y-131675800D01*
X94150800Y-131675800D01*
X94150800Y-135577800D01*
X93275799Y-135577800D01*
X93251413Y-135580202D01*
X93227964Y-135587315D01*
X93206353Y-135598866D01*
X93187411Y-135614411D01*
X93171866Y-135633353D01*
X93160315Y-135654964D01*
X93153202Y-135678413D01*
X93150800Y-135702799D01*
X93150800Y-136577800D01*
X89248800Y-136577800D01*
X89248800Y-135702799D01*
X89246398Y-135678413D01*
X89239285Y-135654964D01*
X89227734Y-135633353D01*
X89212189Y-135614411D01*
X89193247Y-135598866D01*
X89171636Y-135587315D01*
X89148187Y-135580202D01*
X89123801Y-135577800D01*
X88248800Y-135577800D01*
X88248800Y-131675800D01*
X89123801Y-131675800D01*
X89148187Y-131673398D01*
X89171636Y-131666285D01*
X89193247Y-131654734D01*
X89212189Y-131639189D01*
X89227734Y-131620247D01*
X89239285Y-131598636D01*
X89246398Y-131575187D01*
X89248800Y-131550801D01*
X89248800Y-130675800D01*
X93150800Y-130675800D01*
X93150800Y-131550801D01*
G37*
G36*
X100672200Y-135343200D02*
G01*
X98870200Y-135343200D01*
X98870200Y-133541200D01*
X100672200Y-133541200D01*
X100672200Y-135343200D01*
G37*
G36*
X97356195Y-128473146D02*
G01*
X97529266Y-128544834D01*
X97529267Y-128544835D01*
X97685027Y-128648910D01*
X97817490Y-128781373D01*
X97817491Y-128781375D01*
X97921566Y-128937134D01*
X97993254Y-129110205D01*
X98029800Y-129293933D01*
X98029800Y-129481267D01*
X97993254Y-129664995D01*
X97921566Y-129838066D01*
X97921565Y-129838067D01*
X97817490Y-129993827D01*
X97685027Y-130126290D01*
X97606618Y-130178681D01*
X97529266Y-130230366D01*
X97356195Y-130302054D01*
X97172467Y-130338600D01*
X96985133Y-130338600D01*
X96801405Y-130302054D01*
X96628334Y-130230366D01*
X96550982Y-130178681D01*
X96472573Y-130126290D01*
X96340110Y-129993827D01*
X96236035Y-129838067D01*
X96236034Y-129838066D01*
X96164346Y-129664995D01*
X96127800Y-129481267D01*
X96127800Y-129293933D01*
X96164346Y-129110205D01*
X96236034Y-128937134D01*
X96340109Y-128781375D01*
X96340110Y-128781373D01*
X96472573Y-128648910D01*
X96628333Y-128544835D01*
X96628334Y-128544834D01*
X96801405Y-128473146D01*
X96985133Y-128436600D01*
X97172467Y-128436600D01*
X97356195Y-128473146D01*
G37*
G36*
X88339195Y-128473146D02*
G01*
X88512266Y-128544834D01*
X88512267Y-128544835D01*
X88668027Y-128648910D01*
X88800490Y-128781373D01*
X88800491Y-128781375D01*
X88904566Y-128937134D01*
X88976254Y-129110205D01*
X89012800Y-129293933D01*
X89012800Y-129481267D01*
X88976254Y-129664995D01*
X88904566Y-129838066D01*
X88904565Y-129838067D01*
X88800490Y-129993827D01*
X88668027Y-130126290D01*
X88589618Y-130178681D01*
X88512266Y-130230366D01*
X88339195Y-130302054D01*
X88155467Y-130338600D01*
X87968133Y-130338600D01*
X87784405Y-130302054D01*
X87611334Y-130230366D01*
X87533982Y-130178681D01*
X87455573Y-130126290D01*
X87323110Y-129993827D01*
X87219035Y-129838067D01*
X87219034Y-129838066D01*
X87147346Y-129664995D01*
X87110800Y-129481267D01*
X87110800Y-129293933D01*
X87147346Y-129110205D01*
X87219034Y-128937134D01*
X87323109Y-128781375D01*
X87323110Y-128781373D01*
X87455573Y-128648910D01*
X87611333Y-128544835D01*
X87611334Y-128544834D01*
X87784405Y-128473146D01*
X87968133Y-128436600D01*
X88155467Y-128436600D01*
X88339195Y-128473146D01*
G37*
G36*
X86472800Y-130338600D02*
G01*
X84570800Y-130338600D01*
X84570800Y-128436600D01*
X86472800Y-128436600D01*
X86472800Y-130338600D01*
G37*
G36*
X95489800Y-130338600D02*
G01*
X93587800Y-130338600D01*
X93587800Y-128436600D01*
X95489800Y-128436600D01*
X95489800Y-130338600D01*
G37*
G36*
X97356195Y-119481546D02*
G01*
X97529266Y-119553234D01*
X97529267Y-119553235D01*
X97685027Y-119657310D01*
X97817490Y-119789773D01*
X97817491Y-119789775D01*
X97921566Y-119945534D01*
X97993254Y-120118605D01*
X98029800Y-120302333D01*
X98029800Y-120489667D01*
X97993254Y-120673395D01*
X97921566Y-120846466D01*
X97921565Y-120846467D01*
X97817490Y-121002227D01*
X97685027Y-121134690D01*
X97606618Y-121187081D01*
X97529266Y-121238766D01*
X97356195Y-121310454D01*
X97172467Y-121347000D01*
X96985133Y-121347000D01*
X96801405Y-121310454D01*
X96628334Y-121238766D01*
X96550982Y-121187081D01*
X96472573Y-121134690D01*
X96340110Y-121002227D01*
X96236035Y-120846467D01*
X96236034Y-120846466D01*
X96164346Y-120673395D01*
X96127800Y-120489667D01*
X96127800Y-120302333D01*
X96164346Y-120118605D01*
X96236034Y-119945534D01*
X96340109Y-119789775D01*
X96340110Y-119789773D01*
X96472573Y-119657310D01*
X96628333Y-119553235D01*
X96628334Y-119553234D01*
X96801405Y-119481546D01*
X96985133Y-119445000D01*
X97172467Y-119445000D01*
X97356195Y-119481546D01*
G37*
G36*
X95489800Y-121347000D02*
G01*
X93587800Y-121347000D01*
X93587800Y-119445000D01*
X95489800Y-119445000D01*
X95489800Y-121347000D01*
G37*
G36*
X88339195Y-119481546D02*
G01*
X88512266Y-119553234D01*
X88512267Y-119553235D01*
X88668027Y-119657310D01*
X88800490Y-119789773D01*
X88800491Y-119789775D01*
X88904566Y-119945534D01*
X88976254Y-120118605D01*
X89012800Y-120302333D01*
X89012800Y-120489667D01*
X88976254Y-120673395D01*
X88904566Y-120846466D01*
X88904565Y-120846467D01*
X88800490Y-121002227D01*
X88668027Y-121134690D01*
X88589618Y-121187081D01*
X88512266Y-121238766D01*
X88339195Y-121310454D01*
X88155467Y-121347000D01*
X87968133Y-121347000D01*
X87784405Y-121310454D01*
X87611334Y-121238766D01*
X87533982Y-121187081D01*
X87455573Y-121134690D01*
X87323110Y-121002227D01*
X87219035Y-120846467D01*
X87219034Y-120846466D01*
X87147346Y-120673395D01*
X87110800Y-120489667D01*
X87110800Y-120302333D01*
X87147346Y-120118605D01*
X87219034Y-119945534D01*
X87323109Y-119789775D01*
X87323110Y-119789773D01*
X87455573Y-119657310D01*
X87611333Y-119553235D01*
X87611334Y-119553234D01*
X87784405Y-119481546D01*
X87968133Y-119445000D01*
X88155467Y-119445000D01*
X88339195Y-119481546D01*
G37*
G36*
X86472800Y-121347000D02*
G01*
X84570800Y-121347000D01*
X84570800Y-119445000D01*
X86472800Y-119445000D01*
X86472800Y-121347000D01*
G37*
G36*
X95489800Y-112355400D02*
G01*
X93587800Y-112355400D01*
X93587800Y-110453400D01*
X95489800Y-110453400D01*
X95489800Y-112355400D01*
G37*
G36*
X97356195Y-110489946D02*
G01*
X97529266Y-110561634D01*
X97529267Y-110561635D01*
X97685027Y-110665710D01*
X97817490Y-110798173D01*
X97817491Y-110798175D01*
X97921566Y-110953934D01*
X97993254Y-111127005D01*
X98029800Y-111310733D01*
X98029800Y-111498067D01*
X97993254Y-111681795D01*
X97921566Y-111854866D01*
X97921565Y-111854867D01*
X97817490Y-112010627D01*
X97685027Y-112143090D01*
X97606618Y-112195481D01*
X97529266Y-112247166D01*
X97356195Y-112318854D01*
X97172467Y-112355400D01*
X96985133Y-112355400D01*
X96801405Y-112318854D01*
X96628334Y-112247166D01*
X96550982Y-112195481D01*
X96472573Y-112143090D01*
X96340110Y-112010627D01*
X96236035Y-111854867D01*
X96236034Y-111854866D01*
X96164346Y-111681795D01*
X96127800Y-111498067D01*
X96127800Y-111310733D01*
X96164346Y-111127005D01*
X96236034Y-110953934D01*
X96340109Y-110798175D01*
X96340110Y-110798173D01*
X96472573Y-110665710D01*
X96628333Y-110561635D01*
X96628334Y-110561634D01*
X96801405Y-110489946D01*
X96985133Y-110453400D01*
X97172467Y-110453400D01*
X97356195Y-110489946D01*
G37*
G36*
X86498200Y-112330000D02*
G01*
X84596200Y-112330000D01*
X84596200Y-110428000D01*
X86498200Y-110428000D01*
X86498200Y-112330000D01*
G37*
G36*
X88364595Y-110464546D02*
G01*
X88537666Y-110536234D01*
X88575681Y-110561635D01*
X88693427Y-110640310D01*
X88825890Y-110772773D01*
X88842863Y-110798175D01*
X88929966Y-110928534D01*
X89001654Y-111101605D01*
X89038200Y-111285333D01*
X89038200Y-111472667D01*
X89001654Y-111656395D01*
X88929966Y-111829466D01*
X88878281Y-111906818D01*
X88825890Y-111985227D01*
X88693427Y-112117690D01*
X88615018Y-112170081D01*
X88537666Y-112221766D01*
X88364595Y-112293454D01*
X88180867Y-112330000D01*
X87993533Y-112330000D01*
X87809805Y-112293454D01*
X87636734Y-112221766D01*
X87559382Y-112170081D01*
X87480973Y-112117690D01*
X87348510Y-111985227D01*
X87296119Y-111906818D01*
X87244434Y-111829466D01*
X87172746Y-111656395D01*
X87136200Y-111472667D01*
X87136200Y-111285333D01*
X87172746Y-111101605D01*
X87244434Y-110928534D01*
X87331537Y-110798175D01*
X87348510Y-110772773D01*
X87480973Y-110640310D01*
X87598719Y-110561635D01*
X87636734Y-110536234D01*
X87809805Y-110464546D01*
X87993533Y-110428000D01*
X88180867Y-110428000D01*
X88364595Y-110464546D01*
G37*
G36*
X97356195Y-101498346D02*
G01*
X97529266Y-101570034D01*
X97529267Y-101570035D01*
X97685027Y-101674110D01*
X97817490Y-101806573D01*
X97817491Y-101806575D01*
X97921566Y-101962334D01*
X97993254Y-102135405D01*
X98029800Y-102319133D01*
X98029800Y-102506467D01*
X97993254Y-102690195D01*
X97921566Y-102863266D01*
X97921565Y-102863267D01*
X97817490Y-103019027D01*
X97685027Y-103151490D01*
X97606618Y-103203881D01*
X97529266Y-103255566D01*
X97356195Y-103327254D01*
X97172467Y-103363800D01*
X96985133Y-103363800D01*
X96801405Y-103327254D01*
X96628334Y-103255566D01*
X96550982Y-103203881D01*
X96472573Y-103151490D01*
X96340110Y-103019027D01*
X96236035Y-102863267D01*
X96236034Y-102863266D01*
X96164346Y-102690195D01*
X96127800Y-102506467D01*
X96127800Y-102319133D01*
X96164346Y-102135405D01*
X96236034Y-101962334D01*
X96340109Y-101806575D01*
X96340110Y-101806573D01*
X96472573Y-101674110D01*
X96628333Y-101570035D01*
X96628334Y-101570034D01*
X96801405Y-101498346D01*
X96985133Y-101461800D01*
X97172467Y-101461800D01*
X97356195Y-101498346D01*
G37*
G36*
X95489800Y-103363800D02*
G01*
X93587800Y-103363800D01*
X93587800Y-101461800D01*
X95489800Y-101461800D01*
X95489800Y-103363800D01*
G37*
G36*
X88339195Y-101472946D02*
G01*
X88512266Y-101544634D01*
X88550281Y-101570035D01*
X88668027Y-101648710D01*
X88800490Y-101781173D01*
X88817463Y-101806575D01*
X88904566Y-101936934D01*
X88976254Y-102110005D01*
X89012800Y-102293733D01*
X89012800Y-102481067D01*
X88976254Y-102664795D01*
X88904566Y-102837866D01*
X88852881Y-102915218D01*
X88800490Y-102993627D01*
X88668027Y-103126090D01*
X88589618Y-103178481D01*
X88512266Y-103230166D01*
X88339195Y-103301854D01*
X88155467Y-103338400D01*
X87968133Y-103338400D01*
X87784405Y-103301854D01*
X87611334Y-103230166D01*
X87533982Y-103178481D01*
X87455573Y-103126090D01*
X87323110Y-102993627D01*
X87270719Y-102915218D01*
X87219034Y-102837866D01*
X87147346Y-102664795D01*
X87110800Y-102481067D01*
X87110800Y-102293733D01*
X87147346Y-102110005D01*
X87219034Y-101936934D01*
X87306137Y-101806575D01*
X87323110Y-101781173D01*
X87455573Y-101648710D01*
X87573319Y-101570035D01*
X87611334Y-101544634D01*
X87784405Y-101472946D01*
X87968133Y-101436400D01*
X88155467Y-101436400D01*
X88339195Y-101472946D01*
G37*
G36*
X86472800Y-103338400D02*
G01*
X84570800Y-103338400D01*
X84570800Y-101436400D01*
X86472800Y-101436400D01*
X86472800Y-103338400D01*
G37*
G36*
X95489800Y-94346800D02*
G01*
X93587800Y-94346800D01*
X93587800Y-92444800D01*
X95489800Y-92444800D01*
X95489800Y-94346800D01*
G37*
G36*
X97356195Y-92481346D02*
G01*
X97529266Y-92553034D01*
X97529267Y-92553035D01*
X97685027Y-92657110D01*
X97817490Y-92789573D01*
X97817491Y-92789575D01*
X97921566Y-92945334D01*
X97993254Y-93118405D01*
X98029800Y-93302133D01*
X98029800Y-93489467D01*
X97993254Y-93673195D01*
X97921566Y-93846266D01*
X97921565Y-93846267D01*
X97817490Y-94002027D01*
X97685027Y-94134490D01*
X97606618Y-94186881D01*
X97529266Y-94238566D01*
X97356195Y-94310254D01*
X97172467Y-94346800D01*
X96985133Y-94346800D01*
X96801405Y-94310254D01*
X96628334Y-94238566D01*
X96550982Y-94186881D01*
X96472573Y-94134490D01*
X96340110Y-94002027D01*
X96236035Y-93846267D01*
X96236034Y-93846266D01*
X96164346Y-93673195D01*
X96127800Y-93489467D01*
X96127800Y-93302133D01*
X96164346Y-93118405D01*
X96236034Y-92945334D01*
X96340109Y-92789575D01*
X96340110Y-92789573D01*
X96472573Y-92657110D01*
X96628333Y-92553035D01*
X96628334Y-92553034D01*
X96801405Y-92481346D01*
X96985133Y-92444800D01*
X97172467Y-92444800D01*
X97356195Y-92481346D01*
G37*
G36*
X86498200Y-94346800D02*
G01*
X84596200Y-94346800D01*
X84596200Y-92444800D01*
X86498200Y-92444800D01*
X86498200Y-94346800D01*
G37*
G36*
X88364595Y-92481346D02*
G01*
X88537666Y-92553034D01*
X88537667Y-92553035D01*
X88693427Y-92657110D01*
X88825890Y-92789573D01*
X88825891Y-92789575D01*
X88929966Y-92945334D01*
X89001654Y-93118405D01*
X89038200Y-93302133D01*
X89038200Y-93489467D01*
X89001654Y-93673195D01*
X88929966Y-93846266D01*
X88929965Y-93846267D01*
X88825890Y-94002027D01*
X88693427Y-94134490D01*
X88615018Y-94186881D01*
X88537666Y-94238566D01*
X88364595Y-94310254D01*
X88180867Y-94346800D01*
X87993533Y-94346800D01*
X87809805Y-94310254D01*
X87636734Y-94238566D01*
X87559382Y-94186881D01*
X87480973Y-94134490D01*
X87348510Y-94002027D01*
X87244435Y-93846267D01*
X87244434Y-93846266D01*
X87172746Y-93673195D01*
X87136200Y-93489467D01*
X87136200Y-93302133D01*
X87172746Y-93118405D01*
X87244434Y-92945334D01*
X87348509Y-92789575D01*
X87348510Y-92789573D01*
X87480973Y-92657110D01*
X87636733Y-92553035D01*
X87636734Y-92553034D01*
X87809805Y-92481346D01*
X87993533Y-92444800D01*
X88180867Y-92444800D01*
X88364595Y-92481346D01*
G37*
G36*
X97330795Y-83489746D02*
G01*
X97503866Y-83561434D01*
X97503867Y-83561435D01*
X97659627Y-83665510D01*
X97792090Y-83797973D01*
X97792091Y-83797975D01*
X97896166Y-83953734D01*
X97967854Y-84126805D01*
X98004400Y-84310533D01*
X98004400Y-84497867D01*
X97967854Y-84681595D01*
X97896166Y-84854666D01*
X97896165Y-84854667D01*
X97792090Y-85010427D01*
X97659627Y-85142890D01*
X97581218Y-85195281D01*
X97503866Y-85246966D01*
X97330795Y-85318654D01*
X97147067Y-85355200D01*
X96959733Y-85355200D01*
X96776005Y-85318654D01*
X96602934Y-85246966D01*
X96525582Y-85195281D01*
X96447173Y-85142890D01*
X96314710Y-85010427D01*
X96210635Y-84854667D01*
X96210634Y-84854666D01*
X96138946Y-84681595D01*
X96102400Y-84497867D01*
X96102400Y-84310533D01*
X96138946Y-84126805D01*
X96210634Y-83953734D01*
X96314709Y-83797975D01*
X96314710Y-83797973D01*
X96447173Y-83665510D01*
X96602933Y-83561435D01*
X96602934Y-83561434D01*
X96776005Y-83489746D01*
X96959733Y-83453200D01*
X97147067Y-83453200D01*
X97330795Y-83489746D01*
G37*
G36*
X95464400Y-85355200D02*
G01*
X93562400Y-85355200D01*
X93562400Y-83453200D01*
X95464400Y-83453200D01*
X95464400Y-85355200D01*
G37*
G36*
X88339195Y-83489746D02*
G01*
X88512266Y-83561434D01*
X88512267Y-83561435D01*
X88668027Y-83665510D01*
X88800490Y-83797973D01*
X88800491Y-83797975D01*
X88904566Y-83953734D01*
X88976254Y-84126805D01*
X89012800Y-84310533D01*
X89012800Y-84497867D01*
X88976254Y-84681595D01*
X88904566Y-84854666D01*
X88904565Y-84854667D01*
X88800490Y-85010427D01*
X88668027Y-85142890D01*
X88589618Y-85195281D01*
X88512266Y-85246966D01*
X88339195Y-85318654D01*
X88155467Y-85355200D01*
X87968133Y-85355200D01*
X87784405Y-85318654D01*
X87611334Y-85246966D01*
X87533982Y-85195281D01*
X87455573Y-85142890D01*
X87323110Y-85010427D01*
X87219035Y-84854667D01*
X87219034Y-84854666D01*
X87147346Y-84681595D01*
X87110800Y-84497867D01*
X87110800Y-84310533D01*
X87147346Y-84126805D01*
X87219034Y-83953734D01*
X87323109Y-83797975D01*
X87323110Y-83797973D01*
X87455573Y-83665510D01*
X87611333Y-83561435D01*
X87611334Y-83561434D01*
X87784405Y-83489746D01*
X87968133Y-83453200D01*
X88155467Y-83453200D01*
X88339195Y-83489746D01*
G37*
G36*
X86472800Y-85355200D02*
G01*
X84570800Y-85355200D01*
X84570800Y-83453200D01*
X86472800Y-83453200D01*
X86472800Y-85355200D01*
G37*
G36*
X88339195Y-74472746D02*
G01*
X88512266Y-74544434D01*
X88512267Y-74544435D01*
X88668027Y-74648510D01*
X88800490Y-74780973D01*
X88800491Y-74780975D01*
X88904566Y-74936734D01*
X88976254Y-75109805D01*
X89012800Y-75293533D01*
X89012800Y-75480867D01*
X88976254Y-75664595D01*
X88904566Y-75837666D01*
X88904565Y-75837667D01*
X88800490Y-75993427D01*
X88668027Y-76125890D01*
X88589618Y-76178281D01*
X88512266Y-76229966D01*
X88339195Y-76301654D01*
X88155467Y-76338200D01*
X87968133Y-76338200D01*
X87784405Y-76301654D01*
X87611334Y-76229966D01*
X87533982Y-76178281D01*
X87455573Y-76125890D01*
X87323110Y-75993427D01*
X87219035Y-75837667D01*
X87219034Y-75837666D01*
X87147346Y-75664595D01*
X87110800Y-75480867D01*
X87110800Y-75293533D01*
X87147346Y-75109805D01*
X87219034Y-74936734D01*
X87323109Y-74780975D01*
X87323110Y-74780973D01*
X87455573Y-74648510D01*
X87611333Y-74544435D01*
X87611334Y-74544434D01*
X87784405Y-74472746D01*
X87968133Y-74436200D01*
X88155467Y-74436200D01*
X88339195Y-74472746D01*
G37*
G36*
X95489800Y-76338200D02*
G01*
X93587800Y-76338200D01*
X93587800Y-74436200D01*
X95489800Y-74436200D01*
X95489800Y-76338200D01*
G37*
G36*
X97356195Y-74472746D02*
G01*
X97529266Y-74544434D01*
X97529267Y-74544435D01*
X97685027Y-74648510D01*
X97817490Y-74780973D01*
X97817491Y-74780975D01*
X97921566Y-74936734D01*
X97993254Y-75109805D01*
X98029800Y-75293533D01*
X98029800Y-75480867D01*
X97993254Y-75664595D01*
X97921566Y-75837666D01*
X97921565Y-75837667D01*
X97817490Y-75993427D01*
X97685027Y-76125890D01*
X97606618Y-76178281D01*
X97529266Y-76229966D01*
X97356195Y-76301654D01*
X97172467Y-76338200D01*
X96985133Y-76338200D01*
X96801405Y-76301654D01*
X96628334Y-76229966D01*
X96550982Y-76178281D01*
X96472573Y-76125890D01*
X96340110Y-75993427D01*
X96236035Y-75837667D01*
X96236034Y-75837666D01*
X96164346Y-75664595D01*
X96127800Y-75480867D01*
X96127800Y-75293533D01*
X96164346Y-75109805D01*
X96236034Y-74936734D01*
X96340109Y-74780975D01*
X96340110Y-74780973D01*
X96472573Y-74648510D01*
X96628333Y-74544435D01*
X96628334Y-74544434D01*
X96801405Y-74472746D01*
X96985133Y-74436200D01*
X97172467Y-74436200D01*
X97356195Y-74472746D01*
G37*
G36*
X86472800Y-76338200D02*
G01*
X84570800Y-76338200D01*
X84570800Y-74436200D01*
X86472800Y-74436200D01*
X86472800Y-76338200D01*
G37*
G36*
X97356195Y-65481146D02*
G01*
X97529266Y-65552834D01*
X97529267Y-65552835D01*
X97685027Y-65656910D01*
X97817490Y-65789373D01*
X97817491Y-65789375D01*
X97921566Y-65945134D01*
X97993254Y-66118205D01*
X98029800Y-66301933D01*
X98029800Y-66489267D01*
X97993254Y-66672995D01*
X97921566Y-66846066D01*
X97921565Y-66846067D01*
X97817490Y-67001827D01*
X97685027Y-67134290D01*
X97606618Y-67186681D01*
X97529266Y-67238366D01*
X97356195Y-67310054D01*
X97172467Y-67346600D01*
X96985133Y-67346600D01*
X96801405Y-67310054D01*
X96628334Y-67238366D01*
X96550982Y-67186681D01*
X96472573Y-67134290D01*
X96340110Y-67001827D01*
X96236035Y-66846067D01*
X96236034Y-66846066D01*
X96164346Y-66672995D01*
X96127800Y-66489267D01*
X96127800Y-66301933D01*
X96164346Y-66118205D01*
X96236034Y-65945134D01*
X96340109Y-65789375D01*
X96340110Y-65789373D01*
X96472573Y-65656910D01*
X96628333Y-65552835D01*
X96628334Y-65552834D01*
X96801405Y-65481146D01*
X96985133Y-65444600D01*
X97172467Y-65444600D01*
X97356195Y-65481146D01*
G37*
G36*
X95489800Y-67346600D02*
G01*
X93587800Y-67346600D01*
X93587800Y-65444600D01*
X95489800Y-65444600D01*
X95489800Y-67346600D01*
G37*
G36*
X88364595Y-65481146D02*
G01*
X88537666Y-65552834D01*
X88537667Y-65552835D01*
X88693427Y-65656910D01*
X88825890Y-65789373D01*
X88825891Y-65789375D01*
X88929966Y-65945134D01*
X89001654Y-66118205D01*
X89038200Y-66301933D01*
X89038200Y-66489267D01*
X89001654Y-66672995D01*
X88929966Y-66846066D01*
X88929965Y-66846067D01*
X88825890Y-67001827D01*
X88693427Y-67134290D01*
X88615018Y-67186681D01*
X88537666Y-67238366D01*
X88364595Y-67310054D01*
X88180867Y-67346600D01*
X87993533Y-67346600D01*
X87809805Y-67310054D01*
X87636734Y-67238366D01*
X87559382Y-67186681D01*
X87480973Y-67134290D01*
X87348510Y-67001827D01*
X87244435Y-66846067D01*
X87244434Y-66846066D01*
X87172746Y-66672995D01*
X87136200Y-66489267D01*
X87136200Y-66301933D01*
X87172746Y-66118205D01*
X87244434Y-65945134D01*
X87348509Y-65789375D01*
X87348510Y-65789373D01*
X87480973Y-65656910D01*
X87636733Y-65552835D01*
X87636734Y-65552834D01*
X87809805Y-65481146D01*
X87993533Y-65444600D01*
X88180867Y-65444600D01*
X88364595Y-65481146D01*
G37*
G36*
X86498200Y-67346600D02*
G01*
X84596200Y-67346600D01*
X84596200Y-65444600D01*
X86498200Y-65444600D01*
X86498200Y-67346600D01*
G37*
M02*
