%TF.GenerationSoftware,KiCad,Pcbnew,(5.1.6-0-10_14)*%
%TF.CreationDate,2020-06-29T16:19:24+02:00*%
%TF.ProjectId,rev0,72657630-2e6b-4696-9361-645f70636258,rev?*%
%TF.SameCoordinates,Original*%
%TF.FileFunction,Soldermask,Top*%
%TF.FilePolarity,Negative*%
%FSLAX46Y46*%
G04 Gerber Fmt 4.6, Leading zero omitted, Abs format (unit mm)*
G04 Created by KiCad (PCBNEW (5.1.6-0-10_14)) date 2020-06-29 16:19:24*
%MOMM*%
%LPD*%
G01*
G04 APERTURE LIST*
%ADD10O,0.950000X0.950000*%
%ADD11R,0.950000X0.950000*%
%ADD12R,0.535000X1.628000*%
%ADD13C,1.624000*%
G04 APERTURE END LIST*
D10*
%TO.C,J1*%
X147637500Y-83106500D03*
X147637500Y-84106500D03*
X147637500Y-85106500D03*
X147637500Y-86106500D03*
X147637500Y-87106500D03*
X147637500Y-88106500D03*
X147637500Y-89106500D03*
D11*
X147637500Y-90106500D03*
%TD*%
%TO.C,R5*%
G36*
G01*
X148837000Y-83896500D02*
X149232000Y-83896500D01*
G75*
G02*
X149404500Y-84069000I0J-172500D01*
G01*
X149404500Y-84414000D01*
G75*
G02*
X149232000Y-84586500I-172500J0D01*
G01*
X148837000Y-84586500D01*
G75*
G02*
X148664500Y-84414000I0J172500D01*
G01*
X148664500Y-84069000D01*
G75*
G02*
X148837000Y-83896500I172500J0D01*
G01*
G37*
G36*
G01*
X148837000Y-82926500D02*
X149232000Y-82926500D01*
G75*
G02*
X149404500Y-83099000I0J-172500D01*
G01*
X149404500Y-83444000D01*
G75*
G02*
X149232000Y-83616500I-172500J0D01*
G01*
X148837000Y-83616500D01*
G75*
G02*
X148664500Y-83444000I0J172500D01*
G01*
X148664500Y-83099000D01*
G75*
G02*
X148837000Y-82926500I172500J0D01*
G01*
G37*
%TD*%
%TO.C,R4*%
G36*
G01*
X148837000Y-85801500D02*
X149232000Y-85801500D01*
G75*
G02*
X149404500Y-85974000I0J-172500D01*
G01*
X149404500Y-86319000D01*
G75*
G02*
X149232000Y-86491500I-172500J0D01*
G01*
X148837000Y-86491500D01*
G75*
G02*
X148664500Y-86319000I0J172500D01*
G01*
X148664500Y-85974000D01*
G75*
G02*
X148837000Y-85801500I172500J0D01*
G01*
G37*
G36*
G01*
X148837000Y-84831500D02*
X149232000Y-84831500D01*
G75*
G02*
X149404500Y-85004000I0J-172500D01*
G01*
X149404500Y-85349000D01*
G75*
G02*
X149232000Y-85521500I-172500J0D01*
G01*
X148837000Y-85521500D01*
G75*
G02*
X148664500Y-85349000I0J172500D01*
G01*
X148664500Y-85004000D01*
G75*
G02*
X148837000Y-84831500I172500J0D01*
G01*
G37*
%TD*%
%TO.C,R2*%
G36*
G01*
X163168500Y-80879000D02*
X163168500Y-82189000D01*
G75*
G02*
X162898500Y-82459000I-270000J0D01*
G01*
X162088500Y-82459000D01*
G75*
G02*
X161818500Y-82189000I0J270000D01*
G01*
X161818500Y-80879000D01*
G75*
G02*
X162088500Y-80609000I270000J0D01*
G01*
X162898500Y-80609000D01*
G75*
G02*
X163168500Y-80879000I0J-270000D01*
G01*
G37*
G36*
G01*
X165968500Y-80879000D02*
X165968500Y-82189000D01*
G75*
G02*
X165698500Y-82459000I-270000J0D01*
G01*
X164888500Y-82459000D01*
G75*
G02*
X164618500Y-82189000I0J270000D01*
G01*
X164618500Y-80879000D01*
G75*
G02*
X164888500Y-80609000I270000J0D01*
G01*
X165698500Y-80609000D01*
G75*
G02*
X165968500Y-80879000I0J-270000D01*
G01*
G37*
%TD*%
%TO.C,R1*%
G36*
G01*
X131725500Y-92095000D02*
X131725500Y-90785000D01*
G75*
G02*
X131995500Y-90515000I270000J0D01*
G01*
X132805500Y-90515000D01*
G75*
G02*
X133075500Y-90785000I0J-270000D01*
G01*
X133075500Y-92095000D01*
G75*
G02*
X132805500Y-92365000I-270000J0D01*
G01*
X131995500Y-92365000D01*
G75*
G02*
X131725500Y-92095000I0J270000D01*
G01*
G37*
G36*
G01*
X128925500Y-92095000D02*
X128925500Y-90785000D01*
G75*
G02*
X129195500Y-90515000I270000J0D01*
G01*
X130005500Y-90515000D01*
G75*
G02*
X130275500Y-90785000I0J-270000D01*
G01*
X130275500Y-92095000D01*
G75*
G02*
X130005500Y-92365000I-270000J0D01*
G01*
X129195500Y-92365000D01*
G75*
G02*
X128925500Y-92095000I0J270000D01*
G01*
G37*
%TD*%
D12*
%TO.C,IC2*%
X167957000Y-89134500D03*
X167323000Y-89134500D03*
X166687000Y-89134500D03*
X166053000Y-89134500D03*
X165417000Y-89134500D03*
X164783000Y-89134500D03*
X164147000Y-89134500D03*
X163513000Y-89134500D03*
X163513000Y-83712500D03*
X164147000Y-83712500D03*
X164783000Y-83712500D03*
X165417000Y-83712500D03*
X166053000Y-83712500D03*
X166687000Y-83712500D03*
X167323000Y-83712500D03*
X167957000Y-83712500D03*
%TD*%
D13*
%TO.C,D8*%
X170355260Y-89903300D03*
X170342560Y-85407500D03*
%TD*%
%TO.C,D7*%
X179346860Y-89903300D03*
X179334160Y-85407500D03*
%TD*%
%TO.C,D6*%
X152372060Y-89903300D03*
X152359360Y-85407500D03*
%TD*%
%TO.C,D5*%
X161363660Y-89903300D03*
X161350960Y-85407500D03*
%TD*%
%TO.C,C4*%
G36*
G01*
X166375700Y-91427600D02*
X166770700Y-91427600D01*
G75*
G02*
X166943200Y-91600100I0J-172500D01*
G01*
X166943200Y-91945100D01*
G75*
G02*
X166770700Y-92117600I-172500J0D01*
G01*
X166375700Y-92117600D01*
G75*
G02*
X166203200Y-91945100I0J172500D01*
G01*
X166203200Y-91600100D01*
G75*
G02*
X166375700Y-91427600I172500J0D01*
G01*
G37*
G36*
G01*
X166375700Y-90457600D02*
X166770700Y-90457600D01*
G75*
G02*
X166943200Y-90630100I0J-172500D01*
G01*
X166943200Y-90975100D01*
G75*
G02*
X166770700Y-91147600I-172500J0D01*
G01*
X166375700Y-91147600D01*
G75*
G02*
X166203200Y-90975100I0J172500D01*
G01*
X166203200Y-90630100D01*
G75*
G02*
X166375700Y-90457600I172500J0D01*
G01*
G37*
%TD*%
%TO.C,C3*%
G36*
G01*
X128340500Y-81330500D02*
X127945500Y-81330500D01*
G75*
G02*
X127773000Y-81158000I0J172500D01*
G01*
X127773000Y-80813000D01*
G75*
G02*
X127945500Y-80640500I172500J0D01*
G01*
X128340500Y-80640500D01*
G75*
G02*
X128513000Y-80813000I0J-172500D01*
G01*
X128513000Y-81158000D01*
G75*
G02*
X128340500Y-81330500I-172500J0D01*
G01*
G37*
G36*
G01*
X128340500Y-82300500D02*
X127945500Y-82300500D01*
G75*
G02*
X127773000Y-82128000I0J172500D01*
G01*
X127773000Y-81783000D01*
G75*
G02*
X127945500Y-81610500I172500J0D01*
G01*
X128340500Y-81610500D01*
G75*
G02*
X128513000Y-81783000I0J-172500D01*
G01*
X128513000Y-82128000D01*
G75*
G02*
X128340500Y-82300500I-172500J0D01*
G01*
G37*
%TD*%
%TO.C,C2*%
G36*
G01*
X167340900Y-91427600D02*
X167735900Y-91427600D01*
G75*
G02*
X167908400Y-91600100I0J-172500D01*
G01*
X167908400Y-91945100D01*
G75*
G02*
X167735900Y-92117600I-172500J0D01*
G01*
X167340900Y-92117600D01*
G75*
G02*
X167168400Y-91945100I0J172500D01*
G01*
X167168400Y-91600100D01*
G75*
G02*
X167340900Y-91427600I172500J0D01*
G01*
G37*
G36*
G01*
X167340900Y-90457600D02*
X167735900Y-90457600D01*
G75*
G02*
X167908400Y-90630100I0J-172500D01*
G01*
X167908400Y-90975100D01*
G75*
G02*
X167735900Y-91147600I-172500J0D01*
G01*
X167340900Y-91147600D01*
G75*
G02*
X167168400Y-90975100I0J172500D01*
G01*
X167168400Y-90630100D01*
G75*
G02*
X167340900Y-90457600I172500J0D01*
G01*
G37*
%TD*%
%TO.C,C1*%
G36*
G01*
X129293000Y-81330500D02*
X128898000Y-81330500D01*
G75*
G02*
X128725500Y-81158000I0J172500D01*
G01*
X128725500Y-80813000D01*
G75*
G02*
X128898000Y-80640500I172500J0D01*
G01*
X129293000Y-80640500D01*
G75*
G02*
X129465500Y-80813000I0J-172500D01*
G01*
X129465500Y-81158000D01*
G75*
G02*
X129293000Y-81330500I-172500J0D01*
G01*
G37*
G36*
G01*
X129293000Y-82300500D02*
X128898000Y-82300500D01*
G75*
G02*
X128725500Y-82128000I0J172500D01*
G01*
X128725500Y-81783000D01*
G75*
G02*
X128898000Y-81610500I172500J0D01*
G01*
X129293000Y-81610500D01*
G75*
G02*
X129465500Y-81783000I0J-172500D01*
G01*
X129465500Y-82128000D01*
G75*
G02*
X129293000Y-82300500I-172500J0D01*
G01*
G37*
%TD*%
D12*
%TO.C,IC1*%
X127635500Y-84030000D03*
X128269500Y-84030000D03*
X128905500Y-84030000D03*
X129539500Y-84030000D03*
X130175500Y-84030000D03*
X130809500Y-84030000D03*
X131445500Y-84030000D03*
X132079500Y-84030000D03*
X132079500Y-89452000D03*
X131445500Y-89452000D03*
X130809500Y-89452000D03*
X130175500Y-89452000D03*
X129539500Y-89452000D03*
X128905500Y-89452000D03*
X128269500Y-89452000D03*
X127635500Y-89452000D03*
%TD*%
D13*
%TO.C,D4*%
X125427740Y-85356700D03*
X125440440Y-89852500D03*
%TD*%
%TO.C,D3*%
X116347240Y-85356700D03*
X116359940Y-89852500D03*
%TD*%
%TO.C,D2*%
X143398240Y-85356700D03*
X143410940Y-89852500D03*
%TD*%
%TO.C,D1*%
X134444740Y-85356700D03*
X134457440Y-89852500D03*
%TD*%
M02*
