%TF.GenerationSoftware,KiCad,Pcbnew,(5.1.6-0-10_14)*%
%TF.CreationDate,2020-06-29T16:19:24+02:00*%
%TF.ProjectId,rev0,72657630-2e6b-4696-9361-645f70636258,rev?*%
%TF.SameCoordinates,Original*%
%TF.FileFunction,Legend,Top*%
%TF.FilePolarity,Positive*%
%FSLAX46Y46*%
G04 Gerber Fmt 4.6, Leading zero omitted, Abs format (unit mm)*
G04 Created by KiCad (PCBNEW (5.1.6-0-10_14)) date 2020-06-29 16:19:24*
%MOMM*%
%LPD*%
G01*
G04 APERTURE LIST*
%ADD10C,0.100000*%
%ADD11C,0.120000*%
%ADD12C,0.200000*%
%ADD13C,0.150000*%
%ADD14C,0.254000*%
G04 APERTURE END LIST*
D10*
X145211866Y-89870800D02*
X145145200Y-89837466D01*
X145045200Y-89837466D01*
X144945200Y-89870800D01*
X144878533Y-89937466D01*
X144845200Y-90004133D01*
X144811866Y-90137466D01*
X144811866Y-90237466D01*
X144845200Y-90370800D01*
X144878533Y-90437466D01*
X144945200Y-90504133D01*
X145045200Y-90537466D01*
X145111866Y-90537466D01*
X145211866Y-90504133D01*
X145245200Y-90470800D01*
X145245200Y-90237466D01*
X145111866Y-90237466D01*
X145545200Y-90537466D02*
X145545200Y-89837466D01*
X145945200Y-90537466D01*
X145945200Y-89837466D01*
X146278533Y-90537466D02*
X146278533Y-89837466D01*
X146445200Y-89837466D01*
X146545200Y-89870800D01*
X146611866Y-89937466D01*
X146645200Y-90004133D01*
X146678533Y-90137466D01*
X146678533Y-90237466D01*
X146645200Y-90370800D01*
X146611866Y-90437466D01*
X146545200Y-90504133D01*
X146445200Y-90537466D01*
X146278533Y-90537466D01*
X144223733Y-89437333D02*
X144323733Y-89470666D01*
X144490400Y-89470666D01*
X144557066Y-89437333D01*
X144590400Y-89404000D01*
X144623733Y-89337333D01*
X144623733Y-89270666D01*
X144590400Y-89204000D01*
X144557066Y-89170666D01*
X144490400Y-89137333D01*
X144357066Y-89104000D01*
X144290400Y-89070666D01*
X144257066Y-89037333D01*
X144223733Y-88970666D01*
X144223733Y-88904000D01*
X144257066Y-88837333D01*
X144290400Y-88804000D01*
X144357066Y-88770666D01*
X144523733Y-88770666D01*
X144623733Y-88804000D01*
X145057066Y-89137333D02*
X145057066Y-89470666D01*
X144823733Y-88770666D02*
X145057066Y-89137333D01*
X145290400Y-88770666D01*
X145523733Y-89470666D02*
X145523733Y-88770666D01*
X145923733Y-89470666D01*
X145923733Y-88770666D01*
X146490400Y-89104000D02*
X146590400Y-89137333D01*
X146623733Y-89170666D01*
X146657066Y-89237333D01*
X146657066Y-89337333D01*
X146623733Y-89404000D01*
X146590400Y-89437333D01*
X146523733Y-89470666D01*
X146257066Y-89470666D01*
X146257066Y-88770666D01*
X146490400Y-88770666D01*
X146557066Y-88804000D01*
X146590400Y-88837333D01*
X146623733Y-88904000D01*
X146623733Y-88970666D01*
X146590400Y-89037333D01*
X146557066Y-89070666D01*
X146490400Y-89104000D01*
X146257066Y-89104000D01*
X144657066Y-88454666D02*
X144423733Y-88121333D01*
X144257066Y-88454666D02*
X144257066Y-87754666D01*
X144523733Y-87754666D01*
X144590400Y-87788000D01*
X144623733Y-87821333D01*
X144657066Y-87888000D01*
X144657066Y-87988000D01*
X144623733Y-88054666D01*
X144590400Y-88088000D01*
X144523733Y-88121333D01*
X144257066Y-88121333D01*
X144957066Y-88454666D02*
X144957066Y-87754666D01*
X145123733Y-87754666D01*
X145223733Y-87788000D01*
X145290400Y-87854666D01*
X145323733Y-87921333D01*
X145357066Y-88054666D01*
X145357066Y-88154666D01*
X145323733Y-88288000D01*
X145290400Y-88354666D01*
X145223733Y-88421333D01*
X145123733Y-88454666D01*
X144957066Y-88454666D01*
X145790400Y-88121333D02*
X145790400Y-88454666D01*
X145557066Y-87754666D02*
X145790400Y-88121333D01*
X146023733Y-87754666D01*
X146490400Y-88088000D02*
X146590400Y-88121333D01*
X146623733Y-88154666D01*
X146657066Y-88221333D01*
X146657066Y-88321333D01*
X146623733Y-88388000D01*
X146590400Y-88421333D01*
X146523733Y-88454666D01*
X146257066Y-88454666D01*
X146257066Y-87754666D01*
X146490400Y-87754666D01*
X146557066Y-87788000D01*
X146590400Y-87821333D01*
X146623733Y-87888000D01*
X146623733Y-87954666D01*
X146590400Y-88021333D01*
X146557066Y-88054666D01*
X146490400Y-88088000D01*
X146257066Y-88088000D01*
X144844400Y-87354533D02*
X144944400Y-87387866D01*
X145111066Y-87387866D01*
X145177733Y-87354533D01*
X145211066Y-87321200D01*
X145244400Y-87254533D01*
X145244400Y-87187866D01*
X145211066Y-87121200D01*
X145177733Y-87087866D01*
X145111066Y-87054533D01*
X144977733Y-87021200D01*
X144911066Y-86987866D01*
X144877733Y-86954533D01*
X144844400Y-86887866D01*
X144844400Y-86821200D01*
X144877733Y-86754533D01*
X144911066Y-86721200D01*
X144977733Y-86687866D01*
X145144400Y-86687866D01*
X145244400Y-86721200D01*
X145544400Y-87387866D02*
X145544400Y-86687866D01*
X145711066Y-86687866D01*
X145811066Y-86721200D01*
X145877733Y-86787866D01*
X145911066Y-86854533D01*
X145944400Y-86987866D01*
X145944400Y-87087866D01*
X145911066Y-87221200D01*
X145877733Y-87287866D01*
X145811066Y-87354533D01*
X145711066Y-87387866D01*
X145544400Y-87387866D01*
X146211066Y-87187866D02*
X146544400Y-87187866D01*
X146144400Y-87387866D02*
X146377733Y-86687866D01*
X146611066Y-87387866D01*
X144861066Y-86389333D02*
X144961066Y-86422666D01*
X145127733Y-86422666D01*
X145194400Y-86389333D01*
X145227733Y-86356000D01*
X145261066Y-86289333D01*
X145261066Y-86222666D01*
X145227733Y-86156000D01*
X145194400Y-86122666D01*
X145127733Y-86089333D01*
X144994400Y-86056000D01*
X144927733Y-86022666D01*
X144894400Y-85989333D01*
X144861066Y-85922666D01*
X144861066Y-85856000D01*
X144894400Y-85789333D01*
X144927733Y-85756000D01*
X144994400Y-85722666D01*
X145161066Y-85722666D01*
X145261066Y-85756000D01*
X145961066Y-86356000D02*
X145927733Y-86389333D01*
X145827733Y-86422666D01*
X145761066Y-86422666D01*
X145661066Y-86389333D01*
X145594400Y-86322666D01*
X145561066Y-86256000D01*
X145527733Y-86122666D01*
X145527733Y-86022666D01*
X145561066Y-85889333D01*
X145594400Y-85822666D01*
X145661066Y-85756000D01*
X145761066Y-85722666D01*
X145827733Y-85722666D01*
X145927733Y-85756000D01*
X145961066Y-85789333D01*
X146594400Y-86422666D02*
X146261066Y-86422666D01*
X146261066Y-85722666D01*
X144707066Y-85406666D02*
X144473733Y-85073333D01*
X144307066Y-85406666D02*
X144307066Y-84706666D01*
X144573733Y-84706666D01*
X144640400Y-84740000D01*
X144673733Y-84773333D01*
X144707066Y-84840000D01*
X144707066Y-84940000D01*
X144673733Y-85006666D01*
X144640400Y-85040000D01*
X144573733Y-85073333D01*
X144307066Y-85073333D01*
X145007066Y-85406666D02*
X145007066Y-84706666D01*
X145173733Y-84706666D01*
X145273733Y-84740000D01*
X145340400Y-84806666D01*
X145373733Y-84873333D01*
X145407066Y-85006666D01*
X145407066Y-85106666D01*
X145373733Y-85240000D01*
X145340400Y-85306666D01*
X145273733Y-85373333D01*
X145173733Y-85406666D01*
X145007066Y-85406666D01*
X145840400Y-85073333D02*
X145840400Y-85406666D01*
X145607066Y-84706666D02*
X145840400Y-85073333D01*
X146073733Y-84706666D01*
X146273733Y-85206666D02*
X146607066Y-85206666D01*
X146207066Y-85406666D02*
X146440400Y-84706666D01*
X146673733Y-85406666D01*
X144273733Y-84408133D02*
X144373733Y-84441466D01*
X144540400Y-84441466D01*
X144607066Y-84408133D01*
X144640400Y-84374800D01*
X144673733Y-84308133D01*
X144673733Y-84241466D01*
X144640400Y-84174800D01*
X144607066Y-84141466D01*
X144540400Y-84108133D01*
X144407066Y-84074800D01*
X144340400Y-84041466D01*
X144307066Y-84008133D01*
X144273733Y-83941466D01*
X144273733Y-83874800D01*
X144307066Y-83808133D01*
X144340400Y-83774800D01*
X144407066Y-83741466D01*
X144573733Y-83741466D01*
X144673733Y-83774800D01*
X145107066Y-84108133D02*
X145107066Y-84441466D01*
X144873733Y-83741466D02*
X145107066Y-84108133D01*
X145340400Y-83741466D01*
X145573733Y-84441466D02*
X145573733Y-83741466D01*
X145973733Y-84441466D01*
X145973733Y-83741466D01*
X146273733Y-84241466D02*
X146607066Y-84241466D01*
X146207066Y-84441466D02*
X146440400Y-83741466D01*
X146673733Y-84441466D01*
X144811866Y-82776266D02*
X145045200Y-83476266D01*
X145278533Y-82776266D01*
X145911866Y-83409600D02*
X145878533Y-83442933D01*
X145778533Y-83476266D01*
X145711866Y-83476266D01*
X145611866Y-83442933D01*
X145545200Y-83376266D01*
X145511866Y-83309600D01*
X145478533Y-83176266D01*
X145478533Y-83076266D01*
X145511866Y-82942933D01*
X145545200Y-82876266D01*
X145611866Y-82809600D01*
X145711866Y-82776266D01*
X145778533Y-82776266D01*
X145878533Y-82809600D01*
X145911866Y-82842933D01*
X146611866Y-83409600D02*
X146578533Y-83442933D01*
X146478533Y-83476266D01*
X146411866Y-83476266D01*
X146311866Y-83442933D01*
X146245200Y-83376266D01*
X146211866Y-83309600D01*
X146178533Y-83176266D01*
X146178533Y-83076266D01*
X146211866Y-82942933D01*
X146245200Y-82876266D01*
X146311866Y-82809600D01*
X146411866Y-82776266D01*
X146478533Y-82776266D01*
X146578533Y-82809600D01*
X146611866Y-82842933D01*
D11*
%TO.C,J1*%
X148332500Y-90791500D02*
X147637500Y-90791500D01*
X148332500Y-90106500D02*
X148332500Y-90791500D01*
X147029224Y-89421500D02*
X146942500Y-89421500D01*
X148332500Y-89421500D02*
X148245776Y-89421500D01*
X146942500Y-89421500D02*
X146942500Y-82546500D01*
X148332500Y-89421500D02*
X148332500Y-82546500D01*
X147243007Y-82546500D02*
X146942500Y-82546500D01*
X148332500Y-82546500D02*
X148031993Y-82546500D01*
%TO.C,R2*%
X164495564Y-82444000D02*
X163291436Y-82444000D01*
X164495564Y-80624000D02*
X163291436Y-80624000D01*
%TO.C,R1*%
X130398436Y-90530000D02*
X131602564Y-90530000D01*
X130398436Y-92350000D02*
X131602564Y-92350000D01*
D12*
%TO.C,IC2*%
X168185000Y-84825500D02*
X168185000Y-88021500D01*
X168185000Y-88021500D02*
X163285000Y-88021500D01*
X163285000Y-88021500D02*
X163285000Y-84825500D01*
X163285000Y-84825500D02*
X168185000Y-84825500D01*
X168525000Y-82948500D02*
X168525000Y-84475500D01*
%TO.C,IC1*%
X127407500Y-88339000D02*
X127407500Y-85143000D01*
X127407500Y-85143000D02*
X132307500Y-85143000D01*
X132307500Y-85143000D02*
X132307500Y-88339000D01*
X132307500Y-88339000D02*
X127407500Y-88339000D01*
X127067500Y-90216000D02*
X127067500Y-88689000D01*
%TO.C,J1*%
D13*
X147304166Y-91118880D02*
X147304166Y-91833166D01*
X147256547Y-91976023D01*
X147161309Y-92071261D01*
X147018452Y-92118880D01*
X146923214Y-92118880D01*
X148304166Y-92118880D02*
X147732738Y-92118880D01*
X148018452Y-92118880D02*
X148018452Y-91118880D01*
X147923214Y-91261738D01*
X147827976Y-91356976D01*
X147732738Y-91404595D01*
%TO.C,R5*%
X150656880Y-83923166D02*
X150180690Y-84256500D01*
X150656880Y-84494595D02*
X149656880Y-84494595D01*
X149656880Y-84113642D01*
X149704500Y-84018404D01*
X149752119Y-83970785D01*
X149847357Y-83923166D01*
X149990214Y-83923166D01*
X150085452Y-83970785D01*
X150133071Y-84018404D01*
X150180690Y-84113642D01*
X150180690Y-84494595D01*
X149656880Y-83018404D02*
X149656880Y-83494595D01*
X150133071Y-83542214D01*
X150085452Y-83494595D01*
X150037833Y-83399357D01*
X150037833Y-83161261D01*
X150085452Y-83066023D01*
X150133071Y-83018404D01*
X150228309Y-82970785D01*
X150466404Y-82970785D01*
X150561642Y-83018404D01*
X150609261Y-83066023D01*
X150656880Y-83161261D01*
X150656880Y-83399357D01*
X150609261Y-83494595D01*
X150561642Y-83542214D01*
%TO.C,R4*%
X150656880Y-85828166D02*
X150180690Y-86161500D01*
X150656880Y-86399595D02*
X149656880Y-86399595D01*
X149656880Y-86018642D01*
X149704500Y-85923404D01*
X149752119Y-85875785D01*
X149847357Y-85828166D01*
X149990214Y-85828166D01*
X150085452Y-85875785D01*
X150133071Y-85923404D01*
X150180690Y-86018642D01*
X150180690Y-86399595D01*
X149990214Y-84971023D02*
X150656880Y-84971023D01*
X149609261Y-85209119D02*
X150323547Y-85447214D01*
X150323547Y-84828166D01*
%TO.C,R2*%
X161555866Y-82107866D02*
X161222533Y-82341200D01*
X161555866Y-82507866D02*
X160855866Y-82507866D01*
X160855866Y-82241200D01*
X160889200Y-82174533D01*
X160922533Y-82141200D01*
X160989200Y-82107866D01*
X161089200Y-82107866D01*
X161155866Y-82141200D01*
X161189200Y-82174533D01*
X161222533Y-82241200D01*
X161222533Y-82507866D01*
X160922533Y-81841200D02*
X160889200Y-81807866D01*
X160855866Y-81741200D01*
X160855866Y-81574533D01*
X160889200Y-81507866D01*
X160922533Y-81474533D01*
X160989200Y-81441200D01*
X161055866Y-81441200D01*
X161155866Y-81474533D01*
X161555866Y-81874533D01*
X161555866Y-81441200D01*
%TO.C,R1*%
X128688266Y-91455066D02*
X128354933Y-91688400D01*
X128688266Y-91855066D02*
X127988266Y-91855066D01*
X127988266Y-91588400D01*
X128021600Y-91521733D01*
X128054933Y-91488400D01*
X128121600Y-91455066D01*
X128221600Y-91455066D01*
X128288266Y-91488400D01*
X128321600Y-91521733D01*
X128354933Y-91588400D01*
X128354933Y-91855066D01*
X128688266Y-90788400D02*
X128688266Y-91188400D01*
X128688266Y-90988400D02*
X127988266Y-90988400D01*
X128088266Y-91055066D01*
X128154933Y-91121733D01*
X128188266Y-91188400D01*
%TO.C,IC2*%
D14*
X166309523Y-87663261D02*
X165039523Y-87663261D01*
X166188571Y-86332785D02*
X166249047Y-86393261D01*
X166309523Y-86574690D01*
X166309523Y-86695642D01*
X166249047Y-86877071D01*
X166128095Y-86998023D01*
X166007142Y-87058500D01*
X165765238Y-87118976D01*
X165583809Y-87118976D01*
X165341904Y-87058500D01*
X165220952Y-86998023D01*
X165100000Y-86877071D01*
X165039523Y-86695642D01*
X165039523Y-86574690D01*
X165100000Y-86393261D01*
X165160476Y-86332785D01*
X165160476Y-85848976D02*
X165100000Y-85788500D01*
X165039523Y-85667547D01*
X165039523Y-85365166D01*
X165100000Y-85244214D01*
X165160476Y-85183738D01*
X165281428Y-85123261D01*
X165402380Y-85123261D01*
X165583809Y-85183738D01*
X166309523Y-85909452D01*
X166309523Y-85123261D01*
%TO.C,C4*%
D13*
X169058400Y-90185066D02*
X169091733Y-90218400D01*
X169125066Y-90318400D01*
X169125066Y-90385066D01*
X169091733Y-90485066D01*
X169025066Y-90551733D01*
X168958400Y-90585066D01*
X168825066Y-90618400D01*
X168725066Y-90618400D01*
X168591733Y-90585066D01*
X168525066Y-90551733D01*
X168458400Y-90485066D01*
X168425066Y-90385066D01*
X168425066Y-90318400D01*
X168458400Y-90218400D01*
X168491733Y-90185066D01*
X168658400Y-89585066D02*
X169125066Y-89585066D01*
X168391733Y-89751733D02*
X168891733Y-89918400D01*
X168891733Y-89485066D01*
%TO.C,C3*%
X126018100Y-81917366D02*
X126051433Y-81950700D01*
X126084766Y-82050700D01*
X126084766Y-82117366D01*
X126051433Y-82217366D01*
X125984766Y-82284033D01*
X125918100Y-82317366D01*
X125784766Y-82350700D01*
X125684766Y-82350700D01*
X125551433Y-82317366D01*
X125484766Y-82284033D01*
X125418100Y-82217366D01*
X125384766Y-82117366D01*
X125384766Y-82050700D01*
X125418100Y-81950700D01*
X125451433Y-81917366D01*
X125384766Y-81684033D02*
X125384766Y-81250700D01*
X125651433Y-81484033D01*
X125651433Y-81384033D01*
X125684766Y-81317366D01*
X125718100Y-81284033D01*
X125784766Y-81250700D01*
X125951433Y-81250700D01*
X126018100Y-81284033D01*
X126051433Y-81317366D01*
X126084766Y-81384033D01*
X126084766Y-81584033D01*
X126051433Y-81650700D01*
X126018100Y-81684033D01*
%TO.C,C2*%
X169922000Y-91607466D02*
X169955333Y-91640800D01*
X169988666Y-91740800D01*
X169988666Y-91807466D01*
X169955333Y-91907466D01*
X169888666Y-91974133D01*
X169822000Y-92007466D01*
X169688666Y-92040800D01*
X169588666Y-92040800D01*
X169455333Y-92007466D01*
X169388666Y-91974133D01*
X169322000Y-91907466D01*
X169288666Y-91807466D01*
X169288666Y-91740800D01*
X169322000Y-91640800D01*
X169355333Y-91607466D01*
X169355333Y-91340800D02*
X169322000Y-91307466D01*
X169288666Y-91240800D01*
X169288666Y-91074133D01*
X169322000Y-91007466D01*
X169355333Y-90974133D01*
X169422000Y-90940800D01*
X169488666Y-90940800D01*
X169588666Y-90974133D01*
X169988666Y-91374133D01*
X169988666Y-90940800D01*
%TO.C,C1*%
X127351600Y-81853866D02*
X127384933Y-81887200D01*
X127418266Y-81987200D01*
X127418266Y-82053866D01*
X127384933Y-82153866D01*
X127318266Y-82220533D01*
X127251600Y-82253866D01*
X127118266Y-82287200D01*
X127018266Y-82287200D01*
X126884933Y-82253866D01*
X126818266Y-82220533D01*
X126751600Y-82153866D01*
X126718266Y-82053866D01*
X126718266Y-81987200D01*
X126751600Y-81887200D01*
X126784933Y-81853866D01*
X127418266Y-81187200D02*
X127418266Y-81587200D01*
X127418266Y-81387200D02*
X126718266Y-81387200D01*
X126818266Y-81453866D01*
X126884933Y-81520533D01*
X126918266Y-81587200D01*
%TO.C,IC1*%
D14*
X130432023Y-87980761D02*
X129162023Y-87980761D01*
X130311071Y-86650285D02*
X130371547Y-86710761D01*
X130432023Y-86892190D01*
X130432023Y-87013142D01*
X130371547Y-87194571D01*
X130250595Y-87315523D01*
X130129642Y-87376000D01*
X129887738Y-87436476D01*
X129706309Y-87436476D01*
X129464404Y-87376000D01*
X129343452Y-87315523D01*
X129222500Y-87194571D01*
X129162023Y-87013142D01*
X129162023Y-86892190D01*
X129222500Y-86710761D01*
X129282976Y-86650285D01*
X130432023Y-85440761D02*
X130432023Y-86166476D01*
X130432023Y-85803619D02*
X129162023Y-85803619D01*
X129343452Y-85924571D01*
X129464404Y-86045523D01*
X129524880Y-86166476D01*
%TD*%
M02*
