%TF.GenerationSoftware,KiCad,Pcbnew,(5.1.6-0-10_14)*%
%TF.CreationDate,2020-06-29T16:19:24+02:00*%
%TF.ProjectId,rev0,72657630-2e6b-4696-9361-645f70636258,rev?*%
%TF.SameCoordinates,Original*%
%TF.FileFunction,Copper,L1,Top*%
%TF.FilePolarity,Positive*%
%FSLAX46Y46*%
G04 Gerber Fmt 4.6, Leading zero omitted, Abs format (unit mm)*
G04 Created by KiCad (PCBNEW (5.1.6-0-10_14)) date 2020-06-29 16:19:24*
%MOMM*%
%LPD*%
G01*
G04 APERTURE LIST*
%TA.AperFunction,ComponentPad*%
%ADD10O,0.850000X0.850000*%
%TD*%
%TA.AperFunction,ComponentPad*%
%ADD11R,0.850000X0.850000*%
%TD*%
%TA.AperFunction,SMDPad,CuDef*%
%ADD12R,0.435000X1.528000*%
%TD*%
%TA.AperFunction,ComponentPad*%
%ADD13C,1.524000*%
%TD*%
%TA.AperFunction,ViaPad*%
%ADD14C,0.800000*%
%TD*%
%TA.AperFunction,Conductor*%
%ADD15C,0.250000*%
%TD*%
%TA.AperFunction,Conductor*%
%ADD16C,0.254000*%
%TD*%
G04 APERTURE END LIST*
D10*
%TO.P,J1,8*%
%TO.N,VCC*%
X147637500Y-83106500D03*
%TO.P,J1,7*%
%TO.N,SYN_A*%
X147637500Y-84106500D03*
%TO.P,J1,6*%
%TO.N,READY_A*%
X147637500Y-85106500D03*
%TO.P,J1,5*%
%TO.N,SCL*%
X147637500Y-86106500D03*
%TO.P,J1,4*%
%TO.N,SDA*%
X147637500Y-87106500D03*
%TO.P,J1,3*%
%TO.N,READY_B*%
X147637500Y-88106500D03*
%TO.P,J1,2*%
%TO.N,SYN_B*%
X147637500Y-89106500D03*
D11*
%TO.P,J1,1*%
%TO.N,GND*%
X147637500Y-90106500D03*
%TD*%
%TO.P,R5,2*%
%TO.N,SDA*%
%TA.AperFunction,SMDPad,CuDef*%
G36*
G01*
X148862000Y-83946500D02*
X149207000Y-83946500D01*
G75*
G02*
X149354500Y-84094000I0J-147500D01*
G01*
X149354500Y-84389000D01*
G75*
G02*
X149207000Y-84536500I-147500J0D01*
G01*
X148862000Y-84536500D01*
G75*
G02*
X148714500Y-84389000I0J147500D01*
G01*
X148714500Y-84094000D01*
G75*
G02*
X148862000Y-83946500I147500J0D01*
G01*
G37*
%TD.AperFunction*%
%TO.P,R5,1*%
%TO.N,VCC*%
%TA.AperFunction,SMDPad,CuDef*%
G36*
G01*
X148862000Y-82976500D02*
X149207000Y-82976500D01*
G75*
G02*
X149354500Y-83124000I0J-147500D01*
G01*
X149354500Y-83419000D01*
G75*
G02*
X149207000Y-83566500I-147500J0D01*
G01*
X148862000Y-83566500D01*
G75*
G02*
X148714500Y-83419000I0J147500D01*
G01*
X148714500Y-83124000D01*
G75*
G02*
X148862000Y-82976500I147500J0D01*
G01*
G37*
%TD.AperFunction*%
%TD*%
%TO.P,R4,2*%
%TO.N,SCL*%
%TA.AperFunction,SMDPad,CuDef*%
G36*
G01*
X148862000Y-85851500D02*
X149207000Y-85851500D01*
G75*
G02*
X149354500Y-85999000I0J-147500D01*
G01*
X149354500Y-86294000D01*
G75*
G02*
X149207000Y-86441500I-147500J0D01*
G01*
X148862000Y-86441500D01*
G75*
G02*
X148714500Y-86294000I0J147500D01*
G01*
X148714500Y-85999000D01*
G75*
G02*
X148862000Y-85851500I147500J0D01*
G01*
G37*
%TD.AperFunction*%
%TO.P,R4,1*%
%TO.N,VCC*%
%TA.AperFunction,SMDPad,CuDef*%
G36*
G01*
X148862000Y-84881500D02*
X149207000Y-84881500D01*
G75*
G02*
X149354500Y-85029000I0J-147500D01*
G01*
X149354500Y-85324000D01*
G75*
G02*
X149207000Y-85471500I-147500J0D01*
G01*
X148862000Y-85471500D01*
G75*
G02*
X148714500Y-85324000I0J147500D01*
G01*
X148714500Y-85029000D01*
G75*
G02*
X148862000Y-84881500I147500J0D01*
G01*
G37*
%TD.AperFunction*%
%TD*%
%TO.P,R2,2*%
%TO.N,GND*%
%TA.AperFunction,SMDPad,CuDef*%
G36*
G01*
X163118500Y-80909000D02*
X163118500Y-82159000D01*
G75*
G02*
X162868500Y-82409000I-250000J0D01*
G01*
X162118500Y-82409000D01*
G75*
G02*
X161868500Y-82159000I0J250000D01*
G01*
X161868500Y-80909000D01*
G75*
G02*
X162118500Y-80659000I250000J0D01*
G01*
X162868500Y-80659000D01*
G75*
G02*
X163118500Y-80909000I0J-250000D01*
G01*
G37*
%TD.AperFunction*%
%TO.P,R2,1*%
%TO.N,Net-(IC2-Pad5)*%
%TA.AperFunction,SMDPad,CuDef*%
G36*
G01*
X165918500Y-80909000D02*
X165918500Y-82159000D01*
G75*
G02*
X165668500Y-82409000I-250000J0D01*
G01*
X164918500Y-82409000D01*
G75*
G02*
X164668500Y-82159000I0J250000D01*
G01*
X164668500Y-80909000D01*
G75*
G02*
X164918500Y-80659000I250000J0D01*
G01*
X165668500Y-80659000D01*
G75*
G02*
X165918500Y-80909000I0J-250000D01*
G01*
G37*
%TD.AperFunction*%
%TD*%
%TO.P,R1,2*%
%TO.N,GND*%
%TA.AperFunction,SMDPad,CuDef*%
G36*
G01*
X131775500Y-92065000D02*
X131775500Y-90815000D01*
G75*
G02*
X132025500Y-90565000I250000J0D01*
G01*
X132775500Y-90565000D01*
G75*
G02*
X133025500Y-90815000I0J-250000D01*
G01*
X133025500Y-92065000D01*
G75*
G02*
X132775500Y-92315000I-250000J0D01*
G01*
X132025500Y-92315000D01*
G75*
G02*
X131775500Y-92065000I0J250000D01*
G01*
G37*
%TD.AperFunction*%
%TO.P,R1,1*%
%TO.N,Net-(IC1-Pad5)*%
%TA.AperFunction,SMDPad,CuDef*%
G36*
G01*
X128975500Y-92065000D02*
X128975500Y-90815000D01*
G75*
G02*
X129225500Y-90565000I250000J0D01*
G01*
X129975500Y-90565000D01*
G75*
G02*
X130225500Y-90815000I0J-250000D01*
G01*
X130225500Y-92065000D01*
G75*
G02*
X129975500Y-92315000I-250000J0D01*
G01*
X129225500Y-92315000D01*
G75*
G02*
X128975500Y-92065000I0J250000D01*
G01*
G37*
%TD.AperFunction*%
%TD*%
D12*
%TO.P,IC2,16*%
%TO.N,VPD_B*%
X167957000Y-89134500D03*
%TO.P,IC2,15*%
%TO.N,VCC*%
X167323000Y-89134500D03*
%TO.P,IC2,14*%
X166687000Y-89134500D03*
%TO.P,IC2,13*%
%TO.N,SYN_B*%
X166053000Y-89134500D03*
%TO.P,IC2,12*%
%TO.N,READY_B*%
X165417000Y-89134500D03*
%TO.P,IC2,11*%
%TO.N,SCL*%
X164783000Y-89134500D03*
%TO.P,IC2,10*%
%TO.N,SDA*%
X164147000Y-89134500D03*
%TO.P,IC2,9*%
%TO.N,Net-(IC2-Pad9)*%
X163513000Y-89134500D03*
%TO.P,IC2,8*%
%TO.N,GND*%
X163513000Y-83712500D03*
%TO.P,IC2,7*%
X164147000Y-83712500D03*
%TO.P,IC2,6*%
X164783000Y-83712500D03*
%TO.P,IC2,5*%
%TO.N,Net-(IC2-Pad5)*%
X165417000Y-83712500D03*
%TO.P,IC2,4*%
%TO.N,PD4*%
X166053000Y-83712500D03*
%TO.P,IC2,3*%
%TO.N,PD5*%
X166687000Y-83712500D03*
%TO.P,IC2,2*%
%TO.N,PD6*%
X167323000Y-83712500D03*
%TO.P,IC2,1*%
%TO.N,PD7*%
X167957000Y-83712500D03*
%TD*%
D13*
%TO.P,D8,2*%
%TO.N,VPD_B*%
X170355260Y-89903300D03*
%TO.P,D8,1*%
%TO.N,PD7*%
X170342560Y-85407500D03*
%TD*%
%TO.P,D7,2*%
%TO.N,VPD_B*%
X179346860Y-89903300D03*
%TO.P,D7,1*%
%TO.N,PD6*%
X179334160Y-85407500D03*
%TD*%
%TO.P,D6,2*%
%TO.N,VPD_B*%
X152372060Y-89903300D03*
%TO.P,D6,1*%
%TO.N,PD5*%
X152359360Y-85407500D03*
%TD*%
%TO.P,D5,2*%
%TO.N,VPD_B*%
X161363660Y-89903300D03*
%TO.P,D5,1*%
%TO.N,PD4*%
X161350960Y-85407500D03*
%TD*%
%TO.P,C4,2*%
%TO.N,GND*%
%TA.AperFunction,SMDPad,CuDef*%
G36*
G01*
X166400700Y-91477600D02*
X166745700Y-91477600D01*
G75*
G02*
X166893200Y-91625100I0J-147500D01*
G01*
X166893200Y-91920100D01*
G75*
G02*
X166745700Y-92067600I-147500J0D01*
G01*
X166400700Y-92067600D01*
G75*
G02*
X166253200Y-91920100I0J147500D01*
G01*
X166253200Y-91625100D01*
G75*
G02*
X166400700Y-91477600I147500J0D01*
G01*
G37*
%TD.AperFunction*%
%TO.P,C4,1*%
%TO.N,VCC*%
%TA.AperFunction,SMDPad,CuDef*%
G36*
G01*
X166400700Y-90507600D02*
X166745700Y-90507600D01*
G75*
G02*
X166893200Y-90655100I0J-147500D01*
G01*
X166893200Y-90950100D01*
G75*
G02*
X166745700Y-91097600I-147500J0D01*
G01*
X166400700Y-91097600D01*
G75*
G02*
X166253200Y-90950100I0J147500D01*
G01*
X166253200Y-90655100D01*
G75*
G02*
X166400700Y-90507600I147500J0D01*
G01*
G37*
%TD.AperFunction*%
%TD*%
%TO.P,C3,2*%
%TO.N,GND*%
%TA.AperFunction,SMDPad,CuDef*%
G36*
G01*
X128315500Y-81280500D02*
X127970500Y-81280500D01*
G75*
G02*
X127823000Y-81133000I0J147500D01*
G01*
X127823000Y-80838000D01*
G75*
G02*
X127970500Y-80690500I147500J0D01*
G01*
X128315500Y-80690500D01*
G75*
G02*
X128463000Y-80838000I0J-147500D01*
G01*
X128463000Y-81133000D01*
G75*
G02*
X128315500Y-81280500I-147500J0D01*
G01*
G37*
%TD.AperFunction*%
%TO.P,C3,1*%
%TO.N,VCC*%
%TA.AperFunction,SMDPad,CuDef*%
G36*
G01*
X128315500Y-82250500D02*
X127970500Y-82250500D01*
G75*
G02*
X127823000Y-82103000I0J147500D01*
G01*
X127823000Y-81808000D01*
G75*
G02*
X127970500Y-81660500I147500J0D01*
G01*
X128315500Y-81660500D01*
G75*
G02*
X128463000Y-81808000I0J-147500D01*
G01*
X128463000Y-82103000D01*
G75*
G02*
X128315500Y-82250500I-147500J0D01*
G01*
G37*
%TD.AperFunction*%
%TD*%
%TO.P,C2,2*%
%TO.N,GND*%
%TA.AperFunction,SMDPad,CuDef*%
G36*
G01*
X167365900Y-91477600D02*
X167710900Y-91477600D01*
G75*
G02*
X167858400Y-91625100I0J-147500D01*
G01*
X167858400Y-91920100D01*
G75*
G02*
X167710900Y-92067600I-147500J0D01*
G01*
X167365900Y-92067600D01*
G75*
G02*
X167218400Y-91920100I0J147500D01*
G01*
X167218400Y-91625100D01*
G75*
G02*
X167365900Y-91477600I147500J0D01*
G01*
G37*
%TD.AperFunction*%
%TO.P,C2,1*%
%TO.N,VCC*%
%TA.AperFunction,SMDPad,CuDef*%
G36*
G01*
X167365900Y-90507600D02*
X167710900Y-90507600D01*
G75*
G02*
X167858400Y-90655100I0J-147500D01*
G01*
X167858400Y-90950100D01*
G75*
G02*
X167710900Y-91097600I-147500J0D01*
G01*
X167365900Y-91097600D01*
G75*
G02*
X167218400Y-90950100I0J147500D01*
G01*
X167218400Y-90655100D01*
G75*
G02*
X167365900Y-90507600I147500J0D01*
G01*
G37*
%TD.AperFunction*%
%TD*%
%TO.P,C1,2*%
%TO.N,GND*%
%TA.AperFunction,SMDPad,CuDef*%
G36*
G01*
X129268000Y-81280500D02*
X128923000Y-81280500D01*
G75*
G02*
X128775500Y-81133000I0J147500D01*
G01*
X128775500Y-80838000D01*
G75*
G02*
X128923000Y-80690500I147500J0D01*
G01*
X129268000Y-80690500D01*
G75*
G02*
X129415500Y-80838000I0J-147500D01*
G01*
X129415500Y-81133000D01*
G75*
G02*
X129268000Y-81280500I-147500J0D01*
G01*
G37*
%TD.AperFunction*%
%TO.P,C1,1*%
%TO.N,VCC*%
%TA.AperFunction,SMDPad,CuDef*%
G36*
G01*
X129268000Y-82250500D02*
X128923000Y-82250500D01*
G75*
G02*
X128775500Y-82103000I0J147500D01*
G01*
X128775500Y-81808000D01*
G75*
G02*
X128923000Y-81660500I147500J0D01*
G01*
X129268000Y-81660500D01*
G75*
G02*
X129415500Y-81808000I0J-147500D01*
G01*
X129415500Y-82103000D01*
G75*
G02*
X129268000Y-82250500I-147500J0D01*
G01*
G37*
%TD.AperFunction*%
%TD*%
D12*
%TO.P,IC1,16*%
%TO.N,VPD_A*%
X127635500Y-84030000D03*
%TO.P,IC1,15*%
%TO.N,VCC*%
X128269500Y-84030000D03*
%TO.P,IC1,14*%
X128905500Y-84030000D03*
%TO.P,IC1,13*%
%TO.N,SYN_A*%
X129539500Y-84030000D03*
%TO.P,IC1,12*%
%TO.N,READY_A*%
X130175500Y-84030000D03*
%TO.P,IC1,11*%
%TO.N,SCL*%
X130809500Y-84030000D03*
%TO.P,IC1,10*%
%TO.N,SDA*%
X131445500Y-84030000D03*
%TO.P,IC1,9*%
%TO.N,GND*%
X132079500Y-84030000D03*
%TO.P,IC1,8*%
X132079500Y-89452000D03*
%TO.P,IC1,7*%
X131445500Y-89452000D03*
%TO.P,IC1,6*%
X130809500Y-89452000D03*
%TO.P,IC1,5*%
%TO.N,Net-(IC1-Pad5)*%
X130175500Y-89452000D03*
%TO.P,IC1,4*%
%TO.N,PD0*%
X129539500Y-89452000D03*
%TO.P,IC1,3*%
%TO.N,PD1*%
X128905500Y-89452000D03*
%TO.P,IC1,2*%
%TO.N,PD2*%
X128269500Y-89452000D03*
%TO.P,IC1,1*%
%TO.N,PD3*%
X127635500Y-89452000D03*
%TD*%
D13*
%TO.P,D4,2*%
%TO.N,VPD_A*%
X125427740Y-85356700D03*
%TO.P,D4,1*%
%TO.N,PD3*%
X125440440Y-89852500D03*
%TD*%
%TO.P,D3,2*%
%TO.N,VPD_A*%
X116347240Y-85356700D03*
%TO.P,D3,1*%
%TO.N,PD2*%
X116359940Y-89852500D03*
%TD*%
%TO.P,D2,2*%
%TO.N,VPD_A*%
X143398240Y-85356700D03*
%TO.P,D2,1*%
%TO.N,PD1*%
X143410940Y-89852500D03*
%TD*%
%TO.P,D1,2*%
%TO.N,VPD_A*%
X134444740Y-85356700D03*
%TO.P,D1,1*%
%TO.N,PD0*%
X134457440Y-89852500D03*
%TD*%
D14*
%TO.N,Net-(IC2-Pad9)*%
X165404800Y-87770498D03*
%TO.N,GND*%
X160274000Y-81635600D03*
X158902400Y-81686400D03*
X157276800Y-81686400D03*
X155498800Y-81686400D03*
X153466800Y-81686400D03*
X151587200Y-81686400D03*
X149555200Y-81635600D03*
X147675600Y-81686400D03*
X152603200Y-82956400D03*
X154584400Y-82956400D03*
X156464000Y-82905600D03*
X158699200Y-83108800D03*
X160731200Y-83058000D03*
X159562800Y-84886800D03*
X157581600Y-84836000D03*
X156006800Y-84734400D03*
X154127200Y-84226400D03*
X153822400Y-87680800D03*
X156464000Y-87680800D03*
X160070800Y-88900000D03*
X157683200Y-88900000D03*
X155244800Y-88798400D03*
X150876000Y-88900000D03*
X150418800Y-86512400D03*
X150571200Y-83870800D03*
X149860000Y-87985600D03*
X145338800Y-87477600D03*
X143256000Y-87477600D03*
X141630400Y-86106000D03*
X139039600Y-86055200D03*
X136448800Y-86055200D03*
X133146800Y-86360000D03*
X130556000Y-86309200D03*
X128422400Y-86258400D03*
X125425200Y-87376000D03*
X122529600Y-87426800D03*
X119938800Y-87528400D03*
X117043200Y-87528400D03*
X114147600Y-87680800D03*
X111201200Y-87680800D03*
X107848400Y-87731600D03*
X104444800Y-87833200D03*
X104292400Y-90576400D03*
X107645200Y-90525600D03*
X111150400Y-90830400D03*
X114452400Y-90932000D03*
X114096800Y-84480400D03*
X110896400Y-84277200D03*
X107492800Y-84429600D03*
X104444800Y-84531200D03*
X104444800Y-81940400D03*
X107492800Y-81889600D03*
X110693200Y-81686400D03*
X114147600Y-81737200D03*
X117398800Y-81635600D03*
X120294400Y-81737200D03*
X123444000Y-81737200D03*
X121158000Y-84277200D03*
X121208800Y-90373200D03*
X118567200Y-90220800D03*
X123850400Y-90474800D03*
X134162800Y-91795600D03*
X136652000Y-91795600D03*
X138836400Y-91846400D03*
X138684000Y-89458800D03*
X136398000Y-89408000D03*
X138582400Y-84023200D03*
X136499600Y-84023200D03*
X133604000Y-83972400D03*
X126339600Y-83261200D03*
X141732000Y-83870800D03*
X145592800Y-91592400D03*
X142087600Y-91592400D03*
X141071600Y-89560400D03*
X145491200Y-89763600D03*
X127863600Y-87630000D03*
X130962400Y-91236800D03*
X174955200Y-91135200D03*
X172110400Y-91135200D03*
X172008800Y-88646000D03*
X174955200Y-88696800D03*
X178003200Y-87985600D03*
X177952400Y-91236800D03*
X170281600Y-87680800D03*
X168808400Y-86766400D03*
X166928800Y-85902800D03*
X168605200Y-85242400D03*
X170332400Y-83261200D03*
X172567600Y-83261200D03*
X175107600Y-83159600D03*
X177139600Y-83312000D03*
X174142400Y-86258400D03*
X176479200Y-85394800D03*
X181152800Y-83413600D03*
X183997600Y-83210400D03*
X186232800Y-83159600D03*
X188417200Y-83159600D03*
X190804800Y-83058000D03*
X189890400Y-85394800D03*
X186994800Y-85293200D03*
X184759600Y-85242400D03*
X182270400Y-85191600D03*
X180644800Y-86715600D03*
X183642000Y-86817200D03*
X186283600Y-86817200D03*
X189382400Y-87071200D03*
X191770000Y-86106000D03*
X191820800Y-91135200D03*
X191516000Y-88442800D03*
X189687200Y-91236800D03*
X189636400Y-88798400D03*
X186944000Y-88646000D03*
X186842400Y-91033600D03*
X184251600Y-91084400D03*
X184200800Y-88950800D03*
X181660800Y-88849200D03*
X181660800Y-91135200D03*
X180340000Y-81737200D03*
X182778400Y-81686400D03*
X185115200Y-81686400D03*
X187604400Y-81686400D03*
X189433200Y-81788000D03*
X191617600Y-81635600D03*
X169011600Y-81280000D03*
X172212000Y-81178400D03*
X174853600Y-81178400D03*
X166827200Y-81584800D03*
X118364000Y-83566000D03*
X109626400Y-86055200D03*
X105867200Y-86055200D03*
X105918000Y-83159600D03*
X109321600Y-83058000D03*
X112928400Y-82753200D03*
X116230400Y-82753200D03*
X112776000Y-89662000D03*
X109524800Y-89306400D03*
X106070400Y-89306400D03*
X137769600Y-90627200D03*
X140157200Y-90627200D03*
X135686800Y-90779600D03*
X137668000Y-88493600D03*
X139903200Y-88442800D03*
X140157200Y-84582000D03*
X124155200Y-83769200D03*
X121259600Y-88747600D03*
X118668800Y-88442800D03*
X118567200Y-86207600D03*
X121412000Y-86207600D03*
X123647200Y-88747600D03*
X123850400Y-86258400D03*
X122174000Y-82753200D03*
X177901600Y-81330800D03*
X157175200Y-90322400D03*
X159562800Y-90373200D03*
X153873200Y-90373200D03*
X162661600Y-89357200D03*
X174193200Y-84429600D03*
X176072800Y-87071200D03*
X172313600Y-87071200D03*
X172110400Y-84785200D03*
%TO.N,VCC*%
X168757600Y-91186000D03*
X166674800Y-87745410D03*
%TO.N,VPD_A*%
X135026400Y-87974000D03*
%TO.N,VPD_B*%
X158800802Y-85801191D03*
%TO.N,SCL*%
X164460432Y-90839980D03*
%TO.N,SDA*%
X163462299Y-90765790D03*
%TD*%
D15*
%TO.N,PD0*%
X133604000Y-87820500D02*
X134393940Y-88610440D01*
X134393940Y-88610440D02*
X134393940Y-89916000D01*
X130207749Y-87820500D02*
X133604000Y-87820500D01*
X129539500Y-88488749D02*
X130207749Y-87820500D01*
X129539500Y-89134500D02*
X129539500Y-88488749D01*
%TO.N,PD1*%
X142648941Y-89027001D02*
X143410940Y-89789000D01*
X140870940Y-87249000D02*
X142648941Y-89027001D01*
X130048000Y-87249000D02*
X140870940Y-87249000D01*
X128905500Y-88391500D02*
X130048000Y-87249000D01*
X128905500Y-89134500D02*
X128905500Y-88391500D01*
%TO.N,PD2*%
X128269500Y-90551500D02*
X128269500Y-89134500D01*
X127444500Y-91376500D02*
X128269500Y-90551500D01*
X117820440Y-91376500D02*
X127444500Y-91376500D01*
X116359940Y-89916000D02*
X117820440Y-91376500D01*
%TO.N,PD3*%
X127635500Y-89452000D02*
X127635500Y-89134500D01*
X127235000Y-89852500D02*
X127635500Y-89452000D01*
X125440440Y-89852500D02*
X127235000Y-89852500D01*
%TO.N,Net-(IC1-Pad5)*%
X130175500Y-91309500D02*
X130172000Y-91313000D01*
X130175500Y-89134500D02*
X130175500Y-91309500D01*
%TO.N,Net-(IC2-Pad9)*%
X163513000Y-88201998D02*
X163513000Y-89134500D01*
X163944500Y-87770498D02*
X163513000Y-88201998D01*
X165404800Y-87770498D02*
X163944500Y-87770498D01*
%TO.N,Net-(IC2-Pad5)*%
X165417000Y-81657500D02*
X165293500Y-81534000D01*
X165417000Y-83712500D02*
X165417000Y-81657500D01*
%TO.N,GND*%
X163513000Y-82553500D02*
X162493500Y-81534000D01*
X163513000Y-83712500D02*
X163513000Y-82553500D01*
X130809500Y-89452000D02*
X132079500Y-89452000D01*
X132079500Y-91119000D02*
X132400500Y-91440000D01*
X132079500Y-89452000D02*
X132079500Y-91119000D01*
X130962400Y-89604900D02*
X130809500Y-89452000D01*
X130962400Y-91236800D02*
X130962400Y-89604900D01*
X131445500Y-90753700D02*
X130962400Y-91236800D01*
X131445500Y-89452000D02*
X131445500Y-90753700D01*
X174179399Y-91911001D02*
X174955200Y-91135200D01*
X167676801Y-91911001D02*
X174179399Y-91911001D01*
X167538400Y-91772600D02*
X167676801Y-91911001D01*
X164783000Y-83712500D02*
X164147000Y-83712500D01*
X164147000Y-83712500D02*
X163513000Y-83712500D01*
%TO.N,VCC*%
X128143000Y-81955500D02*
X129095500Y-81955500D01*
X128269500Y-82082000D02*
X128143000Y-81955500D01*
X128269500Y-84030000D02*
X128269500Y-82082000D01*
X128905500Y-82145500D02*
X129095500Y-81955500D01*
X128905500Y-84030000D02*
X128905500Y-82145500D01*
X148869500Y-83106500D02*
X149034500Y-83271500D01*
X148714500Y-85176500D02*
X148389490Y-84851490D01*
X148389490Y-83131510D02*
X148414500Y-83106500D01*
X149034500Y-85176500D02*
X148714500Y-85176500D01*
X148414500Y-83106500D02*
X148869500Y-83106500D01*
X148389490Y-84851490D02*
X148389490Y-83131510D01*
X147891500Y-83106500D02*
X148414500Y-83106500D01*
X129963180Y-81955500D02*
X129095500Y-81955500D01*
X130853710Y-81064970D02*
X129963180Y-81955500D01*
X145517470Y-81064970D02*
X130853710Y-81064970D01*
X147559000Y-83106500D02*
X145517470Y-81064970D01*
X147637500Y-83106500D02*
X147559000Y-83106500D01*
X167323000Y-90587200D02*
X167538400Y-90802600D01*
X167323000Y-89134500D02*
X167323000Y-90587200D01*
X166687000Y-90688800D02*
X166573200Y-90802600D01*
X166687000Y-89134500D02*
X166687000Y-90688800D01*
X167538400Y-90802600D02*
X166573200Y-90802600D01*
X168757600Y-91186000D02*
X168351200Y-90779600D01*
X167561400Y-90779600D02*
X167538400Y-90802600D01*
X168351200Y-90779600D02*
X167561400Y-90779600D01*
X166687000Y-89134500D02*
X166687000Y-87757610D01*
X166687000Y-87757610D02*
X166674800Y-87745410D01*
%TO.N,VPD_A*%
X116347240Y-85420200D02*
X125364240Y-85420200D01*
X125364240Y-85420200D02*
X125427740Y-85356700D01*
X125427740Y-85356700D02*
X127005300Y-85356700D01*
X127005300Y-85356700D02*
X127635500Y-84726500D01*
X116347240Y-85420200D02*
X115747800Y-85420200D01*
X127635500Y-83712500D02*
X127635500Y-84726500D01*
X128316500Y-85407500D02*
X143283940Y-85407500D01*
X127635500Y-84726500D02*
X128316500Y-85407500D01*
X143283940Y-85407500D02*
X143398240Y-85293200D01*
X140767930Y-87782400D02*
X142323939Y-89338409D01*
X135280400Y-87782400D02*
X135218000Y-87782400D01*
X135218000Y-87782400D02*
X135026400Y-87974000D01*
X143023849Y-88765499D02*
X141057340Y-86798990D01*
X135280400Y-87782400D02*
X140767930Y-87782400D01*
X143932701Y-88765499D02*
X143023849Y-88765499D01*
X141057340Y-86798990D02*
X135887030Y-86798990D01*
X135887030Y-86798990D02*
X134444740Y-85356700D01*
X144497941Y-89330739D02*
X143932701Y-88765499D01*
X143932701Y-90939501D02*
X144497941Y-90374261D01*
X142323939Y-90374261D02*
X142889179Y-90939501D01*
X142889179Y-90939501D02*
X143932701Y-90939501D01*
X144497941Y-90374261D02*
X144497941Y-89330739D01*
X142323939Y-89338409D02*
X142323939Y-90374261D01*
%TO.N,VPD_B*%
X179346860Y-89903300D02*
X170355260Y-89903300D01*
X168725800Y-89903300D02*
X167957000Y-89134500D01*
X170355260Y-89903300D02*
X168725800Y-89903300D01*
X161173160Y-89712800D02*
X161363660Y-89903300D01*
X152372060Y-89903300D02*
X152562560Y-89712800D01*
X161108559Y-89648199D02*
X161363660Y-89903300D01*
X152627161Y-89648199D02*
X161108559Y-89648199D01*
X152372060Y-89903300D02*
X152627161Y-89648199D01*
X167087402Y-87020400D02*
X167957000Y-87889998D01*
X163880800Y-87020400D02*
X167087402Y-87020400D01*
X161363660Y-89537540D02*
X163880800Y-87020400D01*
X161363660Y-89903300D02*
X161363660Y-89537540D01*
X167957000Y-87889998D02*
X167957000Y-89134500D01*
X154361813Y-85801191D02*
X158800802Y-85801191D01*
X152881121Y-84320499D02*
X154361813Y-85801191D01*
X158234707Y-86944509D02*
X152287607Y-86944509D01*
X151272359Y-85929261D02*
X151272359Y-84885739D01*
X152287607Y-86944509D02*
X151272359Y-85929261D01*
X158716998Y-87426800D02*
X158234707Y-86944509D01*
X151272359Y-84885739D02*
X151837599Y-84320499D01*
X163474400Y-87426800D02*
X158716998Y-87426800D01*
X151837599Y-84320499D02*
X152881121Y-84320499D01*
X163880800Y-87020400D02*
X163474400Y-87426800D01*
%TO.N,PD4*%
X166053000Y-84726500D02*
X166053000Y-83712500D01*
X165372000Y-85407500D02*
X166053000Y-84726500D01*
X161350960Y-85407500D02*
X165372000Y-85407500D01*
%TO.N,PD5*%
X166687000Y-83712500D02*
X166687000Y-84728910D01*
X166687000Y-84728910D02*
X164921409Y-86494501D01*
X163644699Y-86494501D02*
X163162410Y-86976790D01*
X164921409Y-86494501D02*
X163644699Y-86494501D01*
X163162410Y-86976790D02*
X158903398Y-86976790D01*
X158903398Y-86976790D02*
X158421108Y-86494500D01*
X158421107Y-86494498D02*
X153446358Y-86494498D01*
X158452801Y-86526192D02*
X158421107Y-86494498D01*
X153446358Y-86494498D02*
X152359360Y-85407500D01*
%TO.N,PD6*%
X167323000Y-82779998D02*
X167323000Y-83712500D01*
X167908598Y-82194400D02*
X167323000Y-82779998D01*
X179334160Y-85407500D02*
X179334160Y-83779360D01*
X177749200Y-82194400D02*
X167908598Y-82194400D01*
X179334160Y-83779360D02*
X177749200Y-82194400D01*
%TO.N,PD7*%
X168647560Y-83712500D02*
X167957000Y-83712500D01*
X170342560Y-85407500D02*
X168647560Y-83712500D01*
%TO.N,SYN_A*%
X147637500Y-84106500D02*
X147543000Y-84106500D01*
X129539500Y-83015590D02*
X129539500Y-84030000D01*
X131040112Y-81514978D02*
X129539500Y-83015590D01*
X144511210Y-81514978D02*
X131040112Y-81514978D01*
X147102731Y-84106499D02*
X144511210Y-81514978D01*
X147637500Y-84106500D02*
X147102731Y-84106499D01*
%TO.N,READY_A*%
X147527249Y-85106500D02*
X147637500Y-85106500D01*
X130175500Y-84030000D02*
X130175500Y-83016000D01*
X130175500Y-83016000D02*
X131226512Y-81964988D01*
X144324810Y-81964988D02*
X147466322Y-85106500D01*
X147466322Y-85106500D02*
X147637500Y-85106500D01*
X131226512Y-81964988D02*
X144324810Y-81964988D01*
%TO.N,SCL*%
X147931500Y-86146500D02*
X147891500Y-86106500D01*
X149034500Y-86146500D02*
X147931500Y-86146500D01*
X147527498Y-86106500D02*
X147637500Y-86106500D01*
X144138410Y-82414999D02*
X131491588Y-82414999D01*
X131491588Y-82414999D02*
X130809500Y-83097088D01*
X147637500Y-86106500D02*
X147511000Y-86106500D01*
X147511000Y-86106500D02*
X146685002Y-85280502D01*
X130809500Y-83097088D02*
X130809500Y-84030000D01*
X146685002Y-85280502D02*
X146685002Y-84961591D01*
X146685002Y-84961591D02*
X144138410Y-82414999D01*
X164783000Y-90517412D02*
X164460432Y-90839980D01*
X164783000Y-89134500D02*
X164783000Y-90517412D01*
%TO.N,SDA*%
X149679510Y-84566510D02*
X149354500Y-84241500D01*
X149062732Y-87106500D02*
X149679510Y-86489722D01*
X149354500Y-84241500D02*
X149034500Y-84241500D01*
X149679510Y-86489722D02*
X149679510Y-84566510D01*
X147891500Y-87106500D02*
X149062732Y-87106500D01*
X131445500Y-83097498D02*
X131445500Y-84030000D01*
X131677988Y-82865010D02*
X131445500Y-83097498D01*
X131677988Y-82865010D02*
X142559990Y-82865010D01*
X142559990Y-82865010D02*
X142496490Y-82865010D01*
X147637500Y-87106500D02*
X147495000Y-87106500D01*
X143952010Y-82865010D02*
X146234991Y-85147991D01*
X146234991Y-85147991D02*
X146234991Y-85466901D01*
X146748500Y-85980410D02*
X146748500Y-86327502D01*
X147527498Y-87106500D02*
X147637500Y-87106500D01*
X146234991Y-85466901D02*
X146748500Y-85980410D01*
X146748500Y-86327502D02*
X147527498Y-87106500D01*
X142559990Y-82865010D02*
X143952010Y-82865010D01*
X164147000Y-89134500D02*
X164147000Y-90081089D01*
X164147000Y-90081089D02*
X163462299Y-90765790D01*
%TO.N,SYN_B*%
X166053000Y-89134500D02*
X166053000Y-90334568D01*
X166053000Y-90334568D02*
X165867011Y-90520557D01*
X165867011Y-91258600D02*
X165110620Y-92014991D01*
X165110620Y-92014991D02*
X150860392Y-92014991D01*
X150860392Y-92014991D02*
X147951901Y-89106500D01*
X165867011Y-90520557D02*
X165867011Y-91258600D01*
X147951901Y-89106500D02*
X147637500Y-89106500D01*
%TO.N,READY_B*%
X147887499Y-88356499D02*
X147637500Y-88106500D01*
X151205982Y-91564980D02*
X147997501Y-88356499D01*
X164924220Y-91564980D02*
X151205982Y-91564980D01*
X165417000Y-89134500D02*
X165417000Y-91072200D01*
X147997501Y-88356499D02*
X147887499Y-88356499D01*
X165417000Y-91072200D02*
X164924220Y-91564980D01*
%TD*%
D16*
%TO.N,GND*%
G36*
X192343000Y-82397119D02*
G01*
X192343000Y-88448880D01*
X192343001Y-88448886D01*
X192343001Y-91913000D01*
X169158127Y-91913000D01*
X169284781Y-91828372D01*
X169399972Y-91713181D01*
X169490477Y-91577731D01*
X169552818Y-91427227D01*
X169584600Y-91267452D01*
X169584600Y-91104548D01*
X169552818Y-90944773D01*
X169490477Y-90794269D01*
X169399972Y-90658819D01*
X169284781Y-90543628D01*
X169152589Y-90455300D01*
X169296942Y-90455300D01*
X169301582Y-90466503D01*
X169431703Y-90661243D01*
X169597317Y-90826857D01*
X169792057Y-90956978D01*
X170008442Y-91046607D01*
X170238154Y-91092300D01*
X170472366Y-91092300D01*
X170702078Y-91046607D01*
X170918463Y-90956978D01*
X171113203Y-90826857D01*
X171278817Y-90661243D01*
X171408938Y-90466503D01*
X171413578Y-90455300D01*
X178288542Y-90455300D01*
X178293182Y-90466503D01*
X178423303Y-90661243D01*
X178588917Y-90826857D01*
X178783657Y-90956978D01*
X179000042Y-91046607D01*
X179229754Y-91092300D01*
X179463966Y-91092300D01*
X179693678Y-91046607D01*
X179910063Y-90956978D01*
X180104803Y-90826857D01*
X180270417Y-90661243D01*
X180400538Y-90466503D01*
X180490167Y-90250118D01*
X180535860Y-90020406D01*
X180535860Y-89786194D01*
X180490167Y-89556482D01*
X180400538Y-89340097D01*
X180270417Y-89145357D01*
X180104803Y-88979743D01*
X179910063Y-88849622D01*
X179693678Y-88759993D01*
X179463966Y-88714300D01*
X179229754Y-88714300D01*
X179000042Y-88759993D01*
X178783657Y-88849622D01*
X178588917Y-88979743D01*
X178423303Y-89145357D01*
X178293182Y-89340097D01*
X178288542Y-89351300D01*
X171413578Y-89351300D01*
X171408938Y-89340097D01*
X171278817Y-89145357D01*
X171113203Y-88979743D01*
X170918463Y-88849622D01*
X170702078Y-88759993D01*
X170472366Y-88714300D01*
X170238154Y-88714300D01*
X170008442Y-88759993D01*
X169792057Y-88849622D01*
X169597317Y-88979743D01*
X169431703Y-89145357D01*
X169301582Y-89340097D01*
X169296942Y-89351300D01*
X168954446Y-89351300D01*
X168603566Y-89000421D01*
X168603566Y-88370500D01*
X168595322Y-88286793D01*
X168570905Y-88206304D01*
X168531255Y-88132124D01*
X168509000Y-88105006D01*
X168509000Y-87917095D01*
X168511669Y-87889997D01*
X168509000Y-87862899D01*
X168509000Y-87862889D01*
X168501012Y-87781787D01*
X168469448Y-87677735D01*
X168432301Y-87608237D01*
X168418191Y-87581839D01*
X168366491Y-87518843D01*
X168349211Y-87497787D01*
X168328154Y-87480506D01*
X167496902Y-86649256D01*
X167479613Y-86628189D01*
X167395560Y-86559209D01*
X167299665Y-86507952D01*
X167195613Y-86476388D01*
X167114511Y-86468400D01*
X167114508Y-86468400D01*
X167087402Y-86465730D01*
X167060296Y-86468400D01*
X165728154Y-86468400D01*
X167058154Y-85138402D01*
X167079211Y-85121121D01*
X167097085Y-85099342D01*
X167148191Y-85037068D01*
X167199448Y-84941173D01*
X167210249Y-84905566D01*
X167540500Y-84905566D01*
X167624207Y-84897322D01*
X167640000Y-84892531D01*
X167655793Y-84897322D01*
X167739500Y-84905566D01*
X168174500Y-84905566D01*
X168258207Y-84897322D01*
X168338696Y-84872905D01*
X168412876Y-84833255D01*
X168477895Y-84779895D01*
X168531255Y-84714876D01*
X168570905Y-84640696D01*
X168595322Y-84560207D01*
X168603566Y-84476500D01*
X168603566Y-84449150D01*
X169203894Y-85049478D01*
X169199253Y-85060682D01*
X169153560Y-85290394D01*
X169153560Y-85524606D01*
X169199253Y-85754318D01*
X169288882Y-85970703D01*
X169419003Y-86165443D01*
X169584617Y-86331057D01*
X169779357Y-86461178D01*
X169995742Y-86550807D01*
X170225454Y-86596500D01*
X170459666Y-86596500D01*
X170689378Y-86550807D01*
X170905763Y-86461178D01*
X171100503Y-86331057D01*
X171266117Y-86165443D01*
X171396238Y-85970703D01*
X171485867Y-85754318D01*
X171531560Y-85524606D01*
X171531560Y-85290394D01*
X171485867Y-85060682D01*
X171396238Y-84844297D01*
X171266117Y-84649557D01*
X171100503Y-84483943D01*
X170905763Y-84353822D01*
X170689378Y-84264193D01*
X170459666Y-84218500D01*
X170225454Y-84218500D01*
X169995742Y-84264193D01*
X169984538Y-84268834D01*
X169057061Y-83341356D01*
X169039771Y-83320289D01*
X168955718Y-83251309D01*
X168859823Y-83200052D01*
X168755771Y-83168488D01*
X168674669Y-83160500D01*
X168674666Y-83160500D01*
X168647560Y-83157830D01*
X168620454Y-83160500D01*
X168603566Y-83160500D01*
X168603566Y-82948500D01*
X168595322Y-82864793D01*
X168570905Y-82784304D01*
X168550645Y-82746400D01*
X177520556Y-82746400D01*
X178782161Y-84008006D01*
X178782161Y-84349181D01*
X178770957Y-84353822D01*
X178576217Y-84483943D01*
X178410603Y-84649557D01*
X178280482Y-84844297D01*
X178190853Y-85060682D01*
X178145160Y-85290394D01*
X178145160Y-85524606D01*
X178190853Y-85754318D01*
X178280482Y-85970703D01*
X178410603Y-86165443D01*
X178576217Y-86331057D01*
X178770957Y-86461178D01*
X178987342Y-86550807D01*
X179217054Y-86596500D01*
X179451266Y-86596500D01*
X179680978Y-86550807D01*
X179897363Y-86461178D01*
X180092103Y-86331057D01*
X180257717Y-86165443D01*
X180387838Y-85970703D01*
X180477467Y-85754318D01*
X180523160Y-85524606D01*
X180523160Y-85290394D01*
X180477467Y-85060682D01*
X180387838Y-84844297D01*
X180257717Y-84649557D01*
X180092103Y-84483943D01*
X179897363Y-84353822D01*
X179886160Y-84349182D01*
X179886160Y-83806466D01*
X179888830Y-83779360D01*
X179885372Y-83744250D01*
X179878172Y-83671149D01*
X179846608Y-83567097D01*
X179795351Y-83471202D01*
X179726371Y-83387149D01*
X179705309Y-83369864D01*
X178158701Y-81823256D01*
X178141411Y-81802189D01*
X178057358Y-81733209D01*
X177961463Y-81681952D01*
X177857411Y-81650388D01*
X177776309Y-81642400D01*
X177776306Y-81642400D01*
X177749200Y-81639730D01*
X177722094Y-81642400D01*
X167935706Y-81642400D01*
X167908598Y-81639730D01*
X167800387Y-81650388D01*
X167696335Y-81681952D01*
X167600440Y-81733209D01*
X167576660Y-81752725D01*
X167516387Y-81802189D01*
X167499106Y-81823246D01*
X166951856Y-82370498D01*
X166930789Y-82387787D01*
X166861809Y-82471840D01*
X166836370Y-82519434D01*
X166469500Y-82519434D01*
X166385793Y-82527678D01*
X166370000Y-82532469D01*
X166354207Y-82527678D01*
X166270500Y-82519434D01*
X166242121Y-82519434D01*
X166295875Y-82418867D01*
X166334518Y-82291479D01*
X166347566Y-82159000D01*
X166347566Y-80950000D01*
X192343001Y-80950000D01*
X192343000Y-82397119D01*
G37*
X192343000Y-82397119D02*
X192343000Y-88448880D01*
X192343001Y-88448886D01*
X192343001Y-91913000D01*
X169158127Y-91913000D01*
X169284781Y-91828372D01*
X169399972Y-91713181D01*
X169490477Y-91577731D01*
X169552818Y-91427227D01*
X169584600Y-91267452D01*
X169584600Y-91104548D01*
X169552818Y-90944773D01*
X169490477Y-90794269D01*
X169399972Y-90658819D01*
X169284781Y-90543628D01*
X169152589Y-90455300D01*
X169296942Y-90455300D01*
X169301582Y-90466503D01*
X169431703Y-90661243D01*
X169597317Y-90826857D01*
X169792057Y-90956978D01*
X170008442Y-91046607D01*
X170238154Y-91092300D01*
X170472366Y-91092300D01*
X170702078Y-91046607D01*
X170918463Y-90956978D01*
X171113203Y-90826857D01*
X171278817Y-90661243D01*
X171408938Y-90466503D01*
X171413578Y-90455300D01*
X178288542Y-90455300D01*
X178293182Y-90466503D01*
X178423303Y-90661243D01*
X178588917Y-90826857D01*
X178783657Y-90956978D01*
X179000042Y-91046607D01*
X179229754Y-91092300D01*
X179463966Y-91092300D01*
X179693678Y-91046607D01*
X179910063Y-90956978D01*
X180104803Y-90826857D01*
X180270417Y-90661243D01*
X180400538Y-90466503D01*
X180490167Y-90250118D01*
X180535860Y-90020406D01*
X180535860Y-89786194D01*
X180490167Y-89556482D01*
X180400538Y-89340097D01*
X180270417Y-89145357D01*
X180104803Y-88979743D01*
X179910063Y-88849622D01*
X179693678Y-88759993D01*
X179463966Y-88714300D01*
X179229754Y-88714300D01*
X179000042Y-88759993D01*
X178783657Y-88849622D01*
X178588917Y-88979743D01*
X178423303Y-89145357D01*
X178293182Y-89340097D01*
X178288542Y-89351300D01*
X171413578Y-89351300D01*
X171408938Y-89340097D01*
X171278817Y-89145357D01*
X171113203Y-88979743D01*
X170918463Y-88849622D01*
X170702078Y-88759993D01*
X170472366Y-88714300D01*
X170238154Y-88714300D01*
X170008442Y-88759993D01*
X169792057Y-88849622D01*
X169597317Y-88979743D01*
X169431703Y-89145357D01*
X169301582Y-89340097D01*
X169296942Y-89351300D01*
X168954446Y-89351300D01*
X168603566Y-89000421D01*
X168603566Y-88370500D01*
X168595322Y-88286793D01*
X168570905Y-88206304D01*
X168531255Y-88132124D01*
X168509000Y-88105006D01*
X168509000Y-87917095D01*
X168511669Y-87889997D01*
X168509000Y-87862899D01*
X168509000Y-87862889D01*
X168501012Y-87781787D01*
X168469448Y-87677735D01*
X168432301Y-87608237D01*
X168418191Y-87581839D01*
X168366491Y-87518843D01*
X168349211Y-87497787D01*
X168328154Y-87480506D01*
X167496902Y-86649256D01*
X167479613Y-86628189D01*
X167395560Y-86559209D01*
X167299665Y-86507952D01*
X167195613Y-86476388D01*
X167114511Y-86468400D01*
X167114508Y-86468400D01*
X167087402Y-86465730D01*
X167060296Y-86468400D01*
X165728154Y-86468400D01*
X167058154Y-85138402D01*
X167079211Y-85121121D01*
X167097085Y-85099342D01*
X167148191Y-85037068D01*
X167199448Y-84941173D01*
X167210249Y-84905566D01*
X167540500Y-84905566D01*
X167624207Y-84897322D01*
X167640000Y-84892531D01*
X167655793Y-84897322D01*
X167739500Y-84905566D01*
X168174500Y-84905566D01*
X168258207Y-84897322D01*
X168338696Y-84872905D01*
X168412876Y-84833255D01*
X168477895Y-84779895D01*
X168531255Y-84714876D01*
X168570905Y-84640696D01*
X168595322Y-84560207D01*
X168603566Y-84476500D01*
X168603566Y-84449150D01*
X169203894Y-85049478D01*
X169199253Y-85060682D01*
X169153560Y-85290394D01*
X169153560Y-85524606D01*
X169199253Y-85754318D01*
X169288882Y-85970703D01*
X169419003Y-86165443D01*
X169584617Y-86331057D01*
X169779357Y-86461178D01*
X169995742Y-86550807D01*
X170225454Y-86596500D01*
X170459666Y-86596500D01*
X170689378Y-86550807D01*
X170905763Y-86461178D01*
X171100503Y-86331057D01*
X171266117Y-86165443D01*
X171396238Y-85970703D01*
X171485867Y-85754318D01*
X171531560Y-85524606D01*
X171531560Y-85290394D01*
X171485867Y-85060682D01*
X171396238Y-84844297D01*
X171266117Y-84649557D01*
X171100503Y-84483943D01*
X170905763Y-84353822D01*
X170689378Y-84264193D01*
X170459666Y-84218500D01*
X170225454Y-84218500D01*
X169995742Y-84264193D01*
X169984538Y-84268834D01*
X169057061Y-83341356D01*
X169039771Y-83320289D01*
X168955718Y-83251309D01*
X168859823Y-83200052D01*
X168755771Y-83168488D01*
X168674669Y-83160500D01*
X168674666Y-83160500D01*
X168647560Y-83157830D01*
X168620454Y-83160500D01*
X168603566Y-83160500D01*
X168603566Y-82948500D01*
X168595322Y-82864793D01*
X168570905Y-82784304D01*
X168550645Y-82746400D01*
X177520556Y-82746400D01*
X178782161Y-84008006D01*
X178782161Y-84349181D01*
X178770957Y-84353822D01*
X178576217Y-84483943D01*
X178410603Y-84649557D01*
X178280482Y-84844297D01*
X178190853Y-85060682D01*
X178145160Y-85290394D01*
X178145160Y-85524606D01*
X178190853Y-85754318D01*
X178280482Y-85970703D01*
X178410603Y-86165443D01*
X178576217Y-86331057D01*
X178770957Y-86461178D01*
X178987342Y-86550807D01*
X179217054Y-86596500D01*
X179451266Y-86596500D01*
X179680978Y-86550807D01*
X179897363Y-86461178D01*
X180092103Y-86331057D01*
X180257717Y-86165443D01*
X180387838Y-85970703D01*
X180477467Y-85754318D01*
X180523160Y-85524606D01*
X180523160Y-85290394D01*
X180477467Y-85060682D01*
X180387838Y-84844297D01*
X180257717Y-84649557D01*
X180092103Y-84483943D01*
X179897363Y-84353822D01*
X179886160Y-84349182D01*
X179886160Y-83806466D01*
X179888830Y-83779360D01*
X179885372Y-83744250D01*
X179878172Y-83671149D01*
X179846608Y-83567097D01*
X179795351Y-83471202D01*
X179726371Y-83387149D01*
X179705309Y-83369864D01*
X178158701Y-81823256D01*
X178141411Y-81802189D01*
X178057358Y-81733209D01*
X177961463Y-81681952D01*
X177857411Y-81650388D01*
X177776309Y-81642400D01*
X177776306Y-81642400D01*
X177749200Y-81639730D01*
X177722094Y-81642400D01*
X167935706Y-81642400D01*
X167908598Y-81639730D01*
X167800387Y-81650388D01*
X167696335Y-81681952D01*
X167600440Y-81733209D01*
X167576660Y-81752725D01*
X167516387Y-81802189D01*
X167499106Y-81823246D01*
X166951856Y-82370498D01*
X166930789Y-82387787D01*
X166861809Y-82471840D01*
X166836370Y-82519434D01*
X166469500Y-82519434D01*
X166385793Y-82527678D01*
X166370000Y-82532469D01*
X166354207Y-82527678D01*
X166270500Y-82519434D01*
X166242121Y-82519434D01*
X166295875Y-82418867D01*
X166334518Y-82291479D01*
X166347566Y-82159000D01*
X166347566Y-80950000D01*
X192343001Y-80950000D01*
X192343000Y-82397119D01*
G36*
X145682991Y-85376637D02*
G01*
X145682991Y-85439795D01*
X145680321Y-85466901D01*
X145682991Y-85494007D01*
X145682991Y-85494010D01*
X145690979Y-85575112D01*
X145704931Y-85621104D01*
X145722543Y-85679163D01*
X145773800Y-85775058D01*
X145773801Y-85775059D01*
X145842781Y-85859112D01*
X145863842Y-85876396D01*
X146196500Y-86209055D01*
X146196500Y-86300396D01*
X146193830Y-86327502D01*
X146196500Y-86354608D01*
X146196500Y-86354611D01*
X146204488Y-86435713D01*
X146220872Y-86489722D01*
X146236052Y-86539764D01*
X146287309Y-86635659D01*
X146287310Y-86635660D01*
X146356290Y-86719713D01*
X146377352Y-86736998D01*
X146785500Y-87145147D01*
X146785500Y-87190415D01*
X146818242Y-87355019D01*
X146882468Y-87510073D01*
X146946898Y-87606500D01*
X146882468Y-87702927D01*
X146818242Y-87857981D01*
X146785500Y-88022585D01*
X146785500Y-88190415D01*
X146818242Y-88355019D01*
X146882468Y-88510073D01*
X146946898Y-88606500D01*
X146882468Y-88702927D01*
X146818242Y-88857981D01*
X146785500Y-89022585D01*
X146785500Y-89190415D01*
X146788929Y-89207653D01*
X146761315Y-89230315D01*
X146681963Y-89327006D01*
X146622998Y-89437320D01*
X146586688Y-89557018D01*
X146574428Y-89681500D01*
X146577500Y-89820750D01*
X146736250Y-89979500D01*
X147510500Y-89979500D01*
X147510500Y-89959500D01*
X147764500Y-89959500D01*
X147764500Y-89979500D01*
X147784500Y-89979500D01*
X147784500Y-90233500D01*
X147764500Y-90233500D01*
X147764500Y-91007750D01*
X147923250Y-91166500D01*
X148062500Y-91169572D01*
X148186982Y-91157312D01*
X148306680Y-91121002D01*
X148416994Y-91062037D01*
X148513685Y-90982685D01*
X148593037Y-90885994D01*
X148652002Y-90775680D01*
X148688312Y-90655982D01*
X148691219Y-90626463D01*
X149977755Y-91913000D01*
X133661476Y-91913000D01*
X133660500Y-91725750D01*
X133501750Y-91567000D01*
X132527500Y-91567000D01*
X132527500Y-91587000D01*
X132273500Y-91587000D01*
X132273500Y-91567000D01*
X131299250Y-91567000D01*
X131140500Y-91725750D01*
X131139524Y-91913000D01*
X130654566Y-91913000D01*
X130654566Y-91584216D01*
X130687948Y-91521763D01*
X130719512Y-91417711D01*
X130727500Y-91336609D01*
X130727500Y-91336608D01*
X130730170Y-91309500D01*
X130727500Y-91282392D01*
X130727500Y-90606846D01*
X130770241Y-90660514D01*
X130865758Y-90741277D01*
X130975195Y-90801854D01*
X131025756Y-90818006D01*
X131058750Y-90851000D01*
X131127500Y-90843523D01*
X131138887Y-90844761D01*
X131140500Y-91154250D01*
X131299250Y-91313000D01*
X132273500Y-91313000D01*
X132273500Y-91293000D01*
X132527500Y-91293000D01*
X132527500Y-91313000D01*
X133501750Y-91313000D01*
X133660500Y-91154250D01*
X133662664Y-90739224D01*
X133699497Y-90776057D01*
X133894237Y-90906178D01*
X134110622Y-90995807D01*
X134340334Y-91041500D01*
X134574546Y-91041500D01*
X134804258Y-90995807D01*
X135020643Y-90906178D01*
X135215383Y-90776057D01*
X135380997Y-90610443D01*
X135511118Y-90415703D01*
X135600747Y-90199318D01*
X135646440Y-89969606D01*
X135646440Y-89735394D01*
X135600747Y-89505682D01*
X135511118Y-89289297D01*
X135380997Y-89094557D01*
X135215383Y-88928943D01*
X135023903Y-88801000D01*
X135107852Y-88801000D01*
X135267627Y-88769218D01*
X135418131Y-88706877D01*
X135553581Y-88616372D01*
X135668772Y-88501181D01*
X135759277Y-88365731D01*
X135772255Y-88334400D01*
X140539286Y-88334400D01*
X141771939Y-89567055D01*
X141771940Y-90347146D01*
X141769269Y-90374261D01*
X141777515Y-90457970D01*
X141779928Y-90482472D01*
X141789503Y-90514035D01*
X141811491Y-90586523D01*
X141862748Y-90682418D01*
X141862749Y-90682419D01*
X141931729Y-90766472D01*
X141952790Y-90783756D01*
X142479687Y-91310655D01*
X142496968Y-91331712D01*
X142581021Y-91400692D01*
X142676916Y-91451949D01*
X142780968Y-91483513D01*
X142862070Y-91491501D01*
X142862072Y-91491501D01*
X142889178Y-91494171D01*
X142916284Y-91491501D01*
X143905595Y-91491501D01*
X143932701Y-91494171D01*
X143959807Y-91491501D01*
X143959810Y-91491501D01*
X144040912Y-91483513D01*
X144144964Y-91451949D01*
X144240859Y-91400692D01*
X144324912Y-91331712D01*
X144342201Y-91310645D01*
X144869095Y-90783753D01*
X144890152Y-90766472D01*
X144959132Y-90682419D01*
X145010389Y-90586524D01*
X145027080Y-90531500D01*
X146574428Y-90531500D01*
X146586688Y-90655982D01*
X146622998Y-90775680D01*
X146681963Y-90885994D01*
X146761315Y-90982685D01*
X146858006Y-91062037D01*
X146968320Y-91121002D01*
X147088018Y-91157312D01*
X147212500Y-91169572D01*
X147351750Y-91166500D01*
X147510500Y-91007750D01*
X147510500Y-90233500D01*
X146736250Y-90233500D01*
X146577500Y-90392250D01*
X146574428Y-90531500D01*
X145027080Y-90531500D01*
X145041953Y-90482472D01*
X145049941Y-90401370D01*
X145049941Y-90401368D01*
X145052611Y-90374262D01*
X145049941Y-90347156D01*
X145049941Y-89357844D01*
X145052611Y-89330738D01*
X145049909Y-89303308D01*
X145041953Y-89222528D01*
X145010389Y-89118476D01*
X144959132Y-89022581D01*
X144890152Y-88938528D01*
X144869095Y-88921247D01*
X144342201Y-88394355D01*
X144324912Y-88373288D01*
X144240859Y-88304308D01*
X144144964Y-88253051D01*
X144040912Y-88221487D01*
X143959810Y-88213499D01*
X143959807Y-88213499D01*
X143932701Y-88210829D01*
X143905595Y-88213499D01*
X143252495Y-88213499D01*
X141466840Y-86427846D01*
X141449551Y-86406779D01*
X141365498Y-86337799D01*
X141269603Y-86286542D01*
X141165551Y-86254978D01*
X141084449Y-86246990D01*
X141084446Y-86246990D01*
X141057340Y-86244320D01*
X141030234Y-86246990D01*
X136115676Y-86246990D01*
X135828185Y-85959500D01*
X142371020Y-85959500D01*
X142474683Y-86114643D01*
X142640297Y-86280257D01*
X142835037Y-86410378D01*
X143051422Y-86500007D01*
X143281134Y-86545700D01*
X143515346Y-86545700D01*
X143745058Y-86500007D01*
X143961443Y-86410378D01*
X144156183Y-86280257D01*
X144321797Y-86114643D01*
X144451918Y-85919903D01*
X144541547Y-85703518D01*
X144587240Y-85473806D01*
X144587240Y-85239594D01*
X144541547Y-85009882D01*
X144451918Y-84793497D01*
X144321797Y-84598757D01*
X144156183Y-84433143D01*
X143961443Y-84303022D01*
X143745058Y-84213393D01*
X143515346Y-84167700D01*
X143281134Y-84167700D01*
X143051422Y-84213393D01*
X142835037Y-84303022D01*
X142640297Y-84433143D01*
X142474683Y-84598757D01*
X142344562Y-84793497D01*
X142318880Y-84855500D01*
X135524100Y-84855500D01*
X135498418Y-84793497D01*
X135368297Y-84598757D01*
X135202683Y-84433143D01*
X135007943Y-84303022D01*
X134791558Y-84213393D01*
X134561846Y-84167700D01*
X134327634Y-84167700D01*
X134097922Y-84213393D01*
X133881537Y-84303022D01*
X133686797Y-84433143D01*
X133521183Y-84598757D01*
X133391062Y-84793497D01*
X133365380Y-84855500D01*
X132929072Y-84855500D01*
X132935003Y-84784635D01*
X132932000Y-84315750D01*
X132773250Y-84157000D01*
X132170000Y-84157000D01*
X132170000Y-84177000D01*
X132092066Y-84177000D01*
X132092066Y-83883000D01*
X132170000Y-83883000D01*
X132170000Y-83903000D01*
X132773250Y-83903000D01*
X132932000Y-83744250D01*
X132934096Y-83417010D01*
X143723366Y-83417010D01*
X145682991Y-85376637D01*
G37*
X145682991Y-85376637D02*
X145682991Y-85439795D01*
X145680321Y-85466901D01*
X145682991Y-85494007D01*
X145682991Y-85494010D01*
X145690979Y-85575112D01*
X145704931Y-85621104D01*
X145722543Y-85679163D01*
X145773800Y-85775058D01*
X145773801Y-85775059D01*
X145842781Y-85859112D01*
X145863842Y-85876396D01*
X146196500Y-86209055D01*
X146196500Y-86300396D01*
X146193830Y-86327502D01*
X146196500Y-86354608D01*
X146196500Y-86354611D01*
X146204488Y-86435713D01*
X146220872Y-86489722D01*
X146236052Y-86539764D01*
X146287309Y-86635659D01*
X146287310Y-86635660D01*
X146356290Y-86719713D01*
X146377352Y-86736998D01*
X146785500Y-87145147D01*
X146785500Y-87190415D01*
X146818242Y-87355019D01*
X146882468Y-87510073D01*
X146946898Y-87606500D01*
X146882468Y-87702927D01*
X146818242Y-87857981D01*
X146785500Y-88022585D01*
X146785500Y-88190415D01*
X146818242Y-88355019D01*
X146882468Y-88510073D01*
X146946898Y-88606500D01*
X146882468Y-88702927D01*
X146818242Y-88857981D01*
X146785500Y-89022585D01*
X146785500Y-89190415D01*
X146788929Y-89207653D01*
X146761315Y-89230315D01*
X146681963Y-89327006D01*
X146622998Y-89437320D01*
X146586688Y-89557018D01*
X146574428Y-89681500D01*
X146577500Y-89820750D01*
X146736250Y-89979500D01*
X147510500Y-89979500D01*
X147510500Y-89959500D01*
X147764500Y-89959500D01*
X147764500Y-89979500D01*
X147784500Y-89979500D01*
X147784500Y-90233500D01*
X147764500Y-90233500D01*
X147764500Y-91007750D01*
X147923250Y-91166500D01*
X148062500Y-91169572D01*
X148186982Y-91157312D01*
X148306680Y-91121002D01*
X148416994Y-91062037D01*
X148513685Y-90982685D01*
X148593037Y-90885994D01*
X148652002Y-90775680D01*
X148688312Y-90655982D01*
X148691219Y-90626463D01*
X149977755Y-91913000D01*
X133661476Y-91913000D01*
X133660500Y-91725750D01*
X133501750Y-91567000D01*
X132527500Y-91567000D01*
X132527500Y-91587000D01*
X132273500Y-91587000D01*
X132273500Y-91567000D01*
X131299250Y-91567000D01*
X131140500Y-91725750D01*
X131139524Y-91913000D01*
X130654566Y-91913000D01*
X130654566Y-91584216D01*
X130687948Y-91521763D01*
X130719512Y-91417711D01*
X130727500Y-91336609D01*
X130727500Y-91336608D01*
X130730170Y-91309500D01*
X130727500Y-91282392D01*
X130727500Y-90606846D01*
X130770241Y-90660514D01*
X130865758Y-90741277D01*
X130975195Y-90801854D01*
X131025756Y-90818006D01*
X131058750Y-90851000D01*
X131127500Y-90843523D01*
X131138887Y-90844761D01*
X131140500Y-91154250D01*
X131299250Y-91313000D01*
X132273500Y-91313000D01*
X132273500Y-91293000D01*
X132527500Y-91293000D01*
X132527500Y-91313000D01*
X133501750Y-91313000D01*
X133660500Y-91154250D01*
X133662664Y-90739224D01*
X133699497Y-90776057D01*
X133894237Y-90906178D01*
X134110622Y-90995807D01*
X134340334Y-91041500D01*
X134574546Y-91041500D01*
X134804258Y-90995807D01*
X135020643Y-90906178D01*
X135215383Y-90776057D01*
X135380997Y-90610443D01*
X135511118Y-90415703D01*
X135600747Y-90199318D01*
X135646440Y-89969606D01*
X135646440Y-89735394D01*
X135600747Y-89505682D01*
X135511118Y-89289297D01*
X135380997Y-89094557D01*
X135215383Y-88928943D01*
X135023903Y-88801000D01*
X135107852Y-88801000D01*
X135267627Y-88769218D01*
X135418131Y-88706877D01*
X135553581Y-88616372D01*
X135668772Y-88501181D01*
X135759277Y-88365731D01*
X135772255Y-88334400D01*
X140539286Y-88334400D01*
X141771939Y-89567055D01*
X141771940Y-90347146D01*
X141769269Y-90374261D01*
X141777515Y-90457970D01*
X141779928Y-90482472D01*
X141789503Y-90514035D01*
X141811491Y-90586523D01*
X141862748Y-90682418D01*
X141862749Y-90682419D01*
X141931729Y-90766472D01*
X141952790Y-90783756D01*
X142479687Y-91310655D01*
X142496968Y-91331712D01*
X142581021Y-91400692D01*
X142676916Y-91451949D01*
X142780968Y-91483513D01*
X142862070Y-91491501D01*
X142862072Y-91491501D01*
X142889178Y-91494171D01*
X142916284Y-91491501D01*
X143905595Y-91491501D01*
X143932701Y-91494171D01*
X143959807Y-91491501D01*
X143959810Y-91491501D01*
X144040912Y-91483513D01*
X144144964Y-91451949D01*
X144240859Y-91400692D01*
X144324912Y-91331712D01*
X144342201Y-91310645D01*
X144869095Y-90783753D01*
X144890152Y-90766472D01*
X144959132Y-90682419D01*
X145010389Y-90586524D01*
X145027080Y-90531500D01*
X146574428Y-90531500D01*
X146586688Y-90655982D01*
X146622998Y-90775680D01*
X146681963Y-90885994D01*
X146761315Y-90982685D01*
X146858006Y-91062037D01*
X146968320Y-91121002D01*
X147088018Y-91157312D01*
X147212500Y-91169572D01*
X147351750Y-91166500D01*
X147510500Y-91007750D01*
X147510500Y-90233500D01*
X146736250Y-90233500D01*
X146577500Y-90392250D01*
X146574428Y-90531500D01*
X145027080Y-90531500D01*
X145041953Y-90482472D01*
X145049941Y-90401370D01*
X145049941Y-90401368D01*
X145052611Y-90374262D01*
X145049941Y-90347156D01*
X145049941Y-89357844D01*
X145052611Y-89330738D01*
X145049909Y-89303308D01*
X145041953Y-89222528D01*
X145010389Y-89118476D01*
X144959132Y-89022581D01*
X144890152Y-88938528D01*
X144869095Y-88921247D01*
X144342201Y-88394355D01*
X144324912Y-88373288D01*
X144240859Y-88304308D01*
X144144964Y-88253051D01*
X144040912Y-88221487D01*
X143959810Y-88213499D01*
X143959807Y-88213499D01*
X143932701Y-88210829D01*
X143905595Y-88213499D01*
X143252495Y-88213499D01*
X141466840Y-86427846D01*
X141449551Y-86406779D01*
X141365498Y-86337799D01*
X141269603Y-86286542D01*
X141165551Y-86254978D01*
X141084449Y-86246990D01*
X141084446Y-86246990D01*
X141057340Y-86244320D01*
X141030234Y-86246990D01*
X136115676Y-86246990D01*
X135828185Y-85959500D01*
X142371020Y-85959500D01*
X142474683Y-86114643D01*
X142640297Y-86280257D01*
X142835037Y-86410378D01*
X143051422Y-86500007D01*
X143281134Y-86545700D01*
X143515346Y-86545700D01*
X143745058Y-86500007D01*
X143961443Y-86410378D01*
X144156183Y-86280257D01*
X144321797Y-86114643D01*
X144451918Y-85919903D01*
X144541547Y-85703518D01*
X144587240Y-85473806D01*
X144587240Y-85239594D01*
X144541547Y-85009882D01*
X144451918Y-84793497D01*
X144321797Y-84598757D01*
X144156183Y-84433143D01*
X143961443Y-84303022D01*
X143745058Y-84213393D01*
X143515346Y-84167700D01*
X143281134Y-84167700D01*
X143051422Y-84213393D01*
X142835037Y-84303022D01*
X142640297Y-84433143D01*
X142474683Y-84598757D01*
X142344562Y-84793497D01*
X142318880Y-84855500D01*
X135524100Y-84855500D01*
X135498418Y-84793497D01*
X135368297Y-84598757D01*
X135202683Y-84433143D01*
X135007943Y-84303022D01*
X134791558Y-84213393D01*
X134561846Y-84167700D01*
X134327634Y-84167700D01*
X134097922Y-84213393D01*
X133881537Y-84303022D01*
X133686797Y-84433143D01*
X133521183Y-84598757D01*
X133391062Y-84793497D01*
X133365380Y-84855500D01*
X132929072Y-84855500D01*
X132935003Y-84784635D01*
X132932000Y-84315750D01*
X132773250Y-84157000D01*
X132170000Y-84157000D01*
X132170000Y-84177000D01*
X132092066Y-84177000D01*
X132092066Y-83883000D01*
X132170000Y-83883000D01*
X132170000Y-83903000D01*
X132773250Y-83903000D01*
X132932000Y-83744250D01*
X132934096Y-83417010D01*
X143723366Y-83417010D01*
X145682991Y-85376637D01*
G36*
X166700200Y-91645600D02*
G01*
X167411400Y-91645600D01*
X167411400Y-91625600D01*
X167665400Y-91625600D01*
X167665400Y-91645600D01*
X167685400Y-91645600D01*
X167685400Y-91899600D01*
X167665400Y-91899600D01*
X167665400Y-91913000D01*
X167411400Y-91913000D01*
X167411400Y-91899600D01*
X166700200Y-91899600D01*
X166700200Y-91913000D01*
X166446200Y-91913000D01*
X166446200Y-91899600D01*
X166426200Y-91899600D01*
X166426200Y-91645600D01*
X166446200Y-91645600D01*
X166446200Y-91625600D01*
X166700200Y-91625600D01*
X166700200Y-91645600D01*
G37*
X166700200Y-91645600D02*
X167411400Y-91645600D01*
X167411400Y-91625600D01*
X167665400Y-91625600D01*
X167665400Y-91645600D01*
X167685400Y-91645600D01*
X167685400Y-91899600D01*
X167665400Y-91899600D01*
X167665400Y-91913000D01*
X167411400Y-91913000D01*
X167411400Y-91899600D01*
X166700200Y-91899600D01*
X166700200Y-91913000D01*
X166446200Y-91913000D01*
X166446200Y-91899600D01*
X166426200Y-91899600D01*
X166426200Y-91645600D01*
X166446200Y-91645600D01*
X166446200Y-91625600D01*
X166700200Y-91625600D01*
X166700200Y-91645600D01*
G36*
X129958643Y-81179393D02*
G01*
X129891750Y-81112500D01*
X129222500Y-81112500D01*
X129222500Y-81132500D01*
X128968500Y-81132500D01*
X128968500Y-81112500D01*
X128270000Y-81112500D01*
X128270000Y-81132500D01*
X128016000Y-81132500D01*
X128016000Y-81112500D01*
X127346750Y-81112500D01*
X127188000Y-81271250D01*
X127184928Y-81280500D01*
X127197188Y-81404982D01*
X127233498Y-81524680D01*
X127292463Y-81634994D01*
X127371815Y-81731685D01*
X127399234Y-81754187D01*
X127393934Y-81808000D01*
X127393934Y-82103000D01*
X127405013Y-82215482D01*
X127437822Y-82323642D01*
X127491103Y-82423323D01*
X127562806Y-82510694D01*
X127650177Y-82582397D01*
X127717501Y-82618383D01*
X127717501Y-82836934D01*
X127418000Y-82836934D01*
X127334293Y-82845178D01*
X127253804Y-82869595D01*
X127179624Y-82909245D01*
X127114605Y-82962605D01*
X127061245Y-83027624D01*
X127021595Y-83101804D01*
X126997178Y-83182293D01*
X126988934Y-83266000D01*
X126988934Y-84592421D01*
X126776655Y-84804700D01*
X126486058Y-84804700D01*
X126481418Y-84793497D01*
X126351297Y-84598757D01*
X126185683Y-84433143D01*
X125990943Y-84303022D01*
X125774558Y-84213393D01*
X125544846Y-84167700D01*
X125310634Y-84167700D01*
X125080922Y-84213393D01*
X124864537Y-84303022D01*
X124669797Y-84433143D01*
X124504183Y-84598757D01*
X124374062Y-84793497D01*
X124343119Y-84868200D01*
X117431861Y-84868200D01*
X117400918Y-84793497D01*
X117270797Y-84598757D01*
X117105183Y-84433143D01*
X116910443Y-84303022D01*
X116694058Y-84213393D01*
X116464346Y-84167700D01*
X116230134Y-84167700D01*
X116000422Y-84213393D01*
X115784037Y-84303022D01*
X115589297Y-84433143D01*
X115423683Y-84598757D01*
X115293562Y-84793497D01*
X115203933Y-85009882D01*
X115158240Y-85239594D01*
X115158240Y-85473806D01*
X115203933Y-85703518D01*
X115293562Y-85919903D01*
X115423683Y-86114643D01*
X115589297Y-86280257D01*
X115784037Y-86410378D01*
X116000422Y-86500007D01*
X116230134Y-86545700D01*
X116464346Y-86545700D01*
X116694058Y-86500007D01*
X116910443Y-86410378D01*
X117105183Y-86280257D01*
X117270797Y-86114643D01*
X117365974Y-85972200D01*
X124409006Y-85972200D01*
X124504183Y-86114643D01*
X124669797Y-86280257D01*
X124864537Y-86410378D01*
X125080922Y-86500007D01*
X125310634Y-86545700D01*
X125544846Y-86545700D01*
X125774558Y-86500007D01*
X125990943Y-86410378D01*
X126185683Y-86280257D01*
X126351297Y-86114643D01*
X126481418Y-85919903D01*
X126486058Y-85908700D01*
X126978194Y-85908700D01*
X127005300Y-85911370D01*
X127032406Y-85908700D01*
X127032409Y-85908700D01*
X127113511Y-85900712D01*
X127217563Y-85869148D01*
X127313458Y-85817891D01*
X127397511Y-85748911D01*
X127414800Y-85727844D01*
X127635500Y-85507145D01*
X127907007Y-85778653D01*
X127924289Y-85799711D01*
X128008342Y-85868691D01*
X128104237Y-85919948D01*
X128208289Y-85951512D01*
X128289391Y-85959500D01*
X128289401Y-85959500D01*
X128316499Y-85962169D01*
X128343597Y-85959500D01*
X133417520Y-85959500D01*
X133521183Y-86114643D01*
X133686797Y-86280257D01*
X133881537Y-86410378D01*
X134097922Y-86500007D01*
X134327634Y-86545700D01*
X134561846Y-86545700D01*
X134791558Y-86500007D01*
X134802761Y-86495366D01*
X135004395Y-86697000D01*
X130075106Y-86697000D01*
X130048000Y-86694330D01*
X130020894Y-86697000D01*
X130020891Y-86697000D01*
X129939789Y-86704988D01*
X129835737Y-86736552D01*
X129739842Y-86787809D01*
X129655789Y-86856789D01*
X129638504Y-86877851D01*
X128534352Y-87982004D01*
X128513290Y-87999289D01*
X128473034Y-88048342D01*
X128444309Y-88083343D01*
X128393052Y-88179238D01*
X128389286Y-88191654D01*
X128368876Y-88258934D01*
X128052000Y-88258934D01*
X127968293Y-88267178D01*
X127952500Y-88271969D01*
X127936707Y-88267178D01*
X127853000Y-88258934D01*
X127418000Y-88258934D01*
X127334293Y-88267178D01*
X127253804Y-88291595D01*
X127179624Y-88331245D01*
X127114605Y-88384605D01*
X127061245Y-88449624D01*
X127021595Y-88523804D01*
X126997178Y-88604293D01*
X126988934Y-88688000D01*
X126988934Y-89300500D01*
X126498758Y-89300500D01*
X126494118Y-89289297D01*
X126363997Y-89094557D01*
X126198383Y-88928943D01*
X126003643Y-88798822D01*
X125787258Y-88709193D01*
X125557546Y-88663500D01*
X125323334Y-88663500D01*
X125093622Y-88709193D01*
X124877237Y-88798822D01*
X124682497Y-88928943D01*
X124516883Y-89094557D01*
X124386762Y-89289297D01*
X124297133Y-89505682D01*
X124251440Y-89735394D01*
X124251440Y-89969606D01*
X124297133Y-90199318D01*
X124386762Y-90415703D01*
X124516883Y-90610443D01*
X124682497Y-90776057D01*
X124754997Y-90824500D01*
X118049085Y-90824500D01*
X117480008Y-90255423D01*
X117503247Y-90199318D01*
X117548940Y-89969606D01*
X117548940Y-89735394D01*
X117503247Y-89505682D01*
X117413618Y-89289297D01*
X117283497Y-89094557D01*
X117117883Y-88928943D01*
X116923143Y-88798822D01*
X116706758Y-88709193D01*
X116477046Y-88663500D01*
X116242834Y-88663500D01*
X116013122Y-88709193D01*
X115796737Y-88798822D01*
X115601997Y-88928943D01*
X115436383Y-89094557D01*
X115306262Y-89289297D01*
X115216633Y-89505682D01*
X115170940Y-89735394D01*
X115170940Y-89969606D01*
X115216633Y-90199318D01*
X115306262Y-90415703D01*
X115436383Y-90610443D01*
X115601997Y-90776057D01*
X115796737Y-90906178D01*
X116013122Y-90995807D01*
X116242834Y-91041500D01*
X116477046Y-91041500D01*
X116667009Y-91003714D01*
X117410944Y-91747649D01*
X117428229Y-91768711D01*
X117512282Y-91837691D01*
X117608177Y-91888948D01*
X117687465Y-91913000D01*
X103397000Y-91913000D01*
X103397000Y-82397118D01*
X103396998Y-80950000D01*
X130188035Y-80950000D01*
X129958643Y-81179393D01*
G37*
X129958643Y-81179393D02*
X129891750Y-81112500D01*
X129222500Y-81112500D01*
X129222500Y-81132500D01*
X128968500Y-81132500D01*
X128968500Y-81112500D01*
X128270000Y-81112500D01*
X128270000Y-81132500D01*
X128016000Y-81132500D01*
X128016000Y-81112500D01*
X127346750Y-81112500D01*
X127188000Y-81271250D01*
X127184928Y-81280500D01*
X127197188Y-81404982D01*
X127233498Y-81524680D01*
X127292463Y-81634994D01*
X127371815Y-81731685D01*
X127399234Y-81754187D01*
X127393934Y-81808000D01*
X127393934Y-82103000D01*
X127405013Y-82215482D01*
X127437822Y-82323642D01*
X127491103Y-82423323D01*
X127562806Y-82510694D01*
X127650177Y-82582397D01*
X127717501Y-82618383D01*
X127717501Y-82836934D01*
X127418000Y-82836934D01*
X127334293Y-82845178D01*
X127253804Y-82869595D01*
X127179624Y-82909245D01*
X127114605Y-82962605D01*
X127061245Y-83027624D01*
X127021595Y-83101804D01*
X126997178Y-83182293D01*
X126988934Y-83266000D01*
X126988934Y-84592421D01*
X126776655Y-84804700D01*
X126486058Y-84804700D01*
X126481418Y-84793497D01*
X126351297Y-84598757D01*
X126185683Y-84433143D01*
X125990943Y-84303022D01*
X125774558Y-84213393D01*
X125544846Y-84167700D01*
X125310634Y-84167700D01*
X125080922Y-84213393D01*
X124864537Y-84303022D01*
X124669797Y-84433143D01*
X124504183Y-84598757D01*
X124374062Y-84793497D01*
X124343119Y-84868200D01*
X117431861Y-84868200D01*
X117400918Y-84793497D01*
X117270797Y-84598757D01*
X117105183Y-84433143D01*
X116910443Y-84303022D01*
X116694058Y-84213393D01*
X116464346Y-84167700D01*
X116230134Y-84167700D01*
X116000422Y-84213393D01*
X115784037Y-84303022D01*
X115589297Y-84433143D01*
X115423683Y-84598757D01*
X115293562Y-84793497D01*
X115203933Y-85009882D01*
X115158240Y-85239594D01*
X115158240Y-85473806D01*
X115203933Y-85703518D01*
X115293562Y-85919903D01*
X115423683Y-86114643D01*
X115589297Y-86280257D01*
X115784037Y-86410378D01*
X116000422Y-86500007D01*
X116230134Y-86545700D01*
X116464346Y-86545700D01*
X116694058Y-86500007D01*
X116910443Y-86410378D01*
X117105183Y-86280257D01*
X117270797Y-86114643D01*
X117365974Y-85972200D01*
X124409006Y-85972200D01*
X124504183Y-86114643D01*
X124669797Y-86280257D01*
X124864537Y-86410378D01*
X125080922Y-86500007D01*
X125310634Y-86545700D01*
X125544846Y-86545700D01*
X125774558Y-86500007D01*
X125990943Y-86410378D01*
X126185683Y-86280257D01*
X126351297Y-86114643D01*
X126481418Y-85919903D01*
X126486058Y-85908700D01*
X126978194Y-85908700D01*
X127005300Y-85911370D01*
X127032406Y-85908700D01*
X127032409Y-85908700D01*
X127113511Y-85900712D01*
X127217563Y-85869148D01*
X127313458Y-85817891D01*
X127397511Y-85748911D01*
X127414800Y-85727844D01*
X127635500Y-85507145D01*
X127907007Y-85778653D01*
X127924289Y-85799711D01*
X128008342Y-85868691D01*
X128104237Y-85919948D01*
X128208289Y-85951512D01*
X128289391Y-85959500D01*
X128289401Y-85959500D01*
X128316499Y-85962169D01*
X128343597Y-85959500D01*
X133417520Y-85959500D01*
X133521183Y-86114643D01*
X133686797Y-86280257D01*
X133881537Y-86410378D01*
X134097922Y-86500007D01*
X134327634Y-86545700D01*
X134561846Y-86545700D01*
X134791558Y-86500007D01*
X134802761Y-86495366D01*
X135004395Y-86697000D01*
X130075106Y-86697000D01*
X130048000Y-86694330D01*
X130020894Y-86697000D01*
X130020891Y-86697000D01*
X129939789Y-86704988D01*
X129835737Y-86736552D01*
X129739842Y-86787809D01*
X129655789Y-86856789D01*
X129638504Y-86877851D01*
X128534352Y-87982004D01*
X128513290Y-87999289D01*
X128473034Y-88048342D01*
X128444309Y-88083343D01*
X128393052Y-88179238D01*
X128389286Y-88191654D01*
X128368876Y-88258934D01*
X128052000Y-88258934D01*
X127968293Y-88267178D01*
X127952500Y-88271969D01*
X127936707Y-88267178D01*
X127853000Y-88258934D01*
X127418000Y-88258934D01*
X127334293Y-88267178D01*
X127253804Y-88291595D01*
X127179624Y-88331245D01*
X127114605Y-88384605D01*
X127061245Y-88449624D01*
X127021595Y-88523804D01*
X126997178Y-88604293D01*
X126988934Y-88688000D01*
X126988934Y-89300500D01*
X126498758Y-89300500D01*
X126494118Y-89289297D01*
X126363997Y-89094557D01*
X126198383Y-88928943D01*
X126003643Y-88798822D01*
X125787258Y-88709193D01*
X125557546Y-88663500D01*
X125323334Y-88663500D01*
X125093622Y-88709193D01*
X124877237Y-88798822D01*
X124682497Y-88928943D01*
X124516883Y-89094557D01*
X124386762Y-89289297D01*
X124297133Y-89505682D01*
X124251440Y-89735394D01*
X124251440Y-89969606D01*
X124297133Y-90199318D01*
X124386762Y-90415703D01*
X124516883Y-90610443D01*
X124682497Y-90776057D01*
X124754997Y-90824500D01*
X118049085Y-90824500D01*
X117480008Y-90255423D01*
X117503247Y-90199318D01*
X117548940Y-89969606D01*
X117548940Y-89735394D01*
X117503247Y-89505682D01*
X117413618Y-89289297D01*
X117283497Y-89094557D01*
X117117883Y-88928943D01*
X116923143Y-88798822D01*
X116706758Y-88709193D01*
X116477046Y-88663500D01*
X116242834Y-88663500D01*
X116013122Y-88709193D01*
X115796737Y-88798822D01*
X115601997Y-88928943D01*
X115436383Y-89094557D01*
X115306262Y-89289297D01*
X115216633Y-89505682D01*
X115170940Y-89735394D01*
X115170940Y-89969606D01*
X115216633Y-90199318D01*
X115306262Y-90415703D01*
X115436383Y-90610443D01*
X115601997Y-90776057D01*
X115796737Y-90906178D01*
X116013122Y-90995807D01*
X116242834Y-91041500D01*
X116477046Y-91041500D01*
X116667009Y-91003714D01*
X117410944Y-91747649D01*
X117428229Y-91768711D01*
X117512282Y-91837691D01*
X117608177Y-91888948D01*
X117687465Y-91913000D01*
X103397000Y-91913000D01*
X103397000Y-82397118D01*
X103396998Y-80950000D01*
X130188035Y-80950000D01*
X129958643Y-81179393D01*
G36*
X162866434Y-89898500D02*
G01*
X162874678Y-89982207D01*
X162899095Y-90062696D01*
X162932794Y-90125742D01*
X162819927Y-90238609D01*
X162729422Y-90374059D01*
X162667081Y-90524563D01*
X162635299Y-90684338D01*
X162635299Y-90847242D01*
X162667081Y-91007017D01*
X162669551Y-91012980D01*
X161791661Y-91012980D01*
X161926863Y-90956978D01*
X162121603Y-90826857D01*
X162287217Y-90661243D01*
X162417338Y-90466503D01*
X162506967Y-90250118D01*
X162552660Y-90020406D01*
X162552660Y-89786194D01*
X162506967Y-89556482D01*
X162417338Y-89340097D01*
X162387061Y-89294784D01*
X162866434Y-88815411D01*
X162866434Y-89898500D01*
G37*
X162866434Y-89898500D02*
X162874678Y-89982207D01*
X162899095Y-90062696D01*
X162932794Y-90125742D01*
X162819927Y-90238609D01*
X162729422Y-90374059D01*
X162667081Y-90524563D01*
X162635299Y-90684338D01*
X162635299Y-90847242D01*
X162667081Y-91007017D01*
X162669551Y-91012980D01*
X161791661Y-91012980D01*
X161926863Y-90956978D01*
X162121603Y-90826857D01*
X162287217Y-90661243D01*
X162417338Y-90466503D01*
X162506967Y-90250118D01*
X162552660Y-90020406D01*
X162552660Y-89786194D01*
X162506967Y-89556482D01*
X162417338Y-89340097D01*
X162387061Y-89294784D01*
X162866434Y-88815411D01*
X162866434Y-89898500D01*
G36*
X161233500Y-81248250D02*
G01*
X161392250Y-81407000D01*
X162366500Y-81407000D01*
X162366500Y-81387000D01*
X162620500Y-81387000D01*
X162620500Y-81407000D01*
X163594750Y-81407000D01*
X163753500Y-81248250D01*
X163755055Y-80950000D01*
X164239434Y-80950000D01*
X164239434Y-82159000D01*
X164252482Y-82291479D01*
X164279624Y-82380952D01*
X164203258Y-82423223D01*
X164148000Y-82469946D01*
X164092742Y-82423223D01*
X163983305Y-82362646D01*
X163929806Y-82345556D01*
X163897750Y-82313500D01*
X163830000Y-82320869D01*
X163762250Y-82313500D01*
X163756106Y-82319644D01*
X163753500Y-81819750D01*
X163594750Y-81661000D01*
X162620500Y-81661000D01*
X162620500Y-82885250D01*
X162660248Y-82924998D01*
X162657497Y-82957865D01*
X162660500Y-83426750D01*
X162819250Y-83585500D01*
X163422500Y-83585500D01*
X163422500Y-83565500D01*
X163433250Y-83565500D01*
X163453250Y-83585500D01*
X164294000Y-83585500D01*
X164294000Y-83839500D01*
X163453250Y-83839500D01*
X163433250Y-83859500D01*
X163422500Y-83859500D01*
X163422500Y-83839500D01*
X162819250Y-83839500D01*
X162660500Y-83998250D01*
X162657497Y-84467135D01*
X162667929Y-84591783D01*
X162702478Y-84712001D01*
X162759817Y-84823169D01*
X162785565Y-84855500D01*
X162409278Y-84855500D01*
X162404638Y-84844297D01*
X162274517Y-84649557D01*
X162108903Y-84483943D01*
X161914163Y-84353822D01*
X161697778Y-84264193D01*
X161468066Y-84218500D01*
X161233854Y-84218500D01*
X161004142Y-84264193D01*
X160787757Y-84353822D01*
X160593017Y-84483943D01*
X160427403Y-84649557D01*
X160297282Y-84844297D01*
X160207653Y-85060682D01*
X160161960Y-85290394D01*
X160161960Y-85524606D01*
X160207653Y-85754318D01*
X160297282Y-85970703D01*
X160427403Y-86165443D01*
X160593017Y-86331057D01*
X160733298Y-86424790D01*
X159346756Y-86424790D01*
X159443174Y-86328372D01*
X159533679Y-86192922D01*
X159596020Y-86042418D01*
X159627802Y-85882643D01*
X159627802Y-85719739D01*
X159596020Y-85559964D01*
X159533679Y-85409460D01*
X159443174Y-85274010D01*
X159327983Y-85158819D01*
X159192533Y-85068314D01*
X159042029Y-85005973D01*
X158882254Y-84974191D01*
X158719350Y-84974191D01*
X158559575Y-85005973D01*
X158409071Y-85068314D01*
X158273621Y-85158819D01*
X158183249Y-85249191D01*
X154590459Y-85249191D01*
X153290621Y-83949355D01*
X153273332Y-83928288D01*
X153189279Y-83859308D01*
X153093384Y-83808051D01*
X152989332Y-83776487D01*
X152908230Y-83768499D01*
X152908227Y-83768499D01*
X152881121Y-83765829D01*
X152854015Y-83768499D01*
X151864704Y-83768499D01*
X151837598Y-83765829D01*
X151810492Y-83768499D01*
X151810490Y-83768499D01*
X151729388Y-83776487D01*
X151625336Y-83808051D01*
X151529441Y-83859308D01*
X151445388Y-83928288D01*
X151428107Y-83949345D01*
X150901210Y-84476244D01*
X150880149Y-84493528D01*
X150834085Y-84549658D01*
X150811168Y-84577582D01*
X150759911Y-84673477D01*
X150740178Y-84738530D01*
X150728348Y-84777528D01*
X150727938Y-84781690D01*
X150717689Y-84885739D01*
X150720360Y-84912854D01*
X150720359Y-85902155D01*
X150717689Y-85929261D01*
X150720359Y-85956367D01*
X150720359Y-85956369D01*
X150728347Y-86037471D01*
X150759911Y-86141523D01*
X150811168Y-86237419D01*
X150880148Y-86321472D01*
X150901215Y-86338761D01*
X151878114Y-87315662D01*
X151895396Y-87336720D01*
X151979449Y-87405700D01*
X152075344Y-87456957D01*
X152179396Y-87488521D01*
X152260498Y-87496509D01*
X152260508Y-87496509D01*
X152287606Y-87499178D01*
X152314704Y-87496509D01*
X158006062Y-87496509D01*
X158307506Y-87797954D01*
X158324787Y-87819011D01*
X158408840Y-87887991D01*
X158504735Y-87939248D01*
X158608787Y-87970812D01*
X158689889Y-87978800D01*
X158689899Y-87978800D01*
X158716997Y-87981469D01*
X158744095Y-87978800D01*
X162141755Y-87978800D01*
X161406256Y-88714300D01*
X161246554Y-88714300D01*
X161016842Y-88759993D01*
X160800457Y-88849622D01*
X160605717Y-88979743D01*
X160489261Y-89096199D01*
X153246459Y-89096199D01*
X153130003Y-88979743D01*
X152935263Y-88849622D01*
X152718878Y-88759993D01*
X152489166Y-88714300D01*
X152254954Y-88714300D01*
X152025242Y-88759993D01*
X151808857Y-88849622D01*
X151614117Y-88979743D01*
X151448503Y-89145357D01*
X151318382Y-89340097D01*
X151228753Y-89556482D01*
X151183060Y-89786194D01*
X151183060Y-90020406D01*
X151228753Y-90250118D01*
X151318382Y-90466503D01*
X151448503Y-90661243D01*
X151614117Y-90826857D01*
X151808857Y-90956978D01*
X151944059Y-91012980D01*
X151434628Y-91012980D01*
X148489500Y-88067854D01*
X148489500Y-88022585D01*
X148456758Y-87857981D01*
X148392532Y-87702927D01*
X148362847Y-87658500D01*
X149035626Y-87658500D01*
X149062732Y-87661170D01*
X149089838Y-87658500D01*
X149089841Y-87658500D01*
X149170943Y-87650512D01*
X149274995Y-87618948D01*
X149370890Y-87567691D01*
X149454943Y-87498711D01*
X149472232Y-87477644D01*
X150050664Y-86899214D01*
X150071721Y-86881933D01*
X150140701Y-86797880D01*
X150191958Y-86701985D01*
X150223522Y-86597933D01*
X150231510Y-86516831D01*
X150231510Y-86516830D01*
X150234180Y-86489722D01*
X150231510Y-86462614D01*
X150231510Y-84593618D01*
X150234180Y-84566510D01*
X150223522Y-84458299D01*
X150191958Y-84354247D01*
X150140701Y-84258352D01*
X150113287Y-84224948D01*
X150071721Y-84174299D01*
X150050658Y-84157013D01*
X149764000Y-83870356D01*
X149746711Y-83849289D01*
X149711263Y-83820198D01*
X149686397Y-83773677D01*
X149672300Y-83756500D01*
X149686397Y-83739323D01*
X149739678Y-83639642D01*
X149772487Y-83531482D01*
X149783566Y-83419000D01*
X149783566Y-83124000D01*
X149772487Y-83011518D01*
X149739678Y-82903358D01*
X149686397Y-82803677D01*
X149614694Y-82716306D01*
X149527323Y-82644603D01*
X149427642Y-82591322D01*
X149319482Y-82558513D01*
X149207000Y-82547434D01*
X148862000Y-82547434D01*
X148790261Y-82554500D01*
X148441597Y-82554500D01*
X148414499Y-82551831D01*
X148387401Y-82554500D01*
X148290409Y-82554500D01*
X148180618Y-82444709D01*
X148127176Y-82409000D01*
X161230428Y-82409000D01*
X161242688Y-82533482D01*
X161278998Y-82653180D01*
X161337963Y-82763494D01*
X161417315Y-82860185D01*
X161514006Y-82939537D01*
X161624320Y-82998502D01*
X161744018Y-83034812D01*
X161868500Y-83047072D01*
X162207750Y-83044000D01*
X162366500Y-82885250D01*
X162366500Y-81661000D01*
X161392250Y-81661000D01*
X161233500Y-81819750D01*
X161230428Y-82409000D01*
X148127176Y-82409000D01*
X148041073Y-82351468D01*
X147886019Y-82287242D01*
X147721415Y-82254500D01*
X147553585Y-82254500D01*
X147498586Y-82265440D01*
X146183144Y-80950000D01*
X161231945Y-80950000D01*
X161233500Y-81248250D01*
G37*
X161233500Y-81248250D02*
X161392250Y-81407000D01*
X162366500Y-81407000D01*
X162366500Y-81387000D01*
X162620500Y-81387000D01*
X162620500Y-81407000D01*
X163594750Y-81407000D01*
X163753500Y-81248250D01*
X163755055Y-80950000D01*
X164239434Y-80950000D01*
X164239434Y-82159000D01*
X164252482Y-82291479D01*
X164279624Y-82380952D01*
X164203258Y-82423223D01*
X164148000Y-82469946D01*
X164092742Y-82423223D01*
X163983305Y-82362646D01*
X163929806Y-82345556D01*
X163897750Y-82313500D01*
X163830000Y-82320869D01*
X163762250Y-82313500D01*
X163756106Y-82319644D01*
X163753500Y-81819750D01*
X163594750Y-81661000D01*
X162620500Y-81661000D01*
X162620500Y-82885250D01*
X162660248Y-82924998D01*
X162657497Y-82957865D01*
X162660500Y-83426750D01*
X162819250Y-83585500D01*
X163422500Y-83585500D01*
X163422500Y-83565500D01*
X163433250Y-83565500D01*
X163453250Y-83585500D01*
X164294000Y-83585500D01*
X164294000Y-83839500D01*
X163453250Y-83839500D01*
X163433250Y-83859500D01*
X163422500Y-83859500D01*
X163422500Y-83839500D01*
X162819250Y-83839500D01*
X162660500Y-83998250D01*
X162657497Y-84467135D01*
X162667929Y-84591783D01*
X162702478Y-84712001D01*
X162759817Y-84823169D01*
X162785565Y-84855500D01*
X162409278Y-84855500D01*
X162404638Y-84844297D01*
X162274517Y-84649557D01*
X162108903Y-84483943D01*
X161914163Y-84353822D01*
X161697778Y-84264193D01*
X161468066Y-84218500D01*
X161233854Y-84218500D01*
X161004142Y-84264193D01*
X160787757Y-84353822D01*
X160593017Y-84483943D01*
X160427403Y-84649557D01*
X160297282Y-84844297D01*
X160207653Y-85060682D01*
X160161960Y-85290394D01*
X160161960Y-85524606D01*
X160207653Y-85754318D01*
X160297282Y-85970703D01*
X160427403Y-86165443D01*
X160593017Y-86331057D01*
X160733298Y-86424790D01*
X159346756Y-86424790D01*
X159443174Y-86328372D01*
X159533679Y-86192922D01*
X159596020Y-86042418D01*
X159627802Y-85882643D01*
X159627802Y-85719739D01*
X159596020Y-85559964D01*
X159533679Y-85409460D01*
X159443174Y-85274010D01*
X159327983Y-85158819D01*
X159192533Y-85068314D01*
X159042029Y-85005973D01*
X158882254Y-84974191D01*
X158719350Y-84974191D01*
X158559575Y-85005973D01*
X158409071Y-85068314D01*
X158273621Y-85158819D01*
X158183249Y-85249191D01*
X154590459Y-85249191D01*
X153290621Y-83949355D01*
X153273332Y-83928288D01*
X153189279Y-83859308D01*
X153093384Y-83808051D01*
X152989332Y-83776487D01*
X152908230Y-83768499D01*
X152908227Y-83768499D01*
X152881121Y-83765829D01*
X152854015Y-83768499D01*
X151864704Y-83768499D01*
X151837598Y-83765829D01*
X151810492Y-83768499D01*
X151810490Y-83768499D01*
X151729388Y-83776487D01*
X151625336Y-83808051D01*
X151529441Y-83859308D01*
X151445388Y-83928288D01*
X151428107Y-83949345D01*
X150901210Y-84476244D01*
X150880149Y-84493528D01*
X150834085Y-84549658D01*
X150811168Y-84577582D01*
X150759911Y-84673477D01*
X150740178Y-84738530D01*
X150728348Y-84777528D01*
X150727938Y-84781690D01*
X150717689Y-84885739D01*
X150720360Y-84912854D01*
X150720359Y-85902155D01*
X150717689Y-85929261D01*
X150720359Y-85956367D01*
X150720359Y-85956369D01*
X150728347Y-86037471D01*
X150759911Y-86141523D01*
X150811168Y-86237419D01*
X150880148Y-86321472D01*
X150901215Y-86338761D01*
X151878114Y-87315662D01*
X151895396Y-87336720D01*
X151979449Y-87405700D01*
X152075344Y-87456957D01*
X152179396Y-87488521D01*
X152260498Y-87496509D01*
X152260508Y-87496509D01*
X152287606Y-87499178D01*
X152314704Y-87496509D01*
X158006062Y-87496509D01*
X158307506Y-87797954D01*
X158324787Y-87819011D01*
X158408840Y-87887991D01*
X158504735Y-87939248D01*
X158608787Y-87970812D01*
X158689889Y-87978800D01*
X158689899Y-87978800D01*
X158716997Y-87981469D01*
X158744095Y-87978800D01*
X162141755Y-87978800D01*
X161406256Y-88714300D01*
X161246554Y-88714300D01*
X161016842Y-88759993D01*
X160800457Y-88849622D01*
X160605717Y-88979743D01*
X160489261Y-89096199D01*
X153246459Y-89096199D01*
X153130003Y-88979743D01*
X152935263Y-88849622D01*
X152718878Y-88759993D01*
X152489166Y-88714300D01*
X152254954Y-88714300D01*
X152025242Y-88759993D01*
X151808857Y-88849622D01*
X151614117Y-88979743D01*
X151448503Y-89145357D01*
X151318382Y-89340097D01*
X151228753Y-89556482D01*
X151183060Y-89786194D01*
X151183060Y-90020406D01*
X151228753Y-90250118D01*
X151318382Y-90466503D01*
X151448503Y-90661243D01*
X151614117Y-90826857D01*
X151808857Y-90956978D01*
X151944059Y-91012980D01*
X151434628Y-91012980D01*
X148489500Y-88067854D01*
X148489500Y-88022585D01*
X148456758Y-87857981D01*
X148392532Y-87702927D01*
X148362847Y-87658500D01*
X149035626Y-87658500D01*
X149062732Y-87661170D01*
X149089838Y-87658500D01*
X149089841Y-87658500D01*
X149170943Y-87650512D01*
X149274995Y-87618948D01*
X149370890Y-87567691D01*
X149454943Y-87498711D01*
X149472232Y-87477644D01*
X150050664Y-86899214D01*
X150071721Y-86881933D01*
X150140701Y-86797880D01*
X150191958Y-86701985D01*
X150223522Y-86597933D01*
X150231510Y-86516831D01*
X150231510Y-86516830D01*
X150234180Y-86489722D01*
X150231510Y-86462614D01*
X150231510Y-84593618D01*
X150234180Y-84566510D01*
X150223522Y-84458299D01*
X150191958Y-84354247D01*
X150140701Y-84258352D01*
X150113287Y-84224948D01*
X150071721Y-84174299D01*
X150050658Y-84157013D01*
X149764000Y-83870356D01*
X149746711Y-83849289D01*
X149711263Y-83820198D01*
X149686397Y-83773677D01*
X149672300Y-83756500D01*
X149686397Y-83739323D01*
X149739678Y-83639642D01*
X149772487Y-83531482D01*
X149783566Y-83419000D01*
X149783566Y-83124000D01*
X149772487Y-83011518D01*
X149739678Y-82903358D01*
X149686397Y-82803677D01*
X149614694Y-82716306D01*
X149527323Y-82644603D01*
X149427642Y-82591322D01*
X149319482Y-82558513D01*
X149207000Y-82547434D01*
X148862000Y-82547434D01*
X148790261Y-82554500D01*
X148441597Y-82554500D01*
X148414499Y-82551831D01*
X148387401Y-82554500D01*
X148290409Y-82554500D01*
X148180618Y-82444709D01*
X148127176Y-82409000D01*
X161230428Y-82409000D01*
X161242688Y-82533482D01*
X161278998Y-82653180D01*
X161337963Y-82763494D01*
X161417315Y-82860185D01*
X161514006Y-82939537D01*
X161624320Y-82998502D01*
X161744018Y-83034812D01*
X161868500Y-83047072D01*
X162207750Y-83044000D01*
X162366500Y-82885250D01*
X162366500Y-81661000D01*
X161392250Y-81661000D01*
X161233500Y-81819750D01*
X161230428Y-82409000D01*
X148127176Y-82409000D01*
X148041073Y-82351468D01*
X147886019Y-82287242D01*
X147721415Y-82254500D01*
X147553585Y-82254500D01*
X147498586Y-82265440D01*
X146183144Y-80950000D01*
X161231945Y-80950000D01*
X161233500Y-81248250D01*
G36*
X160220353Y-90250118D02*
G01*
X160309982Y-90466503D01*
X160440103Y-90661243D01*
X160605717Y-90826857D01*
X160800457Y-90956978D01*
X160935659Y-91012980D01*
X152800061Y-91012980D01*
X152935263Y-90956978D01*
X153130003Y-90826857D01*
X153295617Y-90661243D01*
X153425738Y-90466503D01*
X153515367Y-90250118D01*
X153525297Y-90200199D01*
X160210423Y-90200199D01*
X160220353Y-90250118D01*
G37*
X160220353Y-90250118D02*
X160309982Y-90466503D01*
X160440103Y-90661243D01*
X160605717Y-90826857D01*
X160800457Y-90956978D01*
X160935659Y-91012980D01*
X152800061Y-91012980D01*
X152935263Y-90956978D01*
X153130003Y-90826857D01*
X153295617Y-90661243D01*
X153425738Y-90466503D01*
X153515367Y-90250118D01*
X153525297Y-90200199D01*
X160210423Y-90200199D01*
X160220353Y-90250118D01*
G36*
X133838751Y-88835896D02*
G01*
X133699497Y-88928943D01*
X133533883Y-89094557D01*
X133403762Y-89289297D01*
X133314133Y-89505682D01*
X133268440Y-89735394D01*
X133268440Y-89969606D01*
X133269608Y-89975476D01*
X133149982Y-89939188D01*
X133025500Y-89926928D01*
X132933217Y-89927764D01*
X132932000Y-89737750D01*
X132773250Y-89579000D01*
X132170000Y-89579000D01*
X132170000Y-89599000D01*
X132159250Y-89599000D01*
X132139250Y-89579000D01*
X131298500Y-89579000D01*
X131298500Y-89325000D01*
X132139250Y-89325000D01*
X132159250Y-89305000D01*
X132170000Y-89305000D01*
X132170000Y-89325000D01*
X132773250Y-89325000D01*
X132932000Y-89166250D01*
X132935003Y-88697365D01*
X132924571Y-88572717D01*
X132890022Y-88452499D01*
X132848760Y-88372500D01*
X133375356Y-88372500D01*
X133838751Y-88835896D01*
G37*
X133838751Y-88835896D02*
X133699497Y-88928943D01*
X133533883Y-89094557D01*
X133403762Y-89289297D01*
X133314133Y-89505682D01*
X133268440Y-89735394D01*
X133268440Y-89969606D01*
X133269608Y-89975476D01*
X133149982Y-89939188D01*
X133025500Y-89926928D01*
X132933217Y-89927764D01*
X132932000Y-89737750D01*
X132773250Y-89579000D01*
X132170000Y-89579000D01*
X132170000Y-89599000D01*
X132159250Y-89599000D01*
X132139250Y-89579000D01*
X131298500Y-89579000D01*
X131298500Y-89325000D01*
X132139250Y-89325000D01*
X132159250Y-89305000D01*
X132170000Y-89305000D01*
X132170000Y-89325000D01*
X132773250Y-89325000D01*
X132932000Y-89166250D01*
X132935003Y-88697365D01*
X132924571Y-88572717D01*
X132890022Y-88452499D01*
X132848760Y-88372500D01*
X133375356Y-88372500D01*
X133838751Y-88835896D01*
%TD*%
M02*
