%TF.GenerationSoftware,KiCad,Pcbnew,(5.1.6-0-10_14)*%
%TF.CreationDate,2020-06-29T16:19:24+02:00*%
%TF.ProjectId,rev0,72657630-2e6b-4696-9361-645f70636258,rev?*%
%TF.SameCoordinates,Original*%
%TF.FileFunction,Legend,Bot*%
%TF.FilePolarity,Positive*%
%FSLAX46Y46*%
G04 Gerber Fmt 4.6, Leading zero omitted, Abs format (unit mm)*
G04 Created by KiCad (PCBNEW (5.1.6-0-10_14)) date 2020-06-29 16:19:24*
%MOMM*%
%LPD*%
G01*
G04 APERTURE LIST*
%ADD10C,0.120000*%
%ADD11C,0.150000*%
G04 APERTURE END LIST*
D10*
%TO.C,D8*%
X171670980Y-88186260D02*
X169130980Y-88186260D01*
X170400980Y-88186260D02*
X171670980Y-86916260D01*
X170400980Y-88186260D02*
X169130980Y-86916260D01*
X169130980Y-86916260D02*
X171670980Y-86916260D01*
X167886380Y-91440000D02*
X167886380Y-83842860D01*
X167886380Y-83842860D02*
X172890180Y-83842860D01*
X172890180Y-83842860D02*
X172890180Y-91455240D01*
X172890180Y-91455240D02*
X167891460Y-91455240D01*
X169835177Y-83887208D02*
G75*
G03*
X170949620Y-83865720I555643J92608D01*
G01*
%TO.C,D7*%
X180662580Y-88186260D02*
X178122580Y-88186260D01*
X179392580Y-88186260D02*
X180662580Y-86916260D01*
X179392580Y-88186260D02*
X178122580Y-86916260D01*
X178122580Y-86916260D02*
X180662580Y-86916260D01*
X176877980Y-91440000D02*
X176877980Y-83842860D01*
X176877980Y-83842860D02*
X181881780Y-83842860D01*
X181881780Y-83842860D02*
X181881780Y-91455240D01*
X181881780Y-91455240D02*
X176883060Y-91455240D01*
X178826777Y-83887208D02*
G75*
G03*
X179941220Y-83865720I555643J92608D01*
G01*
%TO.C,D6*%
X153687780Y-88186260D02*
X151147780Y-88186260D01*
X152417780Y-88186260D02*
X153687780Y-86916260D01*
X152417780Y-88186260D02*
X151147780Y-86916260D01*
X151147780Y-86916260D02*
X153687780Y-86916260D01*
X149903180Y-91440000D02*
X149903180Y-83842860D01*
X149903180Y-83842860D02*
X154906980Y-83842860D01*
X154906980Y-83842860D02*
X154906980Y-91455240D01*
X154906980Y-91455240D02*
X149908260Y-91455240D01*
X151851977Y-83887208D02*
G75*
G03*
X152966420Y-83865720I555643J92608D01*
G01*
%TO.C,D5*%
X162679380Y-88186260D02*
X160139380Y-88186260D01*
X161409380Y-88186260D02*
X162679380Y-86916260D01*
X161409380Y-88186260D02*
X160139380Y-86916260D01*
X160139380Y-86916260D02*
X162679380Y-86916260D01*
X158894780Y-91440000D02*
X158894780Y-83842860D01*
X158894780Y-83842860D02*
X163898580Y-83842860D01*
X163898580Y-83842860D02*
X163898580Y-91455240D01*
X163898580Y-91455240D02*
X158899860Y-91455240D01*
X160843577Y-83887208D02*
G75*
G03*
X161958020Y-83865720I555643J92608D01*
G01*
%TO.C,D4*%
X124112020Y-87073740D02*
X126652020Y-87073740D01*
X125382020Y-87073740D02*
X124112020Y-88343740D01*
X125382020Y-87073740D02*
X126652020Y-88343740D01*
X126652020Y-88343740D02*
X124112020Y-88343740D01*
X127896620Y-83820000D02*
X127896620Y-91417140D01*
X127896620Y-91417140D02*
X122892820Y-91417140D01*
X122892820Y-91417140D02*
X122892820Y-83804760D01*
X122892820Y-83804760D02*
X127891540Y-83804760D01*
X125947823Y-91372792D02*
G75*
G03*
X124833380Y-91394280I-555643J-92608D01*
G01*
%TO.C,D3*%
X115031520Y-87073740D02*
X117571520Y-87073740D01*
X116301520Y-87073740D02*
X115031520Y-88343740D01*
X116301520Y-87073740D02*
X117571520Y-88343740D01*
X117571520Y-88343740D02*
X115031520Y-88343740D01*
X118816120Y-83820000D02*
X118816120Y-91417140D01*
X118816120Y-91417140D02*
X113812320Y-91417140D01*
X113812320Y-91417140D02*
X113812320Y-83804760D01*
X113812320Y-83804760D02*
X118811040Y-83804760D01*
X116867323Y-91372792D02*
G75*
G03*
X115752880Y-91394280I-555643J-92608D01*
G01*
%TO.C,D2*%
X142082520Y-87073740D02*
X144622520Y-87073740D01*
X143352520Y-87073740D02*
X142082520Y-88343740D01*
X143352520Y-87073740D02*
X144622520Y-88343740D01*
X144622520Y-88343740D02*
X142082520Y-88343740D01*
X145867120Y-83820000D02*
X145867120Y-91417140D01*
X145867120Y-91417140D02*
X140863320Y-91417140D01*
X140863320Y-91417140D02*
X140863320Y-83804760D01*
X140863320Y-83804760D02*
X145862040Y-83804760D01*
X143918323Y-91372792D02*
G75*
G03*
X142803880Y-91394280I-555643J-92608D01*
G01*
%TO.C,D1*%
X133129020Y-87073740D02*
X135669020Y-87073740D01*
X134399020Y-87073740D02*
X133129020Y-88343740D01*
X134399020Y-87073740D02*
X135669020Y-88343740D01*
X135669020Y-88343740D02*
X133129020Y-88343740D01*
X136913620Y-83820000D02*
X136913620Y-91417140D01*
X136913620Y-91417140D02*
X131909820Y-91417140D01*
X131909820Y-91417140D02*
X131909820Y-83804760D01*
X131909820Y-83804760D02*
X136908540Y-83804760D01*
X134964823Y-91372792D02*
G75*
G03*
X133850380Y-91394280I-555643J-92608D01*
G01*
%TO.C,R3*%
D11*
X166079466Y-92351180D02*
X166412800Y-91874990D01*
X166650895Y-92351180D02*
X166650895Y-91351180D01*
X166269942Y-91351180D01*
X166174704Y-91398800D01*
X166127085Y-91446419D01*
X166079466Y-91541657D01*
X166079466Y-91684514D01*
X166127085Y-91779752D01*
X166174704Y-91827371D01*
X166269942Y-91874990D01*
X166650895Y-91874990D01*
X165746133Y-91351180D02*
X165127085Y-91351180D01*
X165460419Y-91732133D01*
X165317561Y-91732133D01*
X165222323Y-91779752D01*
X165174704Y-91827371D01*
X165127085Y-91922609D01*
X165127085Y-92160704D01*
X165174704Y-92255942D01*
X165222323Y-92303561D01*
X165317561Y-92351180D01*
X165603276Y-92351180D01*
X165698514Y-92303561D01*
X165746133Y-92255942D01*
%TO.C,D8*%
X173747866Y-89584753D02*
X173047866Y-89584753D01*
X173047866Y-89751420D01*
X173081200Y-89851420D01*
X173147866Y-89918086D01*
X173214533Y-89951420D01*
X173347866Y-89984753D01*
X173447866Y-89984753D01*
X173581200Y-89951420D01*
X173647866Y-89918086D01*
X173714533Y-89851420D01*
X173747866Y-89751420D01*
X173747866Y-89584753D01*
X173347866Y-90384753D02*
X173314533Y-90318086D01*
X173281200Y-90284753D01*
X173214533Y-90251420D01*
X173181200Y-90251420D01*
X173114533Y-90284753D01*
X173081200Y-90318086D01*
X173047866Y-90384753D01*
X173047866Y-90518086D01*
X173081200Y-90584753D01*
X173114533Y-90618086D01*
X173181200Y-90651420D01*
X173214533Y-90651420D01*
X173281200Y-90618086D01*
X173314533Y-90584753D01*
X173347866Y-90518086D01*
X173347866Y-90384753D01*
X173381200Y-90318086D01*
X173414533Y-90284753D01*
X173481200Y-90251420D01*
X173614533Y-90251420D01*
X173681200Y-90284753D01*
X173714533Y-90318086D01*
X173747866Y-90384753D01*
X173747866Y-90518086D01*
X173714533Y-90584753D01*
X173681200Y-90618086D01*
X173614533Y-90651420D01*
X173481200Y-90651420D01*
X173414533Y-90618086D01*
X173381200Y-90584753D01*
X173347866Y-90518086D01*
%TO.C,D7*%
X182739466Y-89584753D02*
X182039466Y-89584753D01*
X182039466Y-89751420D01*
X182072800Y-89851420D01*
X182139466Y-89918086D01*
X182206133Y-89951420D01*
X182339466Y-89984753D01*
X182439466Y-89984753D01*
X182572800Y-89951420D01*
X182639466Y-89918086D01*
X182706133Y-89851420D01*
X182739466Y-89751420D01*
X182739466Y-89584753D01*
X182039466Y-90218086D02*
X182039466Y-90684753D01*
X182739466Y-90384753D01*
%TO.C,D6*%
X155764666Y-89584753D02*
X155064666Y-89584753D01*
X155064666Y-89751420D01*
X155098000Y-89851420D01*
X155164666Y-89918086D01*
X155231333Y-89951420D01*
X155364666Y-89984753D01*
X155464666Y-89984753D01*
X155598000Y-89951420D01*
X155664666Y-89918086D01*
X155731333Y-89851420D01*
X155764666Y-89751420D01*
X155764666Y-89584753D01*
X155064666Y-90584753D02*
X155064666Y-90451420D01*
X155098000Y-90384753D01*
X155131333Y-90351420D01*
X155231333Y-90284753D01*
X155364666Y-90251420D01*
X155631333Y-90251420D01*
X155698000Y-90284753D01*
X155731333Y-90318086D01*
X155764666Y-90384753D01*
X155764666Y-90518086D01*
X155731333Y-90584753D01*
X155698000Y-90618086D01*
X155631333Y-90651420D01*
X155464666Y-90651420D01*
X155398000Y-90618086D01*
X155364666Y-90584753D01*
X155331333Y-90518086D01*
X155331333Y-90384753D01*
X155364666Y-90318086D01*
X155398000Y-90284753D01*
X155464666Y-90251420D01*
%TO.C,D5*%
X164756266Y-89584753D02*
X164056266Y-89584753D01*
X164056266Y-89751420D01*
X164089600Y-89851420D01*
X164156266Y-89918086D01*
X164222933Y-89951420D01*
X164356266Y-89984753D01*
X164456266Y-89984753D01*
X164589600Y-89951420D01*
X164656266Y-89918086D01*
X164722933Y-89851420D01*
X164756266Y-89751420D01*
X164756266Y-89584753D01*
X164056266Y-90618086D02*
X164056266Y-90284753D01*
X164389600Y-90251420D01*
X164356266Y-90284753D01*
X164322933Y-90351420D01*
X164322933Y-90518086D01*
X164356266Y-90584753D01*
X164389600Y-90618086D01*
X164456266Y-90651420D01*
X164622933Y-90651420D01*
X164689600Y-90618086D01*
X164722933Y-90584753D01*
X164756266Y-90518086D01*
X164756266Y-90351420D01*
X164722933Y-90284753D01*
X164689600Y-90251420D01*
%TO.C,D4*%
X122668466Y-84641913D02*
X121968466Y-84641913D01*
X121968466Y-84808580D01*
X122001800Y-84908580D01*
X122068466Y-84975246D01*
X122135133Y-85008580D01*
X122268466Y-85041913D01*
X122368466Y-85041913D01*
X122501800Y-85008580D01*
X122568466Y-84975246D01*
X122635133Y-84908580D01*
X122668466Y-84808580D01*
X122668466Y-84641913D01*
X122201800Y-85641913D02*
X122668466Y-85641913D01*
X121935133Y-85475246D02*
X122435133Y-85308580D01*
X122435133Y-85741913D01*
%TO.C,D3*%
X113587966Y-84641913D02*
X112887966Y-84641913D01*
X112887966Y-84808580D01*
X112921300Y-84908580D01*
X112987966Y-84975246D01*
X113054633Y-85008580D01*
X113187966Y-85041913D01*
X113287966Y-85041913D01*
X113421300Y-85008580D01*
X113487966Y-84975246D01*
X113554633Y-84908580D01*
X113587966Y-84808580D01*
X113587966Y-84641913D01*
X112887966Y-85275246D02*
X112887966Y-85708580D01*
X113154633Y-85475246D01*
X113154633Y-85575246D01*
X113187966Y-85641913D01*
X113221300Y-85675246D01*
X113287966Y-85708580D01*
X113454633Y-85708580D01*
X113521300Y-85675246D01*
X113554633Y-85641913D01*
X113587966Y-85575246D01*
X113587966Y-85375246D01*
X113554633Y-85308580D01*
X113521300Y-85275246D01*
%TO.C,D2*%
X140638966Y-84641913D02*
X139938966Y-84641913D01*
X139938966Y-84808580D01*
X139972300Y-84908580D01*
X140038966Y-84975246D01*
X140105633Y-85008580D01*
X140238966Y-85041913D01*
X140338966Y-85041913D01*
X140472300Y-85008580D01*
X140538966Y-84975246D01*
X140605633Y-84908580D01*
X140638966Y-84808580D01*
X140638966Y-84641913D01*
X140005633Y-85308580D02*
X139972300Y-85341913D01*
X139938966Y-85408580D01*
X139938966Y-85575246D01*
X139972300Y-85641913D01*
X140005633Y-85675246D01*
X140072300Y-85708580D01*
X140138966Y-85708580D01*
X140238966Y-85675246D01*
X140638966Y-85275246D01*
X140638966Y-85708580D01*
%TO.C,D1*%
X131685466Y-84641913D02*
X130985466Y-84641913D01*
X130985466Y-84808580D01*
X131018800Y-84908580D01*
X131085466Y-84975246D01*
X131152133Y-85008580D01*
X131285466Y-85041913D01*
X131385466Y-85041913D01*
X131518800Y-85008580D01*
X131585466Y-84975246D01*
X131652133Y-84908580D01*
X131685466Y-84808580D01*
X131685466Y-84641913D01*
X131685466Y-85708580D02*
X131685466Y-85308580D01*
X131685466Y-85508580D02*
X130985466Y-85508580D01*
X131085466Y-85441913D01*
X131152133Y-85375246D01*
X131185466Y-85308580D01*
%TD*%
M02*
