%TF.GenerationSoftware,KiCad,Pcbnew,(5.1.6-0-10_14)*%
%TF.CreationDate,2020-06-29T16:19:24+02:00*%
%TF.ProjectId,rev0,72657630-2e6b-4696-9361-645f70636258,rev?*%
%TF.SameCoordinates,Original*%
%TF.FileFunction,Paste,Top*%
%TF.FilePolarity,Positive*%
%FSLAX46Y46*%
G04 Gerber Fmt 4.6, Leading zero omitted, Abs format (unit mm)*
G04 Created by KiCad (PCBNEW (5.1.6-0-10_14)) date 2020-06-29 16:19:24*
%MOMM*%
%LPD*%
G01*
G04 APERTURE LIST*
%ADD10R,0.435000X1.528000*%
G04 APERTURE END LIST*
%TO.C,R5*%
G36*
G01*
X148862000Y-83946500D02*
X149207000Y-83946500D01*
G75*
G02*
X149354500Y-84094000I0J-147500D01*
G01*
X149354500Y-84389000D01*
G75*
G02*
X149207000Y-84536500I-147500J0D01*
G01*
X148862000Y-84536500D01*
G75*
G02*
X148714500Y-84389000I0J147500D01*
G01*
X148714500Y-84094000D01*
G75*
G02*
X148862000Y-83946500I147500J0D01*
G01*
G37*
G36*
G01*
X148862000Y-82976500D02*
X149207000Y-82976500D01*
G75*
G02*
X149354500Y-83124000I0J-147500D01*
G01*
X149354500Y-83419000D01*
G75*
G02*
X149207000Y-83566500I-147500J0D01*
G01*
X148862000Y-83566500D01*
G75*
G02*
X148714500Y-83419000I0J147500D01*
G01*
X148714500Y-83124000D01*
G75*
G02*
X148862000Y-82976500I147500J0D01*
G01*
G37*
%TD*%
%TO.C,R4*%
G36*
G01*
X148862000Y-85851500D02*
X149207000Y-85851500D01*
G75*
G02*
X149354500Y-85999000I0J-147500D01*
G01*
X149354500Y-86294000D01*
G75*
G02*
X149207000Y-86441500I-147500J0D01*
G01*
X148862000Y-86441500D01*
G75*
G02*
X148714500Y-86294000I0J147500D01*
G01*
X148714500Y-85999000D01*
G75*
G02*
X148862000Y-85851500I147500J0D01*
G01*
G37*
G36*
G01*
X148862000Y-84881500D02*
X149207000Y-84881500D01*
G75*
G02*
X149354500Y-85029000I0J-147500D01*
G01*
X149354500Y-85324000D01*
G75*
G02*
X149207000Y-85471500I-147500J0D01*
G01*
X148862000Y-85471500D01*
G75*
G02*
X148714500Y-85324000I0J147500D01*
G01*
X148714500Y-85029000D01*
G75*
G02*
X148862000Y-84881500I147500J0D01*
G01*
G37*
%TD*%
%TO.C,R2*%
G36*
G01*
X163118500Y-80909000D02*
X163118500Y-82159000D01*
G75*
G02*
X162868500Y-82409000I-250000J0D01*
G01*
X162118500Y-82409000D01*
G75*
G02*
X161868500Y-82159000I0J250000D01*
G01*
X161868500Y-80909000D01*
G75*
G02*
X162118500Y-80659000I250000J0D01*
G01*
X162868500Y-80659000D01*
G75*
G02*
X163118500Y-80909000I0J-250000D01*
G01*
G37*
G36*
G01*
X165918500Y-80909000D02*
X165918500Y-82159000D01*
G75*
G02*
X165668500Y-82409000I-250000J0D01*
G01*
X164918500Y-82409000D01*
G75*
G02*
X164668500Y-82159000I0J250000D01*
G01*
X164668500Y-80909000D01*
G75*
G02*
X164918500Y-80659000I250000J0D01*
G01*
X165668500Y-80659000D01*
G75*
G02*
X165918500Y-80909000I0J-250000D01*
G01*
G37*
%TD*%
%TO.C,R1*%
G36*
G01*
X131775500Y-92065000D02*
X131775500Y-90815000D01*
G75*
G02*
X132025500Y-90565000I250000J0D01*
G01*
X132775500Y-90565000D01*
G75*
G02*
X133025500Y-90815000I0J-250000D01*
G01*
X133025500Y-92065000D01*
G75*
G02*
X132775500Y-92315000I-250000J0D01*
G01*
X132025500Y-92315000D01*
G75*
G02*
X131775500Y-92065000I0J250000D01*
G01*
G37*
G36*
G01*
X128975500Y-92065000D02*
X128975500Y-90815000D01*
G75*
G02*
X129225500Y-90565000I250000J0D01*
G01*
X129975500Y-90565000D01*
G75*
G02*
X130225500Y-90815000I0J-250000D01*
G01*
X130225500Y-92065000D01*
G75*
G02*
X129975500Y-92315000I-250000J0D01*
G01*
X129225500Y-92315000D01*
G75*
G02*
X128975500Y-92065000I0J250000D01*
G01*
G37*
%TD*%
D10*
%TO.C,IC2*%
X167957000Y-89134500D03*
X167323000Y-89134500D03*
X166687000Y-89134500D03*
X166053000Y-89134500D03*
X165417000Y-89134500D03*
X164783000Y-89134500D03*
X164147000Y-89134500D03*
X163513000Y-89134500D03*
X163513000Y-83712500D03*
X164147000Y-83712500D03*
X164783000Y-83712500D03*
X165417000Y-83712500D03*
X166053000Y-83712500D03*
X166687000Y-83712500D03*
X167323000Y-83712500D03*
X167957000Y-83712500D03*
%TD*%
%TO.C,C4*%
G36*
G01*
X166400700Y-91477600D02*
X166745700Y-91477600D01*
G75*
G02*
X166893200Y-91625100I0J-147500D01*
G01*
X166893200Y-91920100D01*
G75*
G02*
X166745700Y-92067600I-147500J0D01*
G01*
X166400700Y-92067600D01*
G75*
G02*
X166253200Y-91920100I0J147500D01*
G01*
X166253200Y-91625100D01*
G75*
G02*
X166400700Y-91477600I147500J0D01*
G01*
G37*
G36*
G01*
X166400700Y-90507600D02*
X166745700Y-90507600D01*
G75*
G02*
X166893200Y-90655100I0J-147500D01*
G01*
X166893200Y-90950100D01*
G75*
G02*
X166745700Y-91097600I-147500J0D01*
G01*
X166400700Y-91097600D01*
G75*
G02*
X166253200Y-90950100I0J147500D01*
G01*
X166253200Y-90655100D01*
G75*
G02*
X166400700Y-90507600I147500J0D01*
G01*
G37*
%TD*%
%TO.C,C3*%
G36*
G01*
X128315500Y-81280500D02*
X127970500Y-81280500D01*
G75*
G02*
X127823000Y-81133000I0J147500D01*
G01*
X127823000Y-80838000D01*
G75*
G02*
X127970500Y-80690500I147500J0D01*
G01*
X128315500Y-80690500D01*
G75*
G02*
X128463000Y-80838000I0J-147500D01*
G01*
X128463000Y-81133000D01*
G75*
G02*
X128315500Y-81280500I-147500J0D01*
G01*
G37*
G36*
G01*
X128315500Y-82250500D02*
X127970500Y-82250500D01*
G75*
G02*
X127823000Y-82103000I0J147500D01*
G01*
X127823000Y-81808000D01*
G75*
G02*
X127970500Y-81660500I147500J0D01*
G01*
X128315500Y-81660500D01*
G75*
G02*
X128463000Y-81808000I0J-147500D01*
G01*
X128463000Y-82103000D01*
G75*
G02*
X128315500Y-82250500I-147500J0D01*
G01*
G37*
%TD*%
%TO.C,C2*%
G36*
G01*
X167365900Y-91477600D02*
X167710900Y-91477600D01*
G75*
G02*
X167858400Y-91625100I0J-147500D01*
G01*
X167858400Y-91920100D01*
G75*
G02*
X167710900Y-92067600I-147500J0D01*
G01*
X167365900Y-92067600D01*
G75*
G02*
X167218400Y-91920100I0J147500D01*
G01*
X167218400Y-91625100D01*
G75*
G02*
X167365900Y-91477600I147500J0D01*
G01*
G37*
G36*
G01*
X167365900Y-90507600D02*
X167710900Y-90507600D01*
G75*
G02*
X167858400Y-90655100I0J-147500D01*
G01*
X167858400Y-90950100D01*
G75*
G02*
X167710900Y-91097600I-147500J0D01*
G01*
X167365900Y-91097600D01*
G75*
G02*
X167218400Y-90950100I0J147500D01*
G01*
X167218400Y-90655100D01*
G75*
G02*
X167365900Y-90507600I147500J0D01*
G01*
G37*
%TD*%
%TO.C,C1*%
G36*
G01*
X129268000Y-81280500D02*
X128923000Y-81280500D01*
G75*
G02*
X128775500Y-81133000I0J147500D01*
G01*
X128775500Y-80838000D01*
G75*
G02*
X128923000Y-80690500I147500J0D01*
G01*
X129268000Y-80690500D01*
G75*
G02*
X129415500Y-80838000I0J-147500D01*
G01*
X129415500Y-81133000D01*
G75*
G02*
X129268000Y-81280500I-147500J0D01*
G01*
G37*
G36*
G01*
X129268000Y-82250500D02*
X128923000Y-82250500D01*
G75*
G02*
X128775500Y-82103000I0J147500D01*
G01*
X128775500Y-81808000D01*
G75*
G02*
X128923000Y-81660500I147500J0D01*
G01*
X129268000Y-81660500D01*
G75*
G02*
X129415500Y-81808000I0J-147500D01*
G01*
X129415500Y-82103000D01*
G75*
G02*
X129268000Y-82250500I-147500J0D01*
G01*
G37*
%TD*%
%TO.C,IC1*%
X127635500Y-84030000D03*
X128269500Y-84030000D03*
X128905500Y-84030000D03*
X129539500Y-84030000D03*
X130175500Y-84030000D03*
X130809500Y-84030000D03*
X131445500Y-84030000D03*
X132079500Y-84030000D03*
X132079500Y-89452000D03*
X131445500Y-89452000D03*
X130809500Y-89452000D03*
X130175500Y-89452000D03*
X129539500Y-89452000D03*
X128905500Y-89452000D03*
X128269500Y-89452000D03*
X127635500Y-89452000D03*
%TD*%
M02*
