M48
; DRILL file {KiCad (5.1.6-0-10_14)} date Monday, June 29, 2020 at 04:19:28 PM
; FORMAT={-:-/ absolute / metric / decimal}
; #@! TF.CreationDate,2020-06-29T16:19:28+02:00
; #@! TF.GenerationSoftware,Kicad,Pcbnew,(5.1.6-0-10_14)
; #@! TF.FileFunction,Plated,1,2,PTH
FMAT,2
METRIC
T1C0.400
T2C0.500
T3C0.762
%
G90
G05
T1
X104.292Y-90.576
X104.445Y-81.94
X104.445Y-84.531
X104.445Y-87.833
X105.867Y-86.055
X105.918Y-83.16
X106.07Y-89.306
X107.493Y-81.89
X107.493Y-84.43
X107.645Y-90.526
X107.848Y-87.732
X109.322Y-83.058
X109.525Y-89.306
X109.626Y-86.055
X110.693Y-81.686
X110.896Y-84.277
X111.15Y-90.83
X111.201Y-87.681
X112.776Y-89.662
X112.928Y-82.753
X114.097Y-84.48
X114.148Y-81.737
X114.148Y-87.681
X114.452Y-90.932
X116.23Y-82.753
X117.043Y-87.528
X117.399Y-81.636
X118.364Y-83.566
X118.567Y-86.208
X118.567Y-90.221
X118.669Y-88.443
X119.939Y-87.528
X120.294Y-81.737
X121.158Y-84.277
X121.209Y-90.373
X121.26Y-88.748
X121.412Y-86.208
X122.174Y-82.753
X122.53Y-87.427
X123.444Y-81.737
X123.647Y-88.748
X123.85Y-86.258
X123.85Y-90.475
X124.155Y-83.769
X125.425Y-87.376
X126.34Y-83.261
X127.864Y-87.63
X128.422Y-86.258
X130.556Y-86.309
X130.962Y-91.237
X133.147Y-86.36
X133.604Y-83.972
X134.163Y-91.796
X135.026Y-87.974
X135.687Y-90.78
X136.398Y-89.408
X136.449Y-86.055
X136.5Y-84.023
X136.652Y-91.796
X137.668Y-88.494
X137.77Y-90.627
X138.582Y-84.023
X138.684Y-89.459
X138.836Y-91.846
X139.04Y-86.055
X139.903Y-88.443
X140.157Y-84.582
X140.157Y-90.627
X141.072Y-89.56
X141.63Y-86.106
X141.732Y-83.871
X142.088Y-91.592
X143.256Y-87.478
X145.339Y-87.478
X145.491Y-89.764
X145.593Y-91.592
X147.676Y-81.686
X149.555Y-81.636
X149.86Y-87.986
X150.419Y-86.512
X150.571Y-83.871
X150.876Y-88.9
X151.587Y-81.686
X152.603Y-82.956
X153.467Y-81.686
X153.822Y-87.681
X153.873Y-90.373
X154.127Y-84.226
X154.584Y-82.956
X155.245Y-88.798
X155.499Y-81.686
X156.007Y-84.734
X156.464Y-82.906
X156.464Y-87.681
X157.175Y-90.322
X157.277Y-81.686
X157.582Y-84.836
X157.683Y-88.9
X158.699Y-83.109
X158.801Y-85.801
X158.902Y-81.686
X159.563Y-84.887
X159.563Y-90.373
X160.071Y-88.9
X160.274Y-81.636
X160.731Y-83.058
X162.662Y-89.357
X163.462Y-90.766
X164.46Y-90.84
X165.405Y-87.77
X166.675Y-87.745
X166.827Y-81.585
X166.929Y-85.903
X168.605Y-85.242
X168.758Y-91.186
X168.808Y-86.766
X169.012Y-81.28
X170.282Y-87.681
X170.332Y-83.261
X172.009Y-88.646
X172.11Y-84.785
X172.11Y-91.135
X172.212Y-81.178
X172.314Y-87.071
X172.568Y-83.261
X174.142Y-86.258
X174.193Y-84.43
X174.854Y-81.178
X174.955Y-88.697
X174.955Y-91.135
X175.108Y-83.16
X176.073Y-87.071
X176.479Y-85.395
X177.14Y-83.312
X177.902Y-81.331
X177.952Y-91.237
X178.003Y-87.986
X180.34Y-81.737
X180.645Y-86.716
X181.153Y-83.414
X181.661Y-88.849
X181.661Y-91.135
X182.27Y-85.192
X182.778Y-81.686
X183.642Y-86.817
X183.998Y-83.21
X184.201Y-88.951
X184.252Y-91.084
X184.76Y-85.242
X185.115Y-81.686
X186.233Y-83.16
X186.284Y-86.817
X186.842Y-91.034
X186.944Y-88.646
X186.995Y-85.293
X187.604Y-81.686
X188.417Y-83.16
X189.382Y-87.071
X189.433Y-81.788
X189.636Y-88.798
X189.687Y-91.237
X189.89Y-85.395
X190.805Y-83.058
X191.516Y-88.443
X191.618Y-81.636
X191.77Y-86.106
X191.821Y-91.135
T2
X147.637Y-83.106
X147.637Y-84.106
X147.637Y-85.106
X147.637Y-86.106
X147.637Y-87.106
X147.637Y-88.106
X147.637Y-89.106
X147.637Y-90.106
T3
X125.428Y-85.357
X125.44Y-89.852
X161.351Y-85.407
X161.364Y-89.903
X152.359Y-85.407
X152.372Y-89.903
X179.334Y-85.407
X179.347Y-89.903
X170.343Y-85.407
X170.355Y-89.903
X134.445Y-85.357
X134.457Y-89.852
X143.398Y-85.357
X143.411Y-89.852
X116.347Y-85.357
X116.36Y-89.852
T0
M30
