0
SECTION
2
HEADER
9
$INSUNITS
70
4
9
$ACADVER
1
AC1014
9
$HANDSEED
5
FFFF
0
ENDSEC
0
SECTION
2
TABLES
0
TABLE
2
VPORT
5
8
100
AcDbSymbolTable
0
ENDTAB
0
TABLE
2
LTYPE
5
5
100
AcDbSymbolTable
0
LTYPE
5
14
100
AcDbSymbolTableRecord
100
AcDbLinetypeTableRecord
2
BYBLOCK
70
0
0
LTYPE
5
15
100
AcDbSymbolTableRecord
100
AcDbLinetypeTableRecord
2
BYLAYER
70
0
0
ENDTAB
0
TABLE
2
LAYER
5
2
100
AcDbSymbolTable
70
2
0
LAYER
5
50
100
AcDbSymbolTableRecord
100
AcDbLayerTableRecord
2
0
70
0
6
CONTINUOUS
0
ENDTAB
0
TABLE
2
STYLE
5
3
100
AcDbSymbolTable
70
1
0
STYLE
5
11
100
AcDbSymbolTableRecord
100
AcDbTextStyleTableRecord
2
STANDARD
70
0
0
ENDTAB
0
TABLE
2
VIEW
5
6
100
AcDbSymbolTable
70
0
0
ENDTAB
0
TABLE
2
UCS
5
7
100
AcDbSymbolTable
70
0
0
ENDTAB
0
TABLE
2
APPID
5
9
100
AcDbSymbolTable
70
2
0
APPID
5
12
100
AcDbSymbolTableRecord
100
AcDbRegAppTableRecord
2
ACAD
70
0
0
ENDTAB
0
TABLE
2
DIMSTYLE
5
A
100
AcDbSymbolTable
70
1
0
ENDTAB
0
TABLE
2
BLOCK_RECORD
5
1
100
AcDbSymbolTable
70
1
0
BLOCK_RECORD
5
1F
100
AcDbSymbolTableRecord
100
AcDbBlockTableRecord
2
*MODEL_SPACE
0
BLOCK_RECORD
5
1B
100
AcDbSymbolTableRecord
100
AcDbBlockTableRecord
2
*PAPER_SPACE
0
ENDTAB
0
ENDSEC
0
SECTION
2
BLOCKS
0
BLOCK
5
20
100
AcDbEntity
100
AcDbBlockBegin
2
*MODEL_SPACE
0
ENDBLK
5
21
100
AcDbEntity
100
AcDbBlockEnd
0
BLOCK
5
1C
100
AcDbEntity
100
AcDbBlockBegin
2
*PAPER_SPACE
0
ENDBLK
5
1D
100
AcDbEntity
100
AcDbBlockEnd
0
ENDSEC
0
SECTION
2
ENTITIES
0
LWPOLYLINE
5
100
100
AcDbEntity
8
0
100
AcDbPolyline
90
8
70
1
43
0.0
10
-71.480625152587521
20
-23.019373853427538
10
-66.980625152587521
20
-23.019373853427581
10
-66.980625152588232
20
-97.019373853427481
10
-71.480625152588246
20
-97.019373853427439
10
-80.480625152588232
20
-97.019373853427339
10
-84.98062515258826
20
-97.019373853427311
10
-84.980625152587535
20
-23.019373853427403
10
-80.480625152587521
20
-23.019373853427449
0
CIRCLE
5
101
100
AcDbEntity
8
0
100
AcDbCircle
10
-71.480625152587749
20
-46.51937385342751
30
0
40
1.7500000000000024
210
-2.0130911137548986e-43
220
5.605193857301236e-45
230
1
0
CIRCLE
5
102
100
AcDbEntity
8
0
100
AcDbCircle
10
-71.480625152587834
20
-55.519373853427496
30
0
40
1.7500000000000024
210
-2.0130911137548986e-43
220
5.605193857301236e-45
230
1
0
CIRCLE
5
103
100
AcDbEntity
8
0
100
AcDbCircle
10
-71.480625152587919
20
-64.519373853427481
30
0
40
1.7500000000000024
210
-2.0130911137548986e-43
220
5.605193857301236e-45
230
1
0
CIRCLE
5
104
100
AcDbEntity
8
0
100
AcDbCircle
10
-71.480625152588004
20
-73.519373853427467
30
0
40
1.7500000000000024
210
-2.0130911137548986e-43
220
5.605193857301236e-45
230
1
0
CIRCLE
5
105
100
AcDbEntity
8
0
100
AcDbCircle
10
-71.48062515258809
20
-82.519373853427453
30
0
40
1.7500000000000024
210
-2.0130911137548986e-43
220
5.605193857301236e-45
230
1
0
CIRCLE
5
106
100
AcDbEntity
8
0
100
AcDbCircle
10
-71.480625152588175
20
-91.519373853427453
30
0
40
1.7500000000000024
210
-2.0130911137548986e-43
220
5.605193857301236e-45
230
1
0
CIRCLE
5
107
100
AcDbEntity
8
0
100
AcDbCircle
10
-80.480625152587578
20
-28.519373853427439
30
0
40
1.7500000000000024
210
-2.0130911137548986e-43
220
5.605193857301236e-45
230
1
0
CIRCLE
5
108
100
AcDbEntity
8
0
100
AcDbCircle
10
-80.480625152587663
20
-37.519373853427432
30
0
40
1.7500000000000024
210
-2.0130911137548986e-43
220
5.605193857301236e-45
230
1
0
CIRCLE
5
109
100
AcDbEntity
8
0
100
AcDbCircle
10
-80.480625152587763
20
-46.519373853427417
30
0
40
1.7500000000000024
210
-2.0130911137548986e-43
220
5.605193857301236e-45
230
1
0
CIRCLE
5
110
100
AcDbEntity
8
0
100
AcDbCircle
10
-80.480625152587848
20
-55.519373853427403
30
0
40
1.7500000000000024
210
-2.0130911137548986e-43
220
5.605193857301236e-45
230
1
0
CIRCLE
5
111
100
AcDbEntity
8
0
100
AcDbCircle
10
-80.480625152587933
20
-64.519373853427396
30
0
40
1.7500000000000024
210
-2.0130911137548986e-43
220
5.605193857301236e-45
230
1
0
CIRCLE
5
112
100
AcDbEntity
8
0
100
AcDbCircle
10
-80.480625152588033
20
-73.519373853427382
30
0
40
1.7500000000000024
210
-2.0130911137548986e-43
220
5.605193857301236e-45
230
1
0
CIRCLE
5
113
100
AcDbEntity
8
0
100
AcDbCircle
10
-80.480625152588118
20
-82.519373853427368
30
0
40
1.7500000000000024
210
-2.0130911137548986e-43
220
5.605193857301236e-45
230
1
0
CIRCLE
5
114
100
AcDbEntity
8
0
100
AcDbCircle
10
-80.480625152588203
20
-91.519373853427354
30
0
40
1.7500000000000024
210
-2.0130911137548986e-43
220
5.605193857301236e-45
230
1
0
CIRCLE
5
115
100
AcDbEntity
8
0
100
AcDbCircle
10
-71.480625152587663
20
-37.519373853427517
30
0
40
1.7500000000000024
210
-2.0130911137548986e-43
220
5.605193857301236e-45
230
1
0
CIRCLE
5
116
100
AcDbEntity
8
0
100
AcDbCircle
10
-71.480625152587564
20
-28.519373853427528
30
0
40
1.7500000000000024
210
-2.0130911137548986e-43
220
5.605193857301236e-45
230
1
0
LWPOLYLINE
5
117
100
AcDbEntity
8
0
100
AcDbPolyline
90
12
70
1
43
0.0
10
-84.780625152588271
20
-22.201909743273305
10
-84.780625152588271
20
-96.819373853427493
10
-80.980625152588317
20
-96.819373853427351
42
-0.41421356237309509
10
-79.980625152588317
20
-97.819373853427351
10
-79.980625152588289
20
-98.819373853427322
42
0.41421356237311319
10
-78.980625152588274
20
-99.819373853427351
10
-72.980625152588274
20
-99.819373853427436
42
0.41421356237309243
10
-71.980625152588289
20
-98.819373853427464
10
-71.980625152588274
20
-97.819373853427351
42
-0.41421356237308982
10
-70.98062515258826
20
-96.819373853427351
10
-67.180625152588206
20
-96.819373853427493
10
-67.180625152588206
20
-22.201909743273308
0
LINE
5
118
100
AcDbEntity
8
0
100
AcDbLine
10
-67.927589311654728
20
-22.001909743273309
30
0
11
-84.027589311654623
21
-22.00190974327321
31
-1.9864663603149124e-42
0
CIRCLE
5
119
100
AcDbEntity
8
0
100
AcDbCircle
10
-80.480625152587578
20
-28.519373853427439
30
0
40
1.7000000000000002
210
0
220
0
230
1
0
CIRCLE
5
120
100
AcDbEntity
8
0
100
AcDbCircle
10
-71.480625152587578
20
-28.519373853427439
30
6.644379564240396e-57
40
1.7000000000000002
210
0
220
0
230
1
0
CIRCLE
5
121
100
AcDbEntity
8
0
100
AcDbCircle
10
-80.480625152587578
20
-37.519373853427439
30
0
40
1.7000000000000002
210
0
220
0
230
1
0
CIRCLE
5
122
100
AcDbEntity
8
0
100
AcDbCircle
10
-71.480625152587578
20
-37.519373853427439
30
6.644379564240396e-57
40
1.7000000000000002
210
0
220
0
230
1
0
CIRCLE
5
123
100
AcDbEntity
8
0
100
AcDbCircle
10
-80.480625152587578
20
-46.519373853427446
30
0
40
1.7000000000000002
210
0
220
0
230
1
0
CIRCLE
5
124
100
AcDbEntity
8
0
100
AcDbCircle
10
-71.480625152587578
20
-46.519373853427446
30
6.644379564240396e-57
40
1.7000000000000002
210
0
220
0
230
1
0
CIRCLE
5
125
100
AcDbEntity
8
0
100
AcDbCircle
10
-80.480625152587578
20
-55.519373853427439
30
0
40
1.7000000000000002
210
0
220
0
230
1
0
CIRCLE
5
126
100
AcDbEntity
8
0
100
AcDbCircle
10
-71.480625152587578
20
-55.519373853427439
30
6.644379564240396e-57
40
1.7000000000000002
210
0
220
0
230
1
0
CIRCLE
5
127
100
AcDbEntity
8
0
100
AcDbCircle
10
-80.480625152587578
20
-64.519373853427439
30
0
40
1.7000000000000002
210
0
220
0
230
1
0
CIRCLE
5
128
100
AcDbEntity
8
0
100
AcDbCircle
10
-71.480625152587578
20
-64.519373853427439
30
6.644379564240396e-57
40
1.7000000000000002
210
0
220
0
230
1
0
CIRCLE
5
129
100
AcDbEntity
8
0
100
AcDbCircle
10
-80.480625152587578
20
-73.519373853427453
30
0
40
1.7000000000000002
210
0
220
0
230
1
0
CIRCLE
5
130
100
AcDbEntity
8
0
100
AcDbCircle
10
-71.480625152587578
20
-73.519373853427453
30
6.644379564240396e-57
40
1.7000000000000002
210
0
220
0
230
1
0
CIRCLE
5
131
100
AcDbEntity
8
0
100
AcDbCircle
10
-80.480625152587578
20
-82.519373853427439
30
0
40
1.7000000000000002
210
0
220
0
230
1
0
CIRCLE
5
132
100
AcDbEntity
8
0
100
AcDbCircle
10
-71.480625152587578
20
-82.519373853427439
30
6.644379564240396e-57
40
1.7000000000000002
210
0
220
0
230
1
0
CIRCLE
5
133
100
AcDbEntity
8
0
100
AcDbCircle
10
-80.480625152587578
20
-91.519373853427453
30
0
40
1.7000000000000002
210
0
220
0
230
1
0
CIRCLE
5
134
100
AcDbEntity
8
0
100
AcDbCircle
10
-71.480625152587578
20
-91.519373853427453
30
6.644379564240396e-57
40
1.7000000000000002
210
0
220
0
230
1
0
LINE
5
135
100
AcDbEntity
8
0
100
AcDbLine
10
-75.980625152588246
20
-97.019373853427382
30
5.9164567891589471e-30
11
-75.980625152588274
21
-99.819373853427393
31
0
0
ENDSEC
0
SECTION
2
OBJECTS
0
DICTIONARY
5
C
100
AcDbDictionary
3
ACAD_GROUP
350
D
3
ACAD_MLINESTYLE
350
17
0
DICTIONARY
5
D
100
AcDbDictionary
0
DICTIONARY
5
1A
330
C
100
AcDbDictionary
0
DICTIONARY
5
17
100
AcDbDictionary
0
ENDSEC
0
EOF
