%TF.GenerationSoftware,KiCad,Pcbnew,(5.1.6-0-10_14)*%
%TF.CreationDate,2020-06-29T16:05:55+02:00*%
%TF.ProjectId,rev0,72657630-2e6b-4696-9361-645f70636258,rev?*%
%TF.SameCoordinates,Original*%
%TF.FileFunction,Paste,Top*%
%TF.FilePolarity,Positive*%
%FSLAX46Y46*%
G04 Gerber Fmt 4.6, Leading zero omitted, Abs format (unit mm)*
G04 Created by KiCad (PCBNEW (5.1.6-0-10_14)) date 2020-06-29 16:05:55*
%MOMM*%
%LPD*%
G01*
G04 APERTURE LIST*
%ADD10C,0.100000*%
G04 APERTURE END LIST*
D10*
%TO.C,REF\u002A\u002A*%
G36*
X91668275Y-105177632D02*
G01*
X91385432Y-105460475D01*
X90678325Y-104753368D01*
X90961168Y-104470525D01*
X91668275Y-105177632D01*
G37*
G36*
X90906275Y-105812632D02*
G01*
X90623432Y-106095475D01*
X89916325Y-105388368D01*
X90199168Y-105105525D01*
X90906275Y-105812632D01*
G37*
%TD*%
%TO.C,REF\u002A\u002A*%
G36*
X100609075Y-105177632D02*
G01*
X100326232Y-105460475D01*
X99619125Y-104753368D01*
X99901968Y-104470525D01*
X100609075Y-105177632D01*
G37*
G36*
X99847075Y-105812632D02*
G01*
X99564232Y-106095475D01*
X98857125Y-105388368D01*
X99139968Y-105105525D01*
X99847075Y-105812632D01*
G37*
%TD*%
%TO.C,REF\u002A\u002A*%
G36*
X109651475Y-105177632D02*
G01*
X109368632Y-105460475D01*
X108661525Y-104753368D01*
X108944368Y-104470525D01*
X109651475Y-105177632D01*
G37*
G36*
X108889475Y-105812632D02*
G01*
X108606632Y-106095475D01*
X107899525Y-105388368D01*
X108182368Y-105105525D01*
X108889475Y-105812632D01*
G37*
%TD*%
%TO.C,REF\u002A\u002A*%
G36*
X118643075Y-105177632D02*
G01*
X118360232Y-105460475D01*
X117653125Y-104753368D01*
X117935968Y-104470525D01*
X118643075Y-105177632D01*
G37*
G36*
X117881075Y-105812632D02*
G01*
X117598232Y-106095475D01*
X116891125Y-105388368D01*
X117173968Y-105105525D01*
X117881075Y-105812632D01*
G37*
%TD*%
%TO.C,REF\u002A\u002A*%
G36*
X127634675Y-105177632D02*
G01*
X127351832Y-105460475D01*
X126644725Y-104753368D01*
X126927568Y-104470525D01*
X127634675Y-105177632D01*
G37*
G36*
X126872675Y-105812632D02*
G01*
X126589832Y-106095475D01*
X125882725Y-105388368D01*
X126165568Y-105105525D01*
X126872675Y-105812632D01*
G37*
%TD*%
%TO.C,REF\u002A\u002A*%
G36*
X136638975Y-105164932D02*
G01*
X136356132Y-105447775D01*
X135649025Y-104740668D01*
X135931868Y-104457825D01*
X136638975Y-105164932D01*
G37*
G36*
X135876975Y-105799932D02*
G01*
X135594132Y-106082775D01*
X134887025Y-105375668D01*
X135169868Y-105092825D01*
X135876975Y-105799932D01*
G37*
%TD*%
%TO.C,REF\u002A\u002A*%
G36*
X145630575Y-105164932D02*
G01*
X145347732Y-105447775D01*
X144640625Y-104740668D01*
X144923468Y-104457825D01*
X145630575Y-105164932D01*
G37*
G36*
X144868575Y-105799932D02*
G01*
X144585732Y-106082775D01*
X143878625Y-105375668D01*
X144161468Y-105092825D01*
X144868575Y-105799932D01*
G37*
%TD*%
%TO.C,REF\u002A\u002A*%
G36*
X82638575Y-105114132D02*
G01*
X82355732Y-105396975D01*
X81648625Y-104689868D01*
X81931468Y-104407025D01*
X82638575Y-105114132D01*
G37*
G36*
X81876575Y-105749132D02*
G01*
X81593732Y-106031975D01*
X80886625Y-105324868D01*
X81169468Y-105042025D01*
X81876575Y-105749132D01*
G37*
%TD*%
M02*
