%TF.GenerationSoftware,KiCad,Pcbnew,(5.1.6-0-10_14)*%
%TF.CreationDate,2020-06-29T16:05:55+02:00*%
%TF.ProjectId,rev0,72657630-2e6b-4696-9361-645f70636258,rev?*%
%TF.SameCoordinates,Original*%
%TF.FileFunction,Copper,L2,Bot*%
%TF.FilePolarity,Positive*%
%FSLAX46Y46*%
G04 Gerber Fmt 4.6, Leading zero omitted, Abs format (unit mm)*
G04 Created by KiCad (PCBNEW (5.1.6-0-10_14)) date 2020-06-29 16:05:55*
%MOMM*%
%LPD*%
G01*
G04 APERTURE LIST*
%TA.AperFunction,EtchedComponent*%
%ADD10C,0.400000*%
%TD*%
%TA.AperFunction,SMDPad,CuDef*%
%ADD11C,0.100000*%
%TD*%
%TA.AperFunction,ComponentPad*%
%ADD12O,1.700000X1.700000*%
%TD*%
%TA.AperFunction,ComponentPad*%
%ADD13R,1.700000X1.700000*%
%TD*%
%TA.AperFunction,ViaPad*%
%ADD14C,0.800000*%
%TD*%
%TA.AperFunction,Conductor*%
%ADD15C,0.400000*%
%TD*%
G04 APERTURE END LIST*
D10*
%TO.C,REF\u002A\u002A*%
X142913472Y-109220895D02*
G75*
G03*
X143535400Y-109804200I-1117972J-1815205D01*
G01*
X143369756Y-108768293D02*
G75*
G03*
X144348200Y-109956600I-1574256J-2293207D01*
G01*
X143704559Y-108157519D02*
G75*
G03*
X144881600Y-109474000I-1909059J-2891281D01*
G01*
X143535400Y-109804200D02*
X144805400Y-108483400D01*
X144068800Y-107823000D02*
X143713200Y-108178600D01*
X144881600Y-109474000D02*
X144348200Y-109956600D01*
X143383000Y-108762800D02*
X142951200Y-109220000D01*
X124917572Y-109208195D02*
G75*
G03*
X125539500Y-109791500I-1117972J-1815205D01*
G01*
X125373856Y-108755593D02*
G75*
G03*
X126352300Y-109943900I-1574256J-2293207D01*
G01*
X125708659Y-108144819D02*
G75*
G03*
X126885700Y-109461300I-1909059J-2891281D01*
G01*
X125539500Y-109791500D02*
X126809500Y-108470700D01*
X126072900Y-107810300D02*
X125717300Y-108165900D01*
X126885700Y-109461300D02*
X126352300Y-109943900D01*
X125387100Y-108750100D02*
X124955300Y-109207300D01*
X79921472Y-109271695D02*
G75*
G03*
X80543400Y-109855000I-1117972J-1815205D01*
G01*
X80377756Y-108819093D02*
G75*
G03*
X81356200Y-110007400I-1574256J-2293207D01*
G01*
X80712559Y-108208319D02*
G75*
G03*
X81889600Y-109524800I-1909059J-2891281D01*
G01*
X80543400Y-109855000D02*
X81813400Y-108534200D01*
X81076800Y-107873800D02*
X80721200Y-108229400D01*
X81889600Y-109524800D02*
X81356200Y-110007400D01*
X80391000Y-108813600D02*
X79959200Y-109270800D01*
X88951172Y-109208195D02*
G75*
G03*
X89573100Y-109791500I-1117972J-1815205D01*
G01*
X89407456Y-108755593D02*
G75*
G03*
X90385900Y-109943900I-1574256J-2293207D01*
G01*
X89742259Y-108144819D02*
G75*
G03*
X90919300Y-109461300I-1909059J-2891281D01*
G01*
X89573100Y-109791500D02*
X90843100Y-108470700D01*
X90106500Y-107810300D02*
X89750900Y-108165900D01*
X90919300Y-109461300D02*
X90385900Y-109943900D01*
X89420700Y-108750100D02*
X88988900Y-109207300D01*
X106934372Y-109208195D02*
G75*
G03*
X107556300Y-109791500I-1117972J-1815205D01*
G01*
X107390656Y-108755593D02*
G75*
G03*
X108369100Y-109943900I-1574256J-2293207D01*
G01*
X107725459Y-108144819D02*
G75*
G03*
X108902500Y-109461300I-1909059J-2891281D01*
G01*
X107556300Y-109791500D02*
X108826300Y-108470700D01*
X108089700Y-107810300D02*
X107734100Y-108165900D01*
X108902500Y-109461300D02*
X108369100Y-109943900D01*
X107403900Y-108750100D02*
X106972100Y-109207300D01*
X97891972Y-109208195D02*
G75*
G03*
X98513900Y-109791500I-1117972J-1815205D01*
G01*
X98348256Y-108755593D02*
G75*
G03*
X99326700Y-109943900I-1574256J-2293207D01*
G01*
X98683059Y-108144819D02*
G75*
G03*
X99860100Y-109461300I-1909059J-2891281D01*
G01*
X98513900Y-109791500D02*
X99783900Y-108470700D01*
X99047300Y-107810300D02*
X98691700Y-108165900D01*
X99860100Y-109461300D02*
X99326700Y-109943900D01*
X98361500Y-108750100D02*
X97929700Y-109207300D01*
X133921872Y-109220895D02*
G75*
G03*
X134543800Y-109804200I-1117972J-1815205D01*
G01*
X134378156Y-108768293D02*
G75*
G03*
X135356600Y-109956600I-1574256J-2293207D01*
G01*
X134712959Y-108157519D02*
G75*
G03*
X135890000Y-109474000I-1909059J-2891281D01*
G01*
X134543800Y-109804200D02*
X135813800Y-108483400D01*
X135077200Y-107823000D02*
X134721600Y-108178600D01*
X135890000Y-109474000D02*
X135356600Y-109956600D01*
X134391400Y-108762800D02*
X133959600Y-109220000D01*
X115925972Y-109208195D02*
G75*
G03*
X116547900Y-109791500I-1117972J-1815205D01*
G01*
X116382256Y-108755593D02*
G75*
G03*
X117360700Y-109943900I-1574256J-2293207D01*
G01*
X116717059Y-108144819D02*
G75*
G03*
X117894100Y-109461300I-1909059J-2891281D01*
G01*
X116547900Y-109791500D02*
X117817900Y-108470700D01*
X117081300Y-107810300D02*
X116725700Y-108165900D01*
X117894100Y-109461300D02*
X117360700Y-109943900D01*
X116395500Y-108750100D02*
X115963700Y-109207300D01*
%TD*%
%TA.AperFunction,SMDPad,CuDef*%
D11*
%TO.P,REF\u002A\u002A,1*%
%TO.N,N/C*%
G36*
X145347732Y-107658225D02*
G01*
X145630575Y-107941068D01*
X144923468Y-108648175D01*
X144640625Y-108365332D01*
X145347732Y-107658225D01*
G37*
%TD.AperFunction*%
%TA.AperFunction,SMDPad,CuDef*%
G36*
X144585732Y-107023225D02*
G01*
X144868575Y-107306068D01*
X144161468Y-108013175D01*
X143878625Y-107730332D01*
X144585732Y-107023225D01*
G37*
%TD.AperFunction*%
%TD*%
%TA.AperFunction,SMDPad,CuDef*%
%TO.P,REF\u002A\u002A,1*%
%TO.N,N/C*%
G36*
X127351832Y-107645525D02*
G01*
X127634675Y-107928368D01*
X126927568Y-108635475D01*
X126644725Y-108352632D01*
X127351832Y-107645525D01*
G37*
%TD.AperFunction*%
%TA.AperFunction,SMDPad,CuDef*%
G36*
X126589832Y-107010525D02*
G01*
X126872675Y-107293368D01*
X126165568Y-108000475D01*
X125882725Y-107717632D01*
X126589832Y-107010525D01*
G37*
%TD.AperFunction*%
%TD*%
%TA.AperFunction,SMDPad,CuDef*%
%TO.P,REF\u002A\u002A,1*%
%TO.N,N/C*%
G36*
X82355732Y-107709025D02*
G01*
X82638575Y-107991868D01*
X81931468Y-108698975D01*
X81648625Y-108416132D01*
X82355732Y-107709025D01*
G37*
%TD.AperFunction*%
%TA.AperFunction,SMDPad,CuDef*%
G36*
X81593732Y-107074025D02*
G01*
X81876575Y-107356868D01*
X81169468Y-108063975D01*
X80886625Y-107781132D01*
X81593732Y-107074025D01*
G37*
%TD.AperFunction*%
%TD*%
%TA.AperFunction,SMDPad,CuDef*%
%TO.P,REF\u002A\u002A,1*%
%TO.N,N/C*%
G36*
X91385432Y-107645525D02*
G01*
X91668275Y-107928368D01*
X90961168Y-108635475D01*
X90678325Y-108352632D01*
X91385432Y-107645525D01*
G37*
%TD.AperFunction*%
%TA.AperFunction,SMDPad,CuDef*%
G36*
X90623432Y-107010525D02*
G01*
X90906275Y-107293368D01*
X90199168Y-108000475D01*
X89916325Y-107717632D01*
X90623432Y-107010525D01*
G37*
%TD.AperFunction*%
%TD*%
%TA.AperFunction,SMDPad,CuDef*%
%TO.P,REF\u002A\u002A,1*%
%TO.N,N/C*%
G36*
X109368632Y-107645525D02*
G01*
X109651475Y-107928368D01*
X108944368Y-108635475D01*
X108661525Y-108352632D01*
X109368632Y-107645525D01*
G37*
%TD.AperFunction*%
%TA.AperFunction,SMDPad,CuDef*%
G36*
X108606632Y-107010525D02*
G01*
X108889475Y-107293368D01*
X108182368Y-108000475D01*
X107899525Y-107717632D01*
X108606632Y-107010525D01*
G37*
%TD.AperFunction*%
%TD*%
%TA.AperFunction,SMDPad,CuDef*%
%TO.P,REF\u002A\u002A,1*%
%TO.N,N/C*%
G36*
X100326232Y-107645525D02*
G01*
X100609075Y-107928368D01*
X99901968Y-108635475D01*
X99619125Y-108352632D01*
X100326232Y-107645525D01*
G37*
%TD.AperFunction*%
%TA.AperFunction,SMDPad,CuDef*%
G36*
X99564232Y-107010525D02*
G01*
X99847075Y-107293368D01*
X99139968Y-108000475D01*
X98857125Y-107717632D01*
X99564232Y-107010525D01*
G37*
%TD.AperFunction*%
%TD*%
%TA.AperFunction,SMDPad,CuDef*%
%TO.P,REF\u002A\u002A,1*%
%TO.N,N/C*%
G36*
X136356132Y-107658225D02*
G01*
X136638975Y-107941068D01*
X135931868Y-108648175D01*
X135649025Y-108365332D01*
X136356132Y-107658225D01*
G37*
%TD.AperFunction*%
%TA.AperFunction,SMDPad,CuDef*%
G36*
X135594132Y-107023225D02*
G01*
X135876975Y-107306068D01*
X135169868Y-108013175D01*
X134887025Y-107730332D01*
X135594132Y-107023225D01*
G37*
%TD.AperFunction*%
%TD*%
%TA.AperFunction,SMDPad,CuDef*%
%TO.P,REF\u002A\u002A,1*%
%TO.N,N/C*%
G36*
X118360232Y-107645525D02*
G01*
X118643075Y-107928368D01*
X117935968Y-108635475D01*
X117653125Y-108352632D01*
X118360232Y-107645525D01*
G37*
%TD.AperFunction*%
%TA.AperFunction,SMDPad,CuDef*%
G36*
X117598232Y-107010525D02*
G01*
X117881075Y-107293368D01*
X117173968Y-108000475D01*
X116891125Y-107717632D01*
X117598232Y-107010525D01*
G37*
%TD.AperFunction*%
%TD*%
D12*
%TO.P,J1,2*%
%TO.N,N/C*%
X72136000Y-107696000D03*
D13*
%TO.P,J1,1*%
%TO.N,Net-(J1-Pad1)*%
X72136000Y-105156000D03*
%TD*%
D14*
%TO.N,*%
X146761200Y-106578400D03*
%TD*%
D15*
%TO.N,*%
X72136000Y-107696000D02*
X73152000Y-106680000D01*
X73152000Y-106680000D02*
X81991200Y-106680000D01*
X81991200Y-106680000D02*
X82092800Y-106781600D01*
X82092800Y-106857800D02*
X81539171Y-107411429D01*
X82092800Y-106781600D02*
X82092800Y-106857800D01*
X145351500Y-107937300D02*
X146710400Y-106578400D01*
X146710400Y-106578400D02*
X146761200Y-106578400D01*
X145351500Y-107962700D02*
X145351500Y-107937300D01*
X144767300Y-107162600D02*
X144767300Y-106972100D01*
X137321408Y-106972100D02*
X136236270Y-108057238D01*
X144767300Y-106972100D02*
X137321408Y-106972100D01*
X135750300Y-107149900D02*
X135750300Y-106807000D01*
X135750300Y-106807000D02*
X135737600Y-106794300D01*
X127233852Y-108046347D02*
X127231970Y-108044538D01*
X128485900Y-106794300D02*
X127233852Y-108046347D01*
X135737600Y-106794300D02*
X128485900Y-106794300D01*
X126771400Y-107124500D02*
X126453900Y-106807000D01*
X118242252Y-108046347D02*
X118240370Y-108044538D01*
X119481600Y-106807000D02*
X118242252Y-108046347D01*
X126453900Y-106807000D02*
X119481600Y-106807000D01*
X117754400Y-107124500D02*
X117792500Y-107124500D01*
X117792500Y-107124500D02*
X117957600Y-106959400D01*
X117957600Y-106959400D02*
X117957600Y-106794300D01*
X117957600Y-106794300D02*
X117856000Y-106692700D01*
X109250652Y-108046347D02*
X109248770Y-108044538D01*
X110604300Y-106692700D02*
X109250652Y-108046347D01*
X117856000Y-106692700D02*
X110604300Y-106692700D01*
X108750100Y-107124500D02*
X108750100Y-106794300D01*
X108750100Y-106794300D02*
X108559600Y-106603800D01*
X100208252Y-108046347D02*
X100206370Y-108044538D01*
X101650800Y-106603800D02*
X100208252Y-108046347D01*
X108559600Y-106603800D02*
X101650800Y-106603800D01*
X99720400Y-107149900D02*
X99720400Y-106908600D01*
X99720400Y-106908600D02*
X99390200Y-106578400D01*
X91267452Y-108046347D02*
X91265570Y-108044538D01*
X92735400Y-106578400D02*
X91267452Y-108046347D01*
X99390200Y-106578400D02*
X92735400Y-106578400D01*
X90766900Y-107137200D02*
X90766900Y-106921300D01*
X90766900Y-106921300D02*
X90258900Y-106413300D01*
X82237752Y-108109847D02*
X82235870Y-108108038D01*
X83934300Y-106413300D02*
X82237752Y-108109847D01*
X90258900Y-106413300D02*
X83934300Y-106413300D01*
%TD*%
M02*
