%TF.GenerationSoftware,KiCad,Pcbnew,(5.1.6-0-10_14)*%
%TF.CreationDate,2020-06-29T16:05:55+02:00*%
%TF.ProjectId,rev0,72657630-2e6b-4696-9361-645f70636258,rev?*%
%TF.SameCoordinates,Original*%
%TF.FileFunction,Copper,L1,Top*%
%TF.FilePolarity,Positive*%
%FSLAX46Y46*%
G04 Gerber Fmt 4.6, Leading zero omitted, Abs format (unit mm)*
G04 Created by KiCad (PCBNEW (5.1.6-0-10_14)) date 2020-06-29 16:05:55*
%MOMM*%
%LPD*%
G01*
G04 APERTURE LIST*
%TA.AperFunction,EtchedComponent*%
%ADD10C,0.400000*%
%TD*%
%TA.AperFunction,SMDPad,CuDef*%
%ADD11C,0.100000*%
%TD*%
%TA.AperFunction,ComponentPad*%
%ADD12O,1.700000X1.700000*%
%TD*%
%TA.AperFunction,ComponentPad*%
%ADD13R,1.700000X1.700000*%
%TD*%
%TA.AperFunction,ViaPad*%
%ADD14C,0.800000*%
%TD*%
%TA.AperFunction,Conductor*%
%ADD15C,0.400000*%
%TD*%
%TA.AperFunction,Conductor*%
%ADD16C,0.250000*%
%TD*%
G04 APERTURE END LIST*
D10*
%TO.C,REF\u002A\u002A*%
X88951172Y-103897805D02*
G75*
G02*
X89573100Y-103314500I-1117972J1815205D01*
G01*
X89407456Y-104350407D02*
G75*
G02*
X90385900Y-103162100I-1574256J2293207D01*
G01*
X89742259Y-104961181D02*
G75*
G02*
X90919300Y-103644700I-1909059J2891281D01*
G01*
X89573100Y-103314500D02*
X90843100Y-104635300D01*
X90106500Y-105295700D02*
X89750900Y-104940100D01*
X90919300Y-103644700D02*
X90385900Y-103162100D01*
X89420700Y-104355900D02*
X88988900Y-103898700D01*
X97891972Y-103897805D02*
G75*
G02*
X98513900Y-103314500I-1117972J1815205D01*
G01*
X98348256Y-104350407D02*
G75*
G02*
X99326700Y-103162100I-1574256J2293207D01*
G01*
X98683059Y-104961181D02*
G75*
G02*
X99860100Y-103644700I-1909059J2891281D01*
G01*
X98513900Y-103314500D02*
X99783900Y-104635300D01*
X99047300Y-105295700D02*
X98691700Y-104940100D01*
X99860100Y-103644700D02*
X99326700Y-103162100D01*
X98361500Y-104355900D02*
X97929700Y-103898700D01*
X106934372Y-103897805D02*
G75*
G02*
X107556300Y-103314500I-1117972J1815205D01*
G01*
X107390656Y-104350407D02*
G75*
G02*
X108369100Y-103162100I-1574256J2293207D01*
G01*
X107725459Y-104961181D02*
G75*
G02*
X108902500Y-103644700I-1909059J2891281D01*
G01*
X107556300Y-103314500D02*
X108826300Y-104635300D01*
X108089700Y-105295700D02*
X107734100Y-104940100D01*
X108902500Y-103644700D02*
X108369100Y-103162100D01*
X107403900Y-104355900D02*
X106972100Y-103898700D01*
X115925972Y-103897805D02*
G75*
G02*
X116547900Y-103314500I-1117972J1815205D01*
G01*
X116382256Y-104350407D02*
G75*
G02*
X117360700Y-103162100I-1574256J2293207D01*
G01*
X116717059Y-104961181D02*
G75*
G02*
X117894100Y-103644700I-1909059J2891281D01*
G01*
X116547900Y-103314500D02*
X117817900Y-104635300D01*
X117081300Y-105295700D02*
X116725700Y-104940100D01*
X117894100Y-103644700D02*
X117360700Y-103162100D01*
X116395500Y-104355900D02*
X115963700Y-103898700D01*
X124917572Y-103897805D02*
G75*
G02*
X125539500Y-103314500I-1117972J1815205D01*
G01*
X125373856Y-104350407D02*
G75*
G02*
X126352300Y-103162100I-1574256J2293207D01*
G01*
X125708659Y-104961181D02*
G75*
G02*
X126885700Y-103644700I-1909059J2891281D01*
G01*
X125539500Y-103314500D02*
X126809500Y-104635300D01*
X126072900Y-105295700D02*
X125717300Y-104940100D01*
X126885700Y-103644700D02*
X126352300Y-103162100D01*
X125387100Y-104355900D02*
X124955300Y-103898700D01*
X133921872Y-103885105D02*
G75*
G02*
X134543800Y-103301800I-1117972J1815205D01*
G01*
X134378156Y-104337707D02*
G75*
G02*
X135356600Y-103149400I-1574256J2293207D01*
G01*
X134712959Y-104948481D02*
G75*
G02*
X135890000Y-103632000I-1909059J2891281D01*
G01*
X134543800Y-103301800D02*
X135813800Y-104622600D01*
X135077200Y-105283000D02*
X134721600Y-104927400D01*
X135890000Y-103632000D02*
X135356600Y-103149400D01*
X134391400Y-104343200D02*
X133959600Y-103886000D01*
X142913472Y-103885105D02*
G75*
G02*
X143535400Y-103301800I-1117972J1815205D01*
G01*
X143369756Y-104337707D02*
G75*
G02*
X144348200Y-103149400I-1574256J2293207D01*
G01*
X143704559Y-104948481D02*
G75*
G02*
X144881600Y-103632000I-1909059J2891281D01*
G01*
X143535400Y-103301800D02*
X144805400Y-104622600D01*
X144068800Y-105283000D02*
X143713200Y-104927400D01*
X144881600Y-103632000D02*
X144348200Y-103149400D01*
X143383000Y-104343200D02*
X142951200Y-103886000D01*
X79921472Y-103834305D02*
G75*
G02*
X80543400Y-103251000I-1117972J1815205D01*
G01*
X80377756Y-104286907D02*
G75*
G02*
X81356200Y-103098600I-1574256J2293207D01*
G01*
X80712559Y-104897681D02*
G75*
G02*
X81889600Y-103581200I-1909059J2891281D01*
G01*
X80543400Y-103251000D02*
X81813400Y-104571800D01*
X81076800Y-105232200D02*
X80721200Y-104876600D01*
X81889600Y-103581200D02*
X81356200Y-103098600D01*
X80391000Y-104292400D02*
X79959200Y-103835200D01*
%TD*%
%TA.AperFunction,SMDPad,CuDef*%
D11*
%TO.P,REF\u002A\u002A,1*%
%TO.N,N/C*%
G36*
X91668275Y-105177632D02*
G01*
X91385432Y-105460475D01*
X90678325Y-104753368D01*
X90961168Y-104470525D01*
X91668275Y-105177632D01*
G37*
%TD.AperFunction*%
%TA.AperFunction,SMDPad,CuDef*%
G36*
X90906275Y-105812632D02*
G01*
X90623432Y-106095475D01*
X89916325Y-105388368D01*
X90199168Y-105105525D01*
X90906275Y-105812632D01*
G37*
%TD.AperFunction*%
%TD*%
%TA.AperFunction,SMDPad,CuDef*%
%TO.P,REF\u002A\u002A,1*%
%TO.N,N/C*%
G36*
X100609075Y-105177632D02*
G01*
X100326232Y-105460475D01*
X99619125Y-104753368D01*
X99901968Y-104470525D01*
X100609075Y-105177632D01*
G37*
%TD.AperFunction*%
%TA.AperFunction,SMDPad,CuDef*%
G36*
X99847075Y-105812632D02*
G01*
X99564232Y-106095475D01*
X98857125Y-105388368D01*
X99139968Y-105105525D01*
X99847075Y-105812632D01*
G37*
%TD.AperFunction*%
%TD*%
%TA.AperFunction,SMDPad,CuDef*%
%TO.P,REF\u002A\u002A,1*%
%TO.N,N/C*%
G36*
X109651475Y-105177632D02*
G01*
X109368632Y-105460475D01*
X108661525Y-104753368D01*
X108944368Y-104470525D01*
X109651475Y-105177632D01*
G37*
%TD.AperFunction*%
%TA.AperFunction,SMDPad,CuDef*%
G36*
X108889475Y-105812632D02*
G01*
X108606632Y-106095475D01*
X107899525Y-105388368D01*
X108182368Y-105105525D01*
X108889475Y-105812632D01*
G37*
%TD.AperFunction*%
%TD*%
%TA.AperFunction,SMDPad,CuDef*%
%TO.P,REF\u002A\u002A,1*%
%TO.N,N/C*%
G36*
X118643075Y-105177632D02*
G01*
X118360232Y-105460475D01*
X117653125Y-104753368D01*
X117935968Y-104470525D01*
X118643075Y-105177632D01*
G37*
%TD.AperFunction*%
%TA.AperFunction,SMDPad,CuDef*%
G36*
X117881075Y-105812632D02*
G01*
X117598232Y-106095475D01*
X116891125Y-105388368D01*
X117173968Y-105105525D01*
X117881075Y-105812632D01*
G37*
%TD.AperFunction*%
%TD*%
%TA.AperFunction,SMDPad,CuDef*%
%TO.P,REF\u002A\u002A,1*%
%TO.N,N/C*%
G36*
X127634675Y-105177632D02*
G01*
X127351832Y-105460475D01*
X126644725Y-104753368D01*
X126927568Y-104470525D01*
X127634675Y-105177632D01*
G37*
%TD.AperFunction*%
%TA.AperFunction,SMDPad,CuDef*%
G36*
X126872675Y-105812632D02*
G01*
X126589832Y-106095475D01*
X125882725Y-105388368D01*
X126165568Y-105105525D01*
X126872675Y-105812632D01*
G37*
%TD.AperFunction*%
%TD*%
%TA.AperFunction,SMDPad,CuDef*%
%TO.P,REF\u002A\u002A,1*%
%TO.N,N/C*%
G36*
X136638975Y-105164932D02*
G01*
X136356132Y-105447775D01*
X135649025Y-104740668D01*
X135931868Y-104457825D01*
X136638975Y-105164932D01*
G37*
%TD.AperFunction*%
%TA.AperFunction,SMDPad,CuDef*%
G36*
X135876975Y-105799932D02*
G01*
X135594132Y-106082775D01*
X134887025Y-105375668D01*
X135169868Y-105092825D01*
X135876975Y-105799932D01*
G37*
%TD.AperFunction*%
%TD*%
%TA.AperFunction,SMDPad,CuDef*%
%TO.P,REF\u002A\u002A,1*%
%TO.N,N/C*%
G36*
X145630575Y-105164932D02*
G01*
X145347732Y-105447775D01*
X144640625Y-104740668D01*
X144923468Y-104457825D01*
X145630575Y-105164932D01*
G37*
%TD.AperFunction*%
%TA.AperFunction,SMDPad,CuDef*%
G36*
X144868575Y-105799932D02*
G01*
X144585732Y-106082775D01*
X143878625Y-105375668D01*
X144161468Y-105092825D01*
X144868575Y-105799932D01*
G37*
%TD.AperFunction*%
%TD*%
%TA.AperFunction,SMDPad,CuDef*%
%TO.P,REF\u002A\u002A,1*%
%TO.N,N/C*%
G36*
X82638575Y-105114132D02*
G01*
X82355732Y-105396975D01*
X81648625Y-104689868D01*
X81931468Y-104407025D01*
X82638575Y-105114132D01*
G37*
%TD.AperFunction*%
%TA.AperFunction,SMDPad,CuDef*%
G36*
X81876575Y-105749132D02*
G01*
X81593732Y-106031975D01*
X80886625Y-105324868D01*
X81169468Y-105042025D01*
X81876575Y-105749132D01*
G37*
%TD.AperFunction*%
%TD*%
D12*
%TO.P,J1,2*%
%TO.N,N/C*%
X72136000Y-107696000D03*
D13*
%TO.P,J1,1*%
%TO.N,Net-(J1-Pad1)*%
X72136000Y-105156000D03*
%TD*%
D14*
%TO.N,*%
X146761200Y-106578400D03*
%TD*%
D15*
%TO.N,*%
X82237753Y-104996152D02*
X82234856Y-104998938D01*
X83642201Y-106400600D02*
X82237753Y-104996152D01*
X83642201Y-106400600D02*
X90855800Y-106400600D01*
X90855800Y-106400600D02*
X90932000Y-106324400D01*
X90932000Y-106121200D02*
X90530771Y-105719971D01*
X90932000Y-106324400D02*
X90932000Y-106121200D01*
X100126800Y-106375200D02*
X99471571Y-105719971D01*
X100126800Y-106527600D02*
X100126800Y-106375200D01*
X100025200Y-106629200D02*
X100126800Y-106527600D01*
X92862400Y-106629200D02*
X100025200Y-106629200D01*
X91490800Y-105257600D02*
X92862400Y-106629200D01*
X108864400Y-106781600D02*
X109016800Y-106629200D01*
X109016800Y-106222800D02*
X108513971Y-105719971D01*
X109016800Y-106629200D02*
X109016800Y-106222800D01*
X101955600Y-106781600D02*
X108864400Y-106781600D01*
X100533200Y-105359200D02*
X101955600Y-106781600D01*
X118160800Y-106578400D02*
X118160800Y-106375200D01*
X117906800Y-106832400D02*
X118160800Y-106578400D01*
X111048800Y-106832400D02*
X117906800Y-106832400D01*
X118160800Y-106375200D02*
X117505571Y-105719971D01*
X109524800Y-105308400D02*
X111048800Y-106832400D01*
X118516400Y-105308400D02*
X118516400Y-105359200D01*
X118516400Y-105359200D02*
X119989600Y-106832400D01*
X119989600Y-106832400D02*
X127050800Y-106832400D01*
X127050800Y-106832400D02*
X127254000Y-106629200D01*
X127254000Y-106476800D02*
X126497171Y-105719971D01*
X127254000Y-106629200D02*
X127254000Y-106476800D01*
X127508000Y-105308400D02*
X128828800Y-106629200D01*
X128828800Y-106629200D02*
X135890000Y-106629200D01*
X135890000Y-106629200D02*
X135991600Y-106527600D01*
X135991600Y-106197400D02*
X135501471Y-105707271D01*
X135991600Y-106527600D02*
X135991600Y-106197400D01*
X136512300Y-105321100D02*
X136512300Y-105333800D01*
X136512300Y-105333800D02*
X137960100Y-106781600D01*
X137960100Y-106781600D02*
X144868900Y-106781600D01*
X144868900Y-106781600D02*
X145072100Y-106578400D01*
X145072100Y-106286300D02*
X144493071Y-105707271D01*
X145072100Y-106578400D02*
X145072100Y-106286300D01*
X145491200Y-105321100D02*
X145503900Y-105321100D01*
X145503900Y-105321100D02*
X146761200Y-106578400D01*
D16*
%TO.N,Net-(J1-Pad1)*%
X72136000Y-105156000D02*
X72136000Y-105206800D01*
D15*
X72136000Y-105156000D02*
X73812400Y-106832400D01*
X73812400Y-106832400D02*
X82042000Y-106832400D01*
X82042000Y-106832400D02*
X82346800Y-106527600D01*
X82346800Y-106502200D02*
X81539171Y-105694571D01*
X82346800Y-106527600D02*
X82346800Y-106502200D01*
%TD*%
M02*
