0
SECTION
2
HEADER
9
$INSUNITS
70
4
9
$ACADVER
1
AC1014
9
$HANDSEED
5
FFFF
0
ENDSEC
0
SECTION
2
TABLES
0
TABLE
2
VPORT
5
8
100
AcDbSymbolTable
0
ENDTAB
0
TABLE
2
LTYPE
5
5
100
AcDbSymbolTable
0
LTYPE
5
14
100
AcDbSymbolTableRecord
100
AcDbLinetypeTableRecord
2
BYBLOCK
70
0
0
LTYPE
5
15
100
AcDbSymbolTableRecord
100
AcDbLinetypeTableRecord
2
BYLAYER
70
0
0
ENDTAB
0
TABLE
2
LAYER
5
2
100
AcDbSymbolTable
70
2
0
LAYER
5
50
100
AcDbSymbolTableRecord
100
AcDbLayerTableRecord
2
0
70
0
6
CONTINUOUS
0
ENDTAB
0
TABLE
2
STYLE
5
3
100
AcDbSymbolTable
70
1
0
STYLE
5
11
100
AcDbSymbolTableRecord
100
AcDbTextStyleTableRecord
2
STANDARD
70
0
0
ENDTAB
0
TABLE
2
VIEW
5
6
100
AcDbSymbolTable
70
0
0
ENDTAB
0
TABLE
2
UCS
5
7
100
AcDbSymbolTable
70
0
0
ENDTAB
0
TABLE
2
APPID
5
9
100
AcDbSymbolTable
70
2
0
APPID
5
12
100
AcDbSymbolTableRecord
100
AcDbRegAppTableRecord
2
ACAD
70
0
0
ENDTAB
0
TABLE
2
DIMSTYLE
5
A
100
AcDbSymbolTable
70
1
0
ENDTAB
0
TABLE
2
BLOCK_RECORD
5
1
100
AcDbSymbolTable
70
1
0
BLOCK_RECORD
5
1F
100
AcDbSymbolTableRecord
100
AcDbBlockTableRecord
2
*MODEL_SPACE
0
BLOCK_RECORD
5
1B
100
AcDbSymbolTableRecord
100
AcDbBlockTableRecord
2
*PAPER_SPACE
0
ENDTAB
0
ENDSEC
0
SECTION
2
BLOCKS
0
BLOCK
5
20
100
AcDbEntity
100
AcDbBlockBegin
2
*MODEL_SPACE
0
ENDBLK
5
21
100
AcDbEntity
100
AcDbBlockEnd
0
BLOCK
5
1C
100
AcDbEntity
100
AcDbBlockBegin
2
*PAPER_SPACE
0
ENDBLK
5
1D
100
AcDbEntity
100
AcDbBlockEnd
0
ENDSEC
0
SECTION
2
ENTITIES
0
CIRCLE
5
100
100
AcDbEntity
8
0
100
AcDbCircle
10
-71.477588930104062
20
-37.477552056449298
30
0
40
3.0000000000000071
210
0
220
0
230
1
0
CIRCLE
5
101
100
AcDbEntity
8
0
100
AcDbCircle
10
-71.477588930104062
20
-28.477552056449298
30
0
40
3.0000000000000071
210
0
220
0
230
1
0
CIRCLE
5
102
100
AcDbEntity
8
0
100
AcDbCircle
10
-80.477588930104076
20
-28.477552056449262
30
0
40
2.9999999999999982
210
0
220
0
230
1
0
CIRCLE
5
103
100
AcDbEntity
8
0
100
AcDbCircle
10
-71.477588930104062
20
-73.477552056449298
30
0
40
3.0000000000000071
210
0
220
0
230
1
0
CIRCLE
5
104
100
AcDbEntity
8
0
100
AcDbCircle
10
-80.477588930104076
20
-37.477552056449269
30
0
40
2.9999999999999982
210
0
220
0
230
1
0
CIRCLE
5
105
100
AcDbEntity
8
0
100
AcDbCircle
10
-71.477588930104062
20
-46.477552056449298
30
0
40
3.0000000000000071
210
0
220
0
230
1
0
CIRCLE
5
106
100
AcDbEntity
8
0
100
AcDbCircle
10
-80.477588930104076
20
-64.477552056449269
30
0
40
2.9999999999999982
210
0
220
0
230
1
0
CIRCLE
5
107
100
AcDbEntity
8
0
100
AcDbCircle
10
-71.477588930104062
20
-64.477552056449298
30
0
40
3.0000000000000071
210
0
220
0
230
1
0
CIRCLE
5
108
100
AcDbEntity
8
0
100
AcDbCircle
10
-80.477588930104076
20
-55.477552056449262
30
0
40
2.9999999999999982
210
0
220
0
230
1
0
CIRCLE
5
109
100
AcDbEntity
8
0
100
AcDbCircle
10
-71.477588930104062
20
-55.477552056449298
30
0
40
3.0000000000000071
210
0
220
0
230
1
0
CIRCLE
5
110
100
AcDbEntity
8
0
100
AcDbCircle
10
-80.477588930104076
20
-46.477552056449262
30
0
40
2.9999999999999982
210
0
220
0
230
1
0
CIRCLE
5
111
100
AcDbEntity
8
0
100
AcDbCircle
10
-80.477588930104076
20
-73.477552056449269
30
0
40
2.9999999999999982
210
0
220
0
230
1
0
CIRCLE
5
112
100
AcDbEntity
8
0
100
AcDbCircle
10
-71.477588930104062
20
-82.477552056449298
30
0
40
3.0000000000000071
210
0
220
0
230
1
0
CIRCLE
5
113
100
AcDbEntity
8
0
100
AcDbCircle
10
-80.477588930104076
20
-82.477552056449269
30
0
40
2.9999999999999982
210
0
220
0
230
1
0
CIRCLE
5
114
100
AcDbEntity
8
0
100
AcDbCircle
10
-71.477588930104062
20
-91.477552056449298
30
0
40
3.0000000000000071
210
0
220
0
230
1
0
CIRCLE
5
115
100
AcDbEntity
8
0
100
AcDbCircle
10
-80.477588930104076
20
-91.477552056449269
30
0
40
2.9999999999999982
210
0
220
0
230
1
0
CIRCLE
5
116
100
AcDbEntity
8
0
100
AcDbCircle
10
-75.99999999999676
20
-103.50667408842315
30
0
40
1.3499999999999979
210
0
220
0
230
1
0
CIRCLE
5
117
100
AcDbEntity
8
0
100
AcDbCircle
10
-75.99999999999676
20
-16.506674088423136
30
0
40
1.3499999999999979
210
0
220
0
230
1
0
LWPOLYLINE
5
118
100
AcDbEntity
8
0
100
AcDbPolyline
90
12
70
1
43
0.0
10
-49.24999999999676
20
-89.999999999999972
10
-64.24999999999676
20
-89.999999999999972
10
-64.249999999996746
20
-109.07149045281042
10
-87.74999999999676
20
-109.07149045281042
10
-87.74999999999676
20
-89.999999999999972
10
-102.74999999999679
20
-89.999999999999972
10
-102.74999999999679
20
-29.999999999999957
10
-87.74999999999676
20
-29.999999999999957
10
-87.74999999999676
20
-10.571490452810419
10
-64.24999999999676
20
-10.571490452810419
10
-64.24999999999676
20
-29.999999999999964
10
-49.24999999999676
20
-29.999999999999964
0
LWPOLYLINE
5
119
100
AcDbEntity
8
0
100
AcDbPolyline
90
4
70
1
43
0.0
10
-86.022412351392575
20
-108.50667408842315
10
-65.977587648600974
20
-108.50667408842315
10
-65.977587648600974
20
-11.506674088423134
10
-86.022412351392575
20
-11.506674088423132
0
LINE
5
120
100
AcDbEntity
8
0
100
AcDbLine
10
-75.99999999999676
20
-109.07149045281042
30
0
11
-75.99999999999676
21
-10.571490452810401
31
1.1418752117245546e-32
0
CIRCLE
5
121
100
AcDbEntity
8
0
100
AcDbCircle
10
-75.99999999999676
20
-103.50667408842315
30
0
40
1.3500000000000001
210
0
220
0
230
1
0
CIRCLE
5
122
100
AcDbEntity
8
0
100
AcDbCircle
10
-75.99999999999676
20
-16.506674088423136
30
0
40
1.3500000000000001
210
0
220
0
230
1
0
CIRCLE
5
123
100
AcDbEntity
8
0
100
AcDbCircle
10
-54.24999999999676
20
-84.999999999999943
30
0
40
1.5000000000000036
210
0
220
0
230
1
0
CIRCLE
5
124
100
AcDbEntity
8
0
100
AcDbCircle
10
-97.749999999996788
20
-84.999999999999943
30
0
40
1.5000000000000036
210
0
220
0
230
1
0
CIRCLE
5
125
100
AcDbEntity
8
0
100
AcDbCircle
10
-54.249999999996746
20
-34.999999999999972
30
0
40
1.4999999999999947
210
0
220
0
230
1
0
CIRCLE
5
126
100
AcDbEntity
8
0
100
AcDbCircle
10
-97.74999999999676
20
-34.999999999999972
30
0
40
1.5000000000000036
210
0
220
0
230
1
0
CIRCLE
5
127
100
AcDbEntity
8
0
100
AcDbCircle
10
-75.99999999999676
20
-59.999999999999957
30
5.7093760586227731e-33
40
3.0000000000000004
210
0
220
0
230
1
0
LINE
5
128
100
AcDbEntity
8
0
100
AcDbLine
10
-30.000001230213755
20
-59.999999999999964
30
0
11
-165.40960002778667
21
-59.999999999999957
31
-1.5003355890360057e-44
0
ENDSEC
0
SECTION
2
OBJECTS
0
DICTIONARY
5
C
100
AcDbDictionary
3
ACAD_GROUP
350
D
3
ACAD_MLINESTYLE
350
17
0
DICTIONARY
5
D
100
AcDbDictionary
0
DICTIONARY
5
1A
330
C
100
AcDbDictionary
0
DICTIONARY
5
17
100
AcDbDictionary
0
ENDSEC
0
EOF
