0
SECTION
2
HEADER
9
$INSUNITS
70
4
9
$ACADVER
1
AC1014
9
$HANDSEED
5
FFFF
0
ENDSEC
0
SECTION
2
TABLES
0
TABLE
2
VPORT
5
8
100
AcDbSymbolTable
0
ENDTAB
0
TABLE
2
LTYPE
5
5
100
AcDbSymbolTable
0
LTYPE
5
14
100
AcDbSymbolTableRecord
100
AcDbLinetypeTableRecord
2
BYBLOCK
70
0
0
LTYPE
5
15
100
AcDbSymbolTableRecord
100
AcDbLinetypeTableRecord
2
BYLAYER
70
0
0
ENDTAB
0
TABLE
2
LAYER
5
2
100
AcDbSymbolTable
70
2
0
LAYER
5
50
100
AcDbSymbolTableRecord
100
AcDbLayerTableRecord
2
0
70
0
6
CONTINUOUS
0
ENDTAB
0
TABLE
2
STYLE
5
3
100
AcDbSymbolTable
70
1
0
STYLE
5
11
100
AcDbSymbolTableRecord
100
AcDbTextStyleTableRecord
2
STANDARD
70
0
0
ENDTAB
0
TABLE
2
VIEW
5
6
100
AcDbSymbolTable
70
0
0
ENDTAB
0
TABLE
2
UCS
5
7
100
AcDbSymbolTable
70
0
0
ENDTAB
0
TABLE
2
APPID
5
9
100
AcDbSymbolTable
70
2
0
APPID
5
12
100
AcDbSymbolTableRecord
100
AcDbRegAppTableRecord
2
ACAD
70
0
0
ENDTAB
0
TABLE
2
DIMSTYLE
5
A
100
AcDbSymbolTable
70
1
0
ENDTAB
0
TABLE
2
BLOCK_RECORD
5
1
100
AcDbSymbolTable
70
1
0
BLOCK_RECORD
5
1F
100
AcDbSymbolTableRecord
100
AcDbBlockTableRecord
2
*MODEL_SPACE
0
BLOCK_RECORD
5
1B
100
AcDbSymbolTableRecord
100
AcDbBlockTableRecord
2
*PAPER_SPACE
0
ENDTAB
0
ENDSEC
0
SECTION
2
BLOCKS
0
BLOCK
5
20
100
AcDbEntity
100
AcDbBlockBegin
2
*MODEL_SPACE
0
ENDBLK
5
21
100
AcDbEntity
100
AcDbBlockEnd
0
BLOCK
5
1C
100
AcDbEntity
100
AcDbBlockBegin
2
*PAPER_SPACE
0
ENDBLK
5
1D
100
AcDbEntity
100
AcDbBlockEnd
0
ENDSEC
0
SECTION
2
ENTITIES
0
LINE
5
100
100
AcDbEntity
8
0
100
AcDbLine
10
-25.00000000000113
20
9.7000000000000011
30
0
11
-14.999999999999982
21
9.7000000000000011
31
2.129924444096731e-28
0
LINE
5
101
100
AcDbEntity
8
0
100
AcDbLine
10
-14.999999999999973
20
15.700000000000003
30
0
11
-25.00000000000113
21
15.700000000000003
31
-2.3665827156634054e-29
0
LINE
5
102
100
AcDbEntity
8
0
100
AcDbLine
10
-104.99999999999957
20
15.700000000000003
30
0
11
-14.999999999999574
21
15.700000000000003
31
0
0
LINE
5
103
100
AcDbEntity
8
0
100
AcDbLine
10
-14.999999999999574
20
15.700000000000003
30
0
11
-14.999999999999574
21
5.7000000000002604
31
0
0
LINE
5
104
100
AcDbEntity
8
0
100
AcDbLine
10
-14.999999999999574
20
5.7000000000002604
30
0
11
-104.99999999999972
21
5.7000000000000028
31
0
0
LINE
5
105
100
AcDbEntity
8
0
100
AcDbLine
10
-104.99999999999972
20
5.7000000000000028
30
0
11
-104.99999999999957
21
15.700000000000003
31
0
0
LINE
5
106
100
AcDbEntity
8
0
100
AcDbLine
10
-59.999999999999581
20
41.380071807766576
30
0
11
-59.999999999999574
21
19.999999999999996
31
0
0
CIRCLE
5
107
100
AcDbEntity
8
0
100
AcDbCircle
10
-64.499999999999588
20
10.500000000000277
30
0
40
1.4999999999999958
210
0
220
0
230
1
0
CIRCLE
5
108
100
AcDbEntity
8
0
100
AcDbCircle
10
-55.499999999999559
20
10.500000000000281
30
0
40
1.4999999999999993
210
0
220
0
230
1
0
CIRCLE
5
109
100
AcDbEntity
8
0
100
AcDbCircle
10
-73.499999999999574
20
10.500000000000277
30
0
40
1.4999999999999958
210
0
220
0
230
1
0
CIRCLE
5
110
100
AcDbEntity
8
0
100
AcDbCircle
10
-82.499999999999574
20
10.500000000000277
30
0
40
1.4999999999999958
210
0
220
0
230
1
0
CIRCLE
5
111
100
AcDbEntity
8
0
100
AcDbCircle
10
-91.499999999999574
20
10.500000000000277
30
0
40
1.4999999999999958
210
0
220
0
230
1
0
CIRCLE
5
112
100
AcDbEntity
8
0
100
AcDbCircle
10
-46.499999999999567
20
10.500000000000281
30
0
40
1.4999999999999993
210
0
220
0
230
1
0
CIRCLE
5
113
100
AcDbEntity
8
0
100
AcDbCircle
10
-37.499999999999567
20
10.500000000000281
30
0
40
1.4999999999999993
210
0
220
0
230
1
0
CIRCLE
5
114
100
AcDbEntity
8
0
100
AcDbCircle
10
-28.499999999999567
20
10.500000000000281
30
0
40
1.4999999999999993
210
0
220
0
230
1
0
LINE
5
115
100
AcDbEntity
8
0
100
AcDbLine
10
-102.99999999999969
20
15.700000000000003
30
0
11
-102.99999999999972
21
5.7000000000000082
31
0
0
LINE
5
116
100
AcDbEntity
8
0
100
AcDbLine
10
-16.999999999999606
20
15.700000000000003
30
0
11
-16.999999999999574
21
5.7000000000002551
31
0
0
LINE
5
117
100
AcDbEntity
8
0
100
AcDbLine
10
-14.999999999999982
20
9.7000000000000011
30
2.1299244440967207e-28
11
-25.00000000000113
21
9.7000000000000011
31
0
0
LWPOLYLINE
5
118
100
AcDbEntity
8
0
100
AcDbPolyline
90
4
70
1
43
0.0
10
-31.499999999999563
20
14.300000000000281
10
-25.499999999999563
20
14.300000000000281
10
-25.499999999999567
20
6.7000000000002791
10
-31.499999999999563
20
6.7000000000002791
0
LWPOLYLINE
5
119
100
AcDbEntity
8
0
100
AcDbPolyline
90
4
70
1
43
0.0
10
-40.499999999999574
20
14.300000000000278
10
-34.499999999999567
20
14.300000000000278
10
-34.499999999999559
20
6.7000000000002755
10
-40.499999999999574
20
6.7000000000002755
0
LINE
5
120
100
AcDbEntity
8
0
100
AcDbLine
10
-37.499999999999567
20
14.300000000000278
30
0
11
-37.499999999999567
21
6.7000000000002755
31
0
0
LINE
5
121
100
AcDbEntity
8
0
100
AcDbLine
10
-28.499999999999559
20
14.300000000000281
30
0
11
-28.499999999999567
21
6.7000000000002791
31
0
0
LINE
5
122
100
AcDbEntity
8
0
100
AcDbLine
10
-31.499999999999563
20
10.500000000000281
30
0
11
-25.499999999999563
21
10.500000000000281
31
0
0
LWPOLYLINE
5
123
100
AcDbEntity
8
0
100
AcDbPolyline
90
4
70
1
43
0.0
10
-49.499999999999567
20
14.300000000000278
10
-43.499999999999574
20
14.300000000000278
10
-43.499999999999559
20
6.7000000000002755
10
-49.499999999999567
20
6.7000000000002755
0
LINE
5
124
100
AcDbEntity
8
0
100
AcDbLine
10
-46.499999999999567
20
14.300000000000278
30
0
11
-46.499999999999559
21
6.7000000000002755
31
0
0
LWPOLYLINE
5
125
100
AcDbEntity
8
0
100
AcDbPolyline
90
4
70
1
43
0.0
10
-58.499999999999574
20
14.300000000000278
10
-52.499999999999567
20
14.300000000000278
10
-52.499999999999559
20
6.7000000000002755
10
-58.499999999999574
20
6.7000000000002755
0
LINE
5
126
100
AcDbEntity
8
0
100
AcDbLine
10
-55.499999999999559
20
14.300000000000278
30
0
11
-55.499999999999559
21
6.7000000000002755
31
0
0
LWPOLYLINE
5
127
100
AcDbEntity
8
0
100
AcDbPolyline
90
4
70
1
43
0.0
10
-67.499999999999559
20
14.300000000000278
10
-61.499999999999559
20
14.300000000000278
10
-61.499999999999559
20
6.7000000000002755
10
-67.499999999999559
20
6.7000000000002755
0
LINE
5
128
100
AcDbEntity
8
0
100
AcDbLine
10
-64.499999999999574
20
14.300000000000278
30
0
11
-64.499999999999574
21
6.7000000000002755
31
0
0
LWPOLYLINE
5
129
100
AcDbEntity
8
0
100
AcDbPolyline
90
4
70
1
43
0.0
10
-76.499999999999574
20
14.300000000000278
10
-70.499999999999559
20
14.300000000000278
10
-70.499999999999559
20
6.7000000000002755
10
-76.499999999999574
20
6.7000000000002755
0
LINE
5
130
100
AcDbEntity
8
0
100
AcDbLine
10
-73.499999999999574
20
14.300000000000278
30
0
11
-73.499999999999559
21
6.7000000000002755
31
0
0
LWPOLYLINE
5
131
100
AcDbEntity
8
0
100
AcDbPolyline
90
4
70
1
43
0.0
10
-85.499999999999574
20
14.300000000000278
10
-79.499999999999574
20
14.300000000000278
10
-79.499999999999574
20
6.7000000000002755
10
-85.499999999999574
20
6.7000000000002755
0
LINE
5
132
100
AcDbEntity
8
0
100
AcDbLine
10
-82.499999999999574
20
14.300000000000278
30
0
11
-82.499999999999574
21
6.7000000000002755
31
0
0
LWPOLYLINE
5
133
100
AcDbEntity
8
0
100
AcDbPolyline
90
4
70
1
43
0.0
10
-94.499999999999574
20
14.300000000000278
10
-88.499999999999545
20
14.300000000000278
10
-88.499999999999545
20
6.7000000000002755
10
-94.499999999999574
20
6.7000000000002755
0
LINE
5
134
100
AcDbEntity
8
0
100
AcDbLine
10
-91.499999999999559
20
14.300000000000278
30
0
11
-91.499999999999559
21
6.7000000000002755
31
0
0
LINE
5
135
100
AcDbEntity
8
0
100
AcDbLine
10
-14.999999999999982
20
9.7000000000000011
30
2.129924444096731e-28
11
-14.999999999999973
21
15.700000000000003
31
0
0
LWPOLYLINE
5
136
100
AcDbEntity
8
0
100
AcDbPolyline
90
4
70
1
43
0.0
10
-104.99999999999957
20
9.7000000000000011
10
-104.99999999999957
20
15.700000000000003
10
-94.999999999999574
20
15.700000000000003
10
-94.999999999999574
20
9.7000000000000011
0
LINE
5
137
100
AcDbEntity
8
0
100
AcDbLine
10
-14.999999999999973
20
15.700000000000003
30
0
11
-14.999999999999973
21
17.700000000000003
31
0
0
LINE
5
138
100
AcDbEntity
8
0
100
AcDbLine
10
-14.999999999999973
20
17.700000000000003
30
0
11
-105.00000104308114
21
17.700000000000003
31
0
0
LINE
5
139
100
AcDbEntity
8
0
100
AcDbLine
10
-105.00000104308114
20
17.700000000000003
30
0
11
-104.99999999999957
21
15.700000000000003
31
0
0
ENDSEC
0
SECTION
2
OBJECTS
0
DICTIONARY
5
C
100
AcDbDictionary
3
ACAD_GROUP
350
D
3
ACAD_MLINESTYLE
350
17
0
DICTIONARY
5
D
100
AcDbDictionary
0
DICTIONARY
5
1A
330
C
100
AcDbDictionary
0
DICTIONARY
5
17
100
AcDbDictionary
0
ENDSEC
0
EOF
